<svg width="1440" height="1024" viewBox="0 0 1440 1024" fill="none" xmlns="http://www.w3.org/2000/svg">
<rect width="1440" height="1024" fill="white"/>
<mask id="mask0" mask-type="alpha" maskUnits="userSpaceOnUse" x="440" y="361" width="519" height="560">
<path d="M508.338 363.134L920.652 461.514C944.594 467.227 960.582 489.814 958.011 514.294L919.346 882.465C916.923 905.534 896.258 922.271 873.189 919.848C872.936 919.821 872.683 919.793 872.431 919.761L477.056 870.963C455.714 868.329 439.809 850.001 440.208 828.5L447.974 409.887C448.476 382.83 470.817 361.303 497.874 361.805C501.4 361.87 504.908 362.316 508.338 363.134Z" fill="white"/>
</mask>
<g mask="url(#mask0)">
<path d="M508.338 363.134L920.652 461.514C944.594 467.227 960.582 489.814 958.011 514.294L919.346 882.465C916.923 905.534 896.258 922.271 873.189 919.848C872.936 919.821 872.683 919.793 872.431 919.761L477.056 870.963C455.714 868.329 439.809 850.001 440.208 828.5L447.974 409.887C448.476 382.83 470.817 361.303 497.874 361.805C501.4 361.87 504.908 362.316 508.338 363.134Z" fill="#F2FF9E"/>
<path fill-rule="evenodd" clip-rule="evenodd" d="M439.505 810.944L684.5 637L770.5 703L652 905.5L446.005 886C442.648 863.936 440.481 847.269 439.505 836C438.529 824.732 438.529 816.379 439.505 810.944Z" fill="#CEDF62"/>
</g>
<path d="M673.005 403.928C673.009 404.064 673.002 404.202 672.982 404.341L661.923 484.557C667.746 486.253 672.001 491.63 672.001 498C672.001 505.686 665.808 511.925 658.14 511.999L651.424 560.713C656.988 562.565 661.001 567.814 661.001 574C661.001 581.51 655.088 587.638 647.664 587.985L635.482 676.341C635.294 677.709 634.032 678.665 632.664 678.477C631.297 678.288 630.341 677.026 630.529 675.659L642.707 587.329C637.075 585.517 633.001 580.234 633.001 574C633.001 566.445 638.986 560.287 646.474 560.01L653.209 511.158C647.837 509.201 644.001 504.049 644.001 498C644.001 490.622 649.707 484.578 656.947 484.039L668.029 403.659C668.044 403.549 668.066 403.442 668.095 403.339L527.006 455.5L616.506 388.5L719.506 413L761.506 504L673.005 403.928ZM882.124 595.816L886.877 597.366L786.133 906.275L781.379 904.725L882.124 595.816ZM561.506 726L441.006 810L448.006 404L468.815 460.697L561.506 726Z" fill="#B1BF58"/>
<mask id="mask1" mask-type="alpha" maskUnits="userSpaceOnUse" x="638" y="115" width="215" height="301">
<path d="M745.586 353.545L745.546 415.267L639.943 409.517L638.875 281.286C638.497 278.092 638.303 274.841 638.303 271.545V197.366C638.303 152.078 675.015 115.366 720.303 115.366H770.662C815.949 115.366 852.662 152.078 852.662 197.366V271.545C852.662 316.833 815.949 353.545 770.662 353.545H745.586Z" fill="white"/>
</mask>
<g mask="url(#mask1)">
<path d="M730.263 352.223L719.505 413L616.505 389L637.721 262.532C637.903 259.32 638.276 256.085 638.848 252.839L651.73 179.786C659.594 135.187 702.124 105.407 746.723 113.271L796.317 122.016C840.916 129.88 870.696 172.41 862.832 217.01L849.951 290.062C842.087 334.662 799.557 364.441 754.957 356.577L730.263 352.223Z" fill="#81A6FF"/>
</g>
<mask id="mask2" mask-type="alpha" maskUnits="userSpaceOnUse" x="637" y="115" width="216" height="301">
<path d="M745.199 353.513L745.159 415.235L639.556 409.485L638.489 281.254C638.11 278.06 637.916 274.809 637.916 271.513V197.333C637.916 152.046 674.629 115.333 719.916 115.333H770.275C815.562 115.333 852.275 152.046 852.275 197.333V271.513C852.275 316.801 815.562 353.513 770.275 353.513H745.199Z" fill="white"/>
</mask>
<g mask="url(#mask2)">
<path d="M729.877 352.191L719.119 412.968L616.119 388.968L637.335 262.499C637.517 259.288 637.89 256.053 638.463 252.807L651.344 179.754C659.208 135.155 701.738 105.375 746.337 113.239L795.931 121.984C840.53 129.848 870.31 172.378 862.446 216.977L849.565 290.03C841.701 334.629 799.171 364.409 754.572 356.545L729.877 352.191Z" fill="#FF8181"/>
<path fill-rule="evenodd" clip-rule="evenodd" d="M651.506 195.5L848.006 124L733.326 99L642.506 116.426L651.506 195.5Z" fill="#383838"/>
</g>
<path d="M609.29 143.87L603.422 142.622C574.25 136.422 545.575 155.043 539.374 184.215L538.127 190.084C531.926 219.256 550.548 247.93 579.72 254.131L585.588 255.379C614.76 261.579 643.435 242.957 649.636 213.786L650.883 207.917C657.084 178.745 638.462 150.07 609.29 143.87Z" fill="#383838"/>
<path fill-rule="evenodd" clip-rule="evenodd" d="M755.506 304.5L772.7 318.255C776.183 321.042 780.302 322.922 784.689 323.728L796.6 325.915C800.407 326.615 804.34 325.91 807.667 323.931L821.006 316L810.951 305.945C809.105 304.099 806.475 303.27 803.904 303.724L799.506 304.5L791.131 299.551C789.44 298.552 787.441 298.21 785.515 298.589L755.506 304.5Z" fill="#383838"/>
<path d="M861.006 223C846.923 218.071 831.677 219.833 814.253 226.555" stroke="#4F72C5" stroke-width="3" stroke-linecap="round" stroke-linejoin="round"/>
<path fill-rule="evenodd" clip-rule="evenodd" d="M783.066 289.837L815.498 296.125C818.209 296.65 820.833 294.879 821.358 292.168C821.506 291.406 821.474 290.62 821.266 289.872C817.491 276.343 815.439 265.809 815.112 258.27C814.725 249.336 813.058 245.67 810.112 247.27L811.506 223.3L809.006 223.3C797.246 252.12 790.744 268.62 789.5 272.8C788.726 275.4 778.186 276.611 777.112 281.77C776.915 282.719 777.219 284.081 778.024 285.857C778.961 287.922 780.84 289.405 783.066 289.837Z" fill="#C55858"/>
<path d="M905.48 402.314L888.4 398.994L842.594 634.649L859.674 637.969L905.48 402.314Z" fill="#8C8C8C"/>
<path d="M884.027 476.712L880.421 476.011C869.036 473.798 858.013 481.234 855.8 492.619L829.407 628.398C827.194 639.783 834.629 650.806 846.014 653.019L849.62 653.72C861.005 655.933 872.028 648.498 874.241 637.113L900.634 501.334C902.847 489.949 895.412 478.925 884.027 476.712Z" fill="#383838"/>
<path fill-rule="evenodd" clip-rule="evenodd" d="M901.145 368.736L904.752 369.437C916.137 371.65 923.572 382.673 921.359 394.058L917.768 412.53C916.707 417.992 912.031 422.007 906.472 422.231C901.386 422.436 897.062 422.192 893.501 421.5C889.773 420.776 885.246 419.242 879.919 416.899C874.786 414.641 871.901 409.129 872.971 403.624L876.524 385.343C878.737 373.958 889.761 366.523 901.145 368.736Z" fill="#383838"/>
<path fill-rule="evenodd" clip-rule="evenodd" d="M813.144 349.38C792 315.542 790.534 275.844 802.001 241C810.848 214.115 826.517 190.098 852.235 174.028C872.367 161.448 893.796 156.646 915.501 156C928.518 155.613 941.795 155.518 954.501 159.5C967.32 163.518 983.966 171.22 995.501 179.5C1009.38 189.466 1017.68 200.879 1026.98 215.763C1038.51 234.214 1044.49 254.787 1046 275C1046.8 285.708 1044.93 299.927 1043 310C1040.08 325.216 1035.43 335.864 1027 349.5C1017.32 365.164 1004.59 380.677 987.885 391.115C975.268 398.999 962.033 404.757 948.501 407.5C928.449 411.565 907.801 409.708 888.001 404C874.812 400.198 859.795 393.703 848.001 386C833.53 376.55 822.838 364.893 813.144 349.38ZM827.883 340.493C859.885 391.708 927.021 407.485 977.835 375.732C1028.65 343.98 1043.9 276.723 1011.9 225.508C979.895 174.294 912.759 158.517 861.945 190.269C811.13 222.021 795.88 289.279 827.883 340.493Z" fill="#898989"/>
<mask id="mask3" mask-type="alpha" maskUnits="userSpaceOnUse" x="808" y="172" width="223" height="221">
<path d="M919.328 392.075C943.69 392.075 966.484 383.19 984.682 369.574C989.118 366.255 993.636 363.162 997.56 359.344C1011.89 345.403 1021.75 327.976 1026.88 308.579C1029.08 300.285 1030.25 291.534 1030.25 282.362C1030.25 232.374 995.329 192.541 949.101 179.308C939.294 176.501 930.049 172.649 919.328 172.649C884.152 172.649 854.098 190.466 833.776 215.73C818.707 234.464 808.406 256.562 808.406 282.362C808.406 303.405 815.401 323.158 825.785 339.856C845.303 371.242 879.342 392.075 919.328 392.075Z" fill="white"/>
</mask>
<g mask="url(#mask3)">
<path d="M826.287 340.502C839.196 361.161 858.81 375.783 880.001 384C885.167 386.004 890.184 388.196 895.501 389.5C914.916 394.264 934.922 393.393 954.091 387.466C962.287 384.932 970.33 381.29 978.108 376.43C1020.5 349.94 1035.78 299.217 1022.5 253C1019.68 243.197 1018.05 233.315 1012.37 224.223C993.73 194.392 962.694 178.346 930.501 174.5C906.628 171.648 882.429 174.623 860.549 188.295C842.704 199.446 829.659 215.845 821.001 233.5C804.727 266.684 805.097 306.591 826.287 340.502Z" fill="white"/>
<path opacity="0.65332" fill-rule="evenodd" clip-rule="evenodd" d="M939.556 264.736C934.781 262.716 931.195 261.608 925.897 260.482C920.379 259.309 915.061 259.085 909.606 259.023C903.24 258.95 897.143 260.115 890.863 261.554C885.522 262.778 877.505 265.683 866.812 270.269C874.021 278.561 879.683 284.303 883.798 287.493C890.079 292.363 896.016 296.981 903.346 299.813C906.369 300.981 910.035 302.271 913.533 303.25L855.975 388.44L810.266 324.939L974.76 152.43L1000.09 175.148L939.556 264.736ZM956.913 274.623C954.618 272.916 952.147 271.29 949.596 269.792L1008.17 184.53L1014.49 186.463L956.913 274.623ZM936.727 305.531L871.566 405.301L865.987 391.503L925.194 305.315C926.779 305.45 928.374 305.546 930.015 305.633C932.257 305.752 934.494 305.707 936.727 305.531Z" fill="#E0E0E0"/>
<path d="M939.551 307.883C936.192 308.297 933.019 308.413 929.786 308.241C925.876 308.033 923.022 307.799 920.346 307.404L915.263 332.242C914.986 333.594 913.665 334.467 912.313 334.19C910.96 333.913 910.088 332.592 910.365 331.239L915.435 306.462C911.552 305.542 906.94 304.03 902.349 302.256C900.302 301.466 898.341 300.546 896.356 299.453L881.812 311.906C880.764 312.804 879.185 312.682 878.287 311.633C877.389 310.584 877.512 309.006 878.56 308.108L891.862 296.719C890.461 295.791 889.013 294.77 887.485 293.639C886.008 292.546 884.895 291.693 882.17 289.58C877.897 286.267 872.137 280.426 864.829 272.021C863.718 270.742 864.173 268.751 865.73 268.083C876.551 263.442 884.688 260.493 890.209 259.228C898.269 257.381 903.736 256.568 909.539 256.634C916.577 256.715 921.315 257.084 926.321 258.148C931.903 259.334 935.674 260.515 940.707 262.661C946.853 265.281 953.086 268.837 958.343 272.754C962.949 276.186 969.519 282.58 978.122 291.981C979.273 293.239 978.855 295.254 977.3 295.95C969.269 299.548 963.24 301.971 959.171 303.23C953.634 304.943 948.935 306.212 944.666 307.054L950.973 320.938C951.544 322.195 950.987 323.677 949.73 324.248C948.473 324.819 946.991 324.263 946.42 323.006L939.551 307.883ZM957.693 298.454C960.99 297.434 965.792 295.546 972.072 292.798C964.824 285.009 959.234 279.653 955.356 276.763C950.42 273.087 944.533 269.727 938.747 267.261C934.014 265.243 930.552 264.159 925.281 263.039C920.665 262.057 916.218 261.711 909.481 261.634C904.16 261.573 899.033 262.336 891.326 264.102C886.696 265.163 879.865 267.575 870.879 271.332C876.91 278.122 881.71 282.896 885.234 285.629C887.928 287.718 889.023 288.557 890.459 289.62C895.601 293.424 899.694 295.87 904.151 297.592C909.008 299.469 913.883 301.036 917.695 301.846C921.334 302.62 924.572 302.956 930.052 303.248C937.967 303.669 945.712 302.161 957.693 298.454ZM919.881 292.753C916.771 292.091 913.313 288.634 911.898 285.905C910.695 283.587 910.938 281.091 911.542 278.25C912.153 275.379 913.581 273.294 915.656 271.663C918.049 269.783 921.258 268.614 924.34 269.269C927.847 270.014 932.43 271.644 933.712 274.9C934.533 276.986 935.395 281.1 934.882 283.515C934.382 285.868 932.451 288.241 930.914 289.798C928.412 292.333 923.446 293.51 919.881 292.753Z" fill="#383838"/>
</g>
<path fill-rule="evenodd" clip-rule="evenodd" d="M712.185 223.522C714.647 235.862 724.769 244.896 742.552 250.625C760.335 256.353 773.761 254.625 782.83 245.442C776.278 230.726 766.873 221.447 754.615 217.606C742.358 213.765 728.214 215.737 712.185 223.522Z" fill="white"/>
<path fill-rule="evenodd" clip-rule="evenodd" d="M758.342 244.977C761.243 245.18 764.099 243.794 765.801 241.418C766.847 239.958 767.345 238.085 767.484 236.093C767.627 234.049 767.435 232.204 766.559 230.587C765.191 228.064 762.522 226.223 759.668 226.024C757.159 225.848 754.644 226.449 752.956 228.275C751.493 229.858 750.696 232.477 750.526 234.908C750.358 237.312 750.806 240.05 752.009 241.814C753.425 243.888 755.811 244.8 758.342 244.977Z" fill="#383838"/>
<path fill-rule="evenodd" clip-rule="evenodd" d="M711.759 223.599C731.551 225.571 746.888 228.221 757.771 231.549C768.654 234.877 777.198 239.531 783.405 245.511C780.468 230.432 770.739 220.512 754.219 215.751C737.698 210.99 723.545 213.606 711.759 223.599Z" fill="#C55858"/>
<path fill-rule="evenodd" clip-rule="evenodd" d="M788.822 240.564L743 199.5L746 184L802 236.5C800.936 240.813 796.577 243.447 792.264 242.383C790.985 242.068 789.803 241.443 788.822 240.564Z" fill="#383838"/>
<path fill-rule="evenodd" clip-rule="evenodd" d="M616.506 388.5L595.176 323.03C586.056 295.036 592.072 264.316 611.078 241.83L651.506 194L616.506 388.5Z" fill="#383838"/>
<mask id="mask4" mask-type="alpha" maskUnits="userSpaceOnUse" x="685" y="482" width="257" height="219">
<path d="M685.495 639.645L841.208 496.734C845.658 492.65 851.104 489.811 857 488.5L854 501.5L908.44 482.883C915.5 480.468 923.213 484.015 925.975 490.947C926.517 492.306 927.172 493.753 927.942 495.289C933.343 506.074 933.343 515.823 927.942 524.534C935.836 527.023 940.407 533.037 941.653 542.578C942.9 552.119 940.615 559.586 934.797 564.978C944.197 582.495 937.617 604.316 920.1 613.716C919.107 614.249 918.09 614.734 917.051 615.172L913.607 616.623L790.202 657.689L766.518 700L685.495 639.645Z" fill="white"/>
</mask>
<g mask="url(#mask4)">
<path d="M685.495 639.645L841.208 496.734C845.658 492.65 851.104 489.811 857 488.5L854 501.5L908.44 482.883C915.5 480.468 923.213 484.015 925.975 490.947C926.517 492.306 927.172 493.753 927.942 495.289C933.343 506.074 933.343 515.823 927.942 524.534C935.836 527.023 940.407 533.037 941.653 542.578C942.9 552.119 940.615 559.586 934.797 564.978C944.197 582.495 937.617 604.316 920.1 613.716C919.107 614.249 918.09 614.734 917.051 615.172L913.607 616.623L790.202 657.689L766.518 700L685.495 639.645Z" fill="#FF8181"/>
<path fill-rule="evenodd" clip-rule="evenodd" d="M858 500L820.495 516C828.094 504.924 834.762 497.09 840.5 492.5C846.238 487.911 852.905 485.077 860.5 484L858 500Z" fill="#C55858"/>
<path d="M933.598 564.799C934.262 564.303 935.201 564.439 935.697 565.103C936.193 565.767 936.056 566.707 935.393 567.202C931.067 570.433 925.893 572.847 919.882 574.45C919.081 574.663 918.259 574.188 918.046 573.387C917.832 572.587 918.308 571.765 919.109 571.551C924.764 570.043 929.59 567.791 933.598 564.799ZM926.136 523.71C926.809 523.228 927.746 523.383 928.229 524.056C928.711 524.73 928.556 525.667 927.883 526.149C923.392 529.366 918.099 531.671 912.016 533.067C911.208 533.252 910.403 532.748 910.218 531.94C910.033 531.133 910.537 530.328 911.345 530.143C917.053 528.833 921.979 526.688 926.136 523.71Z" fill="#C55858"/>
</g>
<path fill-rule="evenodd" clip-rule="evenodd" d="M642.506 265C662.94 265 679.506 249.106 679.506 229.5C679.506 209.894 662.94 194 642.506 194C622.071 194 605.506 209.894 605.506 229.5C605.506 244.824 615.625 257.88 629.802 262.852C633.764 264.242 638.043 265 642.506 265Z" fill="#FF8181"/>
<mask id="mask5" mask-type="alpha" maskUnits="userSpaceOnUse" x="602" y="256" width="59" height="75">
<path d="M621.048 258.478C623.964 260.263 627.12 261.879 630.603 263.176C627.906 263.669 625.314 264.912 623.156 266.915C612.028 277.245 607.492 292.864 611.356 307.547L611.994 309.971C612.506 311.917 613.375 313.75 614.557 315.378C619.823 322.63 629.971 324.24 637.223 318.973L637.852 318.516C650.735 309.161 655.486 292.171 649.325 277.49L647.051 272.073C646.374 270.46 645.419 268.98 644.23 267.698C642.646 265.992 640.755 264.74 638.722 263.948C639.608 259.755 640.162 257.122 640.386 256.05C643.982 257.216 647.339 259.288 650.093 262.255C651.921 264.224 653.388 266.499 654.428 268.977L656.701 274.394C664.3 292.499 658.441 313.452 642.553 324.99L641.924 325.446C631.097 333.309 615.946 330.906 608.084 320.079C606.319 317.648 605.021 314.911 604.257 312.007L603.619 309.583C599.005 292.045 604.422 273.39 617.713 261.052C618.763 260.077 619.88 259.219 621.048 258.478Z" fill="white"/>
</mask>
<g mask="url(#mask5)">
<path d="M621.048 258.478C623.964 260.263 627.12 261.879 630.603 263.176C627.906 263.669 625.314 264.912 623.156 266.915C612.028 277.245 607.492 292.864 611.356 307.547L611.994 309.971C612.506 311.917 613.375 313.75 614.557 315.378C619.823 322.63 629.971 324.24 637.223 318.973L637.852 318.516C650.735 309.161 655.486 292.171 649.325 277.49L647.051 272.073C646.374 270.46 645.419 268.98 644.23 267.698C642.646 265.992 640.755 264.74 638.722 263.948C639.608 259.755 640.162 257.122 640.386 256.05C643.982 257.216 647.339 259.288 650.093 262.255C651.921 264.224 653.388 266.499 654.428 268.977L656.701 274.394C664.3 292.499 658.441 313.452 642.553 324.99L641.924 325.446C631.097 333.309 615.946 330.906 608.084 320.079C606.319 317.648 605.021 314.911 604.257 312.007L603.619 309.583C599.005 292.045 604.422 273.39 617.713 261.052C618.763 260.077 619.88 259.219 621.048 258.478Z" fill="#F2FF9E"/>
<path fill-rule="evenodd" clip-rule="evenodd" d="M606 241L642.5 237.5L624 353L591.5 345L606 241Z" fill="#CEDF62"/>
</g>
<path fill-rule="evenodd" clip-rule="evenodd" d="M400.98 171V246.424L470 230.477L406.157 267.542L470 289.954L400.98 281.765L406.157 349L379.412 287.368L342.314 336.932L366.471 277.024C318.157 260.646 294 252.458 294 252.458C294 252.458 318.157 253.463 366.471 255.475L342.314 202.462L379.412 241.683L400.98 171ZM1073.76 615.795L1070.3 516.703L996.392 550.154L1055.76 491.984L982.846 438.233L1068.68 470.272L1058.82 382.175L1096.68 461.924L1143.01 395.109L1114.11 474.921C1173.65 477.864 1203.41 479.335 1203.41 479.335C1203.41 479.335 1173.98 487.301 1115.1 503.233L1149.18 571.776L1098.78 521.945L1073.76 615.795Z" fill="#383838"/>
<path fill-rule="evenodd" clip-rule="evenodd" d="M300.879 540.973L319.843 587.954L283.105 583.114L318.877 600.9C292.196 620.732 278.856 630.648 278.856 630.648C278.856 630.648 295.295 624.558 328.172 612.378L341.106 654.74L339.548 612.289L380.422 633.546L348.656 599.972L389.064 574.472L345.287 590.157L363.41 542.792L333.412 581.148L300.879 540.973Z" fill="#383838"/>
<path d="M320.659 696.49C375.606 681.767 408.214 625.289 393.491 570.342C378.768 515.395 322.289 482.787 267.342 497.51C212.395 512.233 179.787 568.711 194.51 623.658C209.233 678.605 265.712 711.213 320.659 696.49Z" fill="#383838"/>
<path d="M267.871 609.725L270.31 618.828L261.926 621.074L263.755 627.901L252.976 630.79L251.146 623.963L221.562 631.89L219.123 622.787L241.743 588.869L252.523 585.98L259.487 611.971L267.871 609.725ZM230.741 619.674L248.707 614.86L244.631 599.648L230.741 619.674ZM299.669 618.92C283.02 623.381 273.061 617.834 269.322 603.88C265.599 589.986 271.466 580.262 288.115 575.801C304.704 571.356 314.723 576.888 318.43 590.722C322.152 604.616 316.257 614.475 299.669 618.92ZM297.246 609.877C306.708 607.342 309.752 601.455 307.65 593.61C305.564 585.825 300 582.309 290.538 584.844C281.076 587.38 278 593.146 280.102 600.992C282.22 608.897 287.783 612.413 297.246 609.877ZM372.075 581.803L374.514 590.906L366.13 593.153L367.959 599.98L357.18 602.868L355.35 596.041L325.766 603.968L323.327 594.865L345.947 560.947L356.727 558.059L363.691 584.05L372.075 581.803ZM334.945 591.752L352.911 586.938L348.835 571.727L334.945 591.752Z" fill="white"/>
<path fill-rule="evenodd" clip-rule="evenodd" d="M750.325 266.923C748.173 266.427 747.627 264.615 748 263C748.373 261.386 749.522 260.58 751.675 261.077C753.827 261.574 754.373 263.386 754 265C753.627 266.615 752.478 267.42 750.325 266.923ZM771.325 265.923C769.173 265.427 768.627 264.615 769 263C769.373 261.386 770.522 259.58 772.675 260.077C774.827 260.574 775.373 262.386 775 264C774.627 265.615 773.478 266.42 771.325 265.923ZM762.325 276.923C760.173 276.427 759.627 274.615 760 273C760.373 271.386 761.522 270.58 763.675 271.077C765.827 271.574 766.373 272.886 766 274.5C765.627 276.115 764.478 277.42 762.325 276.923ZM742.325 279.923C740.173 279.427 739.127 278.615 739.5 277C739.873 275.386 741.522 273.58 743.675 274.077C745.827 274.574 745.873 275.886 745.5 277.5C745.127 279.115 744.478 280.42 742.325 279.923ZM728.325 262.923C726.173 262.427 725.127 261.115 725.5 259.5C725.873 257.886 727.522 256.58 729.675 257.077C731.827 257.574 732.373 259.886 732 261.5C731.627 263.115 730.478 263.42 728.325 262.923Z" fill="#C55858"/>
</svg>
