<svg id="Layer_1" data-name="Layer 1" xmlns="http://www.w3.org/2000/svg" xmlns:xlink="http://www.w3.org/1999/xlink" viewBox="0 0 2395 1800"><defs><style>.cls-1,.cls-11,.cls-3,.cls-4,.cls-7{fill:none;}.cls-2,.cls-6{fill:#ff3636;}.cls-10,.cls-11,.cls-12,.cls-13,.cls-14,.cls-15,.cls-2,.cls-3,.cls-4,.cls-7,.cls-8{stroke:#000;}.cls-10,.cls-12,.cls-13,.cls-2,.cls-3,.cls-7{stroke-miterlimit:10;}.cls-12,.cls-13,.cls-14,.cls-15,.cls-2,.cls-3,.cls-4,.cls-8{stroke-width:6px;}.cls-11,.cls-14,.cls-15,.cls-4,.cls-8{stroke-linecap:round;stroke-linejoin:round;}.cls-10,.cls-5,.cls-8{fill:#fff;}.cls-10,.cls-7{stroke-width:7px;}.cls-9{fill:#301f77;}.cls-11{stroke-width:19px;}.cls-12,.cls-15{fill:#f8be5a;}.cls-13,.cls-14{fill:#80bfff;}.cls-16{clip-path:url(#clip-path);}</style><clipPath id="clip-path"><path class="cls-1" d="M1618,1191l67,256-82.39,99h-397.9l0-.34a38.67,38.67,0,0,1,28.29-42.39l27-7.27-13.44-26.89c-17.72-35.43,8-77.11,47.65-77.11h125L1393,1287Z"/></clipPath></defs><title>Artboard 1 copy 5</title><path class="cls-2" d="M1317,428c55.91,57,90.1,109.07,109.73,142.63,86.21,147.39,62.43,271.55,148.41,582.91,14.07,51,20.15,106.49,34.23,157.46,133.88-41.84,275.75-88.24,409.63-130.08l-200.82-121c2.25-6.65,14.9-46.05-6.85-86.72-24.37-45.57-71.66-54.85-77.59-55.91,4.91-9.85,20-43.16,9.13-82.15-12-43.09-50.79-75.92-99.27-84.44,3.24-7.64,23.52-57.8-2.28-111.82C1613.88,581.5,1557,567,1549.6,565.27c2.8-3.27,52.65-63.53,28.4-137.27-20-60.91-75.1-83.86-83-87-10.44-2.45-72.26-15.91-127,23C1337.55,385.65,1323.12,413.67,1317,428Z"/><path class="cls-3" d="M1418.57,424.35,1170,283.85h0c54-52.3,137.31-44.59,173.79,16.08Z"/><path class="cls-3" d="M1419,418l381,22h0c-22.39-90.59-121.36-138.76-206.47-100.49Z"/><line class="cls-4" x1="1421" y1="413" x2="1670" y2="550"/><path class="cls-5" d="M1464.5,446.5c8.42,10.67,26,38,34.5,68.5s10.83,54.24,11.21,60c2.6,39.81,30.92,212,114.79,663a408.67,408.67,0,0,1-160,131c-26.71-29.72-54.3-62.68-82-99-32.54-42.67-60.69-84-85-123l-357,14c-37.43-1.68-127.16-11.2-191-79-36.34-38.59-48.82-79.64-70.42-150.63-20.25-66.58-24.76-120.75-34.49-215-3.31-32-5.5-68-5.73-109.92,0-.71,0-1.42,0-2.13A177,177,0,0,1,805.12,426.82L1019.77,413h.19c199.89-10.54,220.7-16.53,279.54-13.49C1376.64,403.48,1433.48,407.19,1464.5,446.5Z"/><path class="cls-6" d="M1473,452c-45.45,15.59-111.39,31.65-199,29-118-3.57-207.2-42.92-254.24-68h0c83.75-2.26,150.7-6.53,196.23-10,70.46-5.37,110.49-7.45,166,4C1445,420,1452.05,438.31,1473,452Z"/><path class="cls-6" d="M1020,413S795.93,546.07,656.47,527.53h0A177.17,177.17,0,0,1,805.12,426.82L1019.77,413h.23Z"/><path class="cls-7" d="M1464.5,446.5c8.42,10.67,26,38,34.5,68.5,3.25,11.67,8.14,34.42,11.21,60,.39,3.27.64,5.66.79,7,4.21,38.55,32.61,207.12,114,656a409.63,409.63,0,0,1-80,82.5c-29.09,22.56-64.59,42.48-87.5,53-55.5-73.83-103.5-152.17-159-226-32.5,2.5-221.35,16.73-355.5,13.5-19.32-.46-53.64-1.68-94.5-16.5-14.85-5.39-64.06-23.84-104.75-68.6-33.27-36.6-55-70.85-64.17-144.53-12.18-98.41-39.36-170.9-40.22-325,0-.71,0-1.42,0-2.13A177,177,0,0,1,805.12,426.82L1019.77,413h.19c199.89-10.54,220.7-16.53,279.54-13.49C1376.64,403.48,1433.48,407.19,1464.5,446.5Z"/><path d="M1126,680l-33.86-34.74c-6.31-7.88-5.43-19.69,2-26.22l12.65-11.18c7.42-6.55,18.5-5.23,24.54,2.93l12.33,16.64c5.43,7.34,15.07,9.26,22.48,4.49l7.25-4.66c6.66-4.28,9.75-12.86,7.52-20.9q-2.19-7.92-4.39-15.84c-2.64-9.54,2.21-19.53,11-22.6l14.42-5.06c8.62-3,18,1.67,21.5,10.73q4.35,11.38,8.71,22.77A17.53,17.53,0,0,0,1248.27,608h9.85c8.17,0,15.15-6.17,16.71-14.74q2.13-11.79,4.28-23.58c1.79-9.86,10.66-16.28,19.93-14.41l13.32,2.68c9.45,1.9,15.72,11.68,14,21.75l-4,22.57c-1.5,8.55,2.81,17.13,10.34,20.57l.27.13c7.84,3.58,16.89.55,21.33-7.16L1368,592c5.19-9,16.47-11.39,24.62-5.18l17.83,13.6a19.4,19.4,0,0,1,4.82,24.79C1405.43,642.3,1399,654,1383,667,1300.87,676.22,1208.13,670.78,1126,680Z"/><path d="M665,725l-57-35.22a18.71,18.71,0,0,1,1.44-26.29l13-11.6A17.9,17.9,0,0,1,648.34,654l13.33,16.23a17.91,17.91,0,0,0,23.7,3.74l7.5-4.9a18.57,18.57,0,0,0,7.41-21.16l-5-15.7a18.49,18.49,0,0,1,11-23l15-5.54a18.09,18.09,0,0,1,22.82,10Q749,625,753.82,636.2a18.19,18.19,0,0,0,17.25,11.1l10.34-.34a18.12,18.12,0,0,0,17.19-15.3q2-11.85,3.94-23.72a18.07,18.07,0,0,1,20.59-15.08l14,2.23a18.52,18.52,0,0,1,15.16,21.29l-3.63,22.7A18.59,18.59,0,0,0,860,659.31l.29.12a17.89,17.89,0,0,0,22.22-7.87l13.83-24.27a17.88,17.88,0,0,1,25.72-6l19,13a18.71,18.71,0,0,1,5.64,24.63C936.85,676.36,929,680,916,697,830,709,751,713,665,725Z"/><path d="M866.85,1272.76s-51.37,113.07-17.64,165.87,68.31,62.91,68.31,62.91c8.88-14.23,30.61-54.15,20.66-109.83C926.72,1327.58,880.78,1284.91,866.85,1272.76Z"/><path class="cls-8" d="M650.43,716.92c7.4-9.07,50.8-60.45,126.34-66.29S903.22,689,911.91,696.83c-7.07,8.63-56.6,67-138.87,67.63C706,764.94,661.2,726.66,650.43,716.92Z"/><path class="cls-8" d="M1127,680.3c7.39-9.06,50.71-60.44,126.14-66.27s126.26,38.39,134.94,46.21c-7.06,8.63-56.51,67-138.65,67.61C1182.46,728.33,1137.77,690.05,1127,680.3Z"/><circle class="cls-8" cx="745.02" cy="728.26" r="19.38"/><circle class="cls-8" cx="1227.11" cy="691.22" r="19.38"/><path class="cls-9" d="M1618,1191l67,256-82.39,99h-397.9l0-.34a38.67,38.67,0,0,1,28.29-42.39l27-7.27-13.44-26.89c-17.72-35.43,8-77.11,47.65-77.11h125L1393,1287Z"/><path class="cls-10" d="M1157.73,1231.1a131.55,131.55,0,0,0-29.11.18,117.63,117.63,0,0,0-22.08,5.31q9.49,39.39,19,78.76,9.72,50.82,19.46,101.65l35.26-4.37c20.9-2.81,40.07-12.52,53.68-27.93a93.43,93.43,0,0,0,23.19-56.41c.35-5.82.9-14.73-1.88-25.36C1243.42,1257.61,1185.2,1234.34,1157.73,1231.1Z"/><path class="cls-11" d="M1209.3,1474s20.74-139.52-55.07-215.33c-39.18-39.18-89.73-43.23-133.75-47.67a326.48,326.48,0,0,0-61-.43c-50.57,4.36-90.17,50.44-92.47,107l0,.88"/><path class="cls-10" d="M1546.06,1472.66a216.05,216.05,0,0,0-26.15,70.73l212.08.7a68.28,68.28,0,0,0-16-30.52c-15.28-16.65-34.28-20.36-40.35-21.29,18.15-22,19.12-52.89,3.34-73.93-.41-.54-.82-1.06-1.24-1.58-17.9-22.11-50.41-25.65-73.29-8.74A217.09,217.09,0,0,0,1546.06,1472.66Z"/><ellipse class="cls-12" cx="878" cy="1310" rx="37" ry="61" transform="translate(-527.63 2024.97) rotate(-83.13)"/><path class="cls-13" d="M880,1270s-152-12-200,37-46,85-46,85c20.09,3.79,75.19,11.44,136-16C840.05,1344.4,871.42,1287.12,880,1270Z"/><path class="cls-13" d="M880,1270.48s41.34,146.76,103.92,174.84,95.67,13.74,95.67,13.74c-3.39-20.16-15.29-74.5-62.07-122.06C963.58,1282.21,899,1272.61,880,1270.48Z"/><path class="cls-14" d="M1280.15,725.41l-22.08,87.17a35.88,35.88,0,0,0,12.27,36.74l1.68,1.36a35.87,35.87,0,0,0,49.9-4.78h0a35.89,35.89,0,0,0,3.74-41Z"/><path class="cls-14" d="M786,764.74l-28.56,73a31.26,31.26,0,0,0,6.62,33.1l1.31,1.36A31.26,31.26,0,0,0,809,873.46h0a31.26,31.26,0,0,0,7.68-35Z"/><path class="cls-14" d="M848.81,903.13l-7.58,48.18a19.47,19.47,0,0,0,8.46,19.23l1,.65a19.46,19.46,0,0,0,26.71-5.07h0a19.46,19.46,0,0,0,0-22.31Z"/><path class="cls-14" d="M769.2,945.94l-28.66,60.75a26.82,26.82,0,0,0,3.73,28.7l1,1.23a26.79,26.79,0,0,0,37.27,3.64h0a26.8,26.8,0,0,0,8.61-29.5Z"/><path class="cls-14" d="M1380.3,855.56l-13.36,63a25.69,25.69,0,0,0,9.81,26l1.25.93a25.7,25.7,0,0,0,35.6-4.82h0a25.72,25.72,0,0,0,1.52-29.45Z"/><path class="cls-14" d="M1250.83,942.56,1235.69,1014a29.12,29.12,0,0,0,11.12,29.42l1.41,1a29.12,29.12,0,0,0,40.34-5.47h0a29.11,29.11,0,0,0,1.73-33.36Z"/><path class="cls-4" d="M963.7,799.39s45.58-48.59,117.32-6.23"/><line class="cls-4" x1="1297" y1="1147" x2="1359.06" y2="1144.31"/><path class="cls-4" d="M1019.5,414,959.79,691.3A20.64,20.64,0,0,0,983,716.06l56.46-8.5"/><rect class="cls-10" x="1083.23" y="1229.28" width="107" height="63.78" rx="27" ry="27" transform="translate(-183.9 194.09) rotate(-9.03)"/><rect class="cls-10" x="1095.8" y="1290.94" width="107" height="64.2" rx="27" ry="27" transform="translate(-193.45 196.83) rotate(-9.03)"/><rect class="cls-10" x="1102.35" y="1351.82" width="107" height="62.23" rx="27" ry="27" transform="translate(-202.77 198.6) rotate(-9.03)"/><path class="cls-15" d="M1465,1259s68,44,110,13,42-78,42-78Z"/><path class="cls-15" d="M1393,1287c15,29,48,35.21,64,23,12.23-9.32,16.53-30.81,8-51Z"/><g class="cls-16"><polygon points="1175 1546 1520 1544 1149 1474 1175 1546"/></g><line class="cls-4" x1="1419" y1="1396" x2="1489" y2="1411"/></svg>