<svg xmlns="http://www.w3.org/2000/svg" width="1440" height="1024" fill="none" viewBox="0 0 1440 1024"><rect width="1440" height="1024" fill="#fff"/><path fill="#fff" fill-rule="evenodd" d="M975.704 623.322L1085.92 588.726C1088.59 598.614 1089.92 606.781 1089.92 613.226C1089.92 619.67 1086.75 634.503 1080.42 657.726L1065.92 909.726C1035.36 901.726 1011.36 897.726 993.919 897.726H947.537L946.328 909.51C915.772 901.51 891.772 897.51 874.328 897.51C856.883 897.51 827.883 897.51 787.328 897.51L901.328 639.01L977.328 607.51L975.704 623.322Z" clip-rule="evenodd"/><path fill="#3B3B3B" d="M914.801 862.01L973.599 623.33C973.662 623.076 973.853 622.872 974.103 622.794L1085.6 587.794C1086.01 587.666 1086.44 587.903 1086.55 588.314C1089.23 598.262 1090.58 606.49 1090.58 613.01C1090.58 619.54 1087.41 634.381 1081.07 657.631L1067.34 896.247L1066.83 932.51H698.328L826.828 862.01H914.801ZM1067.81 862.01L1079.58 657.466L1079.6 657.312C1085.92 634.161 1089.08 619.361 1089.08 613.01C1089.08 606.804 1087.82 598.951 1085.31 589.46L974.955 624.099L916.345 862.01H1067.81Z"/><path fill="#fff" fill-rule="evenodd" d="M886.565 453.444L890.419 447.226L1002.92 425.881C1057.92 418.57 1085.42 404.914 1085.42 384.914C1085.42 364.914 1067.09 355.248 1030.42 355.914L1028.92 282.914C1044.25 280.527 1065.25 281.736 1091.92 286.542C1131.92 293.752 1184.92 322.167 1178.92 394.265C1175.56 434.667 1151.15 472.995 1096.92 497.726C1090.06 500.852 1077.39 503.34 1058.92 505.189L1049.78 505.224L1107.42 585.726C1053.24 611.464 1011.74 628.464 982.919 636.726C954.102 644.987 921.769 649.154 885.919 649.226L894.375 538.753L839.419 557.226L874.919 607.726L842.811 655.726C774.106 620.953 741.939 584.62 746.311 546.726C750.683 508.831 797.35 477.165 886.311 451.726L886.565 453.444Z" clip-rule="evenodd"/><path fill="#3B3B3B" d="M886.121 451.288C886.52 451.174 886.935 451.405 887.049 451.803C887.163 452.202 886.932 452.617 886.534 452.731C797.841 478.093 751.398 509.608 747.073 547.095C742.747 584.59 774.711 620.694 843.166 655.34C843.536 655.527 843.684 655.979 843.497 656.348C843.31 656.718 842.859 656.866 842.489 656.679C773.534 621.78 741.165 585.217 745.583 546.924C750.001 508.623 796.892 476.804 886.121 451.288ZM832.44 542.761L896.419 523.225L894.919 541.725L894.115 542.004C894.038 542.198 893.88 542.358 893.668 542.433L843.987 559.897L875.452 607.093C875.681 607.438 875.588 607.904 875.244 608.133C874.899 608.363 874.433 608.27 874.204 607.925L842.571 560.476C842.374 560.424 842.192 560.312 842.053 560.142C838.019 555.203 833.991 549.329 829.967 542.518C829.686 542.043 829.843 541.43 830.319 541.149C830.794 540.868 831.408 541.025 831.689 541.501C831.939 541.925 832.189 542.345 832.44 542.761Z"/><path fill="#fff" fill-rule="evenodd" d="M446.263 926.12L483.961 925.879L484.715 776.503L413.922 775.699C370.732 775.208 334.362 807.875 330.229 850.87L325.357 901.545C324.142 914.189 333.406 925.424 346.051 926.64C346.831 926.715 347.615 926.75 348.399 926.745L424.669 926.258L434.789 862.726C435.05 861.09 436.588 859.975 438.224 860.236C439.583 860.452 440.621 861.566 440.74 862.937L446.263 926.12Z" clip-rule="evenodd"/><path fill="#fff" fill-rule="evenodd" d="M425.804 487.726L442.304 458.726L518.713 464.01L506.213 533.51L484.26 776.891C447.168 776.826 425.319 776.866 418.713 777.01C412.107 777.154 407.637 777.059 405.304 776.726L362.41 753.751C327.844 735.237 314.831 692.206 333.345 657.64C333.621 657.126 333.903 656.615 334.191 656.108L397.737 544.186" clip-rule="evenodd"/><path fill="#fff" fill-rule="evenodd" d="M425.804 487.726L442.304 458.726L518.713 464.01L506.213 533.51L484.26 776.891C447.168 776.826 425.319 776.866 418.713 777.01C412.107 777.154 407.637 777.059 405.304 776.726L362.41 753.751C327.844 735.237 314.831 692.206 333.345 657.64C333.621 657.126 333.903 656.615 334.191 656.108L397.737 544.186" clip-rule="evenodd"/><path fill="#fff" fill-rule="evenodd" d="M514.42 463.118L479.596 665.234C471.763 710.696 496.479 755.516 539.107 773.151C557.956 780.949 578.249 795.534 618.912 767.57C633.82 757.318 646.761 744.992 657.735 730.592C673.533 709.863 676.704 682.146 665.996 658.385L574.77 455.955L514.42 463.118Z" clip-rule="evenodd"/><path fill="#3B3B3B" d="M517.442 464.2L505.09 532.877L483.189 775.64C446.506 775.577 424.885 775.617 418.311 775.76C411.868 775.9 407.471 775.812 405.155 775.501L362.379 752.59C328.178 734.271 315.303 691.695 333.621 657.494C333.894 656.985 334.173 656.48 334.458 655.978L398.004 544.057C398.208 543.697 398.082 543.239 397.722 543.034C397.362 542.83 396.904 542.956 396.699 543.316L333.153 655.237C332.862 655.75 332.577 656.266 332.299 656.786C313.589 691.717 326.739 735.202 361.671 753.912L404.565 776.887C404.642 776.928 404.726 776.956 404.813 776.968C407.2 777.309 411.698 777.404 418.344 777.259C424.941 777.116 446.79 777.076 483.873 777.141C484.262 777.142 484.587 776.845 484.622 776.458L506.575 533.077L519.066 463.642C519.145 463.203 518.825 462.792 518.379 462.761L441.971 457.476C441.683 457.458 441.41 457.604 441.267 457.855L424.767 486.855C424.562 487.215 424.688 487.673 425.048 487.878C425.408 488.082 425.866 487.957 426.071 487.597L442.338 459.006L517.442 464.2Z"/><path fill="#3B3B3B" d="M331.211 848.726C331.121 849.455 331.041 850.188 330.97 850.925L326.099 901.599C324.923 913.831 333.885 924.701 346.117 925.877C346.872 925.949 347.63 925.983 348.389 925.978L424.023 925.495L434.043 862.591C434.369 860.546 436.291 859.152 438.337 859.478C440.036 859.749 441.333 861.141 441.482 862.855L446.945 925.348L483.21 925.117L483.595 848.726H331.211V848.726ZM446.263 926.853C445.872 926.855 445.545 926.557 445.511 926.168L439.988 862.986C439.898 861.957 439.12 861.122 438.101 860.959C436.874 860.764 435.72 861.6 435.525 862.828L425.404 926.359C425.346 926.721 425.035 926.988 424.668 926.991L348.398 927.478C347.589 927.483 346.78 927.447 345.974 927.37C332.917 926.115 323.35 914.513 324.606 901.456L329.477 850.781C333.647 807.399 370.346 774.437 413.925 774.932L484.718 775.736C485.131 775.741 485.462 776.078 485.46 776.49L484.706 925.866C484.704 926.277 484.372 926.609 483.961 926.612L446.263 926.853Z"/><path fill="#fff" fill-rule="evenodd" d="M533.615 921.525L530.549 817.149C529.676 787.425 553.064 762.621 582.788 761.748C583.335 761.731 583.882 761.724 584.429 761.724C614.76 761.758 639.321 786.373 639.287 816.704C639.287 816.9 639.286 817.096 639.283 817.291L638.05 921.857L620.385 942.326C610.686 953.564 594.382 956.349 581.502 948.968L533.615 921.525Z" clip-rule="evenodd"/><path fill="#fff" fill-rule="evenodd" d="M514.42 463.118L479.596 665.234C471.763 710.696 496.479 755.516 539.107 773.151C557.956 780.949 578.249 795.534 618.912 767.57C633.82 757.318 646.761 744.992 657.735 730.592C673.533 709.863 676.704 682.146 665.996 658.385L574.77 455.955L514.42 463.118Z" clip-rule="evenodd"/><path fill="#3B3B3B" d="M513.741 461.809C513.411 461.848 513.147 462.1 513.09 462.427L478.266 664.543C470.374 710.351 495.278 755.512 538.23 773.28C539.439 773.781 540.698 774.326 542.298 775.037C542.925 775.316 545.713 776.566 546.47 776.903C558.342 782.176 566.009 784.357 575.816 784.148C588.611 783.875 602.513 778.789 618.747 767.625C633.72 757.327 646.719 744.946 657.741 730.483C673.706 709.536 676.91 681.525 666.089 657.513L574.863 455.083C574.729 454.785 574.416 454.608 574.091 454.646L513.741 461.809ZM573.722 456.201L664.722 658.13C675.316 681.639 672.179 709.064 656.548 729.574C645.622 743.911 632.739 756.181 617.897 766.389C601.89 777.397 588.264 782.383 575.784 782.648C566.248 782.851 558.766 780.723 547.079 775.532C546.325 775.197 543.537 773.947 542.907 773.667C541.296 772.95 540.026 772.4 538.803 771.894C496.499 754.394 471.971 709.914 479.744 664.798L514.474 463.233L573.722 456.201Z"/><path fill="#3B3B3B" d="M638.367 862.231C621.504 874.154 606.64 879.986 593.773 879.726C580.729 879.462 560.442 872.75 532.91 859.59L534.716 921.074L582.239 948.308C594.806 955.511 610.716 952.793 620.18 941.827L637.667 921.566L638.367 862.231ZM533.229 921.537L530.163 817.162C529.278 787.024 552.992 761.874 583.13 760.989C583.684 760.973 584.238 760.966 584.793 760.965C615.538 760.999 640.435 785.951 640.401 816.696C640.4 816.894 640.399 817.093 640.397 817.291L639.163 921.857C639.161 922.034 639.097 922.204 638.981 922.338L621.316 942.807C611.382 954.317 594.684 957.169 581.493 949.61L533.606 922.166C533.38 922.036 533.237 921.798 533.229 921.537ZM534.729 921.493L534.716 921.074L534.352 920.865L534.729 921.493Z"/><path fill="#fff" fill-rule="evenodd" d="M460.919 371.226C430.252 369.226 409.919 387.559 399.919 426.226C394.363 447.707 399.919 453.493 399.919 463.726C399.919 477.226 407.922 513.337 367.419 516.726C339.034 519.101 300.67 494.306 295.419 453.726C289.919 411.226 303.168 391.058 314.919 363.226C345.359 291.13 457.267 265.918 492.419 290.226C515.853 306.431 556.52 323.431 614.419 341.226L609.419 463.726L588.419 518.726C553.584 514.73 526.417 509.73 506.919 503.726C487.421 497.722 459.921 485.888 424.419 468.226L460.919 371.226Z" clip-rule="evenodd"/><path fill="#3B3B3B" d="M413.437 473.431C413.265 473.363 413.092 473.294 412.919 473.225L412.938 473.188C412.658 472.963 412.569 472.559 412.757 472.231C415.555 467.329 418.135 462.731 420.498 458.437L433.419 433.225C436.026 426.64 438.356 420.781 440.41 415.646C444.49 404.129 448.874 393.682 453.325 384.419C455.146 380.629 456.849 377.311 458.387 374.488C458.905 373.538 459.368 372.71 459.772 372.006C459.821 371.912 459.87 371.819 459.919 371.725C459.917 371.737 459.915 371.749 459.913 371.76C460.114 371.412 460.257 371.17 460.336 371.039C460.55 370.684 461.011 370.57 461.366 370.784C461.72 370.999 461.834 371.46 461.62 371.814C461.535 371.956 461.366 372.241 461.122 372.667C460.712 373.379 460.238 374.226 459.704 375.205C459.51 375.563 459.313 375.928 459.113 376.301C451.767 419.547 454.536 450.189 467.419 468.225C478.954 484.375 490.49 495.41 502.025 501.33C503.69 501.706 505.348 502.07 507.001 502.421C536.269 508.641 561.254 511.422 581.95 510.769C582.364 510.756 582.711 511.081 582.725 511.495C582.737 511.909 582.412 512.256 581.998 512.27C561.168 512.926 536.067 510.131 506.69 503.889C477.413 497.668 446.329 487.515 413.437 473.431Z"/><path fill="#fff" fill-rule="evenodd" d="M609.452 537.093C671.113 538.845 703.968 516.746 715.017 469.797C731.59 399.374 648.503 334.859 608.083 321.726L571.419 458.226L574.919 509.726C580.245 521.619 585.078 529.286 589.419 532.726C592.752 535.368 599.43 536.823 609.452 537.093Z" clip-rule="evenodd"/><path fill="#3B3B3B" d="M609.44 535.976C670.116 537.699 703.172 516.351 714.254 469.257C721.725 437.515 709.318 404.601 682.331 374.41C660.497 349.984 630.155 329.329 607.819 322.071C607.425 321.943 607.209 321.52 607.337 321.126C607.465 320.732 607.888 320.517 608.282 320.645C630.881 327.988 661.445 348.793 683.449 373.41C710.732 403.933 723.314 437.31 715.714 469.601C704.456 517.443 670.74 539.217 609.398 537.475C608.984 537.463 608.658 537.118 608.669 536.704C608.681 536.29 609.026 535.964 609.44 535.976Z"/><path fill="#3B3B3B" d="M1030.09 283.54L1031.56 355.135C1068.1 354.608 1086.58 364.49 1086.58 384.897C1086.58 405.447 1058.78 419.248 1003.43 426.607C1003.02 426.662 1002.64 426.373 1002.58 425.963C1002.53 425.552 1002.82 425.175 1003.23 425.12C1057.87 417.856 1085.08 404.347 1085.08 384.897C1085.08 365.442 1067.14 355.987 1030.84 356.647C1030.43 356.654 1030.09 356.326 1030.08 355.912L1028.58 282.912C1028.57 282.537 1028.84 282.213 1029.21 282.156C1044.64 279.753 1065.72 280.967 1092.46 285.787C1115.72 289.979 1137.67 300.02 1153.6 315.515C1173.21 334.589 1182.86 360.82 1180.08 394.309C1177.29 427.8 1160.24 456.409 1133.48 477.337C1110.55 495.267 1082 505.921 1059.33 505.921C1058.91 505.921 1058.58 505.586 1058.58 505.171C1058.58 504.757 1058.91 504.421 1059.33 504.421C1081.65 504.421 1109.88 493.887 1132.55 476.155C1159 455.472 1175.83 427.234 1178.58 394.185C1181.33 361.139 1171.85 335.349 1152.55 316.591C1136.85 301.323 1115.18 291.406 1092.19 287.263C1065.98 282.537 1045.27 281.3 1030.09 283.54ZM1048.92 505.226L1107.42 586.226L1087.42 596.226C1080.75 586.559 1071.92 574.892 1060.92 561.226C1049.92 547.559 1045.92 528.892 1048.92 505.226Z"/><path fill="#3B3B3B" d="M460.834 370.668C429.77 368.642 409.142 387.241 399.059 426.228C395.848 438.645 395.92 444.883 397.967 455.344C398.269 456.884 398.417 457.677 398.564 458.584C398.878 460.525 399.035 462.195 399.035 463.916C399.035 464.527 399.051 465.204 399.083 465.977C399.133 467.221 399.473 472.798 399.542 474.258C399.713 477.934 399.731 481.042 399.55 484.069C398.416 503.016 389.412 514.312 367.223 516.169C353.108 517.35 336.614 511.706 323.077 500.937C308.348 489.22 298.472 472.699 296.029 453.82C294.04 438.451 294.409 425.369 296.87 413.092C298.868 403.131 301.946 394.416 307.451 381.892C307.029 382.851 313.649 368.035 315.476 363.708C329.389 330.756 361.783 305.126 402.01 291.475C438.073 279.237 474.562 279.072 491.859 291.033C492.2 291.269 492.667 291.183 492.902 290.843C493.138 290.502 493.053 290.035 492.712 289.799C474.944 277.512 437.995 277.679 401.528 290.055C360.927 303.833 328.194 329.732 314.094 363.124C312.275 367.434 305.662 382.234 306.078 381.288C300.533 393.902 297.423 402.71 295.4 412.797C292.905 425.238 292.532 438.485 294.542 454.012C297.037 473.292 307.119 490.159 322.143 502.111C335.966 513.107 352.831 518.878 367.348 517.663C379.79 516.622 388.455 512.482 393.903 505.646C398.371 500.041 400.524 492.907 401.047 484.159C401.232 481.071 401.214 477.913 401.04 474.188C400.971 472.711 400.631 467.141 400.581 465.917C400.551 465.162 400.535 464.505 400.535 463.916C400.535 462.107 400.371 460.359 400.044 458.344C399.894 457.416 399.744 456.611 399.44 455.056C397.432 444.799 397.363 438.78 400.512 426.604C410.429 388.258 430.467 370.19 460.737 372.164C461.15 372.191 461.507 371.878 461.534 371.465C461.561 371.052 461.248 370.695 460.834 370.668Z"/><path fill="#3B3B3B" fill-rule="evenodd" d="M951.48 425.699L849.469 441.386C847.831 441.638 846.708 443.17 846.96 444.808C847.16 446.109 848.185 447.128 849.487 447.32L895.626 454.121L879.831 488.898C879.145 490.407 879.813 492.185 881.321 492.871C882.449 493.383 883.776 493.149 884.661 492.283L922.208 455.517L931.868 501.852C932.206 503.474 933.795 504.515 935.417 504.176C936.599 503.93 937.518 502.999 937.749 501.814L946.528 456.794L987.192 490.213C988.472 491.265 990.362 491.08 991.414 489.8C992.101 488.964 992.285 487.823 991.895 486.814L978.526 452.224L1021.85 465.41C1023.44 465.892 1025.11 464.998 1025.6 463.413C1025.91 462.383 1025.65 461.263 1024.91 460.48L999.359 433.432L1043.17 421.707C1044.77 421.279 1045.72 419.634 1045.29 418.034C1044.96 416.778 1043.85 415.881 1042.55 415.813L1000.4 413.6L1021.11 393.402C1022.3 392.246 1022.32 390.346 1021.17 389.16C1020.22 388.188 1018.74 387.973 1017.55 388.638L951.48 425.699Z" clip-rule="evenodd"/><path fill="#3B3B3B" fill-rule="evenodd" d="M545.789 345.034C542.479 348.104 538.519 350.179 533.868 351.811C525.465 354.759 514.926 356.057 506.374 351.699C500.372 348.641 493.463 342.256 490.315 336.829C485.555 328.626 485.944 319.854 489.54 310.836C484.702 311.004 479.837 310.238 475.483 308.02C469.441 304.941 462.484 298.518 459.31 293.062C453.697 283.409 455.178 272.979 460.625 262.29C464.346 254.986 470.405 248.382 477.376 245.343C486.372 241.422 496.927 242.628 506.355 247.431C514.88 251.775 520.967 259.319 523.584 267.792C524.84 271.859 525.294 276.137 524.914 280.422C528.792 283.04 534.097 289.848 537.108 291.382C541.833 293.789 557.897 297.689 562.613 301.757C563.515 301.226 564.437 300.752 565.376 300.343C574.372 296.422 584.927 297.628 594.355 302.431C602.88 306.775 608.967 314.319 611.584 322.792C614.103 330.947 613.394 339.956 609.213 348.161C605.075 356.283 599.123 360.368 591.148 363.156C582.695 366.112 572.092 367.406 563.483 363.02C557.441 359.941 550.484 353.518 547.31 348.062C546.728 347.061 546.222 346.051 545.789 345.034Z" clip-rule="evenodd"/><path fill="#fff" d="M587.017 215.78L605.637 227.248C615.088 233.069 619.569 244.425 616.64 255.131C612.264 271.127 608.02 283.161 603.907 291.234C599.79 299.313 594.789 306.439 588.903 312.612C585.223 316.471 579.748 318.046 574.58 316.732L571.67 315.992C568.415 315.164 565.351 313.713 562.647 311.719L548.419 301.226L542.419 307.226L518.419 285.726L543.924 229.017C550.72 213.907 568.479 207.167 583.59 213.963C584.77 214.494 585.915 215.101 587.017 215.78Z"/><path fill="#FF83F4" fill-rule="evenodd" d="M569.774 277.275C571.698 268.712 575.611 263.427 581.513 261.42C590.366 258.41 595.327 257.683 599.665 258.736C603.879 259.759 614.5 261.5 614.5 261.5C614.5 261.5 610 275.5 605 289C600 302.499 586.5 313.5 586.5 313.5C586.5 313.5 562.848 299.721 569.774 277.275Z" clip-rule="evenodd"/><path fill="#3B3B3B" d="M604.933 290.413C610.205 292.411 612.034 295.349 610.419 299.226C609.208 302.132 605.871 303.506 602.965 302.295C602.625 302.154 602.301 301.98 601.995 301.776L599.466 300.09C596.412 304.827 592.997 309.177 589.22 313.138C585.353 317.193 579.6 318.848 574.169 317.467L571.377 316.757C567.95 315.885 564.729 314.342 561.901 312.218L548.623 302.24L544.08 307.692C543.816 308.008 543.346 308.053 543.028 307.792L518.028 287.292C517.767 287.078 517.681 286.717 517.817 286.409L543.134 229.044C549.99 213.507 568.144 206.47 583.681 213.327C584.961 213.892 586.201 214.543 587.392 215.277L605.805 226.618C615.539 232.614 620.154 244.31 617.138 255.337C612.956 270.626 608.89 282.315 604.933 290.413ZM547.927 300.732C548.183 300.425 548.634 300.372 548.954 300.612L562.802 311.018C565.471 313.024 568.511 314.48 571.747 315.303L574.539 316.013C579.445 317.261 584.642 315.766 588.135 312.103C593.97 305.983 598.929 298.917 603.013 290.902C607.099 282.883 611.328 270.892 615.691 254.941C618.532 244.556 614.185 233.542 605.018 227.895L586.606 216.554C585.473 215.856 584.293 215.236 583.075 214.699C568.296 208.177 551.028 214.87 544.506 229.649L519.42 286.493L543.404 306.16L547.927 300.732Z"/><path fill="#fff" fill-rule="evenodd" d="M542.349 218.82C543.292 215.489 541.835 215.13 537.976 217.743C534.609 220.024 528.104 228.959 518.462 244.547C515.272 249.705 513.665 255.685 513.839 261.747C513.933 265.018 514.228 267.589 514.723 269.459C515.641 272.93 517.808 276.097 521.223 278.959L543.723 258.459L551.898 253.558C546.434 262.353 543.975 267.138 544.523 267.914C545.932 269.909 549.458 271.623 555.102 273.055C559.389 261.165 562.911 253.613 565.668 250.398C568.425 247.182 563.559 238.293 551.07 223.73L542.349 218.82Z" clip-rule="evenodd"/><path fill="#3B3B3B" d="M542.339 215.591C541.324 215.341 539.859 215.962 537.752 217.389C534.257 219.756 527.732 228.719 518.021 244.419C514.753 249.702 513.107 255.826 513.286 262.035C513.382 265.359 513.682 267.983 514.194 269.918C515.155 273.548 517.41 276.844 520.937 279.801C521.225 280.042 521.647 280.033 521.924 279.78L544.369 259.331L549.844 256.048C545.127 263.784 543.336 267.521 544.107 268.614C545.648 270.797 549.309 272.576 555.114 274.049C555.488 274.144 555.874 273.939 556.004 273.576C560.261 261.772 563.756 254.275 566.434 251.152C569.586 247.476 564.639 238.438 551.836 223.508C551.779 223.442 551.711 223.386 551.635 223.343L543.413 218.715C543.794 217.007 543.526 215.883 542.339 215.591ZM565.295 250.176C562.51 253.424 559.039 260.819 554.826 272.424C549.762 271.078 546.598 269.503 545.357 267.783L545.363 267.792C545.393 267.835 545.395 267.832 545.4 267.787C545.419 267.627 545.479 267.391 545.582 267.091C545.807 266.436 546.22 265.52 546.82 264.353C548.038 261.981 550.009 258.602 552.732 254.22C553.147 253.552 552.384 252.777 551.709 253.181L543.533 258.083L543.414 258.171L521.404 278.225C518.389 275.572 516.476 272.677 515.644 269.534C515.166 267.728 514.878 265.211 514.785 261.992C514.615 256.077 516.184 250.241 519.297 245.208C528.87 229.732 535.354 220.825 538.593 218.631C540.345 217.444 541.538 216.938 541.98 217.047C542.024 217.058 542.035 217.073 542.06 217.249C542.107 217.587 542.033 218.14 541.823 218.882C541.729 219.215 541.875 219.57 542.177 219.74L550.784 224.585C562.894 238.723 567.651 247.429 565.295 250.176Z"/><path fill="#fff" fill-rule="evenodd" d="M589.299 301.641L595.308 304.928L591.619 309.63C591.295 310.042 590.729 310.176 590.255 309.952C589.73 309.703 589.303 309.287 589.041 308.768L586.709 304.148C586.239 303.217 586.612 302.082 587.543 301.612C588.097 301.332 588.754 301.343 589.299 301.641ZM603.853 278.491C599.888 276.291 596.975 275.809 595.111 277.045C592.317 278.9 589.278 278.769 588.973 276.288C588.669 273.806 591.838 270.898 597.602 272.709C601.444 273.917 603.528 275.844 603.853 278.491Z" clip-rule="evenodd"/><path fill="#3B3B3B" d="M595.9 303.809C596.306 304.032 596.416 304.566 596.13 304.93L592.441 309.633C591.902 310.321 590.957 310.544 590.167 310.17C589.491 309.85 588.941 309.314 588.604 308.646L586.271 304.026C585.615 302.726 586.137 301.139 587.437 300.483C588.212 300.092 589.13 300.107 589.891 300.523L595.9 303.809ZM589.172 301.839C588.843 301.66 588.447 301.653 588.113 301.822C587.552 302.105 587.327 302.789 587.61 303.35L589.943 307.97C590.13 308.34 590.434 308.637 590.809 308.814C590.966 308.888 591.154 308.844 591.261 308.707L594.404 304.701L589.172 301.839ZM604.829 277.939C604.904 278.548 604.257 278.984 603.721 278.686C599.976 276.608 597.326 276.17 595.758 277.21C592.468 279.393 588.845 279.043 588.461 275.919C588.012 272.262 592.509 269.79 598.059 271.534C602.155 272.821 604.463 274.956 604.829 277.939ZM597.609 272.965C592.98 271.51 589.656 273.338 589.95 275.736C590.155 277.41 592.415 277.628 594.929 275.96C596.806 274.715 599.452 274.949 602.86 276.557C602.062 275.018 600.334 273.821 597.609 272.965Z"/><path fill="#fff" fill-rule="evenodd" d="M546.958 255.828C547.222 247.483 543.389 243.298 535.461 243.272C523.568 243.233 514.413 269.761 536.961 276.584" clip-rule="evenodd"/><path fill="#3B3B3B" d="M539.482 252.243C539.426 252.629 539.081 252.911 538.686 252.883C534.004 252.545 531.012 254.146 529.525 257.723C529.366 258.105 528.927 258.287 528.545 258.128C528.162 257.969 527.981 257.53 528.14 257.147C529.89 252.937 533.502 251.005 538.794 251.387C538.836 251.39 538.876 251.396 538.916 251.406C536.704 248.565 533.112 248.565 526.07 252.447C525.832 252.579 525.553 252.567 525.333 252.44C524.638 253.941 524.118 255.584 523.827 257.306C522.425 265.586 526.527 272.875 536.21 276.238C536.602 276.374 536.809 276.802 536.673 277.193C536.537 277.584 536.109 277.791 535.718 277.655C525.329 274.047 520.826 266.044 522.348 257.056C523.7 249.068 529.624 242.58 535.844 242.852C544.197 243.217 548.17 247.925 547.54 256.666C547.529 256.822 547.47 256.964 547.379 257.078C547.433 257.298 547.388 257.54 547.234 257.73C545.714 259.61 543.839 259.581 542.075 257.712C541.797 257.417 541.562 257.033 541.327 256.527C541.107 256.051 540.357 254.06 540.193 253.672C539.973 253.152 539.738 252.675 539.482 252.243ZM526.3 250.622C534.992 246.082 539.22 247.519 541.575 253.088C541.759 253.524 542.496 255.482 542.688 255.896C542.861 256.269 543.018 256.526 543.166 256.682C544.329 257.915 545.141 257.929 546.064 256.792C546.045 256.717 546.038 256.639 546.044 256.558C546.615 248.643 543.268 244.678 535.779 244.35C532.218 244.195 528.652 246.743 526.3 250.622Z"/><path fill="#fff" fill-rule="evenodd" d="M534.366 222.12C547.714 236.185 560.627 246.798 573.103 253.959C585.578 261.12 599.711 263.349 615.5 260.647C636.596 238.577 649.273 226.539 653.529 224.531C659.914 221.518 669.372 224.865 671.202 232.772C672.422 238.043 665.719 255.572 651.093 285.361C676.573 269.366 690.15 259.575 691.822 255.989C694.331 250.61 726.072 221.581 682.283 190.079C653.091 169.077 626.269 174.539 601.82 206.464C604.463 177.133 597.561 157.625 581.113 147.94C556.441 133.413 537.838 141.363 524.331 170.33C515.326 189.641 510.225 201.368 509.028 205.512C529.501 186.847 541.853 178.5 546.082 180.473C550.311 182.445 546.406 196.327 534.366 222.12Z" clip-rule="evenodd"/><path fill="#3B3B3B" d="M657.633 280.475C678.476 267.173 689.769 258.836 691.195 255.778C691.441 255.25 691.883 254.588 692.708 253.468C692.62 253.587 694.56 250.983 695.199 250.098C700.036 243.396 703.087 237.343 704.19 230.471C706.35 217.012 699.895 203.74 681.898 190.793C653.129 170.096 626.826 175.38 602.668 206.766C602.666 206.798 602.662 206.83 602.656 206.862L600.156 220.362C600.081 220.77 599.69 221.039 599.282 220.963C598.875 220.888 598.606 220.496 598.681 220.089L601.148 206.772C601.126 206.689 601.117 206.599 601.126 206.502C603.746 177.432 596.944 158.206 580.786 148.692C556.755 134.542 538.528 141.878 525.064 170.752C518.598 184.618 514.145 194.575 511.717 200.592C512.104 200.784 512.476 200.996 512.832 201.227C531.103 184.953 542.1 177.869 546.452 179.899C551.328 182.172 547.489 195.936 535.315 222.079C548.491 235.911 561.231 246.355 573.529 253.414C585.785 260.449 599.659 262.664 615.182 260.055C636.281 237.99 648.89 226.021 653.262 223.958C660.45 220.567 670.133 224.703 671.986 232.708C673.149 237.734 667.727 252.653 655.67 277.857C655.74 277.926 655.808 277.995 655.876 278.064C656.572 278.781 657.162 279.591 657.633 280.475ZM654.484 276.857C666.208 252.301 671.572 237.569 670.525 233.047C668.896 226.008 660.255 222.318 653.902 225.315C649.774 227.263 637.087 239.311 616.095 261.271C615.984 261.387 615.838 261.465 615.679 261.492C599.723 264.223 585.414 261.965 572.782 254.715C560.238 247.515 547.271 236.856 533.875 222.742C533.663 222.518 533.609 222.188 533.739 221.908C545.475 196.767 549.372 182.915 545.818 181.258C542.328 179.631 531.536 186.619 514.058 202.146C515.548 203.432 516.657 205.075 517.279 206.866C518.186 209.475 518.058 212.395 516.799 215.096C515.552 217.769 513.674 219.156 511.127 220.148C508.427 221.199 505.014 221.737 502.181 220.416C500.192 219.489 497.87 217.491 496.783 215.762C494.859 212.705 495.22 209.316 496.86 205.798C497.981 203.395 499.866 201.191 502.085 200.13C504.602 198.926 507.553 198.989 510.337 200.004C512.79 193.928 517.242 183.976 523.704 170.119C537.521 140.489 556.701 132.77 581.547 147.4C597.808 156.975 604.88 175.927 602.824 204.133C627.101 173.66 653.853 168.769 682.774 189.576C701.207 202.836 707.927 216.653 705.671 230.709C704.523 237.858 701.377 244.101 696.416 250.975C695.769 251.872 693.822 254.484 693.916 254.357C693.153 255.394 692.744 256.007 692.555 256.412C690.947 259.861 679.619 268.238 658.249 281.862C658.686 283.064 658.919 284.366 658.919 285.726C658.919 288.675 657.803 290.726 655.914 292.702C653.911 294.795 651.045 296.726 647.919 296.726C645.725 296.726 642.776 295.896 641.06 294.789C638.024 292.831 636.919 289.607 636.919 285.726C636.919 283.074 637.696 280.28 639.259 278.38C641.276 275.928 644.496 274.726 647.919 274.726C650.354 274.726 652.644 275.518 654.484 276.857Z"/><path fill="#fff" d="M928.315 335.863L889.085 344.485C875.6 347.449 867.071 360.783 870.034 374.269C870.134 374.72 870.245 375.169 870.37 375.614C875.313 393.352 879.107 406.291 881.752 414.431C887.383 431.762 905.998 441.246 923.329 435.615C923.668 435.505 924.005 435.389 924.34 435.268L936.919 430.726L935.419 438.226L977.919 418.726L976.771 401.127C976.538 397.541 975.85 393.999 974.724 390.585L963.246 355.771C958.429 341.16 943.341 332.561 928.315 335.863Z"/><path fill="#56FFB2" fill-rule="evenodd" d="M883.419 385.726L878.328 419.949L899.828 432.51L911.328 409.708L883.419 385.726ZM925.919 371.226L920.328 403.598L944.269 423.01L953.328 389.363L925.919 371.226Z" clip-rule="evenodd"/><path fill="#3B3B3B" d="M934.132 437.602C934.009 438.203 934.621 438.689 935.179 438.434L977.694 418.983C977.977 418.854 978.15 418.564 978.131 418.254L977.039 400.906C976.807 397.222 976.105 393.584 974.95 390.078L963.697 355.953C958.755 340.968 943.273 332.155 927.865 335.556L888.641 344.214C874.754 347.279 865.981 361.022 869.047 374.909C869.147 375.364 869.26 375.815 869.384 376.264C874.249 393.739 877.987 406.497 880.601 414.54C886.308 432.107 905.176 441.721 922.743 436.013C923.083 435.903 923.421 435.787 923.758 435.665L935.384 431.471L934.132 437.602ZM937.121 430.462C937.238 429.888 936.682 429.408 936.132 429.606L923.249 434.254C922.927 434.37 922.604 434.481 922.279 434.586C905.5 440.038 887.479 430.856 882.027 414.077C879.422 406.058 875.689 393.318 870.829 375.862C870.712 375.439 870.606 375.014 870.511 374.586C867.625 361.508 875.886 348.566 888.964 345.679L928.189 337.021C942.845 333.785 957.572 342.169 962.272 356.423L973.525 390.548C974.64 393.932 975.318 397.444 975.542 401L976.601 417.833L935.897 436.456L937.121 430.462Z"/><path fill="#3B3B3B" fill-rule="evenodd" d="M935.193 405.183C935.482 405.523 935.394 405.878 934.929 406.247C934.496 406.59 933.763 406.663 933.656 406.692C932.635 406.965 931.582 406.375 931.283 405.361H931.283C930.689 403.342 930.348 402.171 930.261 401.846C930.184 401.559 929.898 400.412 929.402 398.405C929.193 397.559 929.7 396.701 930.542 396.476C931.748 396.153 932.992 396.852 933.342 398.051C933.686 399.229 933.866 399.846 933.881 399.901C933.904 399.988 934.341 401.749 935.193 405.183ZM899.595 416.117C899.884 416.457 899.796 416.812 899.331 417.181C898.898 417.524 898.165 417.597 898.058 417.626C897.037 417.899 895.984 417.309 895.686 416.295C895.091 414.276 894.75 413.105 894.663 412.78C894.586 412.493 894.3 411.346 893.804 409.339C893.595 408.493 894.102 407.635 894.944 407.41C896.151 407.087 897.395 407.786 897.745 408.985C898.089 410.163 898.268 410.78 898.283 410.835C898.306 410.922 898.744 412.683 899.595 416.117ZM908.83 387.516C908.617 386.877 908.926 386.181 909.543 385.91C910.203 385.621 910.972 385.921 911.261 386.58L920.344 407.291C920.391 407.4 920.435 407.509 920.475 407.62C921.511 410.468 920.042 413.616 917.194 414.651L915.693 415.197C915.385 415.309 915.07 415.399 914.749 415.468C910.917 416.286 907.146 413.842 906.328 410.01C905.868 407.858 908.535 405.858 914.328 404.01L908.83 387.516Z" clip-rule="evenodd"/><path fill="#3B3B3B" fill-rule="evenodd" d="M592.291 291.403C594.472 288.618 595.59 287.189 595.644 287.117C595.679 287.071 596.055 286.55 596.771 285.554L596.771 285.554C597.5 284.54 597.286 283.129 596.288 282.377C595.592 281.853 594.604 281.982 594.066 282.667C592.789 284.293 592.062 285.225 591.883 285.462C591.681 285.731 590.968 286.72 589.743 288.432L589.743 288.432C589.128 289.291 589.311 290.485 590.155 291.121C590.244 291.188 590.752 291.72 591.29 291.85C591.866 291.989 592.2 291.84 592.291 291.403Z" clip-rule="evenodd"/><path fill="#fff" fill-rule="evenodd" d="M893.534 368.248C889.596 368.985 885.875 369.644 882.372 370.226C875.266 371.404 872.075 371.761 872.797 371.295L870.372 373.726C869.768 381.207 869.768 387.874 870.372 393.726C870.975 399.577 874.475 405.744 880.872 412.226C877.366 398.591 876.866 389.091 879.372 383.726C881.172 379.872 886.322 375.691 894.822 371.183C894.838 371.197 894.855 371.211 894.872 371.226L904.265 366.641C904.954 366.337 905.656 366.032 906.372 365.726C906.24 365.753 906.108 365.78 905.976 365.807L959.419 339.726C965.419 342.726 969.642 348.31 972.087 356.478C974.533 364.646 974.794 368.895 972.872 369.226C958.666 366.259 948.682 364.592 942.919 364.226C925.997 363.15 914.093 365.559 906.372 365.726C898.743 365.89 894.463 366.73 893.534 368.248Z" clip-rule="evenodd"/><path fill="#3B3B3B" d="M877.07 406.694C872.931 397.982 872.784 388.863 876.633 379.389C876.789 379.005 877.226 378.821 877.61 378.977C877.994 379.132 878.178 379.57 878.022 379.954C874.058 389.712 874.507 399.007 879.372 407.903C876.93 396.73 876.824 388.729 879.101 383.854C880.988 379.814 886.246 375.545 894.879 370.966C894.978 370.913 895.086 370.885 895.193 370.879L902.98 367.08C898.023 367.402 895.171 368.124 894.582 369.086C894.471 369.266 894.289 369.392 894.08 369.431C890.137 370.169 886.412 370.829 882.903 371.411C879.636 371.953 877.192 372.322 875.567 372.519C874.739 372.618 874.119 372.674 873.696 372.686C873.555 372.69 873.433 372.69 873.325 372.683L871.506 374.506C870.928 381.833 870.935 388.363 871.526 394.094C871.941 398.113 873.785 402.315 877.07 406.694ZM971.537 356.363C971.522 356.357 971.507 356.35 971.492 356.342C968.209 354.701 964.594 353.386 960.646 352.399C956.708 351.415 952.269 350.921 947.328 350.921C946.913 350.921 946.578 350.586 946.578 350.171C946.578 349.757 946.913 349.421 947.328 349.421C952.386 349.421 956.947 349.928 961.01 350.944C964.539 351.826 967.816 352.966 970.839 354.364C968.429 348.028 964.756 343.588 959.82 341.01L910.167 365.241C910.657 365.204 911.179 365.161 911.738 365.112C912.947 365.005 917.626 364.554 917.756 364.541C927.405 363.635 934.648 363.368 943.375 363.923C949.16 364.291 959.114 365.95 973.261 368.901C973.904 368.631 974.022 366.952 973.471 363.908C973.357 363.93 973.235 363.926 973.116 363.891C967.486 362.235 961.187 360.909 954.222 359.914C947.269 358.921 940.818 358.59 934.869 358.92C934.456 358.943 934.102 358.627 934.079 358.213C934.056 357.799 934.372 357.446 934.786 357.423C940.838 357.086 947.387 357.422 954.434 358.429C961.31 359.411 967.55 360.714 973.154 362.339C972.825 360.853 972.37 359.118 971.778 357.139C971.699 356.877 971.619 356.619 971.537 356.363ZM959.499 339.497C959.709 339.395 959.954 339.396 960.163 339.501C966.362 342.6 970.713 348.354 973.215 356.709C975.83 365.443 976.107 369.947 973.407 370.411C973.314 370.427 973.219 370.425 973.127 370.406C958.955 367.446 948.998 365.783 943.28 365.42C934.645 364.871 927.474 365.135 917.897 366.035C917.772 366.046 913.086 366.499 911.869 366.606C909.856 366.783 908.311 366.884 906.943 366.918C906.275 367.204 905.622 367.489 905.003 367.761L895.609 372.345C895.524 372.387 895.433 372.411 895.342 372.419C887.118 376.808 882.156 380.858 880.46 384.489C878.049 389.651 878.541 399.006 882.007 412.485C882.198 413.226 881.285 413.743 880.747 413.198C874.241 406.606 870.658 400.293 870.034 394.248C869.426 388.348 869.426 381.636 870.033 374.111C870.047 373.934 870.124 373.767 870.25 373.642L872.486 371.401C872.562 371.282 872.668 371.195 872.799 371.111C873.135 370.894 873.483 370.974 873.71 371.185C874.079 371.171 874.641 371.119 875.387 371.029C876.986 370.836 879.411 370.47 882.658 369.931C886.07 369.365 889.689 368.725 893.515 368.011C894.895 366.392 899.098 365.612 906.358 365.431L959.499 339.497ZM905.794 365.779C905.484 366.152 905.643 366.744 906.064 366.939C906.227 366.935 906.391 366.931 906.557 366.927C905.878 366.943 905.583 366.17 905.942 365.715C905.893 365.737 905.843 365.758 905.794 365.779Z"/><path fill="#3B3B3B" d="M982.621 636.289C954.092 644.468 922.097 648.625 886.637 648.757L896.075 525.454C896.107 525.041 895.798 524.681 895.385 524.649C894.972 524.617 894.611 524.926 894.58 525.339L885.08 649.453C885.046 649.889 885.392 650.26 885.829 650.26C921.746 650.188 954.148 646.012 983.034 637.731C1011.9 629.456 1053.43 612.442 1107.65 586.687C1108.07 586.487 1108.21 585.953 1107.94 585.573L1050.79 505.76H1060.83C1061.24 505.76 1061.58 505.424 1061.58 505.01C1061.58 504.596 1061.24 504.26 1060.83 504.26H1049.33C1048.72 504.26 1048.36 504.95 1048.72 505.446L1106.2 585.717C1052.44 611.224 1011.25 628.082 982.621 636.289Z"/><path fill="#fff" fill-rule="evenodd" d="M962.919 379.177C963.483 370.847 967.711 367.061 975.603 367.821C987.441 368.96 993.924 396.264 970.811 400.821" clip-rule="evenodd"/><path fill="#3B3B3B" d="M975.066 373.97C978.914 377.073 980.197 380.762 978.815 384.908C978.684 385.301 978.259 385.514 977.866 385.383C977.473 385.252 977.261 384.827 977.392 384.434C978.617 380.759 977.408 377.588 973.653 374.771C973.488 374.648 973.389 374.469 973.361 374.28C972.036 374.787 970.966 375.902 969.997 377.519C969.781 377.88 968.761 379.747 968.477 380.188C968.174 380.657 967.888 381.004 967.572 381.257C965.564 382.863 963.704 382.63 962.46 380.557C962.362 380.394 962.333 380.208 962.366 380.034C962.232 379.888 962.156 379.69 962.171 379.477C962.763 370.734 967.353 366.624 975.675 367.425C981.872 368.021 986.837 375.27 987.064 383.369C987.319 392.482 981.746 399.78 970.956 401.907C970.55 401.987 970.155 401.723 970.075 401.316C969.995 400.91 970.26 400.516 970.666 400.435C980.723 398.453 985.799 391.805 985.564 383.411C985.515 381.673 985.232 379.982 984.757 378.405C984.553 378.448 984.333 378.406 984.153 378.271C980.174 375.287 977.295 373.957 975.066 373.97ZM963.656 379.665C963.69 379.701 963.72 379.741 963.746 379.785C964.503 381.046 965.309 381.146 966.635 380.086C966.803 379.951 966.994 379.719 967.217 379.373C967.465 378.99 968.467 377.154 968.71 376.748C971.79 371.606 976.129 370.741 983.975 376.286C982.173 372.201 979.033 369.255 975.531 368.918C968.069 368.2 964.203 371.661 963.667 379.578C963.665 379.607 963.662 379.636 963.656 379.665Z"/><path fill="#fff" fill-rule="evenodd" d="M406.379 516.338L466.3 548.569C467.908 549.433 469.331 550.604 470.489 552.015C474.136 556.457 475.217 560.633 473.734 564.544C471.317 570.918 464.19 574.125 457.817 571.707C457.696 571.662 457.576 571.614 457.456 571.564C401.834 548.444 366.199 527.683 350.551 509.28C345.581 503.436 341.339 498.389 337.824 494.138L337.824 494.138C329.906 484.561 331.25 470.379 340.827 462.46C343.583 460.181 346.843 458.592 350.336 457.824C362.449 455.163 374.232 458.06 385.684 466.517L417.184 484.758L433.919 491.726L457.419 477.726C460.972 475.998 463.638 475.164 465.419 475.226C467.199 475.287 469.366 476.287 471.919 478.226C473.417 480.42 474.25 482.087 474.419 483.226C474.805 485.834 473.521 488.81 473.419 489.726C473.25 491.241 472.25 491.908 470.419 491.726C472.724 492.121 474.39 492.621 475.419 493.226C476.447 493.831 477.614 494.998 478.919 496.726L478.919 508.726L440.419 537.226" clip-rule="evenodd"/><path fill="#3B3B3B" d="M442.223 535.053L406.353 515.759C405.988 515.563 405.533 515.699 405.337 516.064C405.141 516.429 405.278 516.884 405.642 517.08L465.564 549.31C467.085 550.129 468.432 551.237 469.528 552.572C473.018 556.823 474.029 560.727 472.651 564.359C470.381 570.345 463.688 573.358 457.702 571.087C457.588 571.044 457.475 570.999 457.363 570.953C401.844 547.875 366.29 527.161 350.741 508.875C345.774 503.034 341.534 497.989 338.021 493.741C330.367 484.483 331.666 470.774 340.923 463.119C343.588 460.916 346.739 459.38 350.116 458.638C362.009 456.025 373.573 458.869 384.927 467.247L415.89 485.178C415.957 485.39 416.118 485.57 416.343 485.654L434.013 492.243C434.232 492.324 434.476 492.299 434.674 492.175L457.288 477.997C458.416 477.289 459.658 476.784 460.959 476.504C465.792 475.462 469.282 476.258 471.541 478.842C474.702 482.459 474.694 487.772 471.74 491.365C469.719 491.078 467.429 491.211 464.879 491.76C463.207 492.119 461.61 492.767 460.16 493.674L434.575 509.674L414.687 502.281C414.298 502.137 413.867 502.334 413.722 502.723C413.578 503.111 413.776 503.543 414.164 503.687L434.398 511.209C434.616 511.29 434.86 511.265 435.057 511.142L460.955 494.946C462.258 494.131 463.693 493.549 465.195 493.226C470.765 492.028 474.803 492.946 477.418 495.929C481.478 500.563 481.014 507.611 476.38 511.671C476.041 511.969 475.684 512.245 475.311 512.499L442.23 535.048C442.228 535.05 442.225 535.051 442.223 535.053ZM443.712 535.853L476.156 513.739C476.579 513.45 476.984 513.137 477.369 512.799C482.625 508.193 483.152 500.197 478.546 494.941C477.153 493.352 475.424 492.274 473.37 491.703C476.304 487.579 476.145 481.831 472.67 477.855C470.011 474.813 465.966 473.891 460.643 475.038C459.172 475.355 457.767 475.926 456.491 476.726L434.191 490.708L417.453 484.467C417.39 484.356 417.297 484.259 417.178 484.19L385.748 465.994C374.128 457.414 362.127 454.463 349.794 457.173C346.184 457.966 342.816 459.608 339.968 461.963C330.072 470.146 328.683 484.801 336.865 494.697C340.383 498.951 344.627 504.001 349.598 509.847C365.345 528.366 401.062 549.175 456.787 572.338C456.914 572.39 457.041 572.441 457.17 572.49C463.93 575.054 471.49 571.652 474.054 564.891C475.643 560.701 474.491 556.254 470.687 551.62C469.467 550.134 467.968 548.9 466.274 547.989L443.712 535.853Z"/><path fill="#3B3B3B" d="M626.341 498.243C630.677 485.379 631.919 476.962 631.669 458.236C631.664 457.822 631.995 457.481 632.409 457.476C632.823 457.47 633.163 457.802 633.169 458.216C633.421 477.107 632.154 485.693 627.763 498.722C619.779 522.413 615.111 535.027 613.548 537.042C613.426 537.2 613.245 537.302 613.047 537.327C601.392 538.759 591.191 534.865 582.511 525.683C573.837 516.507 570.185 504.7 571.555 490.321L570.964 454.009C570.958 453.595 571.288 453.253 571.702 453.247C572.116 453.24 572.458 453.57 572.464 453.985L573.051 490.38C571.718 504.427 575.236 515.804 583.601 524.653C591.878 533.408 601.5 537.137 612.532 535.877C614.115 533.359 618.782 520.673 626.341 498.243Z"/><path fill="#3B3B3B" d="M556.956 412.282C555.432 411.506 554.054 410.47 552.884 409.222C548.647 404.699 547.176 400.226 548.572 395.869C550.706 389.213 557.831 385.547 564.487 387.68C564.974 387.836 565.451 388.022 565.916 388.236L582.919 396.225C588.478 399.778 589.524 400.756 586.058 399.16C581.443 397.036 574.52 393.848 565.289 389.599C564.879 389.41 564.458 389.246 564.029 389.109C558.162 387.228 551.881 390.46 550.001 396.327C548.79 400.105 550.083 404.039 553.979 408.196C555.03 409.318 556.267 410.248 557.637 410.945L584.858 424.802C585.065 424.908 585.212 425.104 585.255 425.333L589.229 446.551C589.305 446.958 589.037 447.35 588.63 447.426C588.222 447.502 587.831 447.234 587.754 446.827L583.849 425.971L556.956 412.282Z"/><path fill="#3B3B3B" d="M578.466 393.745C577.118 392.692 575.963 391.413 575.053 389.965C571.756 384.716 571.166 380.044 573.368 376.034C576.732 369.908 584.426 367.668 590.552 371.032C591.001 371.279 591.434 371.552 591.85 371.851L616.646 389.323C623.799 394.364 628.371 402.299 629.144 411.016L633.217 456.984C633.254 457.397 632.949 457.761 632.537 457.798C632.124 457.834 631.76 457.529 631.723 457.117L627.649 411.148C626.916 402.871 622.575 395.336 615.782 390.549L590.98 373.073C590.608 372.805 590.226 372.564 589.83 372.347C584.43 369.382 577.648 371.356 574.683 376.756C572.773 380.234 573.292 384.342 576.323 389.167C577.14 390.468 578.178 391.617 579.389 392.563L603.466 411.359C603.637 411.492 603.741 411.693 603.753 411.908L605.958 451.142C605.981 451.555 605.665 451.909 605.251 451.933C604.838 451.956 604.483 451.639 604.46 451.226L602.275 412.332L578.466 393.745Z"/><path fill="#fff" fill-rule="evenodd" d="M922.85 390.084C922.071 387.534 923.19 384.926 926.21 382.26C930.738 378.261 934.816 379.629 935.547 382.02C936.278 384.41 933.555 385.766 930.248 385.208C928.043 384.837 925.577 386.462 922.85 390.084ZM899.037 401.709C894.834 400.008 891.883 399.885 890.185 401.339C887.637 403.521 884.605 403.761 884 401.336C883.395 398.91 886.186 395.637 892.128 396.733C896.089 397.463 898.392 399.121 899.037 401.709Z" clip-rule="evenodd"/><path fill="#3B3B3B" d="M923.224 390.622C922.855 391.112 922.087 390.977 921.908 390.391C921.029 387.516 922.269 384.627 925.488 381.785C929.848 377.935 934.962 378.365 936.039 381.888C936.959 384.897 933.792 386.691 929.898 386.035C928.043 385.723 925.8 387.201 923.224 390.622ZM930.147 384.556C933.122 385.057 935.098 383.939 934.605 382.326C933.898 380.016 930.118 379.698 926.481 382.91C924.339 384.8 923.248 386.597 923.145 388.327C925.604 385.472 927.926 384.182 930.147 384.556ZM899.539 401.615C899.687 402.209 899.098 402.721 898.53 402.491C894.56 400.885 891.876 400.773 890.447 401.996C887.447 404.564 883.808 404.658 883.047 401.604C882.155 398.03 886.318 395.028 892.038 396.082C896.26 396.86 898.812 398.698 899.539 401.615ZM891.766 397.557C886.995 396.678 883.918 398.897 884.502 401.241C884.91 402.877 887.179 402.819 889.471 400.857C891.182 399.392 893.837 399.302 897.416 400.483C896.436 399.053 894.576 398.075 891.766 397.557Z"/><path fill="#fff" d="M868.957 378.61C872.687 381.2 884.007 379.239 902.919 372.726C921.831 366.213 940.958 354.442 959.976 339.534L815.976 149.596L868.957 378.61Z"/><path fill="#3B3B3B" d="M869.973 378.356C873.999 381.152 885.415 379.174 904.606 372.565C923.601 366.023 942.638 355.272 961.719 340.316C962.041 340.063 962.102 339.6 961.856 339.274L818.018 148.275C817.531 147.628 816.506 148.106 816.689 148.895L869.67 377.909C869.712 378.09 869.82 378.25 869.973 378.356ZM871.062 377.272L818.947 152.001L960.214 339.588C941.454 354.21 922.755 364.728 904.118 371.146C885.89 377.424 874.751 379.421 871.062 377.272Z"/><path fill="#fff" d="M978.828 709.726C978.828 709.726 932.247 747.226 932.247 766.226C932.247 785.226 976.747 862.726 976.747 877.226C976.747 891.726 955.247 937.726 885.747 937.726C843.569 937.726 781.552 937.678 699.695 937.584C691.963 937.575 685.703 931.3 685.711 923.568C685.715 920.897 686.481 918.283 687.922 916.034C693.289 907.653 699.231 898.883 705.747 889.726C724.247 863.726 739.247 837.726 755.247 826.226C771.247 814.726 788.828 820.339 776.328 796.339C767.995 780.339 754.692 764.577 736.419 749.055"/><path fill="#fff" d="M978.828 709.726C978.828 709.726 932.247 747.226 932.247 766.226C932.247 785.226 976.747 862.726 976.747 877.226C976.747 891.726 955.247 937.726 885.747 937.726C843.569 937.726 781.552 937.678 699.695 937.584C691.963 937.575 685.703 931.3 685.711 923.568C685.715 920.897 686.481 918.283 687.922 916.034C693.289 907.653 699.231 898.883 705.747 889.726C724.247 863.726 739.247 837.726 755.247 826.226C771.247 814.726 788.828 820.339 776.328 796.339C767.995 780.339 754.692 764.577 736.419 749.055"/><path fill="#3B3B3B" fill-rule="evenodd" d="M776.919 796.726C798.586 813.392 811.586 825.226 815.919 832.226C820.252 839.226 800.252 837.226 755.919 826.226L776.919 796.726ZM934.328 759.896C933.462 765.867 933.462 770.701 934.328 774.396C935.194 778.092 937.194 782.926 940.328 788.896L897.328 778.896L934.328 759.896Z" clip-rule="evenodd"/><path fill="#3B3B3B" d="M978.858 709.312C978.765 709.387 978.587 709.531 978.33 709.742C977.902 710.093 977.405 710.503 976.846 710.969C975.25 712.301 973.471 713.816 971.556 715.488C966.085 720.264 960.613 725.339 955.505 730.494C951.203 734.834 947.35 739.042 944.059 743.052C936.307 752.498 931.997 760.411 931.997 766.397C931.997 774.348 938.325 789.957 953.083 821.284C953.474 822.115 953.881 822.978 954.318 823.904C965.685 847.978 966.28 849.252 969.606 856.906C974.17 867.411 976.497 874.188 976.497 877.397C976.497 886.485 969.345 901.131 957.293 912.539C940.933 928.028 917.249 937.147 886.247 937.147C844.07 937.147 782.053 937.099 700.196 937.005C692.878 936.996 686.953 931.057 686.961 923.74C686.964 921.212 687.69 918.738 689.053 916.609C694.414 908.239 700.349 899.479 706.858 890.331C711.67 883.568 727.216 860.709 727.124 860.842C734.703 849.879 740.281 842.511 745.732 836.559C749.353 832.605 752.802 829.436 756.184 827.006C756.949 826.456 757.735 825.933 758.545 825.434C760.797 824.047 763.156 822.879 765.945 821.711C767.449 821.082 772.184 819.252 772.689 819.047C783.047 814.849 784.7 810.001 777.493 796.163C769.111 780.07 755.747 764.236 737.405 748.654C737.089 748.386 736.616 748.424 736.348 748.74C736.079 749.056 736.118 749.529 736.434 749.797C754.637 765.261 767.878 780.949 776.163 796.856C779.887 804.006 780.984 808.609 779.947 811.649C779.091 814.157 776.916 815.716 772.125 817.657C771.64 817.854 766.893 819.688 765.365 820.328C762.51 821.523 760.083 822.725 757.758 824.157C756.919 824.675 756.103 825.217 755.309 825.788C751.835 828.284 748.312 831.521 744.626 835.546C739.118 841.56 733.505 848.974 725.89 859.989C725.974 859.868 710.437 882.714 705.635 889.462C699.113 898.629 693.164 907.408 687.79 915.8C686.273 918.17 685.465 920.924 685.461 923.738C685.452 931.884 692.048 938.495 700.194 938.505C782.052 938.599 844.069 938.647 886.247 938.647C917.626 938.647 941.681 929.385 958.325 913.629C970.659 901.952 977.997 886.926 977.997 877.397C977.997 873.893 975.641 867.034 970.981 856.309C967.646 848.633 967.052 847.36 955.675 823.264C955.238 822.338 954.831 821.475 954.439 820.645C939.844 789.662 933.497 774.006 933.497 766.397C933.497 760.866 937.674 753.196 945.219 744.004C948.477 740.033 952.299 735.859 956.57 731.549C961.651 726.423 967.097 721.372 972.543 716.618C974.449 714.954 976.219 713.446 977.807 712.121C978.362 711.658 978.855 711.25 979.28 710.903C979.534 710.694 979.709 710.553 979.798 710.481C980.121 710.221 980.172 709.749 979.912 709.426C979.652 709.104 979.18 709.053 978.858 709.312Z"/><path fill="#3B3B3B" fill-rule="evenodd" d="M897.328 635.165C877.828 635.165 868.328 641.01 834.828 656.01C801.328 671.009 839.471 693.399 782.828 701.34C726.184 709.281 710.684 722.516 728.184 744.575C745.684 766.633 769.414 776.521 820.184 773.692C870.954 770.862 843.328 726.51 879.828 726.51C916.328 726.51 976.184 739.281 982.184 709.281C988.184 679.281 916.828 635.165 897.328 635.165Z" clip-rule="evenodd"/><path fill="#fff" fill-rule="evenodd" d="M955.692 278.22L931.005 214.818C930.342 213.117 929.354 211.562 928.094 210.24C924.13 206.08 920.116 204.497 916.054 205.493C909.434 207.115 905.382 213.798 907.004 220.418C907.035 220.544 907.068 220.669 907.103 220.793C923.272 278.819 939.536 316.719 955.894 334.493C972.681 352.733 997.735 358.733 1031.05 352.493L1029.55 290.993L1009.77 291.105L984.919 259.725L983.419 254.225L1001.92 230.726C1003.92 224.059 1003.09 219.225 999.419 216.225C995.752 213.225 991.919 213.225 987.919 216.225L940.419 240.225" clip-rule="evenodd"/><path fill="#3B3B3B" d="M1030.06 352.276C997.291 358.28 972.708 352.304 956.22 334.389C939.965 316.727 923.738 278.914 907.599 220.996C907.566 220.879 907.536 220.762 907.507 220.644C905.983 214.425 909.788 208.149 916.006 206.625C919.779 205.7 923.531 207.18 927.325 211.162C928.517 212.412 929.453 213.884 930.079 215.494L954.767 278.896C954.917 279.282 955.352 279.474 955.738 279.323C956.124 279.173 956.315 278.738 956.165 278.352L931.477 214.95C930.779 213.158 929.738 211.519 928.411 210.127C924.276 205.787 920.002 204.102 915.649 205.168C908.626 206.889 904.329 213.978 906.05 221.001C906.082 221.134 906.117 221.267 906.154 221.399C922.353 279.532 938.654 317.518 955.116 335.405C972.097 353.855 997.412 359.918 1030.97 353.634C1031.33 353.566 1031.59 353.246 1031.58 352.878L1030.08 291.378C1030.07 290.97 1029.73 290.644 1029.32 290.647L1009.54 290.759C1009.13 290.761 1008.79 291.099 1008.8 291.513C1008.8 291.927 1009.14 292.261 1009.55 292.259L1028.6 292.151L1030.06 352.276Z"/><path fill="#3B3B3B" d="M1001.02 233.345C1001.97 232.176 1002.7 230.851 1003.2 229.43C1004.99 224.287 1004.56 220.159 1001.87 217.149C997.755 212.557 990.692 212.156 986.092 216.254C985.755 216.554 985.436 216.875 985.138 217.213L962.025 243.478C961.751 243.789 961.782 244.263 962.093 244.536C962.404 244.81 962.878 244.78 963.151 244.469L986.264 218.204C986.522 217.911 986.798 217.634 987.089 217.374C991.072 213.826 997.189 214.173 1000.75 218.15C1003.04 220.706 1003.4 224.268 1001.78 228.937C1001.34 230.194 1000.69 231.366 999.852 232.399L983.024 253.117C982.877 253.298 982.822 253.537 982.876 253.764L987.263 272.106C987.359 272.509 987.764 272.757 988.167 272.661C988.569 272.565 988.818 272.16 988.722 271.757L984.421 253.775L1001.02 233.345Z"/><path fill="#fff" fill-rule="evenodd" d="M969.24 292.264L985.013 282.28C985.066 276.555 985.036 272.712 984.922 270.751C984.462 262.828 984.924 259.11 989.356 256.993C1002.42 250.751 1004.69 266.712 1007.92 277.251C1011.16 287.79 1011.07 295.198 1003.3 302.412" clip-rule="evenodd"/><path fill="#fff" fill-rule="evenodd" d="M969.517 272.059L964.517 251.059L983.748 227.328C984.77 226.067 985.565 224.637 986.098 223.103C988.048 217.484 987.6 213.082 984.755 209.896C980.375 204.992 972.849 204.568 967.945 208.948C967.586 209.269 967.246 209.611 966.929 209.973L941.919 238.726" clip-rule="evenodd"/><path fill="#3B3B3B" d="M968.745 291.276C968.395 291.497 968.291 291.96 968.513 292.31C968.734 292.66 969.197 292.765 969.547 292.543L985.32 282.56C985.536 282.423 985.667 282.187 985.669 281.933C985.722 276.191 985.692 272.336 985.577 270.353C985.083 261.85 985.854 259.097 989.585 257.315C996.705 253.914 1000.66 256.943 1003.78 265.842C1004.33 267.418 1004.83 269.072 1005.5 271.463C1005.63 271.911 1006.16 273.842 1006.3 274.347C1006.61 275.448 1006.86 276.311 1007.11 277.117C1010.6 288.489 1009.66 295.043 1002.7 301.508C1002.4 301.79 1002.38 302.265 1002.66 302.568C1002.94 302.872 1003.42 302.889 1003.72 302.607C1011.16 295.696 1012.19 288.548 1008.54 276.676C1008.3 275.885 1008.05 275.032 1007.75 273.942C1007.61 273.44 1007.07 271.509 1006.95 271.059C1006.27 268.639 1005.76 266.959 1005.19 265.345C1001.82 255.719 997.068 252.078 988.938 255.962C984.475 258.094 983.553 261.383 984.079 270.44C984.189 272.332 984.22 276.027 984.173 281.511L968.745 291.276Z"/><path fill="#3B3B3B" d="M984.643 227.638C985.719 226.309 986.557 224.803 987.118 223.187C989.15 217.332 988.673 212.647 985.626 209.235C980.97 204.022 972.97 203.571 967.757 208.226C967.375 208.567 967.014 208.931 966.677 209.316L940.265 239.402C939.991 239.714 940.022 240.187 940.333 240.461C940.645 240.734 941.119 240.703 941.392 240.392L967.804 210.306C968.102 209.966 968.42 209.646 968.756 209.345C973.351 205.241 980.403 205.639 984.507 210.234C987.15 213.193 987.569 217.312 985.701 222.695C985.197 224.147 984.445 225.5 983.477 226.694L964.245 250.425C964.099 250.606 964.045 250.844 964.099 251.071L969.099 272.071C969.195 272.474 969.599 272.723 970.002 272.627C970.405 272.531 970.654 272.126 970.558 271.723L965.643 251.083L984.643 227.638Z"/><path fill="#3B3B3B" fill-rule="evenodd" d="M1029.3 282.879L1017.42 293.226L1029.43 308.097L1019.42 321.226L1029.54 333.815C1022.95 340.995 1019.58 344.632 1019.42 344.726C1019.26 344.82 1023.01 348.6 1030.65 356.066L1029.3 282.879Z" clip-rule="evenodd"/><path fill="#3B3B3B" d="M948.287 533.652C946.009 533.126 943.194 531.582 941.671 530.014C939.109 527.378 938.485 523.879 939.482 519.56C940.145 516.687 941.67 514.054 943.688 512.503C946.307 510.489 949.897 509.906 953.574 510.755C956.722 511.481 959.424 513.453 961.049 516.14C962.601 518.707 963.084 521.796 962.38 524.847C961.714 527.731 960.208 529.69 957.563 531.426C954.548 533.404 951.244 534.335 948.287 533.652ZM948.625 532.191C951.121 532.767 954.036 531.946 956.74 530.172C959.08 528.636 960.345 526.99 960.918 524.509C961.535 521.837 961.115 519.147 959.766 516.917C958.35 514.575 955.988 512.851 953.236 512.216C949.972 511.462 946.841 511.971 944.602 513.693C942.882 515.015 941.533 517.343 940.943 519.898C940.051 523.762 940.583 526.743 942.746 528.969C944.065 530.325 946.621 531.728 948.625 532.191ZM952.647 580.732C950.368 580.206 947.554 578.662 946.03 577.094C943.469 574.458 942.844 570.959 943.841 566.64C944.505 563.767 946.03 561.134 948.047 559.583C950.667 557.569 954.256 556.985 957.933 557.834C961.082 558.561 963.784 560.533 965.409 563.22C966.961 565.786 967.443 568.875 966.739 571.926C966.073 574.81 964.567 576.77 961.922 578.506C958.908 580.484 955.604 581.415 952.647 580.732ZM952.984 579.27C955.481 579.847 958.396 579.026 961.1 577.252C963.44 575.716 964.705 574.07 965.277 571.589C965.894 568.916 965.474 566.227 964.125 563.996C962.709 561.654 960.347 559.931 957.596 559.296C954.331 558.542 951.2 559.051 948.961 560.772C947.241 562.095 945.893 564.423 945.303 566.977C944.411 570.841 944.943 573.823 947.106 576.049C948.424 577.405 950.981 578.808 952.984 579.27Z"/><path fill="#fff" fill-rule="evenodd" d="M775.419 125.726C774.883 122.508 775.005 118.521 777.919 114.226C778.392 113.529 779.558 112.529 781.419 111.226L785.419 108.226L814.419 104.726C816.825 103.582 818.491 102.582 819.419 101.726C825.607 96.0108 830.098 89.8442 833.919 86.7255C837.205 84.044 840.101 84.0285 841.919 83.7255C846.326 82.991 850.16 87.8243 853.419 98.2255L855.919 112.726L814.419 135.226C807.473 140.395 802.807 143.395 800.419 144.226C797.236 145.333 794.831 144.48 793.419 143.226C790.419 140.559 791.086 136.726 795.419 131.726C789.61 133.288 785.61 133.788 783.419 133.226C779.549 132.232 775.78 127.889 775.419 125.726Z" clip-rule="evenodd"/><path fill="#fff" fill-rule="evenodd" d="M875.194 607.252L900.666 629.254C910.153 637.448 914.988 649.794 913.59 662.252L911.461 681.21C910.36 687.827 907.223 691.867 902.051 693.332C896.878 694.797 893.738 695.345 892.629 694.976C889.174 700.076 886.221 703.198 883.77 704.341C881.319 705.484 877.506 705.518 872.332 704.442C868.162 710.15 864.772 713.601 862.162 714.795C861.162 715.253 859.911 715.546 858.407 715.677C853.354 716.114 848.392 714.128 845.035 710.326L837.162 701.41C829.557 692.796 826.263 681.202 828.203 669.877L828.234 669.698L824.95 653.536L813.694 639.752C818.069 630.387 827.375 621.706 841.612 613.709C855.849 605.712 867.043 603.56 875.194 607.252Z" clip-rule="evenodd"/><path fill="#3B3B3B" d="M823.977 654.34L812.838 640.7C812.656 640.477 812.618 640.169 812.739 639.908C817.19 630.381 826.608 621.596 840.97 613.529C855.394 605.427 866.814 603.231 875.228 607.043L875.409 607.158L900.881 629.159C910.555 637.515 915.486 650.105 914.06 662.809L911.925 681.806C910.779 688.692 907.453 692.977 901.98 694.527C897.29 695.855 894.262 696.447 892.696 696.279C889.289 701.242 886.349 704.311 883.811 705.494C881.261 706.684 877.458 706.752 872.378 705.746C868.266 711.321 864.897 714.716 862.199 715.951C861.114 716.447 859.78 716.76 858.196 716.897C852.906 717.355 847.712 715.277 844.197 711.296L836.324 702.379C828.569 693.596 825.21 681.772 827.188 670.223L827.195 670.183L823.977 654.34ZM874.512 608.365C866.631 604.853 855.696 606.977 841.704 614.837C827.809 622.642 818.681 631.077 814.3 640.119L825.256 653.535C825.333 653.629 825.386 653.741 825.41 653.86L828.693 670.022C828.712 670.113 828.713 670.206 828.697 670.298L828.667 670.477C826.765 681.578 829.994 692.944 837.449 701.386L845.322 710.303C848.522 713.927 853.25 715.819 858.067 715.403C859.491 715.28 860.66 715.005 861.575 714.587C864.034 713.461 867.352 710.084 871.451 704.473C871.625 704.235 871.922 704.121 872.21 704.181C877.24 705.227 880.905 705.195 883.178 704.135C885.473 703.064 888.348 700.025 891.732 695.029C891.921 694.75 892.271 694.632 892.59 694.738C893.489 695.036 896.582 694.497 901.571 693.084C906.442 691.704 909.389 687.908 910.44 681.6L912.569 662.641C913.94 650.429 909.2 638.327 899.901 630.294L874.512 608.365Z"/><path fill="#3B3B3B" d="M892.44 668.25C892.459 667.837 892.81 667.517 893.224 667.536C893.638 667.555 893.958 667.906 893.938 668.32L892.668 695.76C892.649 696.174 892.298 696.494 891.884 696.475C891.471 696.456 891.151 696.105 891.17 695.691L892.44 668.25ZM871.052 677.293C871.052 676.879 871.388 676.543 871.802 676.543C872.217 676.543 872.552 676.879 872.552 677.293L872.552 705.726C872.552 706.14 872.217 706.476 871.802 706.476C871.388 706.476 871.052 706.14 871.052 705.726L871.052 677.293ZM845.945 699.668C846.113 700.046 845.943 700.49 845.564 700.658C845.186 700.826 844.743 700.656 844.574 700.277L824.234 654.53C824.066 654.152 824.236 653.709 824.614 653.54C824.993 653.372 825.436 653.543 825.604 653.921L845.945 699.668ZM813.419 640.226C819.752 628.226 828.086 619.892 838.419 615.226C842.833 613.232 849.31 609.19 854.419 607.726C857.613 606.81 862.51 605.861 867.919 606.226C869.47 606.33 871.804 606.83 874.919 607.726L867.919 616.726L851.919 610.726C848.419 620.392 846.752 625.226 846.919 625.226C847.086 625.226 840.919 624.726 828.419 623.726L828.419 639.226L813.419 640.226Z"/><path fill="#FFF000" fill-rule="evenodd" d="M814.419 135.726C818.275 130.83 820.775 126.996 821.919 124.226C823.063 121.455 823.73 117.622 823.919 112.726C828.697 114.726 833.697 115.726 838.919 115.726C844.141 115.726 849.808 114.726 855.919 112.726C853.223 116.806 850.89 119.973 848.919 122.226C844.176 127.646 837.294 132.019 828.419 134.226C825.604 134.926 820.937 135.426 814.419 135.726ZM780.419 109.226C779.259 104.008 778.426 99.3418 777.919 95.2256C777.412 91.1094 776.912 84.9427 776.419 76.7256C785.345 85.8055 792.345 92.4722 797.419 96.7256C802.493 100.979 806.993 103.646 810.919 104.726C812.119 104.699 812.786 104.699 812.919 104.726C814.282 105 810.817 106.073 805.919 106.726C800.303 107.474 791.803 108.308 780.419 109.226Z" clip-rule="evenodd"/><path fill="#fff" d="M511.833 460.085C525.041 476.395 548.969 478.91 565.279 465.703C581.589 452.495 584.104 428.567 570.896 412.257C557.689 395.947 533.76 393.432 517.451 406.64C501.141 419.847 498.626 443.776 511.833 460.085Z"/><path fill="#3B3B3B" d="M520.867 469.179C517.403 466.982 514.231 464.194 511.507 460.83C498.039 444.198 500.603 419.797 517.235 406.329C533.867 392.861 558.267 395.426 571.736 412.057C585.204 428.689 582.639 453.09 566.007 466.558C556.865 473.961 545.375 476.52 534.644 474.561C529.725 473.984 525.103 472.298 520.867 469.179ZM509.076 454.577C508.233 453.069 507.505 451.519 506.891 449.938C507.169 450.603 507.462 451.265 507.77 451.926C508.197 452.841 508.632 453.725 509.076 454.577ZM511.605 414.369C512.368 418.328 510.73 438.327 530.122 452.537C545.766 463.999 561.365 462.562 576.919 448.225C576.903 448.319 576.886 448.412 576.869 448.505C580.867 436.786 578.937 423.334 570.57 413.001C557.623 397.013 534.167 394.548 518.179 407.495C515.646 409.546 513.452 411.861 511.605 414.369Z"/><path fill="#fff" d="M340.919 352.726C361.906 352.726 378.919 335.712 378.919 314.726C378.919 293.739 361.906 276.726 340.919 276.726C319.932 276.726 302.919 293.739 302.919 314.726C302.919 335.712 319.932 352.726 340.919 352.726Z"/><path fill="#3B3B3B" d="M313.172 287.676C320.21 280.458 330.041 275.976 340.919 275.976C362.32 275.976 379.669 293.325 379.669 314.726C379.669 336.127 362.32 353.476 340.919 353.476C337.599 353.476 334.377 353.058 331.302 352.273C326.388 351.227 321.809 349.086 317.919 346.726C311.319 342.721 306.501 336.593 304.282 327.378C302.912 323.413 302.169 319.156 302.169 314.726C302.169 307.664 304.058 301.043 307.359 295.341C308.861 292.57 310.781 289.997 313.172 287.676H313.172ZM322.214 282.506C320.974 286.776 311.534 303.988 322.919 324.726C332.079 341.411 346.859 346.857 367.259 341.065C374 334.324 378.169 325.012 378.169 314.726C378.169 294.153 361.492 277.476 340.919 277.476C334.101 277.476 327.711 279.307 322.214 282.506Z"/><path fill="#fff" d="M392.159 152.632C407.755 166.674 431.782 165.415 445.825 149.819C459.868 134.223 458.609 110.195 443.012 96.1525C427.416 82.1096 403.389 83.3688 389.346 98.9651C375.303 114.561 376.562 138.589 392.159 152.632Z"/><path fill="#3B3B3B" d="M415.398 86.0577C425.459 85.4028 435.764 88.6501 443.848 95.9288C459.752 110.249 461.036 134.75 446.716 150.654C432.396 166.559 407.894 167.843 391.99 153.523C388.539 150.415 385.777 146.829 383.713 142.955C381.812 139.764 380.4 136.392 379.414 133.116C377.19 125.724 377.709 117.946 382.226 109.613C383.862 105.75 386.157 102.089 389.122 98.7969C393.847 93.5487 399.681 89.8926 405.949 87.8638C408.92 86.8095 412.068 86.1827 415.398 86.0577L415.398 86.0577ZM425.578 88.2652C421.799 90.6087 403.266 97.0835 397.851 120.113C393.529 138.494 400.546 152.444 418.904 161.963C428.756 161.701 438.486 157.553 445.601 149.651C459.367 134.362 458.132 110.809 442.844 97.0435C437.777 92.4814 431.803 89.5668 425.578 88.2652Z"/><path fill="#fff" d="M727.79 360.661C748.154 365.738 768.777 353.346 773.855 332.983C778.932 312.619 766.54 291.996 746.176 286.919C725.813 281.841 705.189 294.233 700.112 314.597C695.035 334.96 707.427 355.584 727.79 360.661Z"/><path fill="#3B3B3B" d="M716.54 290.767C725.115 285.466 735.738 283.495 746.293 286.127C767.059 291.304 779.695 312.335 774.518 333.1C769.34 353.866 748.31 366.502 727.544 361.325C722.896 360.166 718.655 358.213 714.93 355.646C711.894 353.773 709.18 351.551 706.861 349.211C701.426 343.729 698.233 336.617 698.309 327.139C697.94 322.96 698.248 318.65 699.32 314.351C701.028 307.499 704.463 301.532 709.045 296.798C711.173 294.472 713.658 292.441 716.54 290.767ZM726.564 287.938C724.328 291.781 711.004 306.198 717.034 329.074C721.968 347.79 735.219 356.509 756.789 355.234C764.627 350.292 770.644 342.437 773.062 332.737C778.039 312.776 765.892 292.559 745.93 287.582C739.315 285.933 732.671 286.164 726.564 287.938Z"/><path fill="#3B3B3B" d="M817.044 136.23C816.281 136.135 815.515 136.013 814.745 135.864C814.684 135.852 814.626 135.833 814.572 135.808C814.145 136.224 813.706 136.634 813.255 137.039C811.266 138.825 809.158 140.407 806.907 141.877C806.079 142.418 805.278 142.914 804.393 143.442C804.1 143.616 802.91 144.316 802.678 144.457C798.792 146.818 792.589 144.677 791.479 141.142C790.898 139.292 791.784 136.726 794.063 133.36C784.498 135.252 778.321 133.834 775.673 128.953C773.516 124.978 773.669 119.441 776.192 115.004C777.243 113.153 778.642 111.57 780.357 110.303C777.659 103.777 775.992 91.9447 775.326 74.7549C775.298 74.0362 776.2 73.6942 776.656 74.2506C795.46 97.2057 808.584 106.668 815.704 102.89C819.144 101.064 821.834 98.6444 825.651 94.3557C825.984 93.9815 827.757 91.9677 828.261 91.4049C833.812 85.2051 837.68 82.6647 843.522 82.7089C847.794 82.7412 851.057 87.352 853.487 96.3436H865.918C866.49 96.3436 866.852 96.9579 866.574 97.4578C851.28 124.987 835.797 137.729 818.544 136.382V149.226C818.544 149.64 818.208 149.976 817.794 149.976C817.38 149.976 817.044 149.64 817.044 149.226V136.23ZM855.375 112.401C852.278 110.043 850.499 107.242 850.04 103.999C849.612 100.983 850.324 98.733 852.176 97.2485C849.888 88.5115 846.937 84.2347 843.51 84.2088C838.214 84.1688 834.667 86.498 829.378 92.4055C828.88 92.9625 827.109 94.974 826.772 95.353C825.212 97.1049 823.83 98.5586 822.503 99.7954C822.487 99.9687 822.411 100.137 822.275 100.267C818.414 103.972 813.897 106.173 808.438 107.292C804.301 108.14 800.674 108.327 793.19 108.326L792.767 108.326C792.481 108.326 792.481 108.326 792.194 108.326C788.058 108.326 784.611 109.293 781.939 111.031C781.863 111.148 781.753 111.244 781.617 111.306C781.565 111.329 781.513 111.345 781.46 111.356C779.813 112.526 778.484 114.006 777.496 115.745C775.225 119.741 775.086 124.727 776.991 128.237C779.401 132.679 785.558 133.825 795.63 131.489C796.311 131.331 796.819 132.109 796.4 132.668C793.561 136.463 792.435 139.18 792.91 140.692C793.722 143.278 798.828 145.041 801.899 143.175C802.142 143.027 803.341 142.323 803.625 142.153C804.494 141.635 805.278 141.15 806.087 140.621C808.278 139.191 810.325 137.653 812.253 135.923C819.119 129.757 823.169 122.343 823.169 113.374C823.169 112.96 823.505 112.624 823.919 112.624C824.333 112.624 824.669 112.96 824.669 113.374C824.669 121.626 821.421 128.615 815.827 134.536C829.847 136.901 842.723 129.73 855.375 112.401ZM810.961 105.115C802.99 104.136 791.693 94.7006 776.918 76.9257C777.622 92.5137 779.201 103.372 781.632 109.456C784.47 107.76 788.025 106.826 792.194 106.826C792.481 106.826 792.481 106.826 792.768 106.826L793.191 106.826C800.574 106.827 804.131 106.643 808.136 105.823C809.11 105.623 810.051 105.388 810.961 105.115ZM840.919 101.726C839.815 101.726 836.919 100.932 836.919 98.2259C836.919 95.5197 839.815 94.7259 840.919 94.7259C842.024 94.7259 844.919 95.5197 844.919 98.2259C844.919 100.932 842.024 101.726 840.919 101.726Z"/><path fill="#3B3B3B" d="M910.487 424.215C910.27 427.963 916.855 429.175 921.889 425.975C924.305 424.44 925.685 424.056 928.062 423.901C928.624 423.865 928.81 423.851 929.094 423.819C929.995 423.721 930.733 423.525 931.514 423.137C935.551 421.13 934.153 416.297 928.39 415.563C924.61 415.082 920.436 416.105 915.874 418.606C915.519 418.8 915.163 418.992 914.807 419.182C912.077 420.635 910.598 422.299 910.487 424.215ZM916.595 419.921C920.899 417.562 924.766 416.614 928.201 417.051C932.601 417.611 933.438 420.505 930.847 421.794C930.237 422.097 929.667 422.248 928.931 422.328C928.676 422.356 928.502 422.369 927.965 422.404C925.354 422.575 923.735 423.024 921.084 424.709C916.902 427.368 911.861 426.44 911.985 424.302C912.059 423.018 913.196 421.739 915.511 420.506C915.874 420.313 916.235 420.118 916.595 419.921Z"/><path fill="#fff" fill-rule="evenodd" d="M358.241 806.437C340.076 807.345 328.268 805.425 322.817 800.676C314.641 793.554 317.411 775.245 330.585 772.445C339.367 770.578 348.586 781.909 358.241 806.437ZM358.25 806.48C365.807 789.871 372.983 780.21 379.776 777.498C389.966 773.431 405.193 784.188 401.643 797.202C399.276 805.879 384.812 808.971 358.25 806.48Z" clip-rule="evenodd"/><path fill="#3B3B3B" d="M322.542 801.209C313.336 793.189 317.577 774.456 330.647 771.678C339.757 769.742 348.963 780.772 358.522 804.536C365.886 788.738 372.914 779.484 379.716 776.769C391.18 772.193 406.107 784.451 402.585 797.367C400.076 806.564 385.318 809.719 358.398 807.194C358.347 807.19 358.297 807.18 358.251 807.166C340.042 808.053 328.16 806.103 322.542 801.209ZM330.959 773.145C319.126 775.66 315.234 792.853 323.528 800.078C328.684 804.57 339.986 806.479 357.375 805.705C347.994 782.188 339.1 771.415 330.959 773.145ZM401.137 796.972C404.325 785.286 390.619 774.032 380.272 778.162C373.843 780.729 366.911 789.942 359.591 805.797C385.122 808.076 398.943 805.018 401.137 796.972Z"/><path fill="#fff" fill-rule="evenodd" d="M591.699 806.27C574.913 805.135 564.168 802.04 559.463 796.984C552.076 789.046 556.745 771.126 570.139 769.719C578.638 768.825 586.28 779.864 593.066 802.833C591.968 786.08 593.622 775.006 598.028 769.611C604.968 761.113 623.501 763.139 626.706 776.243C628.819 784.885 617.928 794.488 594.032 805.051L614.124 827.245L608.933 831.157L593.651 813.098L583.556 830.65L576.435 828.52L591.699 806.27Z" clip-rule="evenodd"/><path fill="#3B3B3B" d="M559.175 797.638C550.857 788.7 557.033 770.513 570.322 769.116C578.589 768.247 585.846 777.658 592.299 797.171C591.913 783.479 593.694 774.194 597.708 769.28C605.516 759.719 624.515 763.204 627.695 776.208C629.907 785.251 619.109 794.916 595.544 805.459L614.941 826.885C615.237 827.212 615.188 827.722 614.836 827.987L609.645 831.899C609.327 832.138 608.878 832.088 608.621 831.785L594.03 814.542L584.467 831.168C584.294 831.47 583.936 831.612 583.602 831.513L576.481 829.382C575.994 829.237 575.79 828.659 576.078 828.24L590.601 807.068C574.384 805.851 563.922 802.74 559.175 797.638ZM613.278 827.283L593.737 805.698C593.394 805.319 593.523 804.716 593.99 804.509C617.559 794.09 628.225 784.686 626.238 776.565C623.361 764.799 605.917 761.6 598.87 770.229C594.619 775.433 592.989 786.351 594.075 802.928C594.134 803.821 592.861 804.048 592.607 803.189C585.92 780.553 578.454 769.77 570.478 770.608C558.448 771.872 552.779 788.564 560.273 796.616C564.809 801.491 575.402 804.542 592.011 805.665C592.59 805.704 592.907 806.359 592.578 806.838L577.896 828.24L583.463 829.905L593.262 812.868C593.521 812.417 594.149 812.36 594.485 812.757L609.308 830.275L613.278 827.283Z"/><path fill="#3B3B3B" d="M933.232 432.408L945.232 426.908C945.608 426.735 945.774 426.29 945.601 425.913C945.428 425.537 944.983 425.371 944.607 425.544L932.607 431.044C932.23 431.217 932.065 431.662 932.237 432.038C932.41 432.415 932.855 432.58 933.232 432.408Z"/></svg>