<svg xmlns="http://www.w3.org/2000/svg" width="1440" height="1024" fill="none" viewBox="0 0 1440 1024"><rect width="1440" height="1024" fill="#fff"/><path fill="#FFDDD4" fill-rule="evenodd" d="M659.739 278.257L659.962 278.598L417.304 278.995L426.349 261.847C410.571 256.446 397.263 245.852 397.004 230.995C396.609 208.389 426.573 184.474 450.125 184.063C455.448 183.97 460.56 184.818 465.289 186.446C470.172 166.446 497.466 151.388 519.292 151.007C543.51 150.585 570.957 168.657 571.363 191.921C571.376 192.66 571.361 193.396 571.32 194.127C578.316 189.956 586.536 187.486 595.363 187.332C621.431 186.877 634.536 197.444 651.495 222.075C662.802 238.495 671.898 257.302 678.784 278.495C672.049 278.406 665.701 278.327 659.739 278.257ZM407.405 539.438L407.952 540.172L158.698 540.529L159.017 540L137 540.867C157.858 484.07 176.351 455.53 192.479 455.249C203.478 455.057 213.59 458.291 221.381 463.788C223.961 448.844 247.002 437.325 265.257 437.007C282.461 436.706 301.666 446.572 306.11 460.179C311.15 458.58 316.589 457.663 322.271 457.563C349.047 457.096 362.485 466.579 379.85 488.713C391.427 503.47 400.728 520.379 407.754 539.441C407.638 539.44 407.522 539.439 407.405 539.438ZM631.75 746.35L632.001 746.685L518.851 746.847L518.994 746.611L509 747.003C518.47 721.302 526.866 708.387 534.187 708.259C539.18 708.172 543.77 709.636 547.307 712.123C548.479 705.36 558.938 700.148 567.226 700.003C575.035 699.867 583.753 704.331 585.77 710.487C588.058 709.764 590.527 709.349 593.107 709.304C605.262 709.091 611.362 713.382 619.244 723.397C624.499 730.074 628.721 737.726 631.91 746.351C631.857 746.351 631.804 746.35 631.75 746.35Z" clip-rule="evenodd"/><path fill="#383838" d="M412.022 387.933C430.757 407.506 442.404 434.43 446.863 468.599C448.351 479.926 448.432 490.321 447.755 514.627C447.429 526.336 447.323 531.198 447.303 537.59C447.225 561.924 449.18 579.907 454.594 595.704C461.263 615.164 473.05 629.842 491.34 639.7C504.269 646.67 517.708 650.006 532.702 650.56C544.037 650.979 553.388 650.107 572.619 647.418C597.46 643.945 607.507 643.216 620.263 645.083C637.009 647.534 651.291 655.146 664.546 669.85C673.053 679.287 679.952 689.256 685.997 700.423C691.448 710.49 693.64 715.557 702.443 737.248C711.907 760.568 718.086 772.472 728.609 784.817C742.081 800.623 760.668 812.883 787.385 822.516C788.165 822.797 789.024 822.393 789.305 821.614C789.586 820.835 789.182 819.975 788.403 819.694C762.157 810.231 744.01 798.261 730.892 782.871C720.634 770.837 714.574 759.16 705.223 736.12C696.372 714.313 694.16 709.199 688.635 698.994C682.481 687.627 675.447 677.463 666.774 667.841C653.05 652.617 638.133 644.667 620.697 642.115C607.558 640.192 597.336 640.933 572.203 644.447C553.143 647.112 543.917 647.972 532.813 647.562C518.258 647.024 505.267 643.799 492.763 637.06C475.165 627.574 463.864 613.503 457.432 594.731C452.149 579.316 450.226 561.628 450.303 537.599C450.323 531.241 450.429 526.394 450.754 514.71C451.435 490.236 451.354 479.751 449.837 468.209C445.301 433.443 433.397 405.925 414.189 385.858C413.616 385.26 412.667 385.239 412.068 385.812C411.47 386.385 411.449 387.334 412.022 387.933Z"/><path fill="#D2FF04" fill-rule="evenodd" d="M377.209 383.387C353.645 393.333 306.754 384.784 271.557 359.887C245.302 341.349 226.403 311.328 223.222 285.423C219.932 258.624 224.965 231.509 237.553 209.309C253.541 181.151 280.761 160.782 309.545 157.247C360.959 150.935 423.516 199.271 430.962 259.916C438.408 320.56 418.314 366.149 377.209 383.387ZM385.116 380.502L394.866 374.569L421.574 390.231C419.963 395.164 416.642 399.3 411.698 402.526C406.755 405.753 398.052 409.542 385.465 413.707L385.116 380.502Z" clip-rule="evenodd"/><path fill="#383838" d="M396.861 377.534L386.57 388.01C385.99 388.601 385.04 388.61 384.449 388.029C383.858 387.449 383.849 386.499 384.43 385.908L392.121 378.078L383.954 383.125C383.25 383.561 382.325 383.343 381.89 382.638C381.454 381.933 381.672 381.009 382.377 380.573L394.176 373.281C394.667 372.978 395.287 372.983 395.773 373.293C438.87 400.832 470.027 409.523 489.325 399.735C516.385 385.975 526.891 390.501 529.341 410.448C530.424 419.273 522.968 430.098 507.245 443.056C502.752 446.695 502.092 453.393 505.834 457.895C506.417 458.642 507.185 459.34 508.092 459.967L539.018 480.45C539.709 480.908 539.898 481.839 539.441 482.529C538.983 483.22 538.053 483.409 537.362 482.952L506.411 462.452C505.243 461.645 504.252 460.744 503.498 459.777C498.716 454.025 499.565 445.416 505.347 440.733C520.328 428.386 527.281 418.292 526.363 410.814C525.328 402.383 523.126 397.684 518.797 395.819C513.458 393.519 504.444 395.413 490.683 402.41C470.566 412.614 439.393 404.245 396.861 377.534Z"/><path fill="#383838" d="M350.336 204.319C350.368 204.382 350.432 204.507 350.527 204.695C350.684 205.007 350.873 205.383 351.092 205.824C351.719 207.082 352.471 208.608 353.348 210.408C355.852 215.547 358.856 221.851 362.359 229.367C362.709 230.117 362.385 231.01 361.634 231.36C360.883 231.71 359.99 231.385 359.64 230.634C356.144 223.134 353.148 216.846 350.651 211.722C349.778 209.93 349.03 208.412 348.407 207.163C348.19 206.726 348.003 206.354 347.848 206.046C347.755 205.862 347.694 205.741 347.664 205.682C347.287 204.944 347.58 204.041 348.318 203.664C349.056 203.288 349.96 203.581 350.336 204.319ZM266.359 243.366C266.384 243.42 266.438 243.533 266.521 243.707C266.662 244.001 266.835 244.356 267.041 244.776C267.633 245.978 268.373 247.446 269.271 249.188C271.841 254.173 275.161 260.346 279.309 267.769C279.713 268.492 279.455 269.406 278.732 269.81C278.008 270.214 277.095 269.955 276.69 269.232C272.526 261.78 269.19 255.578 266.604 250.563C265.698 248.805 264.949 247.32 264.349 246.1C264.139 245.672 263.961 245.307 263.816 245.004C263.728 244.821 263.67 244.698 263.641 244.635C263.29 243.884 263.615 242.992 264.366 242.641C265.116 242.291 266.009 242.615 266.359 243.366ZM309.461 305.34C309.273 306.147 308.467 306.649 307.66 306.461C306.853 306.274 306.351 305.468 306.539 304.661C314.395 270.845 337.352 257.381 374.781 264.527C375.595 264.682 376.129 265.468 375.973 266.282C375.818 267.095 375.032 267.629 374.219 267.474C338.314 260.619 316.938 273.156 309.461 305.34Z"/><path fill="#fff" d="M384.666 206.232L382.868 207.108C378.897 209.045 377.248 213.834 379.185 217.806L386.637 233.085C388.574 237.056 393.363 238.705 397.334 236.768L399.132 235.892C403.103 233.955 404.752 229.166 402.815 225.194L395.363 209.915C393.426 205.944 388.637 204.295 384.666 206.232Z"/><path fill="#CAC8FF" fill-rule="evenodd" d="M989 962.5L593.302 964.751C591.093 964.763 589.292 962.983 589.279 960.774C589.268 958.844 590.637 957.182 592.532 956.821L887.719 900.717L855 865.5L928.49 892.969L931.388 892.418L901.5 801.5L982.7 873.142L986.5 821L1035.13 873.142L1091 880L1192.42 873.142L1262.02 791.952V856.808L1346 778.5L1306.66 908.512C1296.96 940.571 1267.41 962.5 1233.92 962.5H989Z" clip-rule="evenodd"/><path fill="#C298F6" fill-rule="evenodd" d="M1215.48 648.874C1215.09 649.268 1214.68 649.658 1214.28 650.044C1214.49 653.492 1214.6 656.544 1214.6 659.2C1214.6 671.5 1212.3 684.8 1207.8 699.1C1205.4 706.6 1198.5 711.7 1190.6 711.7H1185.3C1178.1 711.7 1172.2 705.8 1172.2 698.6C1172.3 697.3 1172.4 696.1 1172.8 694.9C1175.54 685.304 1177.43 676.408 1178.46 668.234L1176.2 668.8L1098 221.6L1111.7 204.8L1224.61 552.685C1238.52 591.838 1246.81 618.935 1249.5 633.8C1251.6 645.9 1251.7 659.4 1249.7 674.3C1248.7 682.1 1242.7 688.3 1235 689.6L1229.8 690.5C1222.7 691.8 1215.9 687 1214.6 679.9C1214.4 678.7 1214.3 677.5 1214.5 676.3C1215.57 666.27 1215.88 657.145 1215.48 648.874Z" clip-rule="evenodd"/><path fill="#F3D1B1" fill-rule="evenodd" d="M1127.7 371.9C1141.33 424.805 1151.1 464.505 1157 491C1162.9 517.495 1169.12 549.5 1175.63 587.015C1185.7 616.327 1195.16 650.822 1204 690.5C1212.84 730.178 1224.17 788.978 1238 866.9H1088.3L1054.5 450.442L1127.7 371.9Z" clip-rule="evenodd"/><path fill="#C298F6" fill-rule="evenodd" d="M1071.24 178.661L1079.48 207.614L1106.03 198.672L1096.16 164.675L1098.13 163.412L1100.2 146.822C1101.31 129.577 1087.01 118.696 1070.28 120.914C1052.16 123.302 1048.02 132.885 1043.74 150.883C1043.33 152.533 1041.34 154.717 1037.85 157.145C1036.98 157.752 1036.76 159.037 1037.37 159.91C1037.51 160.152 1037.68 160.298 1037.85 160.443C1040.6 162.26 1041.91 163.618 1041.93 164.345C1042.25 173.804 1047.42 179.112 1060.15 179.711C1063.23 179.757 1066.92 179.44 1071.24 178.661Z" clip-rule="evenodd"/><path fill="#383838" fill-rule="evenodd" d="M1091.62 148.185C1089.82 145.882 1086.62 145.496 1085.04 145.206C1083.25 144.965 1080.97 145.427 1078.03 146.448C1070.95 145.919 1065.64 144.491 1062.17 142.286C1058.7 140.081 1055.18 136.009 1051.61 130.069C1057.21 122.498 1066.71 118.685 1076.03 120.182C1079.01 120.617 1081.73 121.294 1084.03 121.972C1086.82 122.771 1089.64 124.297 1092.21 126.381C1093.15 127.132 1094.15 128.102 1094.95 129.023C1095.68 129.823 1096.65 131.302 1097.84 133.557C1099.05 135.714 1099.78 138.163 1099.98 140.686L1102.15 166.684L1087.92 164.68C1090.95 162.035 1092.59 159.972 1093.13 158.662C1094.46 154.975 1093.41 150.488 1091.62 148.185Z" clip-rule="evenodd"/><path fill="#fff" fill-rule="evenodd" d="M1059.92 152.456L1053.77 157.376C1052.8 158.151 1051.45 158.249 1050.38 157.623L1044.13 153.966L1049.52 147.68C1050.59 146.438 1052.45 146.279 1053.71 147.321L1059.92 152.456Z" clip-rule="evenodd"/><path fill="#383838" d="M1084.71 152.305L1082.69 157.027C1082.37 157.789 1081.49 158.143 1080.72 157.817C1079.96 157.492 1079.61 156.611 1079.93 155.849L1081.52 152.131L1079.92 152.043C1079.09 151.998 1078.46 151.29 1078.5 150.463C1078.55 149.636 1079.25 149.002 1080.08 149.047L1090.15 149.599C1090.97 149.644 1091.61 150.351 1091.56 151.179C1091.52 152.006 1090.81 152.64 1089.98 152.594L1084.71 152.305ZM1074.89 176.127C1075.7 175.947 1076.5 176.456 1076.68 177.265C1076.86 178.073 1076.35 178.875 1075.54 179.055C1075.55 179.052 1073.04 179.718 1071.49 180.094C1070.69 180.289 1069.88 179.795 1069.68 178.99C1069.49 178.185 1069.98 177.374 1070.79 177.179C1072.28 176.816 1074.83 176.14 1074.89 176.127ZM1045.19 144.941C1044.43 144.621 1044.07 143.742 1044.39 142.978C1044.71 142.214 1045.59 141.854 1046.35 142.174L1054.84 145.734C1055.61 146.054 1055.97 146.933 1055.65 147.697C1055.33 148.461 1054.45 148.821 1053.68 148.501L1045.19 144.941ZM1042.27 164.224C1043.97 165.266 1044.72 166.381 1044.67 167.399C1044.58 169.025 1043.12 169.899 1042.15 168.007C1041.42 166.795 1041.54 165.485 1042.27 164.224ZM1048.78 148.014C1050.48 147.865 1052.01 149.394 1052.19 151.43C1052.37 153.465 1051.13 155.236 1049.42 155.386C1047.72 155.535 1046.19 154.006 1046.01 151.97C1045.83 149.934 1047.07 148.163 1048.78 148.014Z"/><path fill="#383838" fill-rule="evenodd" d="M1087.96 164.039C1078.93 167.213 1076.93 172.889 1082.04 181.08C1090.18 194.242 1107.49 198.29 1120.65 190.142C1133.81 181.995 1137.86 164.689 1129.71 151.527C1126.01 145.554 1120.16 141.197 1113.36 139.233L1098.79 135.164C1097.37 143.851 1095.87 150.911 1094.38 156.458C1092.88 162.105 1090.81 164.641 1087.96 164.039Z" clip-rule="evenodd"/><path fill="#383838" fill-rule="evenodd" d="M1083.97 817.889L1074.21 831.36C1073.73 832.031 1072.79 832.181 1072.12 831.695C1071.45 831.209 1071.3 830.271 1071.79 829.6L1079.09 819.512L1071.49 824.363C1070.6 824.926 1069.61 825.28 1068.57 825.397C1064.8 825.824 1061.4 823.115 1060.97 819.346C1060.88 818.586 1060.91 817.818 1061.04 817.065C1061.81 812.762 1065.92 809.897 1070.22 810.666L1084.64 813.24L1080.43 779.059L1129.74 713.64L1174.74 751.834L1088 868.98C1082.97 858.398 1080.04 850.489 1079.36 844.061C1078.73 838.098 1080.27 829.454 1083.97 817.889ZM1079.89 815.44L1069.7 813.619C1067.02 813.142 1064.47 814.921 1064 817.592C1063.91 818.06 1063.9 818.537 1063.95 819.009C1064.19 821.131 1066.11 822.657 1068.23 822.416C1068.81 822.35 1069.38 822.151 1069.87 821.834L1079.89 815.44Z" clip-rule="evenodd"/><path fill="#FFE9D4" fill-rule="evenodd" d="M1051.5 822.9L1108.06 769.278L1126.2 752.083L1156.5 723.354C1100.64 676.378 1056.97 641.76 1025.5 619.5C994.032 597.24 965.198 580.573 939 569.5C963.765 553.401 985.932 536.234 1005.5 518C1025.07 499.765 1052.67 470.558 1088.3 430.378C1104.17 411.884 1115.4 399.258 1122 392.5C1131.9 382.363 1138.6 360.968 1134 348L1125.6 305.9H1066.3L821.3 539.513C802.4 557.505 802.4 585.999 821.3 603.99L1051.5 822.9Z" clip-rule="evenodd"/><path fill="#383838" fill-rule="evenodd" d="M1131 257.875L1115.39 212.463C1110.39 197.743 1095 189.352 1079.86 193.086L1063.15 197.157L1036.08 308.742L1145.38 306.306L1131.4 258.944C1131.26 258.555 1131.13 258.165 1131 257.875Z" clip-rule="evenodd"/><path fill="#383838" fill-rule="evenodd" d="M1119.76 892.628L1106.24 890.374C1105.21 890.202 1104.23 889.796 1103.38 889.188C1100.29 886.983 1099.57 882.694 1101.78 879.608C1102.22 878.986 1102.76 878.431 1103.36 877.961C1106.81 875.278 1111.78 875.899 1114.47 879.349L1121.8 888.78V866.98H1204L1216 927.98H1083C1088.4 917.68 1093.5 910.28 1098.2 905.88C1102.61 901.754 1109.74 897.364 1119.76 892.628H1119.76ZM1118.46 889.369L1112.1 881.191C1110.43 879.049 1107.34 878.663 1105.2 880.329C1104.83 880.621 1104.5 880.965 1104.22 881.352C1102.98 883.09 1103.38 885.505 1105.12 886.747C1105.6 887.089 1106.15 887.318 1106.73 887.415L1118.46 889.369Z" clip-rule="evenodd"/><path fill="#C298F6" fill-rule="evenodd" d="M672.103 400.935C655.834 405.05 643.292 407.805 634.5 409.2C622.5 411.1 610.4 411.6 598 410.7C589.6 410.1 582.8 403.8 581.5 395.6L580.8 391.3C579.6 383.7 584.8 376.5 592.4 375.3C593.5 374.9 594.5 374.9 595.5 374.9C610 375.8 623 375.3 634.5 373.5C640.491 372.568 648.194 370.907 657.619 368.545C637.642 364.972 625.877 360.432 622.4 355C617.5 347.5 617.1 337.2 621.1 324L723.545 346.765L953 328.646L1049.6 203.946C1058.4 192.146 1074.5 188.646 1087.4 195.646C1100.4 202.746 1106.3 218.246 1101.1 232.146C1051.5 365.846 1012.5 423.946 967.5 429.846C936.003 434.019 845.765 450.532 696.883 479.485C678.63 487.568 664.914 492.896 655.8 495.5C644 498.9 630.6 500.4 615.5 499.9C607.7 499.7 600.9 494.4 598.7 486.9L597.2 481.8C595.2 474.8 599.2 467.6 606.2 465.6C607.4 465.2 608.6 465.1 609.8 465.1C625.8 465.1 639.5 463.5 650.8 460.3C658.202 458.177 668.172 454.342 680.69 448.776C679.827 446.347 679.027 443.967 678.291 441.636C658.425 448.266 643.828 452.554 634.5 454.5C623.2 456.9 611.9 457.5 600.6 456.5C592.8 455.7 586.4 450 584.7 442.3L583.5 436.8C582 429.7 586.5 422.8 593.6 421.3C594.8 421.1 596 421.1 597.2 421.1C611.3 422 623.7 421.4 634.5 419.1C642.902 417.341 655.377 413.504 671.924 407.588C671.891 405.862 671.916 404.181 672 402.546C672.028 402.008 672.062 401.471 672.103 400.935Z" clip-rule="evenodd"/><path fill="#383838" d="M654.475 369.423C653.689 369.685 652.839 369.26 652.577 368.474C652.315 367.689 652.74 366.839 653.526 366.577C653.666 366.53 653.937 366.44 654.332 366.307C654.99 366.087 655.754 365.83 656.615 365.54C659.073 364.71 661.813 363.779 664.764 362.769C673.194 359.88 681.624 356.93 689.491 354.089C690.27 353.808 691.13 354.211 691.411 354.991C691.692 355.77 691.289 356.63 690.51 356.911C682.626 359.758 674.181 362.714 665.736 365.607C662.781 366.619 660.037 367.552 657.573 368.382C656.711 368.673 655.946 368.931 655.286 369.152C654.889 369.285 654.616 369.376 654.475 369.423ZM591.552 383.411C591.883 382.651 592.767 382.304 593.527 382.635C594.286 382.966 594.633 383.85 594.302 384.61C591.164 391.806 592.075 397.023 596.958 400.715C597.619 401.215 597.75 402.156 597.25 402.817C596.751 403.477 595.81 403.608 595.149 403.108C589.069 398.511 587.896 391.794 591.552 383.411ZM605.552 472.411C605.883 471.651 606.767 471.304 607.527 471.635C608.286 471.966 608.633 472.85 608.302 473.61C605.164 480.806 606.075 486.023 610.958 489.715C611.619 490.215 611.75 491.156 611.25 491.817C610.751 492.477 609.81 492.608 609.149 492.108C603.069 487.511 601.896 480.794 605.552 472.411ZM593.888 427.353C594.245 426.606 595.141 426.289 595.888 426.647C596.636 427.004 596.952 427.9 596.594 428.647C593.207 435.729 593.936 440.976 598.687 444.836C599.33 445.358 599.428 446.303 598.905 446.946C598.383 447.589 597.438 447.687 596.795 447.164C590.88 442.358 589.942 435.604 593.888 427.353ZM620.78 326.372C620.298 325.698 620.454 324.761 621.128 324.28C621.803 323.798 622.739 323.954 623.221 324.628C627.772 331 633.974 332.181 642.35 328.149C643.096 327.789 643.992 328.103 644.352 328.849C644.711 329.596 644.397 330.492 643.651 330.852C634.026 335.486 626.229 334 620.78 326.372Z"/><path fill="#383838" d="M1214.5 640.441C1214.53 639.613 1215.23 638.969 1216.06 639.001C1216.89 639.034 1217.53 639.731 1217.5 640.559L1216 678.559C1215.97 679.387 1215.27 680.032 1214.44 679.999C1213.61 679.966 1212.97 679.269 1213 678.441L1214.5 640.441ZM1222.62 678.467C1221.92 678.034 1221.7 677.11 1222.13 676.404C1222.56 675.698 1223.49 675.478 1224.19 675.911C1230.88 680.02 1236.18 679.844 1240.51 675.522C1241.1 674.937 1242.05 674.939 1242.63 675.526C1243.22 676.112 1243.22 677.062 1242.63 677.647C1237.23 683.028 1230.42 683.255 1222.62 678.467Z"/><path fill="#383838" d="M1021.91 391.057C989.82 381.959 971.586 394.582 968.008 428.342C967.921 429.166 968.518 429.904 969.342 429.991C970.166 430.079 970.904 429.482 970.992 428.658C974.375 396.733 990.807 385.357 1021.09 393.943C1021.89 394.169 1022.72 393.706 1022.94 392.909C1023.17 392.112 1022.71 391.283 1021.91 391.057Z"/><path fill="#383838" d="M938.032 568.65L931.032 568.5C930.204 568.483 929.518 569.14 929.5 569.968C929.483 570.796 930.14 571.482 930.968 571.5L937.968 571.65C938.796 571.667 939.482 571.01 939.5 570.182C939.517 569.354 938.86 568.668 938.032 568.65Z"/><path fill="#fff" d="M1124.28 892.538L1135.01 902.374C1135.62 902.934 1135.67 903.883 1135.11 904.494C1134.55 905.104 1133.6 905.146 1132.99 904.586L1120.99 893.586C1120.7 893.319 1120.53 892.965 1120.5 892.601C1119.96 892.111 1119.79 891.241 1120.32 890.559L1129.04 879.349C1131.72 875.9 1136.69 875.278 1140.14 877.961C1140.75 878.431 1141.28 878.986 1141.73 879.608C1143.93 882.694 1143.22 886.984 1140.13 889.188C1139.28 889.796 1138.3 890.202 1137.27 890.374L1124.28 892.538ZM1125.05 889.369L1136.77 887.415C1137.35 887.318 1137.91 887.089 1138.38 886.747C1140.12 885.505 1140.53 883.09 1139.28 881.352C1139.01 880.965 1138.68 880.621 1138.3 880.329C1136.16 878.663 1133.07 879.049 1131.41 881.191L1125.05 889.369Z"/></svg>