<svg xmlns="http://www.w3.org/2000/svg" id="Layer_1" data-name="Layer 1" viewBox="0 0 2395 1800"><defs><style>.cls-1{fill:#868686}.cls-2{fill:#4c74ee}.cls-3{fill:#191919}.cls-4,.cls-6{fill:#fff}.cls-4{stroke:#191919;stroke-linecap:round;stroke-linejoin:round;stroke-width:2px}.cls-5{fill:#0f0f0f}.cls-7{fill:#ffcd6c}.cls-8{fill:#3b66ec}</style></defs><title>Artboard 1 copy 4</title><path d="M365.28,888.66a471.7,471.7,0,0,1-17-122.55c-.45-79.75,22.49-137.88,68.37-254.13,0,0,18.43-46.71,80.08-122.5,5-6.1,13.19-16,18.18-14,11.8,4.67-12.12,68.78-12.59,132.83-.29,40.58,8.73,97.28,47.54,162.8-30.74,23.56-63.52,38.92-100.67,86.09C413.11,803,380.92,854,365.28,888.66Z" class="cls-1"/><path d="M759.53,1239c-.65-.52-1-.71,0,0Z" class="cls-2"/><path d="M1391.37,1309.85l.61-.16a13.92,13.92,0,0,1,1.15-.82Z" class="cls-2"/><path d="M1490,1276.51l.6-.23C1490.49,1276.2,1490.55,1276,1490,1276.51Z" class="cls-2"/><path d="M1151.41,1335.72a10,10,0,0,0-1.79.07C1150.14,1335.76,1150.68,1335.73,1151.41,1335.72Z" class="cls-2"/><path d="M661,1083.18s.06.25.1.44c0-.37-.07-.74-.08-1.12Z" class="cls-2"/><path d="M661.7,1085.16c.32,2.27-.41-.56-.64-1.54a43.67,43.67,0,0,0,1.38,7.49C662.7,1091,661.71,1086.31,661.7,1085.16Z" class="cls-2"/><path d="M807.36,801.22l-.89.54C806.84,801.55,807.11,801.38,807.36,801.22Z" class="cls-2"/><path d="M1161.65,1351l-1.6.06A9,9,0,0,0,1161.65,1351Z" class="cls-2"/><path d="M759.9,828l-.21.74C760,828.28,760,828.08,759.9,828Z" class="cls-2"/><path d="M1393.13,1308.87l.68-.37A6.42,6.42,0,0,0,1393.13,1308.87Z" class="cls-2"/><path d="M1569.88,1224.39c.12.09.37,0,.62-.07l.21-.17Z" class="cls-2"/><path d="M1527.34,811.15a.61.61,0,0,0,.14.29l1.93.56A20.54,20.54,0,0,0,1527.34,811.15Z" class="cls-2"/><path d="M1641.52,1116.69c0-.13,0-.44,0-.48-.42,1-1.09,3-1.94,5.55-.4,1.29-1,2.71-1.5,4.27s-1.11,3.26-1.82,5l.4.64c.94-2.45,1.7-5,2.56-7.46S1640.74,1119.2,1641.52,1116.69Z" class="cls-2"/><path d="M1660.85,971.3c.5,4.86.88,9.74,1.19,14.61-1.84-11.57-3.82-21.52-5.83-30.54-1-4.51-2-8.79-3.06-12.93-.53-2.08-1.06-4.12-1.58-6.14s-1.19-4.16-1.86-6.2a111.61,111.61,0,0,0-4.71-11.91c-.9-1.94-1.87-3.86-2.92-5.78s-2.07-3.65-3.1-5.47a215.27,215.27,0,0,0-15.29-23l1.53,1.66c-1.63-2.45-3.37-4.06-9.57-11.5-3.14-3.69-7.39-8.85-13.8-15.93a304.3,304.3,0,0,0-27.35-26.81l.07-.1a44.92,44.92,0,0,1-5.36-4.16l4.27,3.72c1.41,1.25,2.86,2.45,4.21,3.77-5.47-4-10.51-7.09-18-12.09-1.49-1.21-1.93-1.72-2-2l-4.66-2.94-2.34-1.46-2.39-1.38L1543.6,812c-1.58-.94-3.24-1.75-4.85-2.62-1.86-1.28-3.69-2.65-5.61-3.85-3.12-1.32-4.17-1.26-6.41-2a41.4,41.4,0,0,1-4.7-1.79c-1.08-.47-2.33-1.06-3.82-1.76s-3.24-1.49-5.27-2.46c2.91,1.83.78,1.13-1.83.15s-5.79-2.08-4.86-1.42c-.79-.44-2.62-1.41-4.13-2.12-5-1.76-12.38-4-19.13-5.73a131.27,131.27,0,0,0-15.4-3.06l1.75.5c1.11.32,2.72.75,4.66,1.37,3.9,1.17,9.16,2.93,14.67,5s11.23,4.46,16.14,6.78,9,4.48,11.47,5.8c-13.5-6-3.64-1.37-1.12.1l1,.12a68.12,68.12,0,0,1,7.26,4,44.55,44.55,0,0,0,4.18,2.71c0-.05-.06-.18-.14-.29l-.54-.17c-.32-.3-.06-.27.4-.12,0-.19.39-.12,2.51,1l-.44-.14c1.69.74,3.88,2,6,3.12s4.09,2.26,5.25,3l-.26.55c3.08,1.16,12.42,7,21.1,14.12,1.12.84,2.19,1.75,3.25,2.66l3.14,2.69,3,2.6,2.75,2.55,4.74,4.36c1.34,1.3,2.44,2.35,3.25,3.08,3,3.18,6.54,6.52,10.24,10.1a134.78,134.78,0,0,1,10.89,11.72c5.57,6.64,6.65,8.55,7.13,9.55s.26,1.19,2.65,4.81c6.1,8.93-.71-2.19,1.89,1.27,2.32,3.67,4.6,7.35,6.72,11.12-2.1-3.12-2.7-3.74-2.66-3.47s.69,1.49,1,2.13c3.09,4.66,6.61,10.9,9.56,16.42,1.51,2.8,2.82,5.18,3.86,7.18a23.36,23.36,0,0,0,2.49,4.1,78.45,78.45,0,0,1,3.9,13.09l.69,3.47c.23,1.13.51,2.32.9,3.89-.33-2.15-1.25-6.4-1-6.45,1,6,.87,2.74.34.32,1.49,4.38,3.94,16.18,5.66,27.12s2.84,21,3.64,21.88l-.24,0c1.27,2,1.75-1.57,3.15,4.78.06,1.44.06,2.89.08,4.34q.61,3.2,1.12,6.42c.11,4.37-.36,2.26-.48,2.27a169.06,169.06,0,0,1,1.27,18.18c.13,6.61.06,13.5-.22,19.89q1.53-6.74,2.75-13.59c-.21,5.45-.72,13.06-1.34,19.55s-1.16,11.88-.84,13c-.49,2.14-1,4.27-1.56,6.38-2.13,10.64-2.74,14.33-2.74,16.52a18.56,18.56,0,0,1-.76,7c-.49,1.76-1.08,3.48-1.63,5.21s-1.1,3.46-1.73,5.16c.47-1.73.85-3.49,1.25-5.24s.83-3.5,1.16-5.27c-1.36,5.23-2.41,8.85-3.52,12.17s-2.21,6.35-3.69,10.36c0,0,0,.1,0,.1a4.79,4.79,0,0,1,.44-1c-.12.48-.26,1-.41,1.44a23.2,23.2,0,0,1-.92,4.83c-.3,1.22-.73,2.61-1.25,4.14s-1.06,3.21-1.73,5c-1,2.49-1.89,4.88-2.83,7.27s-1.92,4.8-3.07,7.35-2.47,5.25-4,8.26c-1.66,2.94-3.46,6.23-5.78,9.84l-1.27,4.21c-2.26,3.67-4.82,7.14-7.28,10.67l-.66-.44,2.79-4.39,1.56-2.47c.53-.85,1-1.77,1.56-2.69l3.28-5.75c1.09-2,2.13-4.12,3.23-6.23l1.64-3.19,1.5-3.27c1-2.18,2-4.33,3-6.48s1.79-4.28,2.65-6.33l2.29-6-.24-.4c-.85,2.24-1.74,4.55-2.63,6.85s-1.84,4.56-2.76,6.73l-2.76,6.08-1.23,2.66-1.2,2.28c-1.58,2.67-6,9.23-3.78,3.92-.65,1.88-1.44,3.69-2.19,5.52l-2.8,4.88c-.91,1.5-1.81,2.89-2.64,4.21l-2.36,3.74c-.74,1.18-1.53,2.23-2.23,3.27-1.44,2.06-2.72,3.94-4,5.68l-3.8,5-1.9,2.45-2.08,2.44c-1.44,1.67-2.93,3.47-4.66,5.4l-6,6.37c-2.32,2.28-4.86,4.89-7.88,7.74q1.18-.85,2.31-1.77c-4.47,4.86-9.13,9.56-11,10.27l-2.8,2.5-1.41,1.25-1.45,1.2-5.79,4.74c-4,3-7.8,6-11.67,8.6s-7.57,5.05-11,7.22-6.77,3.92-9.62,5.48l-1.94,2.28c-1.82,1.08-4.27,2.15-6.41,3.19s-4,2-4.56,3.11c-1.28.81-2.55,1.64-3.84,2.42l-3.9,2.32c-2.57,1.36-4.58,2.56-6.75,3.69a61,61,0,0,1-7.52,3.51h0l0,0-1.18.43s.06,0,.1,0c-6,2.64-5.91,2.81-6,3.08s-.44.61-7.44,3.44a14.5,14.5,0,0,0-4.85,2.43,25.64,25.64,0,0,1-6.49,3.43l-7.38,1.46c-6.37,2-10,3.53-14.29,5.27a195.17,195.17,0,0,1-18.56,6.78c-2.26.57-4.24,1-5.86,1.32a21.88,21.88,0,0,1-3.67.39c-1.59,0-1.34-.67,1.47-2-7.77,3.52-3.44,1.92-14.11,5.45-1.8,0-.67-.46,1.59-1.55a41.45,41.45,0,0,0-7.48,2,26.92,26.92,0,0,1-5.62,1.89c-1.88,1.47-4,3.52-6.35,4.17l2.91-.4a169.33,169.33,0,0,1-25.35,6l.24-.54-9.67,2.16-.73-.5c-4.62.92-9.24,1.86-13.88,2.69l1.94-.16c-3.25.66-14,2.66-20.21,3.21l.17-.37c-8.78.78-16.72,1.89-25,3.12s-17,2.51-27.29,3.5l2.64-.94c-7.07-.08-1.83,1.26-10.21,1.62l-.48-.83c-7.26,1.72-9.53.48-14.62.42l2.45,1-9.57.38c-10.54.21-6.53-1.06-5-1.74l-7.11,1.26-1.44-.93c-5.18,1.39-5.24.08-14.39,1-.77-.35,1.54-.65-1.58-.7q-7.53.95-15.09,1.79l9.11-.83-1.07,1.48c-9.5,1.34-12.9.11-19.7.59l4.68-.48c-11.1.47-11.69-.17-18-.49,2,.27,4.92.67.42.86-3.3.07-1.79-.51-4.91-.69-.75,1-8.72,1.43-16,.86.09-.14.25-.27.72-.35a27,27,0,0,1-6,.08l1.91-1-6.21.92c-4.13-.36-10.16.3-9.6-.42l2.35-.17q-15.61-.44-31.17-1.22l-.4-.88c-3.13,1.07-16.92-1.28-16,.23-5.82-1.09-23.13-1-19.56-2.38-10.19-.83-18-1.17-26.47-1.72a291,291,0,0,1-29.63-3.33c-4.29-1.29-12.45-2.62-21.47-4.12s-18.91-3.11-26.7-4.69c-15.32-2.61-27.87-5.1-40.43-7.94s-25.11-6-40.28-10.66c-8.78-3.84-20-7.54-31.35-11.7s-22.66-8.71-31.6-13.67c-1.79-.59-3.6-1.13-5.37-1.75q-2.18-1.36-4.66-2.78l-2.56-1.41-2.65-1.51-5.64-3.08-5.9-3.35c-8-4.61-16.47-9.81-23.82-15.8-4-2.38-6-3.8-6.87-4.39.67.54,1.63,1.43,1.67,2.08-1-.88-2.39-1.92-3.8-3s-2.84-2.25-4.13-3.29c-2.59-2.08-4.48-3.78-3.85-3.93.37.26.74.54,1.13.79.59-.11-2.59-2.66-6.47-5.72s-8.23-6.89-10.05-9.32l1.65,3.06c-2.4-2.42-4.86-4.77-7.21-7.23.68.61,1.37,1.2,2.08,1.78a184.19,184.19,0,0,1-20.36-21.19c-2.67-3.47-5.3-6.72-7.56-10.11-1.15-1.67-2.32-3.3-3.41-5l-3.15-5c-.51-.83-1.05-1.66-1.55-2.5l-1.46-2.55c-1-1.71-2-3.41-3-5.14s-1.86-3.52-2.81-5.32c-.48-.89-1-1.79-1.45-2.7s-.92-1.86-1.39-2.8c-.93-1.88-1.89-3.79-2.86-5.75l-2.83-6.11c-.49-1-1-2.1-1.49-3.18l-1.46-3.31c-1-2.23-2-4.58-3-7,1.53,2.38.61.53-.43-2.09-.53-1.31-1.12-2.8-1.51-4s-.54-2.19-.28-2.42c-1.71-10.46-5.85-18.58-8.14-27-.07,0-.16-.07-.37-.53-.47-2.48-1-5-1.43-7.44s-.9-5-1.24-7.47c3,8.66-3-10.56-.37-2.57-1.21-9.8-2.22-20.37-2.59-31.43a295.54,295.54,0,0,1,.75-34.27c1.92-23.34,7.32-47.17,15.94-68.18L672,940.93c.26-.67.52-1.36.78-2s.57-1.37.86-2.07c.57-1.4,1.16-2.83,1.74-4.27,1.19-2.86,2.52-5.72,3.76-8.52s2.68-5.41,4-7.84,2.67-4.58,3.86-6.42,2.41-3.77,3.5-5.75,2.07-4,3.09-5.77c2-3.62,3.45-6.8,4.46-8.18,1.25-2.06,2.59-4,3.84-5.7a52.69,52.69,0,0,1,3.51-4.15c2-2.11,2.93-2.81,1.64-1.21,1.5-2.08,3.06-4.07,4.58-6.16l2.33-3.15,2.51-3.17,2.68-3.29c.94-1.1,2-2.19,3-3.32s2.15-2.29,3.33-3.46,2.47-2.3,3.81-3.49a15.69,15.69,0,0,0,2.45-1.9c1.08-.9,2.37-2.06,3.8-3.38l2.24-2.09c.79-.72,1.61-1.45,2.45-2.2,1.68-1.5,3.37-3.12,5.15-4.59,6.92-6.11,13.91-11.29,14.52-10.79l.05-.2c7.81-4.85,15.23-9.78,23-14.47a168.15,168.15,0,0,1,25.23-12.76,8.34,8.34,0,0,1-.86.64,276.92,276.92,0,0,1,36.37-18.45q-6.3-.85-12.75-1.4a297.6,297.6,0,0,0-35.17,9.84,288.65,288.65,0,0,0-80.09,57.49,256.64,256.64,0,0,0-47.66,63.22l-2.69,5.43-2.51,5.53c-.86,1.83-1.63,3.7-2.39,5.57s-1.57,3.73-2.29,5.62c-2.91,7.55-5.45,15.24-7.68,23s-4,15.67-5.45,23.61-2.52,15.94-3.25,24a295,295,0,0,0,7.54,95.7l2.25,6.52,2.39,6.45a206.6,206.6,0,0,0,9.07,28.66,231.22,231.22,0,0,0,14.32,29.23,257.67,257.67,0,0,0,18.53,27.38c6.66,8.65,13.61,16.82,20.58,24.3l1.3-.09c8.25,8,7.3,7.86,9.29,9.89,19.81,18,42.21,33.1,65.67,45.68a474.12,474.12,0,0,0,72.68,31,689.29,689.29,0,0,0,74,20.13c24.47,5.29,48.56,9.35,71.88,12.61,4.47.92,13.58,2,22.46,3s17.53,1.8,21,2.45c15.3.65,31,1.32,46.74,1.84s31.46.88,46.65,1.16l-1.15.09,14.37,0c.61.09.68.21.22.28,8.12-.38,18.58-.38,29.5-.41s22.31-.06,32.27-.33l-1.16.16q43.54-1.83,85.57-7.44a779.94,779.94,0,0,0,83-15.61,596.51,596.51,0,0,0,80.46-25.71,420,420,0,0,0,76.45-39.92,260.08,260.08,0,0,0,64.43-59,274.73,274.73,0,0,0,43.4-83.11,188.7,188.7,0,0,0,6.86-26,279.82,279.82,0,0,0,5.21-48.19c.21-8.67.05-17.33-.42-25.5s-1.22-15.86-2.05-22.62C1663.45,983.81,1661.46,974,1660.85,971.3Z" class="cls-2"/><path d="M1557.76,820.55l.42.26C1558.39,820.45,1557.69,820.19,1557.76,820.55Z" class="cls-2"/><path d="M1654.13,1045.69c0-.27,0-.54,0-.79-.21,1-.42,2-.68,3C1653.71,1047.14,1653.92,1046.42,1654.13,1045.69Z" class="cls-2"/><path d="M1615.63,892.67c4,6,4.23,6.25,3.82,5.3A61.23,61.23,0,0,0,1615.63,892.67Z" class="cls-2"/><path d="M1502.41,793.74c-3.72-1.34-2.38-.6-.29.43,1.92.62,3.5,1.26,4.64,1.66l1.78.67C1506.51,795.63,1504.53,794.58,1502.41,793.74Z" class="cls-2"/><path d="M1515.16,804.9l-1.24-.15C1516.05,805.55,1516,805.4,1515.16,804.9Z" class="cls-2"/><path d="M958.2,1147.65c-.31-.16-.49-.17,0,0Z" class="cls-2"/><path d="M1226.61,1172.06l.26,0a5.7,5.7,0,0,1,.49-.55Z" class="cls-2"/><path d="M1269.71,1166.93h.27C1269.93,1166.82,1270,1166.69,1269.71,1166.93Z" class="cls-2"/><path d="M1125.89,1175.94a1.83,1.83,0,0,0-.75.07A6.88,6.88,0,0,1,1125.89,1175.94Z" class="cls-2"/><path d="M898.9,1102.74l.09.15c0-.15,0-.29-.07-.45Z" class="cls-2"/><path d="M899.55,1103.32c.25.87-.36-.09-.56-.43a6.3,6.3,0,0,0,1.22,2.71C900.48,1105.45,899.53,1103.82,899.55,1103.32Z" class="cls-2"/><path d="M967.34,1007.57l-.38.23A2.11,2.11,0,0,0,967.34,1007.57Z" class="cls-2"/><path d="M1129.61,1191.27l-.68,0A1.8,1.8,0,0,0,1129.61,1191.27Z" class="cls-2"/><path d="M945.81,1014.16l0,.55A.58.58,0,0,0,945.81,1014.16Z" class="cls-2"/><path d="M1227.36,1171.48l.3-.23A2,2,0,0,0,1227.36,1171.48Z" class="cls-2"/><path d="M1308,1156.4a.59.59,0,0,0,.33.27l.1,0Z" class="cls-2"/><path d="M1309.54,1018.1a.59.59,0,0,0,0,.21l.9-.06A3.44,3.44,0,0,0,1309.54,1018.1Z" class="cls-2"/><path d="M1353.41,1129.79c0-.07,0-.2,0-.25-.34.29-.9.88-1.67,1.63s-1.66,1.75-2.76,2.8l.29.56c.73-.77,1.46-1.52,2.13-2.33S1352.78,1130.63,1353.41,1129.79Z" class="cls-2"/><path d="M1380.22,1074c0,1.11,0,2.25,0,3.36v1.66l-.09,1.68a121.25,121.25,0,0,0-3-13.54c-.58-2-1.12-3.84-1.73-5.61l-.45-1.32-.23-.68-.28-.77c-.39-1-.82-2-1.29-3a35.38,35.38,0,0,0-3.28-5.39c-.66-.89-1.2-1.53-1.73-2.21s-1.17-1.43-1.79-2.13a70,70,0,0,0-8.75-8.41l.9.46c-.87-1-2-1.24-5.39-3.74-1.7-1.23-4-3-7.25-5.54s-7.55-5.76-13.41-9.73l0-.1a8.5,8.5,0,0,1-2.58-1.37c1.34,1,2.68,1.88,4,2.87-2.72-1.09-5.23-1.7-8.74-3.22-.68-.47-.84-.79-.84-1-2.9-1.2-5.82-2.33-8.78-3.35l-2.44-1.72c-2.88-.49-2.11,1.37-9.13-1.71,2.43,1.89-3.8-.39-3.06.45-.33-.24-1.12-.67-1.74-1-4.38-1.09-12.76-2.46-14.91-2.2,0,0,4.22,1.33,8.85,3.18a86.7,86.7,0,0,1,11.7,5.49c-5.85-2.06-1.6-.34-.55.38l.47-.15c3.46,1.36,3.21,2.09,4.89,2.86a.41.41,0,0,0,0-.23l-.25,0c-.12-.18,0-.23.21-.23,0-.16.21-.22,1.15.14h-.21a43.48,43.48,0,0,1,5,1.92l-.2.57c1.47,0,5.6,2,9.55,4.62s7.76,5.48,9.27,6.46c2.73,2.44,7,4.11,10.37,7.13,2.79,2.25,3.3,3,3.49,3.5a3.6,3.6,0,0,0,1.16,2.07c3.05,3.23-.2-1.12,1.15,0,1.15,1.39,2.24,2.82,3.29,4.25-2.24-2.1-1.3-.67-1.07-.11a63.3,63.3,0,0,1,4.86,5.94c.74,1,1.48,2,2.1,2.64a3.45,3.45,0,0,0,1.49,1.13,15.43,15.43,0,0,1,1.74,4.74,17.69,17.69,0,0,0,.65,2.86c0-.45-.15-1.1-.23-1.65s-.11-.9,0-1a9.16,9.16,0,0,0,.19,1.11c.06.2.11.23.14.14a3.39,3.39,0,0,0,0-1.21,9.78,9.78,0,0,1,.67,1.73,24.66,24.66,0,0,1,.72,2.62c.47,2,.86,4.26,1.18,6.46.65,4.4.75,8.38,1.46,8.68l-.24,0c1.08.73,1.86-.77,2.72,1.77l-.32,1.78c.19.85.45,1.72.58,2.59-.3,1.77-.57.9-.69.91a28.91,28.91,0,0,1-.14,7.27c-.22,1.3-.39,2.64-.68,3.94s-.61,2.57-.9,3.81c.62-.77,1.21-1.57,1.83-2.39s1.26-1.65,1.78-2.52c-.24,1.09-.76,2.36-1.19,3.69s-1,2.67-1.48,3.9c-.24.62-.46,1.21-.65,1.76s-.45,1-.61,1.47a3.15,3.15,0,0,0-.33,1.8c-.29.36-.57.73-.87,1.08l-1,1c-1.28,1.81-2,3-2.56,3.91a5.07,5.07,0,0,0-.75,1.93c-.13.91.24,1.39-1,2.69-1.11,1-2.13,2.1-3.26,3.06.87-1.15,1.62-2.37,2.43-3.56a39,39,0,0,1-3.41,3.76l-1.54,1.42c-.55.46-1.14.93-1.81,1.48,0,0,0,0,0,0,.19-.15.32-.23.38-.22l-.36.47a3.61,3.61,0,0,1-.86,1.85,18.36,18.36,0,0,1-2.54,2.9c-1.58,1.48-2.94,2.87-4.64,4.37a31.94,31.94,0,0,1-7,4.61l-.87,1.83c-1.59.8-3.17,1.6-4.79,2.33l-.41-.68a90.8,90.8,0,0,0,16.64-13l-.17-.34a74.4,74.4,0,0,1-8,7.17c-1.08.66-4.16,1.78-2.59,0l-1.5,2a89.86,89.86,0,0,1-11.22,6.71,105.19,105.19,0,0,1-12.66,5.08l1.26-.08c-2.41,1.28-4.88,2.48-5.82,2.14-7.76,2.86-16.19,4.84-21.65,5.26l-.9,1.22c-1.72.39-4.61-.32-5.13,1.15l-3.57,1.28c-2.37.46-3.69,1.32-6.51,1.35H1270a.1.1,0,0,0,0,.07c-5.44.68.23.83-6,1.51-2.1-.3-2,1.59-5,1.91l-3.26-.82c-5.61.1-6.33,1.62-14.34,2.7-3.91,0-5.89-.92-3.48-2.25-3.34,1.66-1.49,1-6.06,2.12-.78-.44-.29-.59.68-1.16-4.18-.15-2.49.73-5.61,1-.81,1-1.71,2.66-2.72,2.82l1.24.19a36.79,36.79,0,0,1-10.8,1.19l.11-.49-4.1.54-.3-.59-5.87.56.81.12a54.5,54.5,0,0,1-8.52.42l.08-.34c-7.37-.74-13.36.85-22,1.11l1.12-.72c-2.94-.65-.79,1.09-4.29.79l-.18-.86c-3.07,1.15-4-.21-6.1-.63l1,1.12-4-.23c-4.4-.39-2.69-1.44-2.05-2l-3,.87-.58-1c-2.19,1.13-2.18-.2-6,.35-.31-.38.66-.58-.63-.76l-6.34,1.27,3.82-.53-.49,1.44c-4,1-5.38-.28-8.22,0l2-.38c-4.64.22-4.87-.41-7.46-.83.8.3,2,.75.14.87-1.38,0-.73-.54-2-.75-.35,1-3.69,1.34-6.69.75a.49.49,0,0,1,.31-.34,5,5,0,0,1-2.52.06l.84-1-2.64.91c-1.71-.37-4.25.29-4-.43l1-.17q-6.51-.42-13-.93l-.13-.87c-1.35,1.11-7-.89-6.7.61-2.39-1-9.67-.12-8.1-1.68-8.48-.8-13.22.41-23.45-1.48-3.51-1.78-13.57-2.5-20.11-3.58-12.9-1.23-21.25-2.07-34.29-4.23-3.7-1.76-8.55-2.64-13.49-3.55s-10-1.81-13.9-3.5l-2.45.11c-5.06-2.75-13.76-3.87-20.69-7.83a24.65,24.65,0,0,1-3.32-.76,1.19,1.19,0,0,1,.74,1c-1-.58-2.57-1.18-3.81-1.75s-2.16-1.13-1.82-1.52l.56.12c.69-.76-6.41-2.23-8.25-4.13l.77,1.55c-1.25-.65-2.49-1.31-3.71-2l1.1.32a63.88,63.88,0,0,1-19.36-10.57c-5-4-9.59-8-15.88-13.37,1.18.41.48-.06-.31-.83s-1.83-1.74-1.38-2.23a9.08,9.08,0,0,0-1.29-2.71,12,12,0,0,0-1.75-2.12,34,34,0,0,1-3.6-3.84c-.06,0-.14,0-.32-.09-.94-1.74-1.67-3.59-2.45-5.4,1.47,1.28.68.47-.05-.41s-1.52-1.8-.29-.54a85.31,85.31,0,0,1-3-11.84c-.15-1-.43-2.1-.5-3.17l-.36-3.25a63.24,63.24,0,0,1-.08-6.61,46.54,46.54,0,0,1,2.33-13.19c.17-.54.31-1.08.51-1.6l.65-1.56c.45-1,.82-2.08,1.34-3.07a48.31,48.31,0,0,1,3.38-5.7l-.77.43c.63-.93,1.26-1.94,1.89-3s1.45-2,2.16-2.93a23.68,23.68,0,0,1,2.21-2.65,14.32,14.32,0,0,1,2.22-2,10.77,10.77,0,0,0,1.94-1.82,17.82,17.82,0,0,0,1.62-2.06,34.5,34.5,0,0,1,2.26-3.07c2.56-3,6.32-3.93,4.91-3,3.21-2.57,5.76-6,11.22-8.29,1.19.1,4.56-2,7.88-3.9s6.54-3.46,6.9-2.78V1014a85.73,85.73,0,0,0,10.62-3.64,48.53,48.53,0,0,1,11.27-3.12,2,2,0,0,1-.37.31q7.5-4.29,15.57-7.92c-1.86-1.44-3.76-2.86-5.71-4.24-5.24-.44-10.54-.68-15.89-.69a164.06,164.06,0,0,0-38.86,16.54,102.14,102.14,0,0,0-28.1,20.71,76.57,76.57,0,0,0-11.64,18.93,65.12,65.12,0,0,0-5.07,21.95A70.62,70.62,0,0,0,880,1095a78.83,78.83,0,0,0,8.54,20.18l2.14,2.38,2.23,2.24c4.11,7.56,11.07,14.59,18.78,20.26s16.06,10.41,23.49,14.92l.77-.73c4.38,2.11,3.85,2.46,4.86,3.15A242.89,242.89,0,0,0,972.51,1169c10.73,3.17,21.53,5.73,32.23,7.93,21.4,4.39,42.37,7.32,61.93,10,3.72,1.08,15.28,1.75,18.2,2.66,12.87-.17,26.42.58,39.12,1.24l-.48.09,6,.06c.26.09.28.21.09.28,6.82-.6,17.51.57,25.86,1l-.49.11a595.79,595.79,0,0,0,71.28-3.32c11.7-1.26,23.38-2.83,35.11-4.84s23.54-4.46,35.49-7.62a142.24,142.24,0,0,0,51.88-24,116.16,116.16,0,0,0,15.8-14c1.06-.82,4.17-4.28,7.63-9.65.84-1.35,1.65-2.87,2.53-4.42.21-.39.44-.78.64-1.19s.39-.84.58-1.26l1.18-2.6c.19-.44.39-.88.58-1.33s.34-.92.5-1.39c.33-.93.67-1.87,1-2.82s.59-1.93.86-2.91.52-2,.77-2.95a72.29,72.29,0,0,0,1.42-22.29A67.47,67.47,0,0,0,1380.22,1074Z" class="cls-2"/><path d="M1324.32,1016.35l.2.07C1324.68,1016,1324.33,1016.06,1324.32,1016.35Z" class="cls-2"/><path d="M1367.65,1105.31c0-.1.07-.2.1-.3l-.89,1Z" class="cls-2"/><path d="M1350.48,1047c2,2.09,2.17,2.15,2,1.73A11.26,11.26,0,0,0,1350.48,1047Z" class="cls-2"/><path d="M1299.35,1008.51c-1.62-.46-1.06,0-.18.47,1.66.39,2.81.68,2.81.68C1301.1,1009.31,1300.25,1008.86,1299.35,1008.51Z" class="cls-2"/><path d="M1304.26,1015.83l-.58.17C1304.61,1016.21,1304.61,1016.08,1304.26,1015.83Z" class="cls-2"/><path d="M1758.09,688.79S1913,607.44,1944,474.57c7.41-31.8,15.88-68.19,30.48-69.2,24.46-1.69,52.69,99.31,63.69,162.08,12.37,70.61,19.53,187.71-33.54,341.85-23.1-41.94-66.15-106.42-140.61-161.25A489.83,489.83,0,0,0,1758.09,688.79Z" class="cls-1"/><path d="M524.93,702.3c.16-.07.19-.17,0,0Z" class="cls-2"/><path d="M432.6,794.34a.7.7,0,0,0-.08.1,4.71,4.71,0,0,1,.25.52Z" class="cls-2"/><path d="M419.16,810.66l-.11.08C419.15,810.8,419.24,810.89,419.16,810.66Z" class="cls-2"/><path d="M462.62,756.1a.47.47,0,0,0,.17-.33A1.74,1.74,0,0,1,462.62,756.1Z" class="cls-2"/><path d="M557,680.94,557,681h.26Z" class="cls-2"/><path d="M556.83,681.45c-.48.09,0-.31.13-.45a2.15,2.15,0,0,0-1.43.61C555.68,681.87,556.52,681.36,556.83,681.45Z" class="cls-2"/><path d="M621.15,653.85,621,654A.91.91,0,0,0,621.15,653.85Z" class="cls-2"/><path d="M450.13,747.28c.05-.1.13-.2.17-.3A.52.52,0,0,0,450.13,747.28Z" class="cls-2"/><path d="M610.52,656.52l0,.5A.87.87,0,0,0,610.52,656.52Z" class="cls-2"/><path d="M432.77,795l.06.24A1.4,1.4,0,0,0,432.77,795Z" class="cls-2"/><path d="M408,826.7a.92.92,0,0,0-.36-.11l0,0Z" class="cls-2"/><path d="M354.51,910.62a.6.6,0,0,0,.2,0l-.16-.51A.94.94,0,0,0,354.51,910.62Z" class="cls-2"/><path d="M392.2,848.56s.05.13.1.16a13.67,13.67,0,0,0,1.76-2.71l-.47-.39Z" class="cls-2"/><path d="M365.57,868l2.44-2c-1.93,4.3-3.72,7.26-5.28,10.15a62,62,0,0,0-4.23,9.52l0-.51c-.38.47,0,1.14-.66,3s-2.28,4.8-6.49,10l-.11,0c-.16.42.06.52-.59,1.21l1.57-1.74a20.19,20.19,0,0,1-.85,4.33.73.73,0,0,1-.74.26l-1.57,4.1-1.25.92c-.15,1.4,1.6,1.49-.67,4.41,1.59-.78-.08,1.9.63,1.72-.2.11-.56.4-.88.63-.72,2-2,5.79-1.89,6.92,0,0,5.55-6.67,7.56-8.21-1.48,2.6-.19.77.4.39l-.18-.29c1-1.52,1.63-1.23,2.17-2a.6.6,0,0,0-.2,0l0,.14c-.15,0-.21,0-.24-.17s-.23-.17,0-.59l0,.11a13.83,13.83,0,0,1,1.09-2.34l.55.23c-.26-.83,1-2.69,2.48-4.53l2.1-2.61a12.76,12.76,0,0,0,1.37-1.82c1.46-1.27,1.55-3.66,2.85-5.49,1.71-3.09,1.56-1.21,2.8-2.58,1.29-1.82-.83.1-.48-.72l1.9-2c-.6,1.42.08.83.42.68,1.08-2,3.63-4.77,2.85-5.94,1.84-2.52,2.29-2.3,3-3.44-.4.29-1,1-1.21.88,1-.86.16-.58-.18-.19.41-1.91,6.49-7.63,5.49-8.58l.22.11c-.67-.84-1.84-.67-1.71-2.08l.79-.58.24-1.36c.7-.64.73-.13.83-.07.6-2.12,2.48-4.52,3.81-6.77l-3.65,1.17c.8-.83,1.91-2,2.8-3s1.54-1.92,1.27-2.32l1.45-.71c3.69-3,.88-3,2.21-4.31l1.95-1.44-1.11,1.9a32.65,32.65,0,0,1,3.67-3.46s0,0,0,0-.18.13-.24.11l.14-.27c-.3-.48,0-1.65.78-3,1.24-1.82,1.4-3.73,4.18-6.16l-.4-1.26,1.91-1.93.68.42c-.7,1.08-1.63,2.69-2.6,4.39s-1.87,3.53-2.69,5l.29.24c1-1.7,1.75-3.85,2.53-4.9.47-.45,2-1.4,1.88-.12l0-1.43a61.55,61.55,0,0,1,7.76-11l-.65.29c.52-1.28,1-2.55,1.79-2.52a35.4,35.4,0,0,1,7.48-8.23l-.45-1c.53-.68,2.43-1,1.57-2l.69-1.77c.73-.94.69-1.84,1.89-2.65h0l.24-.15-.07,0c1.85-2-.74-.49,1.48-2.67,1.13-.4-.33-1.57.73-2.65l2-.42c2.23-1.73,1.4-2.89,3.72-6.06,1.5-1.23,3-1.27,3,.34,0-2.11-.19-1.11.68-3.29.61,0,.56.28.63,1,1.66-1.26.36-1.27,1.28-2.48-.49-.93-1.38-2.25-1.13-2.68l-.6.28a9.36,9.36,0,0,1,3-4.28l.34.35,1.05-1.72.56.29,1.62-2.36-.37.21a14.12,14.12,0,0,1,2.58-3.22l.24.25c3-2.13,3.84-5.2,6.45-8.43l.18.87c1.45-.63-.57-1,.79-2l.71.49c.11-1.86,1.43-1.29,2.41-1.79l-1.16-.37,1.43-1.31c1.66-1.36,1.92-.05,2.16.58l.27-1.68.93.44c-.18-1.55.79-.69,1.57-2.46.39.14.23.63.78.28l1-3.17-.78,1.76-.93-1.13c.48-2.15,1.88-1.8,2.5-3.07l-.32,1c1.25-1.88,1.79-1.55,2.88-2.25-.47.1-1.17.27-.69-.52.39-.54.62.08,1.16-.27-.61-.77.1-2.29,1.42-3.05a.65.65,0,0,1,.16.36c.14-.38.09-.7.69-1l.52,1,.1-1.62c.77-.4,1-1.82,1.49-1.23l-.17.48,4.58-4.25.68.55c-.41-1.27,2.71-2.09,1.52-3,1.4-.26,2.87-3.69,3.55-2a16.6,16.6,0,0,0,1.86-2.1c.54-.67,1-1.34,1.54-2a16.89,16.89,0,0,1,4.32-4.13c1.13-.09,2.5-1,3.9-2.23.7-.59,1.39-1.26,2.08-1.88s1.39-1.2,2-1.69l5.7-6c.89-.94,1.78-1.9,2.75-2.88l3.22-3c4.24-.85,7-6.61,11-8.13l.43-1.3a11.44,11.44,0,0,0,4.28-2.6c.73-.59,1.48-1.2,2.29-1.75a10.85,10.85,0,0,1,2.68-1.28,7.84,7.84,0,0,1,1.08-1.33.75.75,0,0,1-.82-.27c1.1-.34,2.68-2,3.12-1.06l-.17.25c.43.91,2.47-2.29,4-2.28l-1.15-.49,1.81-1-.34.48a28.7,28.7,0,0,1,8.89-6.53c1.42-.77,2.86-1.46,4.33-2.36a24.17,24.17,0,0,0,4.5-3.57c-.38,1.58,1.13-1.39,1.86-.35,2.64.29,3.28-2.23,4.61-3.47a.33.33,0,0,1,0-.27l2.77-1.36c-.84,2.31,1.3-2.24.48-.22,1.88-.73,3.87-1.58,5.9-2.55s4.09-2.08,6.21-3.17l6.46-3.2c2.15-1.08,4.38-1.94,6.54-2.77l-.54-.21c1.09-.44,2.26-1.06,3.39-1.59a9.06,9.06,0,0,1,3.19-.93c1.89-.06,3.22-2.44,3.84-2.76,1.58-1.36,3.75-.65,2.93-.42,1.89-.89,3.22-3,6.18-3.34.69.48,2.45-.47,4.12-1.37s3.26-1.65,3.53-.93v-.14a15,15,0,0,0,5.3-1.4,14.39,14.39,0,0,1,5.49-1.39,1.16,1.16,0,0,1-.15.26c2.22-2.13,4.52-4.28,6.93-6.25-1-1.57-2.16-3.09-3.3-4.61-1.36-.42-2.74-.84-4.11-1.23s-2.77-.78-4.15-1.13c-6.52,2-12.85,4.28-19.06,6.78-2.61.63-5.2,1.34-7.8,2s-5.16,1.48-7.75,2.23a323.58,323.58,0,0,0-34.7,17.61l-1.85,2.35c-3.79,1-7.47,3.36-11.19,5.74s-7.29,5.13-11.14,6.75l.42.92c-1.86,1.36-2.08.76-2.65,1-4.38,3.12-8.8,6.24-13,9.64l-6.34,5-6.12,5.15c-2,1.71-4.08,3.36-6.06,5.06s-3.92,3.42-5.86,5.07l-5.81,4.86q-2.81,2.46-5.61,4.75c-1.8.8-5.71,4.9-7.21,5.46a65.77,65.77,0,0,1-6,7.53c-2.18,2.38-4.5,4.61-6.64,6.9l.09-.25-1.87,2.3c-.14,0-.24,0-.23-.15-1.59,3.05-5.84,6.26-8.8,9.09l.08-.25c-3.9,4.49-7.66,9-11.28,13.46l-10.35,13.75c-3.33,4.63-6.57,9.32-10,13.92-.84,1.16-1.73,2.29-2.57,3.47l-2.5,3.53q-2.54,3.54-5.22,7c-.94,1-1.84,2.1-2.71,3.22a40,40,0,0,0-2.52,3.53c-1.58,2.46-3.1,5.06-4.64,7.7s-3.09,5.34-4.75,8-3.25,5.36-5.12,7.9c-1,.75-4.52,6.72-7.81,12.8C368.83,860.61,365.89,866.85,365.57,868Z" class="cls-2"/><path d="M350.59,902.06l0-.09C350.24,901.81,350.33,902,350.59,902.06Z" class="cls-2"/><polygon points="383.8 860.78 383.72 860.92 384.52 860.67 383.8 860.78" class="cls-2"/><path d="M369.17,890.2c.76-1.27.7-1.38.46-1.26A3.36,3.36,0,0,0,369.17,890.2Z" class="cls-2"/><path d="M346.41,913.62c-.35.71,0,.53.44.22.29-.76.48-1.28.48-1.28C347.06,912.93,346.68,913.24,346.41,913.62Z" class="cls-2"/><path d="M352.92,912.94l.22.36C353.24,912.85,353.12,912.81,352.92,912.94Z" class="cls-2"/><path d="M1901.53,1406.08c-.14.1-.14.21,0,0Z" class="cls-2"/><path d="M1970.92,1295.7l0-.11a4.72,4.72,0,0,1-.35-.45Z" class="cls-2"/><path d="M1980.36,1276.79l.09-.1C1980.34,1276.65,1980.24,1276.58,1980.36,1276.79Z" class="cls-2"/><path d="M1950.22,1339.7a.45.45,0,0,0-.09.36A1,1,0,0,1,1950.22,1339.7Z" class="cls-2"/><path d="M1875,1434.08a.37.37,0,0,0,.06-.08l-.25.07Z" class="cls-2"/><path d="M1875.11,1433.54c.45-.2.1.3,0,.46a2.1,2.1,0,0,0,1.26-.9C1876.13,1432.87,1875.44,1433.56,1875.11,1433.54Z" class="cls-2"/><path d="M1818.61,1474.84l.12-.21A.75.75,0,0,0,1818.61,1474.84Z" class="cls-2"/><path d="M1964.37,1345.5c0,.1-.08.22-.1.32A.49.49,0,0,0,1964.37,1345.5Z" class="cls-2"/><path d="M1828.37,1469.86l-.14-.49A.87.87,0,0,0,1828.37,1469.86Z" class="cls-2"/><path d="M1970.62,1295.14l-.12-.22A.81.81,0,0,0,1970.62,1295.14Z" class="cls-2"/><path d="M1987.65,1258.65a.76.76,0,0,0,.39,0l0,0Z" class="cls-2"/><path d="M2021,1164.89a.71.71,0,0,0-.2,0l.27.46A.92.92,0,0,0,2021,1164.89Z" class="cls-2"/><path d="M1998.16,1233.82c-.05,0-.08-.12-.14-.14a13.17,13.17,0,0,0-1.11,3l.55.27Z" class="cls-2"/><path d="M2019.76,1209l-1.92,2.54c.92-4.63,2-7.91,2.88-11.07a62.93,62.93,0,0,0,2-10.23l.16.49c.26-.54-.23-1.12,0-3.06s1.15-5.19,4.08-11.2l.12,0c.07-.45-.17-.49.31-1.31l-1.14,2a20.7,20.7,0,0,1-.15-4.41.75.75,0,0,1,.67-.43l.61-4.34,1-1.17c-.17-1.4-1.9-1.11-.34-4.45-1.37,1.11-.34-1.87-1-1.54a9.65,9.65,0,0,0,.71-.81c.27-2.11.69-6.1.3-7.17,0,0-3.92,7.74-5.53,9.69.86-2.86,0-.79-.48-.29l.24.25c-.6,1.7-1.31,1.57-1.67,2.4a.69.69,0,0,0,.2,0l-.07-.13a.19.19,0,0,1,.27.11c.16,0,.26.11.13.58l-.06-.1a13,13,0,0,1-.54,2.53l-.59-.11c.44.76-.4,2.85-1.39,5-.52,1-1,2.12-1.47,3a13.52,13.52,0,0,0-.93,2.07c-1.13,1.57-.69,3.92-1.55,6-1,3.39-1.25,1.53-2.14,3.13-.86,2.07.78-.28.62.6l-1.4,2.39c.27-1.51-.27-.78-.56-.56-.6,2.21-2.47,5.46-1.45,6.42-1.23,2.87-1.71,2.76-2.11,4,.32-.38.74-1.18,1-1.13-.83,1.07,0,.61.22.15,0,2-4.62,8.88-3.44,9.59l-.23-.06c.84.67,2,.24,2.14,1.65l-.65.73.07,1.39c-.54.77-.68.28-.8.25-.11,2.2-1.4,5-2.19,7.45l3.29-1.95c-.59,1-1.41,2.35-2,3.55s-1.07,2.21-.72,2.54l-1.25,1c-2.94,3.73-.18,3.16-1.19,4.69l-1.58,1.84.65-2.1a30.73,30.73,0,0,1-2.8,4.19s0,0,0,0,.14-.16.2-.16l-.06.3c.39.4.38,1.6-.11,3.07-.79,2-.52,4-2.69,6.94l.67,1.14-1.43,2.31-.75-.26c.44-1.21,1-3,1.55-4.85s1-3.87,1.51-5.45l-.33-.17c-.59,1.87-.85,4.14-1.37,5.34-.36.55-1.68,1.82-1.81.54l.35,1.39a61.64,61.64,0,0,1-5.11,12.43l.58-.42c-.22,1.36-.45,2.72-1.18,2.85a35.07,35.07,0,0,1-5.46,9.69l.67.88c-.36.79-2.15,1.48-1.08,2.35l-.27,1.88c-.5,1.08-.26,2-1.25,3h0l-.2.2h.08c-1.36,2.33.83.31-.85,2.93-1,.65.68,1.46-.11,2.75l-1.84.85c-1.79,2.18-.72,3.14-2.27,6.74-1.19,1.54-2.6,1.9-3,.35.46,2.06.43,1,.07,3.36-.6.11-.6-.16-.82-.8-1.34,1.6-.07,1.33-.7,2.71.68.79,1.86,1.88,1.7,2.36l.53-.41a9.4,9.4,0,0,1-2,4.86l-.41-.27-.63,1.91-.62-.15-1,2.65.32-.28a13.91,13.91,0,0,1-1.8,3.71l-.29-.19c-2.43,2.74-2.58,5.93-4.4,9.66l-.37-.8c-1.27.93.78.84-.31,2.17l-.8-.32c.31,1.84-1.1,1.58-2,2.28l1.21.11-1.1,1.59c-1.31,1.7-1.85.48-2.23-.07l.12,1.69-1-.22c.52,1.47-.62.85-1,2.75-.4,0-.36-.56-.81-.1l-.28,3.31.37-1.89,1.16.9c0,2.2-1.43,2.17-1.75,3.56l.09-1c-.8,2.1-1.4,1.9-2.3,2.83.43-.2,1.07-.52.79.36-.26.61-.62,0-1.07.51.76.62.41,2.26-.7,3.29a.58.58,0,0,1-.24-.3c-.05.4.07.69-.45,1.13l-.74-.87.27,1.59c-.66.57-.6,2-1.17,1.54l.06-.51-3.53,5.16-.77-.37c.68,1.14-2.18,2.64-.82,3.25-1.3.57-2,4.24-3,2.76a16.72,16.72,0,0,0-1.34,2.45c-.38.78-.7,1.55-1.05,2.32a17.07,17.07,0,0,1-3.29,5c-1.08.33-2.2,1.57-3.29,3-.55.73-1.08,1.53-1.61,2.3s-1.08,1.47-1.59,2.1l-4.19,7.16c-.66,1.12-1.32,2.26-2,3.43l-2.46,3.69c-3.94,1.77-5.33,8-8.94,10.39L1910,1397a11.3,11.3,0,0,0-3.58,3.48c-.58.74-1.18,1.51-1.85,2.22a11,11,0,0,1-2.32,1.85,8.45,8.45,0,0,1-.76,1.54.76.76,0,0,1,.87.07c-1,.58-2.18,2.52-2.81,1.73l.12-.27c-.63-.79-1.9,2.78-3.36,3.1l1.23.23-1.53,1.42.22-.55a28.69,28.69,0,0,1-7.2,8.36c-1.21,1.07-2.46,2-3.69,3.26a24,24,0,0,0-3.58,4.49c0-1.63-.79,1.61-1.74.75-2.63.31-2.7,2.92-3.72,4.43.05,0,.08.11.07.25l-2.39,1.94c.3-2.43-.76,2.48-.41.33-1.68,1.14-3.42,2.4-5.19,3.8s-3.52,2.95-5.34,4.48l-5.58,4.57a69.1,69.1,0,0,1-5.76,4.16l.57.09c-1,.67-2,1.54-2.93,2.31a9.43,9.43,0,0,1-2.91,1.62c-1.83.48-2.59,3.09-3.13,3.55-1.23,1.67-3.5,1.47-2.76,1.07-1.64,1.29-2.45,3.66-5.27,4.63-.79-.31-2.28,1-3.71,2.26s-2.81,2.34-3.23,1.7l0,.13a14.9,14.9,0,0,0-4.84,2.56,14.76,14.76,0,0,1-5,2.58.81.81,0,0,1,.09-.29c-1.69,2.57-3.45,5.18-5.36,7.64,1.35,1.3,2.8,2.53,4.25,3.75,1.42.11,2.86.21,4.28.28s2.87.14,4.3.17c5.9-3.4,11.56-7,17.06-10.87,2.4-1.19,4.76-2.46,7.15-3.7s4.69-2.6,7-3.91a322,322,0,0,0,29.87-24.93l1.28-2.7c3.47-1.85,6.54-5,9.63-8.11s6-6.63,9.34-9.07l-.61-.81c1.51-1.74,1.85-1.2,2.37-1.51,3.56-4,7.18-8,10.5-12.3l5-6.29,4.83-6.39c1.59-2.12,3.22-4.19,4.77-6.29s3.05-4.2,4.57-6.25l4.57-6c1.47-2,2.93-4,4.41-5.89,1.58-1.18,4.47-6,5.8-6.93a64.76,64.76,0,0,1,4.19-8.68c1.59-2.81,3.35-5.51,4.92-8.22l0,.26,1.29-2.65c.14-.07.25,0,.27.1.86-3.34,4.29-7.41,6.53-10.84v.27c2.79-5.25,5.45-10.45,8-15.65l7-15.71c2.22-5.26,4.33-10.56,6.64-15.81.56-1.32,1.17-2.63,1.72-4l1.65-4q1.68-4,3.51-8c.69-1.2,1.32-2.45,1.93-3.74a43,43,0,0,0,1.66-4c1-2.76,1.89-5.63,2.79-8.55s1.82-5.9,2.85-8.85,2-6,3.22-8.85c.79-1,2.9-7.56,4.74-14.22C2018.23,1216.84,2019.7,1210.09,2019.76,1209Z" class="cls-2"/><path d="M2026.73,1172.35l0,.1C2027.13,1172.53,2027,1172.35,2026.73,1172.35Z" class="cls-2"/><polygon points="2003.6 1220.02 2003.65 1219.87 2002.93 1220.29 2003.6 1220.02" class="cls-2"/><path d="M2011.27,1188.07c-.45,1.41-.37,1.5-.16,1.34A3.21,3.21,0,0,0,2011.27,1188.07Z" class="cls-2"/><path d="M2028.22,1160.15c.18-.76-.13-.51-.49-.11-.1.8-.18,1.35-.18,1.35C2027.73,1161,2028,1160.58,2028.22,1160.15Z" class="cls-2"/><path d="M2022,1162.27l-.29-.3C2021.73,1162.44,2021.85,1162.44,2022,1162.27Z" class="cls-2"/><path d="M1957,843.15c.07.16.17.18,0,0Z" class="cls-2"/><path d="M1861.16,754.79s-.07,0-.11-.07a4.12,4.12,0,0,1-.51.26Z" class="cls-2"/><path d="M1844.28,742.06l-.08-.12C1844.14,742.05,1844.06,742.14,1844.28,742.06Z" class="cls-2"/><path d="M1900.63,783.16a.47.47,0,0,0,.34.16A1,1,0,0,1,1900.63,783.16Z" class="cls-2"/><path d="M1979.71,874.32l-.07-.07a2.28,2.28,0,0,1,0,.26Z" class="cls-2"/><path d="M1979.19,874.14c-.11-.47.31,0,.45.11a2.08,2.08,0,0,0-.66-1.4C1978.72,873,1979.27,873.82,1979.19,874.14Z" class="cls-2"/><path d="M2009.49,937.23l-.18-.16A.55.55,0,0,0,2009.49,937.23Z" class="cls-2"/><path d="M1908.92,770.32c.1,0,.2.11.29.15A.45.45,0,0,0,1908.92,770.32Z" class="cls-2"/><path d="M2006.37,926.73l-.5,0A.93.93,0,0,0,2006.37,926.73Z" class="cls-2"/><path d="M1860.54,755l-.23.07A.59.59,0,0,0,1860.54,755Z" class="cls-2"/><path d="M1827.78,731.57a.93.93,0,0,0,.1-.37l-.05,0Z" class="cls-2"/><path d="M1741.68,681.68a.65.65,0,0,0,0,.2l.5-.18A1,1,0,0,0,1741.68,681.68Z" class="cls-2"/><path d="M1805.28,716.71s-.13.06-.16.11a13.18,13.18,0,0,0,2.78,1.65l.37-.49Z" class="cls-2"/><path d="M1784.78,690.93l2.14,2.35c-4.38-1.74-7.41-3.41-10.36-4.85a62.49,62.49,0,0,0-9.7-3.82l.51-.06c-.48-.36-1.14,0-3-.53s-4.9-2.08-10.27-6.07l.05-.11c-.43-.14-.52.08-1.24-.54l1.81,1.5a21.11,21.11,0,0,1-4.36-.66.74.74,0,0,1-.3-.74L1745.9,676l-1-1.22c-1.4-.09-1.43,1.67-4.43-.48.85,1.56-1.9,0-1.7.71a9.23,9.23,0,0,0-.66-.85c-2-.65-5.88-1.79-7-1.6,0,0,6.9,5.26,8.53,7.2-2.67-1.36-.79-.15-.38.42l.29-.19c1.56.9,1.3,1.58,2.05,2.08a.4.4,0,0,0,0-.2l-.14,0a.19.19,0,0,1,.16-.25c0-.15.15-.23.59,0l-.11,0a14.1,14.1,0,0,1,2.39,1l-.21.57c.82-.3,2.73.91,4.62,2.27l2.71,2a14,14,0,0,0,1.87,1.29c1.33,1.4,3.72,1.39,5.61,2.62,3.16,1.57,1.27,1.5,2.69,2.68,1.88,1.22-.13-.83.7-.51l2.1,1.81c-1.45-.54-.82.12-.66.45,2.06,1,4.92,3.42,6,2.6,2.6,1.73,2.4,2.19,3.56,2.81-.3-.39-1-.95-.92-1.17.89,1,.58.13.18-.19,1.92.33,7.89,6.16,8.8,5.13l-.1.22c.82-.71.59-1.87,2-1.8l.61.77,1.37.18c.67.67.16.72.11.83,2.14.51,4.62,2.28,6.91,3.51l-1.31-3.59c.86.76,2.06,1.82,3.11,2.67s2,1.46,2.38,1.17l.76,1.42c3.14,3.56,3.08.75,4.41,2l1.51,1.89-2-1a31.36,31.36,0,0,1,3.62,3.51h0c-.09-.09-.14-.17-.12-.23l.28.12c.46-.31,1.64-.08,3,.66,1.88,1.16,3.8,1.24,6.33,3.92l1.25-.45,2,1.82-.39.7c-1.11-.66-2.76-1.52-4.5-2.41s-3.61-1.72-5.08-2.48l-.22.29c1.73.92,3.92,1.59,5,2.32.48.46,1.49,2,.21,1.88l1.43-.09a61.86,61.86,0,0,1,11.29,7.29l-.31-.64c1.3.46,2.59.93,2.59,1.68a35.18,35.18,0,0,1,8.53,7.13l1-.5c.71.5,1.06,2.39,2.12,1.49l1.79.62c1,.68,1.87.61,2.73,1.77h0c0,.07.11.14.16.22l0-.07c2,1.77.45-.76,2.72,1.37.46,1.11,1.56-.4,2.68.61l.51,2c1.81,2.15,2.95,1.28,6.21,3.46,1.29,1.44,1.39,2.9-.22,3.05,2.12-.07,1.1-.23,3.32.54,0,.61-.26.57-.93.66,1.32,1.61,1.29.32,2.53,1.19.91-.53,2.19-1.49,2.63-1.24l-.3-.6a9.32,9.32,0,0,1,4.4,2.87l-.33.35,1.76,1-.26.57,2.41,1.52-.21-.36a14.06,14.06,0,0,1,3.32,2.44l-.25.25c2.26,2.9,5.36,3.62,8.7,6.09l-.85.22c.68,1.42,1-.61,2.07.7l-.46.73c1.86,0,1.36,1.37,1.89,2.34l.33-1.18,1.36,1.37c1.43,1.6.13,1.91-.48,2.18l1.69.2-.41,1c1.55-.24.73.76,2.53,1.47-.13.39-.62.25-.24.78l3.2.88-1.79-.7,1.1-1c2.16.39,1.87,1.8,3.17,2.37l-1-.28c1.93,1.17,1.62,1.72,2.37,2.78-.12-.46-.32-1.15.49-.71.56.36-.05.62.32,1.14.74-.64,2.3,0,3.1,1.29a.5.5,0,0,1-.34.18c.38.12.69.06,1,.65l-1,.57,1.61,0c.44.76,1.87,1,1.3,1.44l-.49-.15,4.44,4.4-.51.7c1.25-.46,2.2,2.62,3.05,1.39.32,1.39,3.81,2.72,2.16,3.47a15.82,15.82,0,0,0,2.17,1.76c.69.51,1.39,1,2.09,1.46a17.08,17.08,0,0,1,4.31,4.14c.13,1.13,1.14,2.46,2.39,3.8.62.67,1.31,1.34,2,2s1.26,1.33,1.78,1.94l6.28,5.43c1,.86,2,1.7,3,2.63l3.18,3.09c1,4.2,6.89,6.71,8.59,10.68l1.32.38a11.32,11.32,0,0,0,2.77,4.17c.62.7,1.27,1.43,1.85,2.21a11.51,11.51,0,0,1,1.39,2.62,8.6,8.6,0,0,1,1.38,1c-.08-.16-.12-.46.22-.84.39,1.09,2.09,2.6,1.2,3.08l-.25-.16c-.9.47,2.38,2.37,2.43,3.86l.45-1.17,1.12,1.77-.5-.32a28.51,28.51,0,0,1,6.9,8.61c.83,1.38,1.58,2.79,2.54,4.22a24.25,24.25,0,0,0,3.76,4.34c-1.6-.31,1.43,1.07.42,1.85-.18,2.64,2.37,3.18,3.67,4.46a.27.27,0,0,1,.26,0l1.48,2.7c-2.34-.74,2.3,1.21.24.47.82,1.85,1.74,3.8,2.8,5.79s2.25,4,3.43,6.07l3.47,6.32a69.1,69.1,0,0,1,3,6.42l.19-.55c.48,1.07,1.16,2.21,1.74,3.32a9.44,9.44,0,0,1,1.06,3.15c.13,1.89,2.57,3.11,2.92,3.72,1.42,1.51.8,3.71.54,2.91,1,1.84,3.16,3.08,3.6,6-.45.71.57,2.43,1.54,4.06s1.79,3.19,1.08,3.49l.13,0a14.94,14.94,0,0,0,1.64,5.23,14.49,14.49,0,0,1,1.61,5.43.92.92,0,0,1-.26-.14c2.22,2.13,4.46,4.34,6.54,6.66,1.51-1.09,3-2.29,4.45-3.49.38-1.37.74-2.77,1.06-4.16s.66-2.79,1-4.19c-2.26-6.43-4.81-12.66-7.57-18.76-.74-2.58-1.56-5.13-2.33-7.71s-1.71-5.09-2.56-7.64A325.11,325.11,0,0,0,1991,864l-2.43-1.75c-1.18-3.75-3.67-7.33-6.21-10.95s-5.43-7.06-7.21-10.84l-.91.46c-1.44-1.81-.85-2.05-1-2.61-3.3-4.24-6.61-8.53-10.19-12.57-1.75-2-3.51-4.08-5.25-6.12l-5.4-5.9c-1.8-2-3.53-3.94-5.32-5.84s-3.57-3.77-5.31-5.64l-5.1-5.6c-1.71-1.8-3.38-3.61-5-5.41-.88-1.76-5.14-5.5-5.76-7a64.1,64.1,0,0,1-7.78-5.7c-2.47-2.07-4.8-4.3-7.18-6.33l.26.07-2.38-1.76c0-.15,0-.25.15-.24-3.13-1.47-6.5-5.58-9.46-8.41l.25.06c-4.65-3.7-9.27-7.26-13.92-10.7l-14.17-9.75c-4.77-3.14-9.59-6.18-14.34-9.41-1.19-.79-2.36-1.63-3.57-2.41l-3.64-2.36q-3.63-2.39-7.25-4.92c-1.06-.89-2.17-1.74-3.33-2.57a41.09,41.09,0,0,0-3.63-2.36c-2.53-1.48-5.19-2.89-7.9-4.31s-5.46-2.87-8.17-4.41-5.5-3-8.12-4.78c-.79-1-6.9-4.24-13.12-7.27C1792.25,693.88,1785.89,691.2,1784.78,690.93Z" class="cls-2"/><path d="M1750.06,677.4l.09,0C1750.3,677,1750.11,677.14,1750.06,677.4Z" class="cls-2"/><polygon points="1792.71 708.84 1792.56 708.76 1792.85 709.55 1792.71 708.84" class="cls-2"/><path d="M1762.7,695.47c1.3.7,1.41.63,1.28.4A3.44,3.44,0,0,0,1762.7,695.47Z" class="cls-2"/><path d="M1738.34,673.71c-.72-.31-.53,0-.2.46l1.3.42C1739.06,674.34,1738.73,674,1738.34,673.71Z" class="cls-2"/><path d="M1739.29,680.19l-.35.23C1739.4,680.51,1739.43,680.39,1739.29,680.19Z" class="cls-2"/><path d="M562.9,932.48c.13-.21.12-.35,0,0Z" class="cls-2"/><path d="M554.62,1119.82c0,.08,0,.11.06.18a4,4,0,0,1,.6.22Z" class="cls-2"/><path d="M564.22,1149.14l0,.19C564.35,1149.27,564.47,1149.25,564.22,1149.14Z" class="cls-2"/><path d="M540.65,1050.3a.87.87,0,0,0-.12-.52A2.68,2.68,0,0,1,540.65,1050.3Z" class="cls-2"/><path d="M589.63,882.43l-.06.13a2.16,2.16,0,0,1,.29-.21Z" class="cls-2"/><path d="M589.56,883.14c-.51.49-.13-.31,0-.58a4.43,4.43,0,0,0-1.42,1.79C588.4,884.52,589.18,883.29,589.56,883.14Z" class="cls-2"/><path d="M660.51,807.46l-.17.28A1.23,1.23,0,0,0,660.51,807.46Z" class="cls-2"/><path d="M525.65,1054.15c0-.16-.07-.34-.11-.49A1,1,0,0,0,525.65,1054.15Z" class="cls-2"/><path d="M647.51,817.38l.17.49A.64.64,0,0,0,647.51,817.38Z" class="cls-2"/><path d="M555.28,1120.22l.25.15A1,1,0,0,0,555.28,1120.22Z" class="cls-2"/><path d="M576.66,1174.85a.67.67,0,0,0-.25.31l0,.08Z" class="cls-2"/><path d="M671,1284.71a.66.66,0,0,0,0-.21h-.69A1.92,1.92,0,0,0,671,1284.71Z" class="cls-2"/><path d="M596.47,1208.91c.07,0,.17,0,.22,0A31,31,0,0,0,594,1205l-.57.24C594.4,1206.5,595.46,1207.69,596.47,1208.91Z" class="cls-2"/><path d="M615.24,1251.33l-2.27-4c10.4,9.52,14.55,14.81,24.52,21.71l-.68-.22c.59.66,1.51.63,3.89,2.27a44.22,44.22,0,0,1,4.95,3.88c1.07,1,2.26,2.09,3.64,3.4s3,2.79,4.7,4.54l-.07.1a3.92,3.92,0,0,1,1.62,1.22l-2.32-2.56a59.91,59.91,0,0,1,5.84,2.89c.4.43.42.74.36.93L665,1289c.43.58.84,1.19,1.28,1.75,1.94.69,2-1.19,6.13,2.39-1.14-2,2.62.8,2.35,0,.16.27.57.77.9,1.19,2.83,1.47,8.21,4.13,9.78,4.34,0,0-2.42-2.06-5.1-4.44a62.36,62.36,0,0,1-6.64-6.57c3.61,2.57,1.07.49.53-.29l-.4.09c-2.11-1.62-1.73-2.23-2.75-3.08a.5.5,0,0,0,0,.2h.2c0,.17-.07.21-.23.2-.06.15-.23.18-.82-.23h.16a25.4,25.4,0,0,1-3.18-2.14l.32-.51c-1.12-.06-3.65-2.22-6.09-4.58s-4.78-5-5.83-5.77c-1.68-2.11-4.79-3.37-7.17-5.63-2-1.64-2.37-2.24-2.46-2.65a2.38,2.38,0,0,0-.75-1.68c-2.28-2.34.07,1-1,.18l-2.48-3.11c1.79,1.37,1.07.31.9-.13-2.58-2.15-5.76-6.53-7.35-6.28-3-3.39-2.67-3.8-4-5.15.33.6,1.13,1.63,1,1.81-1-1.62-.72-.49-.26.1-1.19-.75-3.44-3.6-5.54-6.17s-3.91-5-4.59-4.77l.17-.17c-1.15.24-1.1,1.64-2.86.66l-.6-1.22q-.84-.54-1.65-1.11c-.66-1.17,0-.89.05-1a30.3,30.3,0,0,1-3.8-3.91c-.64-.75-1.29-1.53-1.91-2.31s-1.23-1.59-1.83-2.33c.23,1.6.43,3.25.7,4.84-1.73-2.84-4.6-8.09-5.69-8-.21-.68-.39-1.37-.57-2.07-2.77-6.12-3.44-3-4.68-5.37-.44-1-.86-2.1-1.25-3.17.64.87,1.3,1.72,2,2.55a49.31,49.31,0,0,1-3.19-6.5h0c.08.17.11.29.07.34l-.29-.34c-.62,0-1.92-1.15-3.26-3-1.74-2.72-3.86-4.34-5.92-9.18l-1.54-.52-1.64-3.56.67-.44c1,1.58,2.55,3.85,4.25,6.16s3.52,4.68,5,6.65l.34-.15c-1.67-2.34-3.85-4.81-4.89-6.41-.43-.83-1-3.28.36-2.16l-1.63-1c-2.66-4-4.09-5.94-5.26-8.11-.61-1.08-1.2-2.18-1.91-3.58s-1.58-3.06-2.59-5.36l.08,1c-1.18-1.61-2.36-3.22-2.07-4a72.11,72.11,0,0,1-3.78-8c-.52-1.29-1-2.54-1.39-3.71a27.79,27.79,0,0,1-.85-3.26l-1.22-.35c-.5-1.17,0-3.48-1.49-3.47-.51-.75-1.06-1.49-1.54-2.26-.63-1.61-1.55-2.37-1.85-4.39h0c0-.12,0-.25,0-.38a.18.18,0,0,0-.07.05c-1.19-3.74-.78.38-2-4,.08-1.59-1.7-1-2.32-3.14l.44-2.54c-.77-3.93-2.19-4.11-4.17-9.5-.5-2.75.23-4.38,1.75-3-2-2-1.12-.81-2.7-3.78.33-.64.54-.34,1.2.22-.33-3-1-1.58-1.65-3.7-1.11-.33-2.82-.58-3.07-1.26,0,.3,0,.61,0,.91a19.37,19.37,0,0,1-2.39-7.33l.49,0c-.34-.92-.7-1.83-1-2.76l.56-.33-1.19-4,0,.6a28.06,28.06,0,0,1-1.41-5.88h.35a24.46,24.46,0,0,0-1.33-7.32c-.38-1.19-.77-2.4-1.11-3.7s-.71-2.66-1-4.16l.82.67c.33-2.15-1.16-.38-1.24-2.87l.83-.26c-1.49-2-.17-2.81,0-4.35l-1,.86-.15-2.83c-.06-3.12,1.15-2.06,1.79-1.7l-1.17-2,.93-.53c-1.33-1.39,0-1.55-.87-4.15.35-.26.63.39.7-.53l-1.86-4.27.9,2.6-1.48-.18a5.75,5.75,0,0,1-.72-3.15,6.71,6.71,0,0,0,0-2.6l.52,1.34c-.57-3.23,0-3.45.23-5.3-.23.58-.57,1.48-.85.17-.15-1,.47-.55.57-1.47-.49-.08-.9-.7-1.16-1.57a7.25,7.25,0,0,1-.08-3.06.46.46,0,0,1,.36.2,2.53,2.53,0,0,1-.23-1.76l1.1.51-1.09-1.77c.26-1.22-.58-3,.15-2.82l.24.68v-2.29l.07-2.29.15-4.57.86-.12c-.59-.46-.48-1.7-.39-2.79s.21-2-.53-1.91c.89-1.69-.25-6.81,1.37-5.71.31-6-.84-9.33.64-16.52a9.25,9.25,0,0,0,1-2.58,35,35,0,0,0,.81-3.64c.47-2.64.81-5.55,1.22-7.85.56-4.53,1-8.27,1.47-12s1.29-7.5,2.17-12.11c1.69-2.46,2.55-5.85,3.27-9.35.19-.87.37-1.75.56-2.62s.45-1.71.7-2.54a23.59,23.59,0,0,1,1.84-4.56l-.2-1.83a29.86,29.86,0,0,0,3-6.68c.47-1.29,1-2.64,1.52-4,.28-.65.59-1.31.92-1.95a18.18,18.18,0,0,1,1.17-1.82,16.19,16.19,0,0,1,.54-2.42.88.88,0,0,1-.94.43c1-1.34,1.89-4.52,2.7-3.89l-.07.42c.41.31.79-.86,1.26-2.27a9.2,9.2,0,0,1,1.92-3.64l-1.4.43,1.51-2.67-.18.82c1.78-6.54,4.42-10.66,6.88-14.7,1.27-2,2.61-3.94,3.86-6.14.63-1.1,1.24-2.27,1.84-3.53s1.27-2.57,1.88-4c.09,2,.81-2.42,2-1.87,3-1.82,2.9-5.08,4-7.48-.06,0-.1-.1-.1-.28l2.69-3.67c-.11,1.58.07.71.26-.19s.39-1.83.22-.43c2-2.21,4-4.71,6-7.35s4.17-5.36,6.35-8.13a182.4,182.4,0,0,1,13.86-16l-.72.16c1.22-1.25,2.44-2.77,3.69-4.14A20,20,0,0,1,624,841c2.28-1.46,3.33-4.84,4-5.62,1.56-2.57,4.46-3.36,3.51-2.55,2.12-2.26,3.21-5.38,6.86-7.79,2,0,8-8.78,9.09-7.65l0-.13c4.89-2.71,7.83-7.38,13.17-10.15a1.24,1.24,0,0,1-.12.36c2.29-3.65,4.66-7.26,7.21-10.78-1.9-.8-3.83-1.56-5.79-2.3-3.78.92-7.54,2-11.3,3q-11.57,9.36-22.13,19.67c-6.13,4.92-12.2,10-18,15.33-6.54,7-12.86,14.25-18.8,21.79-1.52,1.85-2.92,3.8-4.39,5.7s-2.92,3.81-4.29,5.78l-4.18,5.86-4,6c-.44,1.35-.92,2.68-1.33,4a60.66,60.66,0,0,0-5.5,7.15c-1.74,2.62-3.28,5.5-4.89,8.36l-1.19,2.16-1.13,2.2q-1.12,2.19-2.29,4.34c-.76,1.44-1.59,2.82-2.36,4.21s-1.56,2.74-2.39,4l.78.66c-1.45,3.11-1.91,2.64-2.44,3.33A273.9,273.9,0,0,0,536,963.29a432.64,432.64,0,0,0-9,44.75c-.9,2.7-1.44,11.15-2.1,13.3.72,9.44.41,19.31.77,28.67l-.12-.34c.12,1.46.18,2.93.37,4.39-.07.19-.19.22-.27.09a44.72,44.72,0,0,1,.9,9c.18,3.34.24,6.83.37,9.89l-.14-.34A267.66,267.66,0,0,0,538,1123.44a452.48,452.48,0,0,0,19.09,48.06,96.47,96.47,0,0,0,5.5,11.53c1.08,1.92,2.17,3.86,3.33,5.79l3.67,5.75c.63,1,1.24,1.94,1.89,2.9l2,2.87c1.3,1.92,2.62,3.85,3.93,5.8,2.73,3.81,5.3,7.77,7.94,11.69.65,1.67,6.9,10,13.95,17.68.87,1,1.72,2,2.6,2.88l2.63,2.71c1.72,1.76,3.33,3.44,4.81,4.87C612.33,1248.79,614.56,1250.82,615.24,1251.33Z" class="cls-2"/><path d="M659.42,1285.52l-.12-.07C659.07,1285.8,659.34,1285.79,659.42,1285.52Z" class="cls-2"/><path d="M609.27,1226.46l.15.19-.15-1.06Z" class="cls-2"/><path d="M644.27,1259.61c-1.59-1.48-1.74-1.46-1.61-1.14A7.24,7.24,0,0,0,644.27,1259.61Z" class="cls-2"/><path d="M675.39,1294.66c1,.62.74.18.29-.41l-1.78-1C674.41,1293.69,674.86,1294.22,675.39,1294.66Z" class="cls-2"/><path d="M674.25,1287.29l.48-.1C674.11,1286.9,674.06,1287,674.25,1287.29Z" class="cls-2"/><path d="M1767.78,1164.77c-.15.2-.14.34,0,0Z" class="cls-2"/><path d="M1786.67,984.2a1.09,1.09,0,0,0-.05-.17,5,5,0,0,1-.58-.23Z" class="cls-2"/><path d="M1778.55,955.51c0-.07,0-.12,0-.19S1778.31,955.39,1778.55,955.51Z" class="cls-2"/><path d="M1796.58,1052.08a.77.77,0,0,0,.09.51A2.34,2.34,0,0,1,1796.58,1052.08Z" class="cls-2"/><path d="M1738.76,1211.45l.07-.11a2.91,2.91,0,0,1-.3.17Z" class="cls-2"/><path d="M1738.88,1210.77c.53-.42.11.32-.05.57a3.92,3.92,0,0,0,1.5-1.63C1740.08,1209.52,1739.27,1210.66,1738.88,1210.77Z" class="cls-2"/><path d="M1663.43,1276.71l.2-.26A1.4,1.4,0,0,0,1663.43,1276.71Z" class="cls-2"/><path d="M1811.82,1049.26c0,.15,0,.33.06.48A1.07,1.07,0,0,0,1811.82,1049.26Z" class="cls-2"/><path d="M1677.13,1268.71l-.13-.5A.67.67,0,0,0,1677.13,1268.71Z" class="cls-2"/><path d="M1786,983.8l-.24-.16A.91.91,0,0,0,1786,983.8Z" class="cls-2"/><path d="M1767.15,930.33a.69.69,0,0,0,.26-.31l0-.07Z" class="cls-2"/><path d="M1678.82,820.71a.59.59,0,0,0,0,.2l.67.05A1.84,1.84,0,0,0,1678.82,820.71Z" class="cls-2"/><path d="M1748.71,896.86c-.06,0-.16,0-.21,0a26.84,26.84,0,0,0,2.49,3.87l.57-.24Z" class="cls-2"/><path d="M1731.76,855c.69,1.31,1.42,2.58,2.08,3.91-2.44-2.4-4.57-4.46-6.43-6.42l-5.28-5.38c-1.65-1.72-3.34-3.31-5.17-4.95-.92-.82-1.87-1.65-2.88-2.5s-2.13-1.67-3.31-2.55l.66.23c-.55-.66-1.45-.64-3.71-2.32s-5.88-5-12.32-12l.07-.1a3.76,3.76,0,0,1-1.52-1.24l2.14,2.58a45.49,45.49,0,0,1-5.55-3c-.37-.44-.37-.75-.3-.93-1.76-1.2-3.49-2.44-5.28-3.59l-1.15-1.77c-1.85-.78-2,1.07-5.85-2.61,1,2-2.53-.87-2.32,0-.15-.26-.53-.76-.83-1.19-2.67-1.61-7.84-4.38-9.53-4.62l.44.37c.28.24.67.58,1.12,1,.93.82,2.13,1.95,3.39,3.18a63.19,63.19,0,0,1,6.14,6.72c-3.38-2.66-1-.51-.53.28l.39-.08c2,1.68,1.56,2.27,2.49,3.17a.59.59,0,0,0,0-.21h-.18c0-.18.08-.21.23-.19.06-.14.23-.18.78.26h-.16a27.74,27.74,0,0,1,3,2.19l-.34.5c1.09.11,3.43,2.31,5.66,4.76,1.11,1.23,2.23,2.48,3.17,3.54a26.82,26.82,0,0,0,2.2,2.34,12.74,12.74,0,0,0,3.12,2.81,24.88,24.88,0,0,1,3.61,3c3.74,3.39,1.35,2.31,2.92,4.35,2.12,2.36,0-.95,1-.15l2.29,3.12c-1.7-1.39-1-.33-.9.11,2.38,2.24,5.36,6.55,6.93,6.34,2.76,3.48,2.42,3.83,3.73,5.18-.3-.59-1-1.61-.89-1.79.89,1.61.69.49.26-.09,1.15.74,3.27,3.55,5.16,6.19s3.71,4.95,4.37,4.73l-.18.16c1.14-.21,1.16-1.61,2.83-.59l.53,1.22,1.59,1.1c.62,1.15,0,.87-.09.95a18,18,0,0,1,1.83,1.72c.59.67,1.19,1.4,1.78,2.16,1.19,1.52,2.37,3.14,3.54,4.59l-.55-4.74c.79,1.41,1.91,3.36,2.89,5s1.9,2.94,2.43,2.91l.49,2a14.75,14.75,0,0,0,1.65,3,2.93,2.93,0,0,0,1.12,1c.65.29,1.12.12,1.68,1.28l1.12,3.11-1.88-2.51a55.17,55.17,0,0,1,3,6.37h0c-.06-.16-.09-.28-.06-.33l.27.34c.62,0,1.83,1.16,3.07,3,1.68,2.64,3.75,4.22,5.56,9l1.53.5,1.54,3.48-.68.43c-2-3.11-5.91-8.78-8.74-12.56l-.34.14c1.6,2.29,3.75,4.67,4.65,6.29.36.85.91,3.23-.45,2.13l1.59,1c1.28,2,2.27,3.39,3,4.64s1.34,2.28,1.91,3.33,1.12,2.13,1.78,3.5c.33.68.7,1.43,1.11,2.29l1.27,3,0-.93c1.12,1.57,2.23,3.16,1.91,3.93.66,1.3,1.31,2.61,1.92,3.92s1.07,2.65,1.54,3.92a44.82,44.82,0,0,1,2,6.8l1.18.36c.44,1.15-.14,3.4,1.3,3.42l1.42,2.23c.59,1.57,1.52,2.29,1.73,4.26h0l0,.38.06-.05c1,3.69.78-.34,1.8,3.91-.14,1.54,1.66,1,2.21,3.08l-.52,2.45c.52,3.86,1.94,4.06,3.68,9.34.37,2.67-.39,4.22-1.88,2.84,1.86,2,1.07.82,2.49,3.74-.37.62-.56.31-1.18-.24.16,2.89.89,1.56,1.42,3.64,1.09.35,2.76.66,3,1.33l.07-.89a20.58,20.58,0,0,1,1.43,3.35,15.73,15.73,0,0,1,.6,3.84h-.49l.83,2.71-.56.31,1,3.91,0-.58c.14.46.44,1.44.68,2.53a18.86,18.86,0,0,1,.36,3.23h-.35c-.28,5.13,1.92,9,2.56,14.84l-.78-.69c-.48,2.07,1.13.43,1,2.85l-.84.2c1.35,2,0,2.73-.22,4.2l1-.77c0,.91.06,1.82,0,2.74-.21,3-1.32,1.93-1.93,1.54l1,2-1,.46c1.23,1.42-.11,1.49.65,4.06-.36.23-.61-.41-.72.47l1.63,4.24-.76-2.57,1.47.26c1.29,2.68,0,3.68.4,5.61l-.44-1.33c.38,3.16-.24,3.33-.54,5.11.27-.55.66-1.4.86-.12.09.94-.5.51-.66,1.4,1,.21,1.45,2.5.94,4.55a.5.5,0,0,1-.35-.21,2.32,2.32,0,0,1,.12,1.71l-1.06-.57,1,1.79c-.32,1.16.41,2.9-.31,2.72l-.2-.68c-.21,3-.53,5.9-.78,8.84l-.87.06c1.18,1-.9,4.75.62,4.6-1,1.58-.08,6.62-1.64,5.45-.91,5.72.34,9.09-1.72,15.93a7.74,7.74,0,0,0-1.18,2.43,32.38,32.38,0,0,0-1,3.47c-.63,2.52-1.07,5.34-1.73,7.51-.38,2.19-.73,4.18-1.06,6.08s-.74,3.68-1.1,5.49-.72,3.62-1.22,5.51-1,3.9-1.59,6.09c-1.76,2.29-2.84,5.51-3.73,8.86s-2,6.72-3.56,9.24c0,.6.06,1.19.08,1.78a22.92,22.92,0,0,0-3.31,6.3,32,32,0,0,1-4,7.25,11.9,11.9,0,0,1-.62,2.32.9.9,0,0,1,1-.35c-1,1.23-2.14,4.24-2.92,3.58l.1-.4c-.79-.69-1.77,4.44-3.43,5.52l1.41-.31-1.64,2.49.22-.79c-2.11,6.21-4.89,10.06-7.54,13.8a71.39,71.39,0,0,0-8.2,12.77c0-2-.91,2.3-2,1.68-3.11,1.47-3.17,4.68-4.38,7,.05,0,.09.11.08.28-.92,1.15-1.92,2.22-2.89,3.32.43-3-1,3.28-.51.56-2.06,2-4.12,4.3-6.34,6.63q-1.65,1.77-3.3,3.65c-1.12,1.24-2.3,2.45-3.45,3.7l-3.51,3.77-3.66,3.65c-2.42,2.46-5,4.72-7.53,6.85l.71-.09c-2.5,2.25-5.41,5.3-7.77,6.46s-3.65,4.34-4.39,5c-1.76,2.31-4.63,2.77-3.64,2.08-2.23,2-3.68,4.81-7.4,6.8-.94-.1-3.12,1.73-5.15,3.52s-4,3.43-4.45,2.8l0,.13a28.35,28.35,0,0,0-6.76,4.11,31.31,31.31,0,0,1-7.12,4.1,1.56,1.56,0,0,1,.15-.34c-1.28,1.69-2.64,3.27-4,4.89l-4.12,4.86c1.78,1,3.57,2,5.39,2.92,3.73-.43,7.52-.86,11.26-1.5a273.57,273.57,0,0,0,23.66-16.47l4.87-3.08c1.64-1,3.19-2.15,4.79-3.22s3.19-2.16,4.76-3.27l4.66-3.43,2.66-2.3,2.58-2.39c1.71-1.6,3.44-3.18,5.13-4.8,3.31-3.31,6.68-6.56,9.83-10s6.29-6.94,9.37-10.46c1.52-1.78,3-3.62,4.45-5.42l2.22-2.73,2.12-2.79,1.53-3.87a46.14,46.14,0,0,0,5.84-6.56c1.9-2.41,3.58-5.1,5.3-7.8s3.34-5.48,5-8.15,3.34-5.31,5.14-7.7l-.75-.71c1.61-2.92,2-2.42,2.6-3.06a276,276,0,0,0,18.34-42.93,419.4,419.4,0,0,0,11.53-42.8,37.57,37.57,0,0,0,1.56-6.57,32.07,32.07,0,0,1,1.35-6.19c-.11-9.21.72-18.77,1-27.88l.1.34-.08-4.29c.09-.18.2-.2.28-.06a41.85,41.85,0,0,1-.38-8.79c.08-3.25.13-6.64.17-9.62l.12.34a235.25,235.25,0,0,0-8.36-49.92,367.9,367.9,0,0,0-16.95-47.43,82,82,0,0,0-5.05-11.37q-1.5-2.84-3.11-5.71c-1.1-1.89-2.3-3.76-3.47-5.66-4.66-7.63-10-15.08-14.78-22.93a49.79,49.79,0,0,0-4.34-6.48c-.59-.8-1.21-1.67-1.9-2.54l-2.18-2.71c-1.52-1.84-3.09-3.82-4.75-5.72l-4.95-5.53c-1.59-1.79-3.2-3.36-4.58-4.8s-2.6-2.65-3.56-3.57S1732.08,855.29,1731.76,855Z" class="cls-2"/><path d="M1690.24,820.29l.12.08C1690.6,820,1690.34,820,1690.24,820.29Z" class="cls-2"/><path d="M1736.67,879.54l-.14-.18.11,1Z" class="cls-2"/><path d="M1703.61,846.33c1.5,1.49,1.64,1.48,1.53,1.16A6.84,6.84,0,0,0,1703.61,846.33Z" class="cls-2"/><path d="M1675.11,810.71c-.95-.66-.71-.21-.3.4l1.71,1C1676,811.7,1675.61,811.16,1675.11,810.71Z" class="cls-2"/><path d="M1675.84,818l-.48.08C1676,818.42,1676,818.3,1675.84,818Z" class="cls-2"/><path d="M1388.41,761.42C1366,855.71,1351.24,931.67,1342,983c-14.59,81.07-16.94,108.93-44,132-43.59,37.17-120,35.22-168,34a412.64,412.64,0,0,1-46.93-3.9c-48.11-6.74-102-14.29-128.07-48.1-14.64-19-15.45-39.73-14.83-83.48.71-49.89,3.07-115.84,9.83-194.52l-90.73,63.59c-62.69,43.94-149.85,8.83-164.58-66.3q-2.36-12.06-4.73-24.14L686.5,699.5Q679.75,518.94,673,338.39a.45.45,0,0,1,.37-.47l198-41.79a.47.47,0,0,1,.56.52C859,401.37,850.06,537.51,837.19,642.42a.47.47,0,0,0,.83.35c18.32-22.15,36.08-48.78,53.7-76.47a300.89,300.89,0,0,1,235-138.56l23.45-1.47a.47.47,0,0,0,.42-.33l6.54-20.44q14.1-44.08,28.21-88.16c0-.14.08-.28.13-.42,5.22-17,15.74-34.63,34.87-51.51a41.82,41.82,0,0,1,7.11-5.08,107.55,107.55,0,0,1,54.78-14.16,104,104,0,0,1,48.61,13.34,71.06,71.06,0,0,1,30.27,32.84l0,.06a71.68,71.68,0,0,1,6.42,28.06c.32,13.83,1.56,28.77,5.07,35.95.94,1.93,1.46,5.3,4.41,6l19,4.67a6.3,6.3,0,0,1,.23,12.17l-20.86,6a5.87,5.87,0,0,0-3,2,6.28,6.28,0,0,0-1.24,3.39c-.29,3-1.25,29.57-2.36,65.89a.46.46,0,0,0,.31.46l52.34,18.46c37.37,13.19,83.82,59.17,100.09,107,6,17.5,30,88-14.59,139.59C1464.3,771.43,1394.22,762.27,1388.41,761.42Z" class="cls-3"/><ellipse cx="1335.52" cy="356.85" class="cls-4" rx="13" ry="30.25" transform="translate(758.69 1613.12) rotate(-80.3)"/><circle cx="1351.03" cy="359.62" r="9" class="cls-5"/><path d="M471,1383c72,69,32.36,57.25,186,139,90.47,48.14,198.54,50.9,274,71-16.29-18.82-39.46-32.38-52.9-80.16-5-17.61-30.76-109.34,15.08-183.67,23.25-37.71,81.19-97.28,78.42-114.72-.63-4-2.43-15.69-6.84-16l-.29,0a61.77,61.77,0,0,0-26.19,4.12c-19.08,7.16-154.63,17.79-287.7,73.86C601.48,1297.09,547.76,1318.77,471,1383Z" class="cls-1"/><path d="M862,381l52.74-132.73a24.73,24.73,0,0,0-44.81-20.77L835,293l-6-47V142.5a25.5,25.5,0,0,0-51,0V227l-14.66,2.13-26.43-88.89a24.09,24.09,0,0,0-30.1-16.18l-.46.14a24.09,24.09,0,0,0-16.24,29.34L713,238l-15,7-36.53-64c-7.84-11.68-22.13-16.34-33.47-12-14,5.38-21.71,23.81-14,40l59,129Z" class="cls-3"/><path d="M1373,397.75c-14-4.91-29-9.83-43-14.75a45.61,45.61,0,0,0,13.16,28c12.08,12.44,23.18,16,28.08,17C1373,416.2,1372.12,408.08,1373,397.75Z" class="cls-6"/><path d="M1361.16,292.41,1282,326l-17.13-8.57c-16.48-8.24-36.11,4.66-34.29,23,0,.44.09.88.16,1.32,1.42,9.54,7.56,15.69,10.07,17.93L1253,369l-95.84,36.5q14.1-44.08,28.21-88.16c0-.14.08-.28.13-.42,5.22-17,15.74-34.63,34.87-51.51a41.82,41.82,0,0,1,7.11-5.08,107.55,107.55,0,0,1,54.78-14.16,104,104,0,0,1,48.61,13.34,71.06,71.06,0,0,1,30.27,32.84Z" class="cls-7"/><path d="M386.76,1269.79c0-.17-.14-.22,0,0Z" class="cls-2"/><path d="M464.22,1374.65l.09.09a4.45,4.45,0,0,1,.55-.16Z" class="cls-2"/><path d="M478.39,1390.34l.06.13C478.52,1390.37,478.62,1390.3,478.39,1390.34Z" class="cls-2"/><path d="M430.81,1339.34a.46.46,0,0,0-.3-.22A1.09,1.09,0,0,1,430.81,1339.34Z" class="cls-2"/><path d="M370.36,1234.89l.05.08a2.13,2.13,0,0,1,0-.25Z" class="cls-2"/><path d="M370.83,1235.17c0,.48-.31,0-.42-.2a2.16,2.16,0,0,0,.39,1.51C371.08,1236.36,370.7,1235.46,370.83,1235.17Z" class="cls-2"/><path d="M353,1167.49l.15.19A.58.58,0,0,0,353,1167.49Z" class="cls-2"/><path d="M420.25,1350.39l-.26-.21A.43.43,0,0,0,420.25,1350.39Z" class="cls-2"/><path d="M354.07,1178.39l.5,0A.93.93,0,0,0,354.07,1178.39Z" class="cls-2"/><path d="M464.86,1374.58l.24,0Z" class="cls-2"/><path d="M492.61,1403.75a.84.84,0,0,0-.16.35l0,0Z" class="cls-2"/><path d="M567.75,1469a.6.6,0,0,0,.06-.19l-.53.08A1,1,0,0,0,567.75,1469Z" class="cls-2"/><path d="M511.9,1422.59c.06,0,.14,0,.18-.07a13.26,13.26,0,0,0-2.42-2.15l-.45.41Z" class="cls-2"/><path d="M527.17,1451.78l-1.66-2.72c4,2.54,6.64,4.76,9.26,6.73a63.65,63.65,0,0,0,8.8,5.58l-.51,0c.4.45,1.13.2,2.85,1.09s4.41,3,8.94,7.89l-.07.11c.4.22.52,0,1.11.76l-1.49-1.81a20.94,20.94,0,0,1,4.16,1.47.76.76,0,0,1,.15.78l3.82,2.15.72,1.38c1.36.35,1.72-1.37,4.27,1.31-.54-1.69,1.86.36,1.8-.37a9.85,9.85,0,0,0,.49,1c1.87,1,5.43,2.87,6.57,2.89,0,0-5.78-6.47-7-8.68,2.35,1.84.74.3.44-.34l-.32.14c-1.36-1.19-1-1.8-1.62-2.44a.52.52,0,0,0-.06.2l.14,0c0,.15-.08.2-.2.21s-.2.2-.59-.1h.12a14.7,14.7,0,0,1-2.16-1.42l.32-.52c-.87.14-2.51-1.41-4.12-3.11l-2.28-2.47a12.86,12.86,0,0,0-1.59-1.62c-1.05-1.63-3.39-2.07-5-3.63-2.81-2.14-1-1.72-2.14-3.14-1.62-1.55,0,.83-.78.37l-1.72-2.18c1.31.8.83,0,.73-.31-1.84-1.37-4.18-4.3-5.45-3.7-2.23-2.19-2-2.6-3-3.43.23.44.82,1.12.69,1.32-.69-1.16-.56-.24-.22.16-1.82-.69-6.59-7.54-7.68-6.7l.15-.2c-.94.54-.93,1.72-2.32,1.39l-.45-.88-1.31-.44c-.53-.78,0-.73,0-.83-2-.9-4.11-3.11-6.13-4.75l.62,3.77c-.7-.9-1.68-2.17-2.56-3.21s-1.67-1.8-2.11-1.6l-.49-1.53c-2.4-4.09-2.87-1.32-3.94-2.82l-1.13-2.14,1.72,1.38a32.9,32.9,0,0,1-2.89-4.14h0c.07.1.1.19.08.24l-.26-.17c-.51.22-1.62-.23-2.82-1.21-1.62-1.49-3.49-1.93-5.48-5l-1.31.2-1.62-2.17.51-.61c1,.86,2.42,2,4,3.22s3.22,2.37,4.52,3.39l.28-.24c-1.54-1.23-3.55-2.3-4.47-3.23-.38-.53-1.08-2.22.15-1.88l-1.42-.18a62.32,62.32,0,0,1-9.72-9.29l.19.69c-1.18-.7-2.37-1.41-2.22-2.14a34.9,34.9,0,0,1-7-8.62l-1.06.31c-.61-.63-.59-2.55-1.8-1.86l-1.64-1c-.82-.85-1.73-1-2.35-2.25h0a1.89,1.89,0,0,1-.11-.25.16.16,0,0,0,0,.07c-1.68-2.13-.59.65-2.42-1.87-.24-1.17-1.6.1-2.52-1.1l-.12-2c-1.38-2.45-2.66-1.81-5.45-4.57-1-1.66-.82-3.11.79-3-2.09-.32-1.13,0-3.16-1.15.12-.6.36-.51,1.05-.48-1-1.83-1.21-.55-2.27-1.64-1,.35-2.43,1-2.82.73l.19.63a9.37,9.37,0,0,1-3.79-3.64l.4-.28-1.54-1.29.36-.52-2.09-1.95.15.4a13.81,13.81,0,0,1-2.8-3l.28-.19c-1.67-3.27-4.58-4.57-7.39-7.63l.88,0c-.4-1.52-1.06.42-1.91-1.08l.6-.63c-1.83-.38-1.08-1.61-1.42-2.65l-.54,1.09-1.08-1.6c-1.11-1.84.23-1.9.88-2l-1.62-.52.58-.85c-1.56-.06-.57-.89-2.2-1.92.19-.36.65-.14.38-.72l-3-1.47,1.63,1-1.26.75c-2.05-.79-1.5-2.12-2.67-2.93l.92.46c-1.67-1.51-1.26-2-1.8-3.17,0,.47.1,1.19-.62.61-.47-.47.18-.6-.09-1.19-.85.49-2.25-.44-2.8-1.85a.56.56,0,0,1,.37-.11c-.36-.19-.67-.19-.89-.83l1.08-.37-1.58-.34c-.29-.82-1.66-1.28-1-1.65l.46.24L425,1331l.64-.59c-1.32.22-1.67-3-2.74-1.94-.05-1.42-3.23-3.39-1.46-3.81a16.61,16.61,0,0,0-1.8-2.14c-.59-.64-1.18-1.22-1.78-1.83a17.07,17.07,0,0,1-3.45-4.88c.08-1.13-.66-2.63-1.63-4.18-.48-.78-1-1.57-1.55-2.34s-1-1.54-1.38-2.24c-1.94-2.46-3.54-4.48-5.14-6.52-.8-1-1.62-2-2.45-3.15l-2.53-3.63c-.21-4.32-5.51-7.88-6.42-12.11l-1.23-.62a11.27,11.27,0,0,0-1.93-4.61c-.48-.81-1-1.65-1.4-2.53a11.29,11.29,0,0,1-.87-2.84,9,9,0,0,1-1.16-1.26c0,.17,0,.47-.38.77-.17-1.14-1.55-2.94-.59-3.24l.21.21c1-.3-1.89-2.79-1.66-4.26l-.66,1.06-.76-1.94.43.41a28.58,28.58,0,0,1-5.16-9.76c-.55-1.51-1-3-1.69-4.62a24.41,24.41,0,0,0-2.87-5c1.51.61-1.21-1.32-.07-1.89.67-2.57-1.73-3.58-2.76-5.07a.33.33,0,0,1-.26,0l-.94-2.93c2.15,1.17-2-1.61-.16-.5-.44-2-1-4.07-1.64-6.22s-1.46-4.35-2.23-6.61-1.48-4.57-2.22-6.86-1.27-4.61-1.77-6.87l-.29.49c-.27-1.14-.72-2.38-1.08-3.58a9.43,9.43,0,0,1-.45-3.29c.23-1.88-1.93-3.54-2.16-4.21-1.11-1.75-.09-3.8,0-3-.6-2-2.52-3.62-2.39-6.6.58-.61-.1-2.49-.75-4.27s-1.15-3.48-.4-3.64h-.13a14.84,14.84,0,0,0-.62-5.44,14.43,14.43,0,0,1-.56-5.64,1.11,1.11,0,0,1,.23.19c-1.78-2.51-3.56-5.1-5.16-7.77-1.7.78-3.37,1.68-5,2.58-.62,1.28-1.24,2.59-1.82,3.89s-1.18,2.62-1.73,3.93c1,6.75,2.34,13.34,3.9,19.86.24,2.67.56,5.33.84,8s.71,5.32,1.06,8a323.37,323.37,0,0,0,12.32,36.91l2.05,2.17c.46,3.91,2.23,7.89,4,11.92s4,8,5,12l1-.28c1.07,2,.44,2.17.54,2.76,2.44,4.79,4.88,9.62,7.63,14.27l4,7,4.19,6.82c1.39,2.25,2.72,4.53,4.11,6.74s2.8,4.37,4.15,6.54l4,6.45c1.34,2.1,2.63,4.18,3.87,6.26.53,1.89,4,6.37,4.34,7.93a65.52,65.52,0,0,1,6.56,7.06c2,2.51,3.9,5.13,5.85,7.58l-.23-.12,2,2.18c0,.15-.07.24-.19.21,2.79,2,5.33,6.7,7.7,10l-.24-.11c3.87,4.51,7.74,8.89,11.66,13.13l12.07,12.26c4.09,4,8.25,7.87,12.3,11.94,1,1,2,2,3.06,3l3.12,3q3.12,3,6.2,6.2c.87,1.07,1.8,2.12,2.78,3.15a38.71,38.71,0,0,0,3.12,3c2.2,1.93,4.55,3.81,6.94,5.72s4.82,3.85,7.2,5.88,4.83,4,7.06,6.22c.6,1.09,6,5.46,11.52,9.61C520.39,1447.48,526.13,1451.31,527.17,1451.78Z" class="cls-2"/><path d="M558.71,1471.62l-.08,0C558.4,1471.92,558.61,1471.87,558.71,1471.62Z" class="cls-2"/><polygon points="522.77 1432.69 522.89 1432.8 522.76 1431.97 522.77 1432.69" class="cls-2"/><path d="M549.71,1451.49c-1.15-.93-1.26-.89-1.18-.63A3.34,3.34,0,0,0,549.71,1451.49Z" class="cls-2"/><path d="M569.53,1477.45c.65.45.52.08.28-.41l-1.2-.66C568.94,1476.7,569.19,1477.13,569.53,1477.45Z" class="cls-2"/><path d="M569.81,1470.91l.39-.16C569.77,1470.58,569.71,1470.69,569.81,1470.91Z" class="cls-2"/><path d="M1373,736l5.85,216.51a114.49,114.49,0,0,0,77.39,105.23l.76.26c31.39,8.1,52.86,3.75,66-1,81.5-29.47,88-163.38,160-467,12.32-52,23.06-94.23,30-121l46.13,5.57c12.55,1.51,16.29-7.26,17.62-9.05,5.31-7.13,5.85-18.23.54-26.5a24.69,24.69,0,0,0-13.82-10L1715,414c-4.09-15.82-1.42-22.69,2-26,14.34-13.9,56.89,20.23,79,3,.34-.26,8.24-6.61,9-16.42.68-8.89-4.72-18-14.09-24.87a29.23,29.23,0,0,0-10.85-4.82L1736.26,335,1692,344a383.45,383.45,0,0,0-53.43,24.38c-25.23,13.93-61,34.57-83.57,67.62-28.58,41.76-11.93,68.65-33,146a422.62,422.62,0,0,1-35,88l-26.34-65.12Z" class="cls-3"/><rect width="112" height="212" x="1622" y="293" class="cls-7" rx="11.07" ry="11.07" transform="translate(58.17 -193.47) rotate(6.71)"/><rect width="89.83" height="179.66" x="1633.65" y="304.39" class="cls-6" transform="translate(57.61 -193.57) rotate(6.71)"/><circle cx="1666" cy="493" r="5" class="cls-6"/><path d="M988.27,1595.35c-.4-.1-.61-.06,0,0Z" class="cls-2"/><path d="M1301.94,1615.17l.31,0a4.46,4.46,0,0,1,.61-.52Z" class="cls-2"/><path d="M1352.45,1613.62l.31,0C1352.73,1613.53,1352.78,1613.41,1352.45,1613.62Z" class="cls-2"/><path d="M1185.39,1616.09a2.26,2.26,0,0,0-.87.06A7,7,0,0,1,1185.39,1616.09Z" class="cls-2"/><path d="M896.6,1580.15l.22,0-.51-.22Z" class="cls-2"/><path d="M897.67,1580c1.07.36-.36.22-.85.16a12,12,0,0,0,3.62.9C900.49,1580.76,898.16,1580.35,897.67,1580Z" class="cls-2"/><path d="M733.18,1539.94l.52,0A3.56,3.56,0,0,0,733.18,1539.94Z" class="cls-2"/><path d="M1189.68,1631.47l-.77,0A2.58,2.58,0,0,0,1189.68,1631.47Z" class="cls-2"/><path d="M758.36,1548.11l.42-.39C758.48,1547.84,758.38,1548,758.36,1548.11Z" class="cls-2"/><path d="M1302.86,1614.63l.36-.21A1.68,1.68,0,0,0,1302.86,1614.63Z" class="cls-2"/><path d="M1398.92,1609.31a.64.64,0,0,0,.29.34h.13Z" class="cls-2"/><path d="M1626.92,1552.9a.42.42,0,0,0-.2-.11l-.69.74A4.65,4.65,0,0,0,1626.92,1552.9Z" class="cls-2"/><path d="M1462.49,1601.41c0-.07.18-.15.18-.21-1.11,0-3.94.6-7.57,1.27l-.12.63C1457.49,1602.57,1460,1602,1462.49,1601.41Z" class="cls-2"/><path d="M1534.48,1598.24l-7,.78,25.92-8a225.9,225.9,0,0,0,23.21-8.54l-.9.61c1.36-.34,2.16-1.32,6.35-3.19,2.1-.91,5-2.12,9.29-3.62,2.14-.73,4.58-1.61,7.44-2.55l9.78-3.21,0,.11a10.52,10.52,0,0,1,3-1.26c-1.72.52-3.45,1-5.18,1.5,1.4-.79,2.68-1.59,4.08-2.43a51.87,51.87,0,0,1,4.83-2.69c.88-.26,1.26-.17,1.43,0,3.12-1.52,6.2-3.15,9.31-4.72l3.2-.75c1.33-.91,1.48-1.57,2.3-2.38s2.32-1.76,6.3-3.37c-3.38.5,3.41-2.59,2.2-2.61.44-.08,1.41-.34,2.19-.56,2.18-1.3,5.33-3.14,8.11-4.95a55.07,55.07,0,0,0,6.11-4.35l-3,1.26c-1.8.75-4.23,1.82-6.86,2.84s-5.41,2.13-7.88,3-4.61,1.57-5.92,1.92c6.38-3,1.58-1,.17-.69l-.28.48c-3.88,1.71-4.22,1-6.19,1.82,0,.06.12.09.2.13l.2-.21c.23,0,.17.15,0,.32.12.11,0,.31-1.05.79l.16-.16a58.21,58.21,0,0,1-5.52,2.68l-.28-.53a15.38,15.38,0,0,1-4.11,2.23c-2,.85-4.55,1.72-7.11,2.59s-5.19,1.66-7.4,2.37-4,1.3-5,1.69a32.84,32.84,0,0,0-6.48,2.49A69.45,69.45,0,0,1,1583,1570c-7.86,2.88-4.22.7-8.31,1.74-5,1.52,1.24.28-.71,1.07l-6.17,1.39c3.39-1.33,1.41-1,.71-1-1.28.44-2.76.9-4.28,1.35l-4.55,1.31c-2.88.87-5.28,1.73-5.88,2.55-7.11,1.78-7.27,1.32-10.27,2.21,1.06-.11,3.11-.56,3.2-.33-3,.38-1.29.55-.11.3-2.05.91-7.72,2.2-13,3.29s-10.05,2.11-10.31,2.9l-.07-.23c-.73,1.23,1.14,1.69-1.71,3.08l-2.13.12-2.91,1.24c-2.12.25-1.19-.28-1.22-.39-4.81,1.79-11.85,3.05-17.89,4.38l7,1c-2.61.33-6.29.75-9.41,1.23s-5.69.94-6.1,1.48l-3.26-.17c-10.6.56-7,2.33-11.19,2.67l-5.35.11,5.13-1c-5.22.58-7.33.7-11.55.86l0,0c.29,0,.48,0,.53,0l-.71.17c-.53.59-3.13,1.48-6.76,2.11-5.17.82-9.08,2.27-17.49,2.63l-1.89,1.32-6.29.41-.13-.79c6.08-.92,17.43-3.09,25.17-4.62l.07-.39c-2.3.43-4.74,1-7,1.46s-4.32.89-5.85,1.12-5.44-.08-2.78-1.07l-2.72,1.23c-15.39,2.55-15.5,2.6-31.76,3.87l1.46.21c-3.17.66-6.34,1.3-7.32.75-9.71,1.09-19.86,1.6-26.26,1.23l-1.29,1.06c-2.07.14-5.28-1-6.16.41l-4.36.8c-2.82.16-4.5.85-7.74.56h0l-.62-.06a.43.43,0,0,0,0,.07c-6.4.06.13.84-7.21.84-2.39-.49-2.51,1.37-6.08,1.4l-3.67-1.11c-6.49-.41-7.51,1.05-16.87,1.51-4.52-.25-6.74-1.34-3.81-2.48-4,1.41-1.83.89-7.22,1.71-.86-.48-.29-.61.89-1.12-4.83-.39-2.95.58-6.58.68-1,1-2.19,2.56-3.37,2.67l1.42.25a50.17,50.17,0,0,1-12.55.63l.16-.49-4.77.34-.31-.61-6.81.31.93.16a79.61,79.61,0,0,1-9.86.09l.11-.35c-8.48-1-15.46.41-25.4.41l1.31-.69c-3.37-.73-.94,1.07-5,.68l-.19-.86c-3.57,1.07-4.59-.31-7-.78l1.12,1.14-4.6-.31c-5.06-.49-3.08-1.5-2.33-2.07l-3.47.81-.65-1c-2.54,1.1-2.51-.25-6.94.25-.35-.39.77-.57-.73-.78l-7.32,1.17,4.41-.47-.58,1.44c-4.62,1-6.2-.38-9.48-.08l2.27-.36c-5.35.17-5.61-.48-8.61-.92.92.31,2.33.77.16.87-1.58,0-.83-.55-2.33-.77-.39,1-4.25,1.29-7.7.67a.51.51,0,0,1,.36-.34,6.55,6.55,0,0,1-2.89,0l1-1-3,.88c-2-.4-4.89.23-4.59-.49l1.13-.15-14.95-1.12-.16-.87c-1.55,1.09-8.12-1-7.72.53-2.77-1-11.16-.21-9.38-1.75-9.8-.86-15.24.34-27.11-1.51-4.13-1.77-15.8-2.39-23.43-3.32-15-.94-24.72-1.48-40-2.87-8.93-3.07-23-2.22-32.67-4.7l-2.8.4c-6.37-2.15-16.59-2.08-25.58-4.7-2.3,0-3.49-.08-4-.13.41.1,1,.35,1.14.87-2.56-.75-7.93-1.15-7.39-2.07h.68c.54-.91-8-.81-10.79-2.13l1.43,1.31-4.93-1,1.36,0a156.37,156.37,0,0,1-26.29-3.83,179.21,179.21,0,0,0-25.24-4.12c2.88-.64-4.08-.15-4.11-1.46-4.76-2.54-9.45-1.48-13.69-1.88,0,.06-.08.12-.33.17l-7.23-1.61c4.65-.69-5.49.25-1.24-.28-18.67-5-43.54-9.16-65.14-14.9l.86.63c-5.49-1.39-12.46-2.57-16.47-4.25s-9.37-1.27-11-1.63c-4.74-.47-8.53-2.93-6.59-2.35-4.92-1.08-9.88-.87-16.46-3.32-1.94-1.9-18.71-3.85-18.48-5.42l-.1.1c-8.26-3.55-16.87-4.24-25.63-8.23a3.24,3.24,0,0,1,.55,0c-3.31-.3-6.62-.64-9.91-1.06-1.63-.21-3.28-.43-4.89-.72-.8-.14-1.61-.29-2.38-.48a12.42,12.42,0,0,1-2.07-.62,3.47,3.47,0,0,0,.26,1.76c.2.62.44,1.23.69,1.83.51,1.21,1.07,2.39,1.65,3.56,5,3.6,10,6.76,15.07,9.92,15,4.59,30,8.57,45,12.35q17.7,5.64,35.54,10.83,43.92,10.47,88.23,18.87l6.55.1c17,5.38,39.8,7.12,58.39,11.64l.55-.92c5.32.81,4.86,1.36,6.15,1.74,49.47,7.82,100.78,12.81,145.56,17.9,4.27,1,17.48,1.71,20.83,2.65,14.7-.11,30.17.86,44.81,1.68l-.56.08,6.91.14c.29.09.32.21.09.28,7.83-.54,20,.78,29.59,1.38l-.56.09c27.85.8,54.73.32,81.52-.82s53.48-3,81.09-5.1c12.89-.51,26.73-2.34,41-4.59s28.89-5,43.55-7.17c2.76,0,18.83-3.13,34.68-7.18,7.94-2,15.82-4.19,22-6S1533.25,1598.73,1534.48,1598.24Z" class="cls-2"/><path d="M1616.71,1565.72l-.21.1C1616.69,1566.2,1616.93,1565.91,1616.71,1565.72Z" class="cls-2"/><path d="M1497.05,1595.08l.37-.08-1.54-.23Z" class="cls-2"/><path d="M1571.44,1572c-3.33,1.09-3.44,1.24-2.92,1.23A19.28,19.28,0,0,0,1571.44,1572Z" class="cls-2"/><path d="M1642.4,1551.79c1.65-.88.91-.75-.19-.46-1.65,1-2.82,1.6-2.82,1.6C1640.36,1552.52,1641.4,1552.23,1642.4,1551.79Z" class="cls-2"/><path d="M1633,1550.36l.35-.57C1632.42,1550.38,1632.51,1550.47,1633,1550.36Z" class="cls-2"/><path d="M1547,508.88,1603,448l47.89-52.54c9-9.92,23.78-12.66,35.47-6.08l1.14.67c.42.26.82.53,1.22.8,12.79,8.75,14.32,27.11,3.67,38.37L1651,473l-33.06,77.07Z" class="cls-3"/><path d="M1609.39,297.8,1584,271l-19.38-66.67a19.63,19.63,0,0,0-24.8-13.23l-68.57,21.82a19.63,19.63,0,0,0-11.45,27.78l18.88,36.19a19.62,19.62,0,0,0,19.87,10.39L1564,279l42.4,22.72A2.5,2.5,0,0,0,1609.39,297.8Z" class="cls-8"/><path d="M1712.19,271.14l1.27-19.61-11.65-70a14.62,14.62,0,0,1,17-16.79l84.7,15.1a14.61,14.61,0,0,1,11.75,17.3q-3.36,16.59-6.73,33.18A14.62,14.62,0,0,1,1794.88,242L1734,244.89l-14.85,28.2A3.67,3.67,0,0,1,1712.19,271.14Z" class="cls-8"/><path d="M1488,229.62l.24.18A.23.23,0,0,0,1488,229.62Z" class="cls-6"/><path d="M1532.13,217.84l0-.06A.06.06,0,0,0,1532.13,217.84Z" class="cls-6"/><path d="M1496.74,235.4h0s0,0,0,.07Z" class="cls-6"/><path d="M1487.67,237.15c2.41-.35,3.31.53,5.62-.53a19.91,19.91,0,0,0,3.45-1.22c.32-1,1.48-.4,1.93-1.25l.37.39c.15-.29.37-.52.65-.32l0,.13c.23-.43.65-.32.77-.54l0,.14.38-.16V234a1.91,1.91,0,0,1,1.61-.67l-.19-.55c1.27.33,1.37-.94,2.56-.46l0,.14c.87-1.81,2.26.48,3.19-1.27-.11.22.15.27.17.41.56-.32,1.18-.57.89-1.68.44-.1.45.26.62.67a.73.73,0,0,1,.53-.91l-.11.23.93-.42-.43-.86c.59.12.43,1.07.86.72l-.2-.75c.75,0,1.48,1,2.32,1.36,3-.44,5.55-3.18,8.58-2.56l.27.54c.27.81.41-1.43.72-.69l.21-.46c.13.13.35.24.25.46.3,0,.27-.18.41-.48l.44.43c1.25.1,2-1.15,3.2-1.27,1.72.67,4.17-1,5.58-2,1.86-1.82,5.29.8,7.16-1.21.1.1.22-.22.19-.31l2.09-.43s10-2.31.66-7.18v-.19c-1.24-.15-2,0-2.51,1.06-.42-1.08-1,.13-1.31-.16v-.1c-.46,1-1.6-.34-2.06.61,0-.1-.06-.41.08-.47-.44.27-1,.69-1.24.05-1.11.48-2.79.6-3.25,1.83v-.19c-.24.81-.52.25-.89.73,0-.08-.1-.12-.1-.15-.28.81-1.31.46-1.6.85l-.14-.42-.88.34h.36c.2,1.22-.88-.56-1.34.38-.66,0-.6,2.79-1.4,2.38-.16.64,0-1-.31-.42-.18-.61.11-.44-.14-.9-.37.41-.9-.44-1.35.12l-.15-.47c-.49,1.07-1.53-.27-1.79.69-.64.6-.88-1.29-1.41-.15l-.47-.57c-.36,0,0,.86-.48.65-.09-.42-.55-.21-.44-.65-1-.42-1.45,1.35-2.84.56,0,.86-.7.53-.72,1.18-.12-.34-1.13.24-.7-.68,0-.08.13-.09.16.05l0-.5c-.86-.72-1,.8-1.67.82.23.11.46,0,.38.37l-.59.09,0-.43h-.92l.25.46c-.49-.14-.86-.94-1.15-.12-.11.45.57.56.17.83a8.3,8.3,0,0,0-2.38-.43c.21.54,0,.57-.15.74l-.15-.48c-.59.87-.56-1-1.18-.25l0-.35.07,1.05c-.43,1.14-.63-.9-1,.61.28-.17.43,1,0,.91l0-.49c-.17.15-.19.36-.35.3,0-.28-.12-.69-.4-.53l0-.64-.34,1c-.57-.38-1.1.42-1.45-.18,0,0-1-.07-1,.7.07-.5-.49-.53-.48-1.09-.11.57-.72,1.17-1.15.71l0-.08c-1.21-.26-1.62,1.24-2.75.83.19.54-.4.37-.08,1.05-.81,1-2.19-1-2,1.33-.42.24-.67-.38-.94-.43l.08-.14a4.83,4.83,0,0,1-1.68.6c-.25.3,0,1.34-.66,1.24.08-.46-.13-.32-.34-.26.12-.1.12-.26-.23-.47a.77.77,0,0,1-.08.31.79.79,0,0,1,0-.09c-.31.23-.21.34,0,.36a.57.57,0,0,0,.13.24c-.51-.43-1,.3-1.24-.39-1,.44-1.57,1.36-2.37,1.87a.77.77,0,0,1,.14-.92l-.58.3c-.13-.52.28-.39.44-.55-1-.64-1.3,1.24-2.37.7l-.08.46-.06,0a.84.84,0,0,1-.17.66c-.24-.42-.27-1-.69-.9-.45-.34-.91.47-1.29.84.26,0,.25.28.19.47-.21.07-.45-.35-.57-.11l-.18-.61c.24.55-.4.77-.41,1-.24-.42.23-.48.19-.83l-1.26.43c-.34.58.23.55.15,1.14-.37.23-.65.76-1.22.51l.29.51a1.24,1.24,0,0,1-1.78.26c-4.5,5.91.4,6.34.4,6.34C1484.39,240.15,1485.13,238.27,1487.67,237.15Z" class="cls-6"/><path d="M1779.68,200l-.16-.25A.23.23,0,0,0,1779.68,200Z" class="cls-6"/><path d="M1734.19,195.46l0,0A.08.08,0,0,0,1734.19,195.46Z" class="cls-6"/><path d="M1773.49,191.52h0s0,0,0-.06Z" class="cls-6"/><path d="M1782.59,193.08c-2.37-.52-2.9-1.67-5.44-1.48a20.24,20.24,0,0,0-3.65-.08c-.64.78-1.53-.15-2.25.49l-.21-.5c-.25.22-.53.35-.73.07l0-.13c-.37.32-.73.07-.91.23l0-.14-.42,0,.09-.19a1.92,1.92,0,0,1-1.74.06l0,.58c-1.07-.76-1.61.39-2.56-.48l0-.13c-1.45,1.39-1.95-1.25-3.43.06.18-.17,0-.31,0-.45-.63.11-1.3.12-1.42,1.26-.45-.06-.33-.39-.34-.84a.73.73,0,0,1-.82.66l.18-.17-1,.06.1,1c-.5-.32,0-1.16-.55-1l-.07.77c-.72-.22-1-1.45-1.69-2.09-2.93-.64-6.32,1-8.94-.63l-.06-.6c0-.86-.89,1.19-.91.39l-.37.35c-.07-.16-.24-.34-.06-.52-.3-.06-.32.08-.56.32l-.26-.57c-1.13-.53-2.23.39-3.44.06-1.37-1.23-4.26-.52-5.92-.11-2.39,1-4.67-2.62-7.12-1.4-.07-.13-.29.13-.3.22l-2.1-.33s-10.22-1.38-3.15,6.49l-.07.18c1.11.57,1.83.74,2.72-.11,0,1.16.94.21,1.17.61l0,.09c.79-.81,1.37.88,2.14.16,0,.09-.09.41-.25.41.52-.1,1.22-.28,1.19.39,1.2-.06,2.82.42,3.69-.56l-.07.17c.5-.67.57-.05,1.09-.36,0,.09,0,.14,0,.17.54-.66,1.38,0,1.79-.23l0,.44h1l-.34-.13c.25-1.21.63.83,1.39.11.62.22,1.55-2.4,2.15-1.73.38-.54-.37.9.15.51,0,.63-.27.37-.2.89.5-.25.7.73,1.31.36l0,.49c.84-.82,1.34.8,1.93,0,.8-.33.36,1.52,1.26.63l.24.7c.33.15.33-.79.68-.43-.07.42.44.39.18.76.79.75,1.84-.76,2.85.48.33-.8.85-.25,1.1-.85,0,.36,1.13.17.41.88-.06.06-.15,0-.13-.1l-.13.48c.55,1,1.22-.39,1.85-.18-.17-.18-.43-.16-.23-.48l.59.13-.17.39.86.33-.07-.52c.41.31.47,1.19,1,.52.26-.38-.34-.73.13-.84a8.43,8.43,0,0,0,2.08,1.24c0-.58.19-.54.4-.63l0,.5c.85-.61.17,1.12,1,.65l-.1.34.31-1c.8-.91.27,1.07,1.19-.19-.32.05,0-1.11.32-.86l-.14.47c.22-.08.31-.27.44-.16-.15.25-.14.69.18.64l-.27.58.67-.82c.4.56,1.18,0,1.3.68,0,0,.93.43,1.23-.29-.24.44.27.67.07,1.19.3-.49,1.08-.84,1.32-.25l-.06.05c1,.68,2-.58,2.87.21,0-.58.5-.22.45-1,1.09-.63,1.7,1.68,2.3-.55.48-.08.5.58.72.73l-.12.1a4.92,4.92,0,0,1,1.78,0c.35-.19.5-1.24,1.06-.93-.23.4,0,.35.23.37-.15.06-.21.2,0,.52a.69.69,0,0,1,.18-.26.33.33,0,0,1,0,.1c.38-.11.33-.25.17-.32a.71.71,0,0,0,0-.27c.31.58,1,.07,1,.79,1.1-.05,2-.72,2.88-.91a.75.75,0,0,1-.46.81l.66-.07c-.06.53-.4.27-.61.36.67.94,1.66-.7,2.47.18l.23-.41,0,.08a.87.87,0,0,1,.39-.57c.08.48-.11,1.08.33,1.09.3.49,1-.12,1.5-.32-.24-.11-.13-.36,0-.51.22,0,.3.48.49.3l0,.63c0-.6.64-.58.75-.83.08.48-.38.37-.47.71l1.33.05c.52-.42,0-.6.26-1.13.43-.08.88-.47,1.32,0l-.09-.57a1.25,1.25,0,0,1,1.76.38c6.3-3.94,1.86-6.06,1.86-6.06C1786.73,191.43,1785.38,192.93,1782.59,193.08Z" class="cls-6"/><path d="M1782.73,221.5l-.16-.25A.22.22,0,0,0,1782.73,221.5Z" class="cls-6"/><path d="M1737.11,218.44l0,0S1737.11,218.45,1737.11,218.44Z" class="cls-6"/><path d="M1776.27,213.19h0l.06-.05Z" class="cls-6"/><path d="M1785.41,214.46c-2.39-.45-3-1.58-5.48-1.31a20.33,20.33,0,0,0-3.66,0c-.61.81-1.53-.09-2.23.57l-.22-.49c-.24.22-.52.37-.73.09l0-.13c-.37.34-.73.09-.91.26l0-.14-.41,0,.08-.2a1.93,1.93,0,0,1-1.74.12v.58c-1.09-.73-1.59.45-2.57-.39l0-.14c-1.4,1.44-2-1.18-3.42.17.18-.17-.06-.3,0-.44-.63.12-1.3.16-1.39,1.3-.45,0-.34-.38-.37-.82a.73.73,0,0,1-.79.68l.18-.18-1,.1.13,1c-.51-.3-.06-1.15-.58-1l0,.78c-.73-.2-1.08-1.42-1.76-2-3-.54-6.28,1.23-9-.33l-.08-.6c0-.86-.85,1.22-.9.42l-.35.37c-.08-.16-.26-.34-.09-.52-.29-.06-.31.08-.54.33l-.28-.56c-1.15-.49-2.22.47-3.44.18-1.41-1.19-4.27-.39-5.92.08-2.35,1.12-4.75-2.46-7.16-1.16-.07-.13-.29.13-.29.23l-2.11-.27s-10.26-1-2.94,6.59l-.06.18c1.13.54,1.85.69,2.71-.2.05,1.16,1,.19,1.19.58l0,.09c.77-.83,1.41.84,2.15.09,0,.09-.07.41-.23.41.51-.11,1.2-.31,1.19.36,1.2-.1,2.84.33,3.67-.69l-.06.18c.48-.69.57-.07,1.08-.4,0,.09,0,.14,0,.18.52-.68,1.39,0,1.79-.3v.45l.95,0-.34-.12c.2-1.21.65.81,1.39.07.63.2,1.47-2.45,2.09-1.81.36-.55-.34.91.16.51,0,.63-.25.38-.16.9.49-.27.72.7,1.32.31v.5c.81-.86,1.36.75,1.92-.08.8-.36.41,1.51,1.28.59l.27.69c.33.14.3-.8.66-.45-.06.42.45.37.2.76.82.72,1.82-.82,2.87.37.31-.8.84-.27,1.07-.88,0,.36,1.14.14.44.87,0,.06-.15,0-.13-.1l-.12.49c.59,1,1.21-.43,1.84-.24-.17-.18-.43-.15-.24-.48l.59.11-.15.4.87.31-.09-.52c.42.29.51,1.16,1,.48.25-.39-.36-.72.1-.85a8.22,8.22,0,0,0,2.12,1.18c0-.58.17-.55.38-.65v.5c.83-.64.21,1.11,1,.62l-.09.34.28-1c.77-.94.3,1.05,1.18-.24-.32.06-.07-1.1.29-.86l-.13.47c.22-.09.3-.28.44-.17-.15.25-.12.69.2.63l-.25.59.64-.85c.42.55,1.18,0,1.32.64,0,0,1,.4,1.22-.32-.23.44.3.65.11,1.18.28-.5,1.06-.87,1.32-.3l-.06.06c1.06.64,1.93-.65,2.87.11,0-.58.49-.23.42-1,1.07-.65,1.75,1.63,2.28-.62.47-.09.51.57.75.7l-.12.12a4.91,4.91,0,0,1,1.78,0c.34-.2.46-1.25,1-1-.22.41,0,.35.24.37-.14.05-.19.2.07.5a.79.79,0,0,1,.18-.26.33.33,0,0,1,0,.1c.37-.12.32-.26.15-.32a.4.4,0,0,0,0-.27c.34.57,1,0,1,.76,1.09-.09,1.92-.79,2.84-1a.74.74,0,0,1-.43.82l.65-.1c0,.54-.39.29-.59.38.7.92,1.63-.76,2.47.1l.22-.41,0,.07a.82.82,0,0,1,.37-.57c.09.47-.09,1.07.36,1.07.32.47,1-.16,1.49-.37-.25-.1-.15-.35,0-.51.22,0,.32.47.5.29l0,.63c0-.6.62-.6.72-.85.1.47-.37.37-.45.72h1.34c.51-.44,0-.6.22-1.13.43-.1.87-.51,1.32-.09l-.11-.57a1.24,1.24,0,0,1,1.77.32c6.17-4.14,1.66-6.13,1.66-6.13C1789.49,212.67,1788.19,214.21,1785.41,214.46Z" class="cls-6"/><path d="M1499,252.62l.24.18A.23.23,0,0,0,1499,252.62Z" class="cls-6"/><path d="M1543.13,240.84l0-.06A.06.06,0,0,0,1543.13,240.84Z" class="cls-6"/><path d="M1507.74,258.4h0s0,.05,0,.07Z" class="cls-6"/><path d="M1498.67,260.15c2.41-.35,3.31.53,5.62-.53a19.91,19.91,0,0,0,3.45-1.22c.32-1,1.48-.4,1.93-1.25l.37.39c.15-.29.37-.52.65-.32l0,.13c.23-.43.65-.32.77-.54l0,.14.38-.16V257a1.91,1.91,0,0,1,1.61-.67l-.19-.55c1.27.33,1.37-.94,2.56-.46l0,.14c.87-1.81,2.26.48,3.19-1.27-.11.22.15.27.17.41.56-.32,1.18-.57.89-1.68.44-.1.45.26.62.67a.73.73,0,0,1,.53-.91l-.11.23.93-.42-.43-.86c.59.12.43,1.07.86.72l-.2-.75c.75,0,1.48,1,2.32,1.36,3-.44,5.55-3.18,8.58-2.56l.27.54c.27.81.41-1.43.72-.69l.21-.46c.13.13.35.24.25.46.3,0,.27-.18.41-.48l.44.43c1.25.1,2-1.15,3.2-1.27,1.72.67,4.17-1,5.58-2,1.86-1.82,5.29.8,7.16-1.21.1.1.22-.22.19-.31l2.09-.43s10-2.31.66-7.18v-.19c-1.24-.15-2,0-2.51,1.06-.42-1.08-1,.13-1.31-.16v-.1c-.46,1-1.6-.34-2.06.61,0-.1-.06-.41.08-.47-.44.27-1,.69-1.24.05-1.11.48-2.79.6-3.25,1.83v-.19c-.24.81-.52.25-.89.73,0-.08-.1-.12-.1-.15-.28.81-1.31.46-1.6.85l-.14-.42-.88.34h.36c.2,1.22-.88-.56-1.34.38-.66,0-.6,2.79-1.4,2.38-.16.64,0-1-.31-.42-.18-.61.11-.44-.14-.9-.37.41-.9-.44-1.35.12l-.15-.47c-.49,1.07-1.53-.27-1.79.69-.64.6-.88-1.29-1.41-.15l-.47-.57c-.36,0,0,.86-.48.65-.09-.42-.55-.21-.44-.65-1-.42-1.45,1.35-2.84.56,0,.86-.7.53-.72,1.18-.12-.34-1.13.24-.7-.68,0-.08.13-.09.16.05l0-.5c-.86-.72-1,.8-1.67.82.23.11.46,0,.38.37l-.59.09,0-.43h-.92l.25.46c-.49-.14-.86-.94-1.15-.12-.11.45.57.56.17.83a8.3,8.3,0,0,0-2.38-.43c.21.54,0,.57-.15.74l-.15-.48c-.59.87-.56-1-1.18-.25l0-.35.07,1.05c-.43,1.14-.63-.9-1,.61.28-.17.43,1,0,.91l0-.49c-.17.15-.19.36-.35.3,0-.28-.12-.69-.4-.53l0-.64-.34,1c-.57-.38-1.1.42-1.45-.18,0,0-1-.07-1,.7.07-.5-.49-.53-.48-1.09-.11.57-.72,1.17-1.15.71l0-.08c-1.21-.26-1.62,1.24-2.75.83.19.54-.4.37-.08,1.05-.81,1-2.19-1-2,1.33-.42.24-.67-.38-.94-.43l.08-.14a4.83,4.83,0,0,1-1.68.6c-.25.3,0,1.34-.66,1.24.08-.46-.13-.32-.34-.26.12-.1.12-.26-.23-.47a.77.77,0,0,1-.08.31.79.79,0,0,1,0-.09c-.31.23-.21.34,0,.36a.57.57,0,0,0,.13.24c-.51-.43-1,.3-1.24-.39-1,.44-1.57,1.36-2.37,1.87a.77.77,0,0,1,.14-.92l-.58.3c-.13-.52.28-.39.44-.55-1-.64-1.3,1.24-2.37.7l-.08.46-.06,0a.84.84,0,0,1-.17.66c-.24-.42-.27-1-.69-.9-.45-.34-.91.47-1.29.84.26,0,.25.28.19.47-.21.07-.45-.35-.57-.11l-.18-.61c.24.55-.4.77-.41,1-.24-.42.23-.48.19-.83l-1.26.43c-.34.58.23.55.15,1.14-.37.23-.65.76-1.22.51l.29.51a1.24,1.24,0,0,1-1.78.26c-4.5,5.91.4,6.34.4,6.34C1495.39,263.15,1496.13,261.27,1498.67,260.15Z" class="cls-6"/></svg>