<svg xmlns="http://www.w3.org/2000/svg" width="1440" height="1024" fill="none" viewBox="0 0 1440 1024"><rect width="1440" height="1024" fill="#fff"/><path fill="#fff" fill-rule="evenodd" d="M299.569 735C297.696 735.107 296.378 735.275 295.615 735.503C291.525 736.724 288.881 738.423 287.213 739.524C282.665 742.524 280.057 747.424 278.81 750.079C276.686 754.603 276.521 760.802 278.316 768.676C279.584 772.521 281.232 775.537 283.259 777.723C285.285 779.909 289.366 782.502 295.5 785.5C415.076 823.383 495.242 848.883 536 862C560.312 869.825 585.656 876.303 604.5 882.5C666.125 902.766 698.418 912.777 741.5 925.5C743.646 926.134 751.98 928.467 766.5 932.5L911 948L934 877.5L825.5 593.5L835 414.5L796.5 414C814.902 329.13 827.735 265.463 835 223C842.265 180.537 841.317 174.738 832.155 205.603C831.637 190.189 830.085 179.655 827.5 174C823.773 165.847 816.86 159.255 812.5 154C803.603 143.277 788.243 133.504 766.419 124.68C749.792 120.989 737.27 119.481 728.856 120.157C720.442 120.832 707.921 124.351 691.293 130.712C688.986 129.372 659.99 150.817 604.304 195.048C548.618 239.279 427.517 334.763 241 481.5C234.333 493.833 234.333 503.333 241 510C251 520 254.753 519.108 262.5 517C264.122 516.558 272.289 511.892 287 503L371 446.5L365 483C365.182 487.51 366.349 490.677 368.5 492.5C370.651 494.323 374.318 495.323 379.5 495.5L430 468.5L529.672 510.196C526.746 518.238 525.022 524.507 524.5 529C523.978 533.493 524.645 536.327 526.5 537.5C526.576 537.082 543.076 540.415 576 547.5C589.463 550.397 615.831 556.153 655.103 564.767C657.133 578.243 658.932 585.154 660.5 585.5C669.258 587.432 682.888 607.925 712.5 603C713.791 602.785 717.625 595.119 724 580L731.327 682.597C728.823 689.01 727.047 693.478 726 696C724.953 698.522 722.453 700.856 718.5 703C712.772 706.995 707.272 709.495 702 710.5C700.145 710.854 698.016 711.886 695.834 712.24C693.155 712.674 688.542 713.177 681.995 713.748L463.5 682.5C457.446 680.306 452.113 682.057 447.5 687.753C442.887 693.449 443.387 700.532 449 709L490.5 735L379.333 709.232C373.073 708.227 368.295 710.405 365 715.766C362.838 719.283 361.9 723.05 363 727C363.384 728.381 364.545 730.5 366.483 733.358L408 760.5L305.5 735H299.569Z" clip-rule="evenodd"/><path fill="#fff" fill-rule="evenodd" d="M831.857 205.686H820C816.962 205.686 814.5 203.223 814.5 200.186V199.186C814.5 196.148 816.962 193.686 820 193.686H830.283C830.512 187.081 835.412 181.367 842.183 180.343C842.876 180.238 843.576 180.186 844.277 180.186H849.255C856.612 180.186 862.713 185.879 863.222 193.218L865 218.881L833.899 219.186L831.857 205.686Z" clip-rule="evenodd"/><path fill="#FFF8D7" fill-rule="evenodd" d="M386 415C397.972 417.343 419.422 427.718 450.349 446.127C463.692 454.068 480.431 465.149 497.24 478.759C502.23 482.8 509.7 489.334 516.694 495.327C522.491 500.293 528.069 504.46 530.662 510.388C532.407 514.378 526.923 519.658 525.174 527.457C524.85 528.905 524.728 531.92 526.172 535.49C526.424 536.112 527.089 536.948 528.167 538C530.489 537.611 526.665 536.942 516.694 535.992C497.426 534.157 485.34 534.929 474.293 530.971C454.673 523.943 441.038 517.082 433.389 510.388L476.788 490.808C471.98 486.225 467.491 483.045 463.319 481.269C450.597 475.853 433.301 471.88 425.907 465.706C420.547 461.231 413.382 455.236 406.951 447.131C402.413 441.412 395.43 430.701 386 415Z" clip-rule="evenodd"/><path fill="#341F16" fill-rule="evenodd" d="M648.483 228.756C648.3 227.458 648.211 226.125 648.211 224.777C648.211 219.931 649.701 214.979 652.376 211.531C655.76 207.17 660.968 204.908 666.656 204.908C673.236 204.908 679.01 208.619 682.275 214.203C682.166 213.291 682.11 212.345 682.11 211.365C682.11 208.301 682.202 205.333 683.3 202.726C686.232 195.765 693.144 191 700.555 191C705.264 191 710.386 192.73 713.645 195.937C717.437 199.667 719 205.317 719 211.365C719 218.364 716.731 224.362 711.86 228.028C708.904 230.253 704.403 231.731 700.555 231.731C697.24 231.731 693.724 229.718 691.035 228.028C688.502 226.435 686.428 224.416 684.919 221.974C685.039 222.89 685.101 223.825 685.101 224.777C685.101 228.839 684.664 232.467 682.721 235.614C679.417 240.967 673.072 244.645 666.656 244.645C662.189 244.645 657.353 243.277 654.161 240.431C652.822 239.237 651.722 237.806 650.847 236.204C650.678 239.346 649.153 242.35 646.518 244.337L620.192 264.19C618.428 265.52 615.92 265.169 614.59 263.405C614.34 263.073 614.143 262.705 614.006 262.312L610.937 253.498C609.802 250.24 610.63 246.619 613.068 244.178L613.262 243.984L610.605 243.18C607.91 242.364 605.751 240.333 604.773 237.692L602.262 230.913C601.495 228.842 602.552 226.54 604.624 225.773C605.015 225.628 605.427 225.545 605.844 225.528L638.591 224.138C642.508 223.972 646.175 225.749 648.483 228.756Z" clip-rule="evenodd"/><path fill="#341F16" fill-rule="evenodd" d="M1164.72 492.195L1314.9 500.054C1320.13 500.327 1324.15 504.787 1323.87 510.015C1323.87 510.015 1323.87 510.015 1323.87 510.016C1323.6 515.244 1319.14 519.261 1313.91 518.988L1008.82 503.038C1006.61 502.923 1004.91 501.041 1005.03 498.835C1005.03 498.835 1005.03 498.835 1005.03 498.834L1005.35 492.743L1005 482.788C1004.92 480.58 1006.65 478.728 1008.86 478.651C1008.86 478.651 1008.86 478.651 1008.86 478.651L1314.19 468.005C1319.42 467.823 1323.81 471.917 1323.99 477.149C1324.18 482.381 1320.08 486.771 1314.85 486.954C1314.85 486.954 1314.85 486.954 1314.85 486.954L1164.72 492.195Z" clip-rule="evenodd"/><path fill="#341F16" d="M784 173.25H842C842.414 173.25 842.75 173.586 842.75 174V199C842.75 199.414 842.414 199.75 842 199.75H784C778.063 199.75 773.25 194.937 773.25 189V184C773.25 178.063 778.063 173.25 784 173.25ZM841.25 174.75H784C778.891 174.75 774.75 178.891 774.75 184V189C774.75 194.109 778.891 198.25 784 198.25H841.25V174.75Z"/><path fill="#FFF8D7" fill-rule="evenodd" d="M1007 472.841V510.089C1007 556.3 969.539 593.761 923.328 593.761H830.866C812.645 594.731 797.087 580.745 796.118 562.524C795.777 556.13 797.302 549.775 800.507 544.232L805.587 535.444C783.299 537.254 781.132 524.124 799.087 496.053C817.041 467.982 827.634 440.631 830.866 414H948.159C980.656 414 1007 440.344 1007 472.841Z" clip-rule="evenodd"/><path fill="#FFF8D7" fill-rule="evenodd" d="M1007 472.841V510.089C1007 556.3 969.539 593.761 923.328 593.761H830.866C812.645 594.731 797.087 580.745 796.118 562.524C795.777 556.13 797.302 549.775 800.507 544.232L805.587 535.444C783.299 537.254 781.132 524.124 799.087 496.053C817.041 467.982 827.634 440.631 830.866 414H948.159C980.656 414 1007 440.344 1007 472.841Z" clip-rule="evenodd"/><path fill="#341F16" fill-rule="evenodd" d="M648.483 228.756C648.3 227.458 648.211 226.125 648.211 224.777C648.211 219.931 649.701 214.979 652.376 211.531C655.76 207.17 660.968 204.908 666.656 204.908C673.236 204.908 679.01 208.619 682.275 214.203C682.166 213.291 682.11 212.345 682.11 211.365C682.11 208.301 682.202 205.333 683.3 202.726C686.232 195.765 693.144 191 700.555 191C705.264 191 710.386 192.73 713.645 195.937C717.437 199.667 719 205.317 719 211.365C719 218.364 716.731 224.362 711.86 228.028C708.904 230.253 704.403 231.731 700.555 231.731C697.24 231.731 693.724 229.718 691.035 228.028C688.502 226.435 686.428 224.416 684.919 221.974C685.039 222.89 685.101 223.825 685.101 224.777C685.101 228.839 684.664 232.467 682.721 235.614C679.417 240.967 673.072 244.645 666.656 244.645C662.189 244.645 657.353 243.277 654.161 240.431C652.822 239.237 651.722 237.806 650.847 236.204C650.678 239.346 649.153 242.35 646.518 244.337L620.192 264.19C618.428 265.52 615.92 265.169 614.59 263.405C614.34 263.073 614.143 262.705 614.006 262.312L610.937 253.498C609.802 250.24 610.63 246.619 613.068 244.178L613.262 243.984L610.605 243.18C607.91 242.364 605.751 240.333 604.773 237.692L602.262 230.913C601.495 228.842 602.552 226.54 604.624 225.773C605.015 225.628 605.427 225.545 605.844 225.528L638.591 224.138C642.508 223.972 646.175 225.749 648.483 228.756Z" clip-rule="evenodd"/><path fill="#FFF8D7" fill-rule="evenodd" d="M386 415C397.972 417.343 419.422 427.718 450.349 446.127C463.692 454.068 480.431 465.149 497.24 478.759C502.23 482.8 509.7 489.334 516.694 495.327C522.491 500.293 528.069 504.46 530.662 510.388C532.407 514.378 526.923 519.658 525.174 527.457C524.85 528.905 524.728 531.92 526.172 535.49C526.424 536.112 527.089 536.948 528.167 538C530.489 537.611 526.665 536.942 516.694 535.992C497.426 534.157 485.34 534.929 474.293 530.971C454.673 523.943 441.038 517.082 433.389 510.388L476.788 490.808C471.98 486.225 467.491 483.045 463.319 481.269C450.597 475.853 433.301 471.88 425.907 465.706C420.547 461.231 413.382 455.236 406.951 447.131C402.413 441.412 395.43 430.701 386 415Z" clip-rule="evenodd"/><path fill="#FFF8D7" fill-rule="evenodd" d="M710.616 241.972C711.563 241.794 712.524 241.628 713.5 241.474L713.324 241.924L727.13 241.683C727.222 241.683 727.313 241.683 727.404 241.684C729.505 240.607 733.008 240.786 737.913 242.221C781.535 255.492 807.929 257.293 817.093 247.625C826.258 237.956 830.954 230.414 831.183 218.538L870 218C869.281 252.448 860.655 269.492 841.965 284.204C837.208 287.949 831.183 288.51 821.478 299.813C811.774 311.116 789.67 308.963 779.965 306.81C773.708 305.422 766.16 300.937 757.322 293.354V328.878H685.814L672.225 387H625.775C621.201 379.099 625.468 349.773 638.585 329.064C645.796 317.681 649.211 292.135 661.012 273.273C668.563 261.204 683.854 247.025 710.486 241.996L710.5 241.974L710.616 241.972Z" clip-rule="evenodd"/><mask id="mask0" width="68" height="97" x="712" y="148" mask-type="alpha" maskUnits="userSpaceOnUse"><path fill="#fff" d="M712 204.854V182C712 163.222 727.222 148 746 148C764.778 148 780 163.222 780 182V205.516C780 215.457 771.941 223.516 762 223.516C761.004 223.516 760.01 223.433 759.028 223.269C748.745 221.547 741.706 220.645 737.913 220.563L738 241.814C733.651 243.453 729.317 244.453 725 244.814C720.683 245.175 716.349 244.309 712 242.215V204.854Z"/></mask><g mask="url(#mask0)"><path fill="#fff" d="M712 204.854V182C712 163.222 727.222 148 746 148C764.778 148 780 163.222 780 182V205.516C780 215.457 771.941 223.516 762 223.516C761.004 223.516 760.01 223.433 759.028 223.269C748.745 221.547 741.706 220.645 737.913 220.563L738 241.814C733.651 243.453 729.317 244.453 725 244.814C720.683 245.175 716.349 244.309 712 242.215V204.854Z"/></g><mask id="mask1" width="73" height="98" x="711" y="148" mask-type="alpha" maskUnits="userSpaceOnUse"><path fill="#fff" d="M712 227.24L711.153 182.494C710.799 163.801 725.666 148.36 744.359 148.006C744.573 148.002 744.787 148 745 148H746.267C766.612 148 783.105 164.493 783.105 184.839C783.105 185.767 783.07 186.694 783 187.62L781.509 207.312C780.759 217.225 772.114 224.653 762.201 223.902C761.643 223.86 761.087 223.791 760.536 223.697C749.43 221.804 741.889 220.814 737.913 220.728L738 242C733.651 243.639 729.318 244.639 725 245C720.683 245.361 716.349 244.495 712 242.401V227.24Z"/></mask><g mask="url(#mask1)"><path fill="#fff" d="M712 227.24L711.153 182.494C710.799 163.801 725.666 148.36 744.359 148.006C744.573 148.002 744.787 148 745 148H746.267C766.612 148 783.105 164.493 783.105 184.839C783.105 185.767 783.07 186.694 783 187.62L781.509 207.312C780.759 217.225 772.114 224.653 762.201 223.902C761.643 223.86 761.087 223.791 760.536 223.697C749.43 221.804 741.889 220.814 737.913 220.728L738 242C733.651 243.639 729.318 244.639 725 245C720.683 245.361 716.349 244.495 712 242.401V227.24Z"/><path fill="#341F16" fill-rule="evenodd" d="M711.721 206.186C722.037 206.186 731.791 201.486 738.22 193.418L771.581 151.55L780.651 164.464L787 137.643L709 131.186L711.721 206.186Z" clip-rule="evenodd"/></g><path stroke="#341F16" stroke-linecap="round" stroke-linejoin="round" stroke-width="1.5" d="M712.393 227.674L712 182.858C712.08 179.791 712.246 177.451 712.499 175.837C712.568 175.396 712.741 174.378 713.021 172.782C715.546 158.34 728.089 147.856 742.668 148.001L749.465 148.069C761.994 148.194 773.019 156.419 776.773 168.442C778.496 173.963 779.512 179.27 779.819 184.363C780.253 191.568 779.907 199.842 778.782 209.185C777.726 217.959 769.816 224.222 761.088 223.196L737.931 220.474V229"/><path fill="#fff" fill-rule="evenodd" d="M782.735 173H844V200H782.735C778.64 200 775.062 197.236 774.027 193.275C773.342 190.654 773 188.395 773 186.5C773 184.605 773.342 182.346 774.027 179.725C775.062 175.764 778.64 173 782.735 173Z" clip-rule="evenodd"/><path fill="#341F16" d="M782.707 173H844V200H782.707C778.63 200 775.066 197.245 774.032 193.294C773.344 190.665 773 188.4 773 186.5C773 184.6 773.344 182.335 774.032 179.706C775.066 175.755 778.63 173 782.707 173ZM782.707 174.497C779.31 174.497 776.34 176.793 775.478 180.085C774.82 182.599 774.495 184.741 774.495 186.5C774.495 188.259 774.82 190.401 775.478 192.915C776.34 196.207 779.31 198.503 782.707 198.503H842.505V174.497H782.707Z"/><path fill="#FFF8D7" fill-rule="evenodd" d="M737.221 242.108L732.901 243.015L733.471 228.42H746L737.221 242.108ZM732.655 243.222C725.297 243.97 720.54 244.178 718.386 243.848C716.231 243.518 713.711 242.511 710.824 240.826L708 228L729.891 228.738L732.655 243.222Z" clip-rule="evenodd"/><path fill="#FFF8D7" fill-rule="evenodd" d="M709.264 134.828C704.664 134.966 701.029 134.8 698.36 134.329C695.691 133.859 693.238 132.749 691 131C700.718 127.183 708.218 124.683 713.5 123.5C725.972 120.706 736.249 119.619 740.729 119.83C757.095 120.598 770.907 125.381 783.374 131.513C789.274 134.415 797.623 140.571 808.42 149.979C802.488 150.007 798.181 149.848 795.5 149.5C790.437 148.843 785.959 147.057 781.5 146.5C773.164 145.458 767.189 147.979 762.639 146.465C757.989 144.917 754.269 142.456 750.969 141.985C742.337 140.754 737.24 141.015 730.381 139.81C725.64 138.977 718.601 137.316 709.264 134.828ZM762 932C763.905 929.404 765.239 927.571 766 926.5C769.463 921.629 771.896 918.429 774 916.5C781.45 909.669 793.54 914.728 800.5 909.5C805.848 905.483 809.378 901.045 814 897C818.018 893.484 822.951 894.019 828 894C834.597 893.976 841.342 893.845 846 891C852.032 887.316 857.875 881.486 863.5 880.5C871.931 879.021 879.191 882.338 886 881C893.859 879.455 899.491 874.136 905.5 872C909.97 870.411 914.164 870.573 922 873C924.246 873.695 928.413 875.029 934.5 877C936.265 883.83 937.265 889.163 937.5 893C937.719 896.576 937.82 900.007 937.5 904C935.5 929 924.432 940.191 910 950.5C905.343 953.827 901.329 954.314 898.5 955.5C893.831 957.457 891.262 959.126 882.5 960C880.614 960.188 876.924 960.263 874.5 960.5C866.752 961.256 851.326 955.376 823.5 948C809.329 944.244 788.829 938.91 762 932Z" clip-rule="evenodd"/><path fill="#341F16" fill-rule="evenodd" d="M659.095 584L647.881 606.009C646.878 607.978 647.661 610.386 649.629 611.389C649.671 611.41 649.713 611.431 649.756 611.451L660.931 616.658C662.865 617.559 665.166 616.784 666.16 614.896L669 609.5L670.64 617.719C671.413 621.596 673.791 624.966 677.184 626.995L707.421 645.076C710.739 647.06 715.037 645.979 717.022 642.661C717.762 641.422 718.102 639.985 717.994 638.546L715.238 601.693" clip-rule="evenodd"/><path fill="#fff" fill-rule="evenodd" d="M852.552 166H939.755L940 207L852.627 206.528C847.235 206.498 842.42 203.143 840.526 198.095C838.842 193.606 838 189.818 838 186.729C838 183.695 838.704 179.86 840.113 175.222C841.777 169.744 846.828 166 852.552 166Z" clip-rule="evenodd"/><path fill="#341F16" d="M852.75 166H940.25C940.664 166 941 166.34 941 166.759V206.241C941 206.66 940.664 207 940.25 207H852.75C844.604 207 838 200.315 838 192.068V180.932C838 172.685 844.604 166 852.75 166ZM939.5 167.519H852.75C845.432 167.519 839.5 173.524 839.5 180.932V192.068C839.5 199.476 845.432 205.481 852.75 205.481H939.5V167.519Z"/><path fill="#fff" fill-rule="evenodd" d="M950.011 161.804L954.6 161.147L1034 161V211.853L953.213 211.989C948.988 211.996 944.931 210.331 941.928 207.358C938.562 204.024 936.813 202.248 936.682 202.029C932.509 195.065 934.451 190.562 934.451 186.426C934.451 182.7 935.315 178.144 937.041 172.758C938.911 166.925 943.947 162.671 950.011 161.804Z" clip-rule="evenodd"/><path fill="#fff" d="M957 446H932C917.641 446 906 457.641 906 472V476C906 490.359 917.641 502 932 502H957C971.359 502 983 490.359 983 476V472C983 457.641 971.359 446 957 446Z"/><mask id="mask2" width="77" height="56" x="906" y="446" mask-type="alpha" maskUnits="userSpaceOnUse"><path fill="#fff" d="M957 446H932C917.641 446 906 457.641 906 472V476C906 490.359 917.641 502 932 502H957C971.359 502 983 490.359 983 476V472C983 457.641 971.359 446 957 446Z"/></mask><g mask="url(#mask2)"><path fill="#341F16" d="M942 453.5C942 446.044 935.956 440 928.5 440C921.044 440 915 446.044 915 453.5V463.5C915 470.956 921.044 477 928.5 477C935.956 477 942 470.956 942 463.5V453.5Z"/></g><path fill="#341F16" d="M750.239 188.255C750.481 187.915 750.956 187.832 751.302 188.07C754.716 190.427 757.749 190.551 760.579 188.474C760.917 188.226 761.394 188.296 761.646 188.629C761.897 188.963 761.827 189.434 761.489 189.682C758.114 192.159 754.367 192.023 750.427 189.303C750.082 189.065 749.998 188.596 750.239 188.255ZM762.894 206.584C762.706 206.212 762.858 205.76 763.235 205.574C764.702 204.85 766.511 204.491 768.661 204.491C770.844 204.491 772.505 204.861 773.66 205.621C774.011 205.852 774.105 206.319 773.872 206.665C773.638 207.011 773.164 207.104 772.814 206.873C771.936 206.296 770.544 205.996 768.661 205.996C766.743 205.996 765.161 206.307 763.917 206.92C763.54 207.106 763.082 206.956 762.894 206.584ZM769.951 189.04C769.204 185.847 767.312 183.028 764.625 181.102C758.468 176.689 749.852 178.037 745.38 184.112C745.132 184.448 744.655 184.522 744.315 184.278C743.974 184.034 743.898 183.563 744.146 183.227C749.113 176.479 758.683 174.983 765.521 179.884C768.506 182.024 770.607 185.155 771.438 188.701L773.98 199.555C774.091 200.027 773.728 200.477 773.237 200.477H767.864C767.443 200.477 767.102 200.14 767.102 199.725C767.102 199.309 767.443 198.972 767.864 198.972H772.278L769.951 189.04Z"/><path fill="#341F16" d="M954.882 160H1015.25C1015.66 160 1016 160.339 1016 160.757V212.243C1016 212.661 1015.66 213 1015.25 213H954.882C942.797 213 933 203.169 933 191.043V181.957C933 169.831 942.797 160 954.882 160ZM1014.49 161.514H954.882C943.63 161.514 934.509 170.667 934.509 181.957V191.043C934.509 202.333 943.63 211.486 954.882 211.486H1014.49V161.514Z"/><path fill="#fff" fill-rule="evenodd" d="M854.5 160.206C855.37 158.314 857.281 157 859.5 157H860.5C863.538 157 866 159.462 866 162.5V175.5C866 178.538 863.538 181 860.5 181H859.5C857.066 181 855.001 179.419 854.277 177.228C853.329 178.884 851.545 180 849.5 180C846.462 180 844 177.538 844 174.5V162.5C844 159.462 846.462 157 849.5 157C851.719 157 853.63 158.314 854.5 160.206ZM833.5 163C836.538 163 839 165.462 839 168.5V181.5C839 184.538 836.538 187 833.5 187C830.462 187 828 184.538 828 181.5V168.5C828 165.462 830.462 163 833.5 163Z" clip-rule="evenodd"/><path fill="#fff" d="M702.41 606.42C702.032 606.223 701.89 605.766 702.092 605.399C702.294 605.031 702.764 604.893 703.142 605.089L715.555 611.544C715.933 611.741 716.076 612.198 715.874 612.565C715.672 612.933 715.202 613.071 714.824 612.875L702.41 606.42ZM702.433 612.467C702.048 612.283 701.891 611.83 702.08 611.456C702.27 611.083 702.735 610.929 703.119 611.114L716.567 617.569C716.952 617.753 717.109 618.206 716.92 618.579C716.73 618.953 716.265 619.106 715.881 618.922L702.433 612.467Z"/><path fill="#341F16" d="M798.766 414.999L798.735 415.15C798.652 415.555 798.256 415.818 797.85 415.735C797.494 415.662 797.249 415.349 797.25 414.999H757.722C757.308 414.999 756.972 414.664 756.972 414.25C756.972 413.836 757.308 413.5 757.722 413.5H797.54L820.265 301.85C820.348 301.445 820.744 301.182 821.15 301.265C821.555 301.348 821.818 301.744 821.735 302.15L799.071 413.5H830.715C830.725 413.5 830.735 413.5 830.745 413.5H947.243C980.798 413.5 1008 440.686 1008 474.222V508.206C1008 555.542 969.604 593.916 922.241 593.916H827.817L934.943 875.768L934.985 875.932L937.099 891.313C941.712 924.875 918.228 955.819 884.647 960.429C880.014 961.065 875.323 961.17 870.666 960.741L870.545 960.72L761.574 932.243C761.542 932.237 761.511 932.228 761.48 932.218L295.445 784.792L295.337 784.748L291.363 782.77C278.555 776.394 273.344 760.849 279.723 748.048C284.566 738.331 294.959 732.665 305.755 733.855L305.854 733.873L403.71 758.203L368.481 736.422C361.083 731.848 358.796 722.146 363.372 714.752C366.941 708.987 373.8 706.153 380.399 707.715L486.31 732.792L451.801 711.632C443.915 706.797 441.445 696.488 446.283 688.606C449.759 682.943 456.258 679.87 462.844 680.776L481.798 683.381L682.267 711.861H692.807C710.867 711.861 726.6 699.566 730.963 682.061L723.471 580.727C723.44 580.314 723.75 579.955 724.164 579.924C724.577 579.894 724.936 580.204 724.967 580.617L732.468 682.069C732.473 682.148 732.467 682.227 732.448 682.304C727.961 700.54 711.597 713.36 692.807 713.36H682.214L682.109 713.353L481.59 684.866L462.64 682.261C456.644 681.437 450.727 684.234 447.561 689.39C443.157 696.566 445.406 705.952 452.586 710.354L491.085 733.961C491.812 734.407 491.35 735.526 490.52 735.33L380.053 709.174C374.082 707.76 367.876 710.325 364.648 715.54C360.507 722.23 362.577 731.008 369.27 735.147L408.579 759.451C409.307 759.901 408.834 761.022 408.003 760.816L305.541 735.34C295.388 734.241 285.621 739.577 281.066 748.716C275.056 760.776 279.966 775.421 292.032 781.428L295.954 783.38L761.434 930.632L768.699 920.683C772.596 915.345 778.544 911.872 785.111 911.1L793.393 910.126C797.898 909.596 802.071 907.494 805.176 904.19L810.942 898.056C814.109 894.687 818.527 892.776 823.152 892.776H836.917C840.835 892.776 844.635 891.444 847.694 888.998L853.577 884.294C858.018 880.744 863.672 879.073 869.331 879.638L877.816 880.486C882.824 880.987 887.854 879.776 892.084 877.051L897.607 873.494C904.256 869.212 912.506 868.221 919.981 870.807L933.19 875.377L826.195 593.868C820.559 593.297 815.147 591.35 810.437 588.197C794.564 577.571 790.315 556.097 800.947 540.234L803.519 536.395C799.919 537.052 796.176 536.379 793.008 534.458C785.902 530.148 783.637 520.897 787.949 513.795C802.799 489.336 812.002 473.035 815.541 464.926C820.42 453.75 825.178 437.104 829.808 414.999H798.766ZM416.884 413C416.93 412.84 417.029 412.693 417.177 412.591L487.702 363.61C488.042 363.374 488.51 363.458 488.746 363.798C488.983 364.138 488.899 364.605 488.558 364.841L419.217 413H500.849L590.768 356.593C591.118 356.373 591.582 356.478 591.802 356.83C592.022 357.18 591.917 357.643 591.565 357.863L503.671 413H684.714C685.129 413 685.465 413.336 685.465 413.75C685.465 414.164 685.129 414.499 684.714 414.499H386.977C390.488 420.606 393.353 425.424 395.57 428.951C395.818 428.942 396.065 429.056 396.216 429.275C396.378 429.512 396.387 429.808 396.263 430.046C404.973 443.742 412.472 453.143 422.666 461.652C426.892 465.179 432.668 468.127 441.015 471.382C442.702 472.04 454.025 476.203 456.814 477.366C458.22 477.953 459.445 478.506 460.527 479.049C466.373 481.985 471.908 485.338 477.131 489.107C477.593 489.44 477.529 490.146 477.014 490.391L436.208 509.811C448.949 518.191 460.535 524.419 470.964 528.498C472.455 529.081 473.945 529.583 475.461 530.015C480.713 531.513 485.436 532.107 495.289 532.759C496.041 532.809 498.722 532.983 498.875 532.993C500.361 533.09 501.536 533.169 502.712 533.252C505.744 533.466 508.479 533.686 511.265 533.947C514.488 534.249 520.169 535.084 528.359 536.46L655.373 564.447C655.777 564.536 656.033 564.936 655.944 565.341C655.854 565.745 655.454 566 655.05 565.911L528.073 537.931C519.955 536.568 514.301 535.737 511.125 535.44C508.352 535.18 505.628 534.961 502.607 534.748C501.433 534.665 500.26 534.586 498.777 534.489C498.625 534.479 495.943 534.305 495.19 534.255C485.236 533.596 480.433 532.993 475.049 531.457C473.487 531.011 471.953 530.494 470.418 529.894C459.579 525.655 447.532 519.134 434.272 510.329C433.786 510.007 433.838 509.279 434.364 509.028L475.219 489.585C470.366 486.162 465.244 483.096 459.853 480.389C458.806 479.863 457.612 479.324 456.236 478.75C453.482 477.602 442.183 473.447 440.47 472.779C436.932 471.399 433.844 470.071 431.128 468.727C431.074 468.779 431.012 468.823 430.942 468.857C409.046 479.656 393.392 487.976 383.989 493.812C377.947 497.562 370.006 495.708 366.253 489.67C364.565 486.953 363.949 483.706 364.525 480.56L370.533 447.792L269.975 514.357C260.354 520.725 247.44 518.546 240.446 509.373C233.467 500.219 234.846 487.214 243.59 479.725L249.581 474.594L354.841 391.325L645.744 161.199L673.602 140.894C683.367 133.777 694.333 128.473 705.977 125.235L717.26 122.098C736.029 116.879 756.025 118.286 773.877 126.081L779.325 128.46C796.904 136.136 811.926 148.666 822.626 164.579L827.872 172.382C828.104 172.726 828.012 173.192 827.668 173.423C827.324 173.654 826.858 173.562 826.627 173.219L821.38 165.415C817.756 160.025 813.628 155.029 809.068 150.486C808.986 150.525 808.896 150.55 808.8 150.557C803.379 150.966 799.328 150.966 796.625 150.55C794.594 150.238 791.426 149.399 787.103 148.031C784.059 147.069 780.866 146.669 777.679 146.851L772.005 147.175C767.461 147.434 762.922 146.573 758.789 144.667L757.694 144.162C753.981 142.449 749.941 141.563 745.852 141.563H737.398C732.228 141.563 727.1 140.626 722.264 138.797L717.805 137.111C713.744 135.576 709.446 134.762 705.104 134.705C703.873 134.689 702.722 134.642 701.651 134.563C698.964 134.367 695.274 133.864 690.574 133.055C690.384 133.022 690.222 132.92 690.112 132.78C684.64 135.398 679.408 138.518 674.486 142.105L646.652 162.393L355.772 392.501L250.534 475.751L244.566 480.863C236.426 487.836 235.142 499.943 241.64 508.465C248.154 517.009 260.184 519.039 269.146 513.107L371.169 445.572L394.271 429.702C391.912 425.947 388.834 420.759 385.037 414.134C385.002 414.075 384.975 414.011 384.957 413.943C384.956 413.941 384.956 413.939 384.955 413.937C384.94 413.877 384.931 413.815 384.931 413.75C384.931 413.724 384.933 413.699 384.935 413.674C384.946 413.568 384.979 413.466 385.032 413.374C385.086 413.282 385.159 413.202 385.245 413.14C385.265 413.126 385.286 413.112 385.309 413.099C385.361 413.069 385.416 413.046 385.471 413.03C385.477 413.028 385.483 413.027 385.489 413.025C385.557 413.007 385.626 412.999 385.695 413H416.884ZM429.501 467.896C426.439 466.281 423.884 464.622 421.705 462.803C411.398 454.2 403.827 444.721 395.073 430.97L372.271 446.635L366.001 480.831C365.492 483.61 366.036 486.479 367.528 488.879C370.844 494.213 377.859 495.851 383.197 492.538C392.539 486.74 407.97 478.528 429.501 467.896ZM826.763 592.416H922.241C968.776 592.416 1006.5 554.714 1006.5 508.206V474.222C1006.5 441.514 979.97 414.999 947.243 414.999H831.34C826.672 437.349 821.866 454.187 816.916 465.526C813.34 473.717 804.117 490.055 789.231 514.573C785.349 520.967 787.388 529.296 793.786 533.176C797.156 535.219 801.248 535.695 804.996 534.48C805.674 534.261 806.247 535.019 805.851 535.61L802.193 541.068C792.022 556.244 796.087 576.786 811.271 586.951C815.894 590.046 821.222 591.925 826.763 592.416ZM933.634 877.117L919.49 872.224C912.45 869.788 904.681 870.721 898.419 874.755L892.897 878.311C888.381 881.22 883.012 882.512 877.667 881.978L869.181 881.13C863.913 880.604 858.649 882.16 854.515 885.465L848.631 890.169C845.306 892.827 841.175 894.276 836.917 894.276H823.152C818.941 894.276 814.918 896.015 812.036 899.082L806.269 905.217C802.922 908.778 798.424 911.044 793.569 911.615L785.286 912.589C779.134 913.312 773.562 916.565 769.911 921.566L762.978 931.061L870.865 959.254C875.388 959.666 879.943 959.562 884.443 958.944C917.203 954.447 940.113 924.259 935.613 891.517L933.634 877.117ZM807.684 149.134C799.283 141.084 789.49 134.535 778.724 129.834L773.276 127.455C755.74 119.798 736.099 118.416 717.662 123.542L706.379 126.679C701.52 128.031 696.781 129.747 692.201 131.81C696.207 132.476 699.395 132.895 701.76 133.068C702.8 133.144 703.922 133.19 705.124 133.206C709.64 133.265 714.112 134.112 718.336 135.709L722.795 137.395C727.461 139.159 732.409 140.063 737.398 140.063H745.852C750.158 140.063 754.413 140.997 758.323 142.8L759.417 143.305C763.327 145.108 767.621 145.923 771.92 145.678L777.594 145.354C780.963 145.161 784.338 145.584 787.555 146.602C791.811 147.948 794.917 148.771 796.853 149.068C799.255 149.438 802.871 149.461 807.684 149.134Z"/><path fill="#341F16" d="M387.423 414.43C387.05 414.248 386.894 413.798 387.076 413.424C387.257 413.05 387.707 412.894 388.08 413.076C424.142 430.652 450.546 444.889 467.301 455.792C482.145 465.452 501.937 480.618 526.685 501.295C532.203 505.905 533.613 513.825 530.026 520.063C528.182 523.27 527.089 526.028 526.74 528.324C526.099 532.534 526.997 535.234 529.375 536.593C529.735 536.799 529.861 537.259 529.655 537.62C529.449 537.981 528.991 538.107 528.63 537.901C525.634 536.188 524.529 532.864 525.254 528.097C525.636 525.591 526.795 522.667 528.724 519.312C531.946 513.707 530.679 506.593 525.722 502.451C501.016 481.81 481.267 466.676 466.483 457.055C449.79 446.193 423.434 431.982 387.423 414.43ZM477.183 490.274C476.788 490.148 476.569 489.724 476.695 489.328C476.821 488.932 477.243 488.713 477.639 488.839L499.678 495.867C500.073 495.993 500.292 496.416 500.166 496.813C500.04 497.209 499.618 497.428 499.222 497.302L477.183 490.274ZM408.565 761.215C408.163 761.112 407.921 760.7 408.024 760.295C408.126 759.89 408.534 759.646 408.936 759.749L524.436 789.51C524.837 789.613 525.079 790.026 524.977 790.43C524.874 790.835 524.466 791.08 524.064 790.976L408.565 761.215ZM491.084 735.495C490.68 735.402 490.427 734.997 490.519 734.59C490.61 734.182 491.012 733.927 491.416 734.019L650.415 770.337C650.819 770.43 651.073 770.835 650.981 771.242C650.89 771.65 650.488 771.905 650.084 771.813L491.084 735.495Z"/><path fill="#341F16" d="M931.43 445.03H956.57C971.426 445.03 983.469 457.097 983.469 471.981V476.011C983.469 490.896 971.426 502.962 956.57 502.962H931.43C916.574 502.962 904.531 490.896 904.531 476.011V471.981C904.531 457.097 916.574 445.03 931.43 445.03ZM931.43 446.541C917.407 446.541 906.039 457.931 906.039 471.981V476.011C906.039 490.061 917.407 501.451 931.43 501.451H956.57C970.593 501.451 981.961 490.061 981.961 476.011V471.981C981.961 457.931 970.593 446.541 956.57 446.541H931.43ZM929.922 441H958.078C975.156 441 989 454.871 989 471.981V477.019C989 494.129 975.156 508 958.078 508H929.922C912.844 508 899 494.129 899 477.019V471.981C899 454.871 912.844 441 929.922 441ZM929.922 442.511C913.677 442.511 900.508 455.705 900.508 471.981V477.019C900.508 493.295 913.677 506.489 929.922 506.489H958.078C974.323 506.489 987.492 493.295 987.492 477.019V471.981C987.492 455.705 974.323 442.511 958.078 442.511H929.922Z"/><path fill="#341F16" d="M672.308 390.596L669.274 414.003C669.226 414.38 668.903 414.661 668.523 414.658L610.926 414.157C610.762 414.155 610.604 414.101 610.474 414.001C608.914 412.801 608 410.944 608 408.976C608 405.474 610.838 402.636 614.339 402.636H637.071L647.367 386.946C647.594 386.599 648.06 386.502 648.407 386.73C648.754 386.958 648.851 387.423 648.623 387.77L638.105 403.799C637.966 404.011 637.73 404.139 637.477 404.139H614.339C611.668 404.139 609.503 406.304 609.503 408.976C609.503 410.396 610.126 411.74 611.201 412.656L667.87 413.149L671.29 386.761C671.344 386.349 671.72 386.059 672.132 386.112C672.543 386.165 672.834 386.542 672.78 386.954L672.756 387.144C675.039 394.166 676.868 399.319 678.238 402.596C679.578 405.802 682.029 409.233 685.629 412.918C688.42 416.19 690.311 420.315 691.303 425.28C692.291 430.219 692.291 435.489 691.304 441.097C687.394 461.411 684.051 476.457 681.272 486.243C678.493 496.031 673.81 509.243 667.218 525.902C660.817 541.04 657.162 552.173 656.253 559.266C655.36 566.229 656.473 574.347 659.603 583.616L714.687 601.324L760.969 493.329L764.387 482.297C769.269 466.539 768.848 449.615 763.189 434.119L741.448 374.592C741.269 374.102 741.632 373.583 742.154 373.583H749.667C750.081 373.583 750.418 373.919 750.418 374.334C750.418 374.749 750.081 375.086 749.667 375.086H743.228L764.6 433.604C770.372 449.408 770.802 466.67 765.822 482.742L762.377 493.847L715.799 602.544C715.646 602.901 715.247 603.082 714.878 602.964L658.783 584.931C658.558 584.858 658.379 584.683 658.303 584.459C655.011 574.838 653.826 566.377 654.762 559.075C655.693 551.812 659.384 540.571 665.828 525.333C672.396 508.733 677.063 495.564 679.827 485.832C682.592 476.097 685.927 461.088 689.827 440.825C690.78 435.407 690.78 430.324 689.83 425.575C688.885 420.851 687.103 416.961 684.52 413.931C680.831 410.158 678.273 406.576 676.852 403.176C675.666 400.341 674.152 396.149 672.308 390.596ZM798.927 413.583C799.105 413.958 798.946 414.406 798.572 414.585C798.197 414.763 797.749 414.604 797.57 414.229L757.002 329.075C756.823 328.7 756.982 328.252 757.357 328.073C757.731 327.895 758.18 328.054 758.358 328.428L798.927 413.583ZM701.342 329.146C701.401 328.735 701.782 328.45 702.192 328.509C702.603 328.567 702.889 328.948 702.83 329.359L699.949 349.528C698.581 359.104 689.71 365.758 680.135 364.39C679.539 364.305 678.948 364.189 678.364 364.043C677.962 363.943 677.717 363.535 677.818 363.132C677.918 362.73 678.326 362.485 678.729 362.585C679.262 362.719 679.803 362.825 680.347 362.903C689.101 364.153 697.211 358.07 698.461 349.315L701.342 329.146ZM695.834 329.141C695.895 328.731 696.278 328.448 696.688 328.509C697.099 328.571 697.381 328.954 697.32 329.364L694.62 347.366C693.576 354.325 687.089 359.121 680.13 358.077C680.062 358.067 679.993 358.056 679.925 358.045C679.516 357.976 679.24 357.589 679.308 357.18C679.376 356.771 679.763 356.494 680.172 356.562C680.232 356.572 680.293 356.582 680.353 356.591C686.491 357.512 692.213 353.282 693.134 347.143L695.834 329.141ZM667.784 413.81L668.536 413.155L667.87 413.149L667.784 413.81Z"/><path fill="#341F16" d="M737.045 243.123C736.065 243.639 734.949 244.055 733.698 244.374V265.391C733.698 265.807 733.362 266.144 732.949 266.144C732.535 266.144 732.2 265.807 732.2 265.391V244.698C729.732 245.143 726.806 245.27 723.421 245.081C717.584 244.755 713.567 243.803 711.334 242.16L695.952 247.201C676.285 253.647 660.882 269.167 654.526 288.941L645.035 318.468C644.528 320.046 643.902 321.583 643.164 323.066L631.69 346.113C625.466 358.617 623.874 372.931 627.187 386.496H671.445L694.774 287.784C694.87 287.38 695.273 287.13 695.676 287.226C696.078 287.322 696.327 287.727 696.232 288.131L686.732 328.326H756.654L756.165 292.983C756.156 292.339 756.905 291.982 757.396 292.396C763.411 297.468 768.529 301.116 772.74 303.339C776.915 305.541 781.476 307.017 786.427 307.765H800.691C809.482 307.765 817.863 304.03 823.762 297.482C828.821 291.865 834.767 287.125 841.361 283.45C848.369 279.544 854.287 273.404 859.117 265.015C865.575 253.799 869.038 238.295 869.486 218.504H831.438C830.285 225.138 829.317 229.638 828.522 232.031C823.948 245.815 810.828 254.881 796.375 254.246C790.622 253.993 785.249 253.442 780.255 252.594C770.332 250.907 755.931 247.75 737.045 243.123ZM738.159 241.848C756.64 246.366 770.757 249.453 780.505 251.11C785.435 251.948 790.747 252.493 796.441 252.743C810.225 253.349 822.738 244.702 827.101 231.555C827.889 229.182 828.882 224.528 830.07 217.624C830.132 217.263 830.443 217 830.807 217H870.251C870.67 217 871.007 217.345 871 217.766C870.619 238.158 867.098 254.158 860.414 265.768C855.454 274.383 849.345 280.721 842.087 284.766C835.638 288.36 829.822 292.997 824.872 298.491C818.69 305.354 809.906 309.27 800.691 309.27H786.372L786.261 309.262C781.125 308.491 776.384 306.961 772.044 304.67C768.023 302.549 763.24 299.191 757.686 294.595L758.162 329.067C758.168 329.487 757.831 329.83 757.413 329.83H686.516C686.469 329.83 686.424 329.826 686.379 329.817L672.765 387.422C672.685 387.761 672.384 388 672.037 388H626.602C626.26 388 625.962 387.767 625.877 387.434C622.29 373.352 623.878 358.442 630.351 345.441L641.824 322.393C642.529 320.978 643.126 319.511 643.61 318.006L653.1 288.479C659.604 268.246 675.364 252.367 695.488 245.771L710.555 240.833L706.767 227.995C706.621 227.5 707.005 227.007 707.519 227.03L729.986 228.033C730.332 228.048 730.623 228.3 730.688 228.642L732.415 237.604L732.7 228.76C732.713 228.354 733.044 228.032 733.448 228.032H745.93C746.528 228.032 746.885 228.702 746.553 229.202L738.159 241.848ZM736.422 241.752L744.531 229.537H734.173L733.747 242.804C734.75 242.522 735.641 242.171 736.422 241.752ZM729.33 229.51L708.502 228.58L712.131 240.881C714.033 242.341 717.837 243.263 723.504 243.579C726.798 243.763 729.621 243.639 731.97 243.211L729.33 229.51Z"/><path fill="#341F16" fill-rule="evenodd" stroke="#341F16" d="M1084 218.316L1084.5 153.5H1023.02C1018.39 153.5 1014.22 156.268 1012.42 160.526C1009.14 168.296 1007.5 176.786 1007.5 186C1007.5 195.204 1009.14 203.686 1012.41 211.45C1014.21 215.721 1018.4 218.493 1023.04 218.48L1084 218.316Z" clip-rule="evenodd"/><path fill="#fff" fill-rule="evenodd" d="M1084.5 218C1087.81 218 1090 204.449 1090 186.5C1090 168.551 1087.31 154 1084 154C1080.69 154 1079 168.551 1079 186.5C1079 204.449 1081.19 218 1084.5 218Z" clip-rule="evenodd"/><path fill="#341F16" d="M855.101 177.569C854.031 179.554 851.938 180.902 849.532 180.902C846.036 180.902 843.203 178.058 843.203 174.549V162.352C843.203 158.844 846.036 156 849.532 156C851.938 156 854.031 157.348 855.101 159.333C856.172 157.348 858.264 156 860.671 156C864.166 156 867 158.844 867 162.352V174.549C867 178.058 864.166 180.902 860.671 180.902C858.264 180.902 856.172 179.554 855.101 177.569ZM854.342 174.549V162.352C854.342 159.686 852.188 157.525 849.532 157.525C846.875 157.525 844.721 159.686 844.721 162.352V174.549C844.721 177.216 846.875 179.377 849.532 179.377C852.188 179.377 854.342 177.216 854.342 174.549ZM855.861 174.549C855.861 177.216 858.014 179.377 860.671 179.377C863.327 179.377 865.481 177.216 865.481 174.549V162.352C865.481 159.686 863.327 157.525 860.671 157.525C858.014 157.525 855.861 159.686 855.861 162.352V174.549ZM833.329 162.098C836.825 162.098 839.658 164.942 839.658 168.451V180.648C839.658 184.156 836.825 187 833.329 187C829.834 187 827 184.156 827 180.648V168.451C827 164.942 829.834 162.098 833.329 162.098ZM833.329 163.623C830.673 163.623 828.519 165.784 828.519 168.451V180.648C828.519 183.314 830.673 185.475 833.329 185.475C835.986 185.475 838.139 183.314 838.139 180.648V168.451C838.139 165.784 835.986 163.623 833.329 163.623Z"/><path fill="#341F16" d="M834.519 218.404C834.598 218.753 834.901 219 835.25 219H865.25C865.689 219 866.034 218.616 865.997 218.168L864.997 205.875C864.963 205.452 864.6 205.138 864.188 205.173C863.775 205.209 863.468 205.58 863.503 206.003L864.435 217.463H835.847L832.981 204.742C832.902 204.393 832.599 204.146 832.25 204.146H821.241C818.973 204.146 816.962 202.655 816.254 200.449C815.853 199.202 815.576 198.527 815.28 198.225C814.987 197.925 814.513 197.925 814.22 198.225C813.927 198.525 813.927 199.012 814.22 199.312C814.271 199.365 814.521 199.971 814.829 200.929C815.74 203.766 818.326 205.683 821.241 205.683H831.653L834.519 218.404Z"/><path fill="#341F16" d="M1084.5 219C1088.43 219 1091 204.501 1091 186C1091 167.499 1088.43 153 1084.5 153C1080.57 153 1078 167.499 1078 186C1078 204.501 1080.57 219 1084.5 219ZM1084.5 217.489C1082.11 217.489 1079.56 203.115 1079.56 186C1079.56 168.885 1082.11 154.511 1084.5 154.511C1086.89 154.511 1089.44 168.885 1089.44 186C1089.44 203.115 1086.89 217.489 1084.5 217.489Z"/><path fill="#fff" fill-rule="evenodd" d="M1075 158.211L1079 146L1082 157.702L1099 162.789L1082 164.825L1076 175L1074.78 167.538L1073 165.842L1055 160.246L1075 158.211Z" clip-rule="evenodd"/><path fill="#341F16" d="M1078.6 145.505C1078.86 144.78 1079.9 144.854 1080.06 145.609L1082.53 157.739L1099.43 162.09C1100.24 162.3 1100.16 163.488 1099.33 163.585L1082.37 165.571L1076.59 176.593C1076.26 177.223 1075.32 177.094 1075.17 176.398L1073.1 166.68L1054.54 161.121C1053.75 160.882 1053.86 159.716 1054.68 159.632L1074.28 157.649L1078.6 145.505ZM1074.75 157.601L1074.12 158.102L1074.28 157.649L1074.75 157.601ZM1075.54 158.615C1075.45 158.892 1075.2 159.087 1074.91 159.117L1058.65 160.762L1073.96 165.349C1074.23 165.429 1074.43 165.647 1074.49 165.919L1076.22 174.026L1081.21 164.505C1081.33 164.283 1081.55 164.132 1081.79 164.103L1095.09 162.547L1081.69 159.097C1081.41 159.024 1081.2 158.797 1081.14 158.512L1079.12 148.583L1075.54 158.615Z"/></svg>