<svg xmlns="http://www.w3.org/2000/svg" id="Layer_1" data-name="Layer 1" viewBox="0 0 2395 1800"><defs><style>.cls-1{fill:#ec088f}.cls-2{fill:#7d6c36}.cls-3{fill:#ddd71d}.cls-4{fill:#ebe777}.cls-5{fill:#424242}.cls-6{fill:#1a467f}.cls-7{fill:#348bfe}.cls-8{fill:#fff}</style></defs><title>Artboard 1 copy 6</title><path d="M589,821l-5-2q-11,25-22,50l24-101-4.24-4.1L546,869l23-146-8-4L528,859l18-145-6-3L510,855l15-145h-8L484,865q6.5-77,13-154l-7,1L463,869q5.5-76,11-152l-6,1L441,876l11.53-140.62L446,737,413,882l14.17-121.84L420,764q-11.5,65.5-23,131c1.33-22.33,2.67-42.67,4-65l-5,1-25.61,91.73L570,896Q579.5,858.5,589,821Z" class="cls-1"/><path d="M583.74,1225.57c-2.41,6.17-6.75,14.11-14.83,18-11.58,5.61-22.36-1.14-34.44-3.8,0,0-18.66-4-101.69,42h0L455.66,1311l45.48-27.21a144.72,144.72,0,0,0,65.11,14.5c41.71-.66,71.22-19.5,82.31-27.44" class="cls-2"/><path d="M1965.46,1102.09,1963,1105l.79-3.41-17.21-5.15L1942,1100l.76-4.71-14.35-4.32-3.41,4,1.07-4.73-13.27-4L1907,1093l1.81-7.93-12.45-3.77L1891,1088l2.44-7.58-18.24-5.53c-4.2,3.55-7.2,6.11-7.2,6.11l3.21-7.33-10.65-3.23L1852,1079l1.57-10.69-13.19-4L1832,1074l2.93-11.39-11.44-3.5L1814,1070l2.8-12.94-10.44-3.21L1798,1065l2.39-13-12.15-3.75L1779,1060l.7-14.36-11.46-3.54L1760,1057l2-16.84-11.59-3.59L1742,1053l4.25-17.72-11.41-3.54L1724,1048l4.74-18.16-10.8-3.37L1705,1044l3.59-20.45-10.81-3.38L1688,1039l4.12-20.61-12.41-3.89L1668,1035l4.06-22.9-13.68-4.31L1647,1027l3.45-21.72-14.58-4.61L1623,1023l2.56-25.59-12.84-4.08L1603,1016l3.27-24.72-14-4.46L1580,1011l3.06-27.12-13.62-4.36L1557,1006l4.1-29.15-11.64-3.74L1538,998l4.25-27.2-10-3.22L1518,998l5-33.42L1511.88,961,1498,991l5.06-32.86-9.75-3.16L1479,991l2.81-39.76c-4-1.29-7.94-2.58-11.86-3.86L1457,983l6.88-37.6L1452,941.52,1434,978l9.68-39.2-8.21-2.69L1418,973l7.27-40.24-9.79-3.21L1398,969l7.63-42.7-10-3.28L1377,964l6.29-45.08-10.47-3.47L1354,959l7.44-47.32-9.25-3.07L1334,953l8.32-47.68-8.48-2.81L1314,949l9.85-49.82-8.2-2.73L1295,945l10.29-52-8.67-2.89L1274,940l8-54.75-8.5-2.83L1254,934l8.71-55.15-8.3-2.75L1234,928l8.24-55.92-8.58-2.83L1212,924l9.58-58.71-8.16-2.66L1189,924l12.78-65.16-7.3-2.36L1169,917l10.17-65.44-7.9-2.52L1147,911l-18-5,10.4-66.94-6.25-1.91L1111,901l11.09-67.21-7.63-2.28L1088,897l11.85-69.79-8.25-2.38L1063,892l11.76-71.89-6.56-1.8L1044,887l10-72.46q-3.36-.88-6.69-1.72L1024,882l-21-6-18-6,8.35-69.41-6.35-1.2L968,864l6.14-66.86-5.24-.84L950,867V793.69q-3.88-.47-7.71-.86L925,862l2.82-70.42c-2.16-.15-4.29-.27-6.41-.38L903,862l5.7-71.23c-1.85,0-3.69,0-5.51,0L883,865V791.47c-2.21.16-4.41.35-6.58.57L860,867l-3.43-72.13c-2.33.44-4.64.91-6.92,1.43L838,871l-9.43-68.74q-3.44,1.18-6.79,2.5L817,882l-12-69.71q-4.59,2.36-9.07,5L790,897l-13.23-66.77q-4.51,3.43-8.77,7.09V906l-12-57.5q-6.3,6.38-12,13.22V928l-9.53-54q-6.11,8.44-11.47,17.41V952l-8.74-44.81q-6.35,12.42-11.52,25.5L700,973l-4.28-21c-19.26,58.35-23.9,122.09-24,173.37l1411,11.44Q2022.4,1119.13,1965.46,1102.09Z" class="cls-1"/><path d="M1236,1438.66s24.17,130.87,169,139.45l12.9-48.49s-52.75-26.12-72.07-60.37c-10.75-19-13.95-39.54-14.67-54a41.15,41.15,0,0,0-17.16-31.51c-31.6-22.52-95.79-70.61-107.68-97.68-15.91-36.18-147.1,11.41-147.1,11.41A526.08,526.08,0,0,0,1236,1438.66Z" class="cls-2"/><path d="M2144.22,1166.1l-903.08,145.16L958.51,1298,698,1285.68a103.07,103.07,0,0,1-35-7.87l-117.86-49.25a81.54,81.54,0,0,1-15.87-8.69A103.46,103.46,0,0,1,487.69,1155c-.36-2-.6-3.91-.79-5.88l-11.71-121.89a44.76,44.76,0,0,0-25.32-36.14L444,988.33a47.1,47.1,0,0,0-53.36,9.06l-9.55,9.43a74,74,0,0,1-35,19.38,43.74,43.74,0,0,1-9.89,1.15,43,43,0,0,1-16.34-82.85l165.56-68.07c30.79-12.65,66.56-5,88.56,20,8.9,10.12,15.06,22.37,16.76,35.64L588,1004c9.51,39.14,57.8,53.33,87,25.58l78.11-94A234.08,234.08,0,0,1,967.55,877.3l1177.17,274.43C2152.54,1153.56,2152.15,1164.83,2144.22,1166.1Z" class="cls-3"/><path d="M958.51,1298,698,1285.68a103.07,103.07,0,0,1-35-7.87l-117.86-49.25a81.54,81.54,0,0,1-15.87-8.69,103.06,103.06,0,0,1-26.09-26.93c41.3-8.27,105.3-15,145.69,10C712.44,1242.33,958.51,1298,958.51,1298Z" class="cls-4"/><path d="M882.92,1068.59a1183.43,1183.43,0,0,0,135.87,351.71q-15,54-30,107.9l-64-18.92-10.16,58.48,61.67,17.58a56.08,56.08,0,0,0,62.12-23.55l70.31-108.62A58.38,58.38,0,0,0,1118,1424l3.91-87.11q1-22.67,2-45.32" class="cls-3"/><path d="M723.23,1188.07a214.2,214.2,0,0,0-40,72.06,209.32,209.32,0,0,0-6.25,24.32,53.22,53.22,0,0,1-19.74,32.09,70.68,70.68,0,0,0-11.11,10.65c-27,32.39-13.9,77.15-12.48,81.67,13.51.08,27.17-.07,40.68,0a231.6,231.6,0,0,1,27.94-72.55c16.84-28.24,35.58-45.71,52.15-60.92a355.48,355.48,0,0,1,62.28-45.77" class="cls-3"/><path d="M473.94,920.06a10.36,10.36,0,0,1-13.7,7.73,11.29,11.29,0,0,1-5.79-3.89,11.87,11.87,0,0,1-1.94-9.81,10.93,10.93,0,0,1,2.93-5,11.24,11.24,0,0,1,10.77-2.77A11.38,11.38,0,0,1,473,912,11.61,11.61,0,0,1,473.94,920.06Z" class="cls-5"/><circle cx="1125.23" cy="539" r="33.77" class="cls-6"/><path d="M432.78,1281.74,417.93,1291a1.85,1.85,0,0,0,1,3.43h13.87l-8,13.94a1.85,1.85,0,0,0,2.09,2.71l14.77-3.93-5.14,11.13a1.86,1.86,0,0,0,2.63,2.38l16.5-9.7Q444.21,1296.36,432.78,1281.74Z" class="cls-5"/><path d="M633.62,1408.86l-2.16,19.64a1.86,1.86,0,0,0,3.3,1.35l9.76-12.28,6.63,16.58a1.85,1.85,0,0,0,3.42,0l6.8-15.61,6.26,12.42a1.85,1.85,0,0,0,3.49-.57c1.06-7.18,2.19-14.5,3.18-21.58C660.84,1408.76,647.09,1409,633.62,1408.86Z" class="cls-5"/><path d="M924.72,1509.28l-29.12-6.71A2.67,2.67,0,0,0,893,1507l15.42,16.4-24.91,6a2.67,2.67,0,0,0-.78,4.86l20.74,12.88-18.92,6.32a2.66,2.66,0,0,0,.07,5.07c10,3,20.1,6.4,29.95,9.28q2.6-13.8,5.08-28Q922.34,1524.36,924.72,1509.28Z" class="cls-5"/><path d="M1402.69,1577.93l24.38,7.34a2.25,2.25,0,0,0,2.5-3.52l-11.82-14.87,21.36-3.28a2.25,2.25,0,0,0,1-4l-16.55-12.28,16.36-4a2.25,2.25,0,0,0,.29-4.28c-8.19-3.2-16.46-6.78-24.53-9.88q-3.17,11.41-6.23,23.16C1407.23,1560.82,1404.73,1569.59,1402.69,1577.93Z" class="cls-5"/><path d="M1103,695l47.62,160.19a48.1,48.1,0,0,1-46.1,61.81H992l44.61,149.27a39.75,39.75,0,0,1-12.19,41.54L976,1149.41a27.14,27.14,0,0,1-34.43.76,21.27,21.27,0,0,1-3.17-30.11L980,1069,907,926.36a46.77,46.77,0,0,1,7.6-53.36l.32-.34a39.74,39.74,0,0,1,24.62-12.24l95.18-10.33L980,723,883,873a249.08,249.08,0,0,0-108,44l82.64-99.64,83.66-154A30.86,30.86,0,0,1,961.71,648l108-24.6a40.29,40.29,0,0,1,20.48.69L1247,671q35-97,70-194l26,65q-27.95,80.93-55.9,161.85a37.59,37.59,0,0,1-44.19,24.31Z" class="cls-7"/><path d="M1125.67,502.91l-.52,56A40.5,40.5,0,0,1,1086.08,599a41.44,41.44,0,0,1-6.46-.3l-21.8-2.74-.83,59.9-50.47,4.07-15.43-155.6a28.35,28.35,0,0,1,1.63-15c4.77-11.6,17.86-19.17,33.3-19.64l5-.25,56.47-2.77c14.56-.72,28.43,7.11,34.67,20.29A36.15,36.15,0,0,1,1125.67,502.91Z" class="cls-7"/><path d="M1125.67,513.48l-.52,48.6a31.46,31.46,0,0,1-.42,4.78,35.61,35.61,0,0,1-4.25,11.31c-3.72,6-18.71,12.82-38.48,10.83-4.45-.82-27.2-5.48-39.92-26.25a54.81,54.81,0,0,1-7.7-23.53L1033.27,521c-1.24-20.14,16.63-37.32,39.84-38.31l14.39-.61c14.56-.63,28.43,6.17,34.67,17.61A28,28,0,0,1,1125.67,513.48Z" class="cls-4"/><rect width="9" height="13" x="1112.48" y="530.25" class="cls-5" rx="4.5" ry="4.5" transform="translate(2245.54 1048.74) rotate(178.74)"/><rect width="9" height="13" x="1072.46" y="530.75" class="cls-5" rx="4.5" ry="4.5" transform="translate(2165.51 1050.61) rotate(178.74)"/><rect width="25" height="118" x="1382" y="418" class="cls-6" rx="12.5" ry="12.5" transform="translate(1840.63 -927.68) rotate(88.74)"/><rect width="25" height="118" x="1389" y="384" class="cls-6" rx="12.5" ry="12.5" transform="translate(1643.9 -1006.72) rotate(81.95)"/><path d="M1057.85,595.78l-26-4.41a2,2,0,0,0-1.48,3.55l27.18,19.47Q1057.71,605.09,1057.85,595.78Z" class="cls-6"/><circle cx="965.77" cy="539" r="33.77" class="cls-7"/><rect width="25" height="118" x="1320" y="413" class="cls-7" rx="12.5" ry="12.5" transform="translate(247.6 -434.28) rotate(20.37)"/><rect width="28.49" height="143.73" x="1332.41" y="418.8" class="cls-7" rx="12.5" ry="12.5" transform="translate(254.99 -438.04) rotate(20.37)"/><rect width="25" height="118" x="1382" y="358" class="cls-7" rx="12.5" ry="12.5" transform="translate(1456.93 -1037.17) rotate(75.81)"/><path d="M1117.47,516a12,12,0,0,0-12,12h24A12,12,0,0,0,1117.47,516Z" class="cls-7"/><rect width="25" height="118" x="1359" y="330" class="cls-7" rx="12.5" ry="12.5" transform="translate(378.25 -633.63) rotate(30)"/><path d="M1035,850l41.61-2.31a1.39,1.39,0,0,0,.16-2.76L1029,836.87Z" class="cls-6"/><path d="M1101.66,506.18,1111,552a5,5,0,0,1-4.92,6H1100a5,5,0,0,1-5-5.43l3.78-46.22A1.47,1.47,0,0,1,1101.66,506.18Z" class="cls-6"/><circle cx="965" cy="539" r="17" class="cls-4"/><path d="M1076.47,516a12,12,0,0,0-12,12h24A12,12,0,0,0,1076.47,516Z" class="cls-7"/><path d="M2184,126,1824,326l-18-84L1647,443.55l111.4,152.67,136.3,130.93L2060,487l-50,3Z" class="cls-3"/><path d="M1775.45,408c-104-9.42-195.86,67.22-205.28,171.18-.1,1.14-.18,2.27-.26,3.41a33,33,0,1,1,6.34,64.2,189.09,189.09,0,0,0,165.11,137.67c104,9.41,195.86-67.23,205.27-171.19S1879.4,417.4,1775.45,408Z"/><circle cx="1791" cy="603" r="33" class="cls-8"/><circle cx="1823" cy="532" r="65" class="cls-8"/></svg>