<svg xmlns="http://www.w3.org/2000/svg" id="Layer_1" data-name="Layer 1" viewBox="0 0 2395 1800"><defs><style>.cls-1{fill:#f1ff24}.cls-1,.cls-2,.cls-3,.cls-5,.cls-6,.cls-7,.cls-8,.cls-9{stroke:#000;stroke-width:1.5px}.cls-1,.cls-2,.cls-3,.cls-6,.cls-7,.cls-8,.cls-9{stroke-miterlimit:10}.cls-2,.cls-4{fill:#6eff50}.cls-3{fill:#842eff}.cls-5,.cls-7{fill:#fff}.cls-5{stroke-linecap:round;stroke-linejoin:round}.cls-6{fill:#ff6131}.cls-8{fill:#edd1b0}.cls-9{fill:none}</style></defs><title>Artboard 1 copy 8</title><path d="M1628.33,383.43l13.81-264.13,89.53,255.12,197.69-95.87L1817.74,448.6l294.81,80.14-255.88,94.89,151.85,104.16-267.41-60.43-20.5,208.51-82.84-186.73L1424.05,833.76,1572.89,607,1303.05,479.4l237-8.93s-119.72-162.14-111-159.09S1628.33,383.43,1628.33,383.43Z" class="cls-1"/><path d="M1168,351l193.89,72c.84.33,1.67.67,2.5,1,43.41,18.27,69.95,62.65,66.92,109.65L1387,714l198-104,129,52L1432,894l-105-15-60-196" class="cls-2"/><path d="M1024,1353l-65,117.5L894,1588H994l64-125,30-1q3,10.43,6,21,4.11,14.6,8,29c132.67-21,265.33-40,398-61a60.57,60.57,0,0,0-13-29c-17.61-20.93-50.2-27.72-83-18l-152,24,35-75Z"/><path d="M904.83,677.88,864.57,807.3c-13.64,55.24,26.72,109.12,83.56,111.58L1277,924q-70,106-138.5,213-75.16,117.42-148.5,236l303,4,214.37-485.28c29.19-66.08-13.68-141.59-85.38-150.39Z" class="cls-3"/><path d="M339,1413.21,193,1588H321l76-102,36,4-34,98H819a64.1,64.1,0,0,0-59.73-80.73L574,1501l51.87-84.08"/><path d="M908,628c-167.67,231.61-402.33,556.23-570,787.84L688,1419l346-558" class="cls-3"/><polyline points="963 354 862 576 1301 564 1169 351" class="cls-4"/><path d="M1237,377q28.93,34.58,58,69,24.95,29.53,50,59c18,.33,8,2.67,26,3l-76-110C1270,389,1263,386,1237,377Z" class="cls-1"/><circle cx="1341.5" cy="497.5" r="22.5"/><path d="M950.72,729.88C945,717,895.35,539.06,895.35,539.06L921.56,508,947,583Z" class="cls-1"/><circle cx="1188.93" cy="287.41" r="67.07" class="cls-5"/><path d="M972,775.52c-23.61-22.65-25.48-63.06-29.22-143.89-4-85.7,8.69-108.63,15.67-119.16,3.34-5.05,24.73-36.35,65-48.6,42.47-12.92,81.75,2.68,100.24,10,41.59,16.52,52.45,37.72,90.6,39.2,18.35.7,35.32-3.45,39.51-4.53,30.79-7.9,39.3-21.07,63.31-24.13a79.47,79.47,0,0,1,32.85,3,43.6,43.6,0,0,1,26.28,20.64,35.49,35.49,0,0,1,3.85,10.69c2.21,11.94-2.83,19.85-12.12,49.68-3.37,10.84-5.79,19.71-7.24,25.23l11,15.07c-49.71,24.66-79.25,59.7-73.12,84.88,3.23,13.25,16.43,24.2,18.81,26.17,23.46,19.45,49.49,12.5,55.13,27.15,3.75,9.78-4.73,20.91-5.65,22.08-15.4,19.65-53.24,11.82-58.5,10.74-22.14-4.59-29.12-14.28-64.63-22.47,0,0-6.42-1.48-11.83-2.44-45.33-8-89.79,33.83-139.25,45.83C1055.87,809.59,1003,805.27,972,775.52Z" class="cls-6"/><rect width="51.33" height="98.71" x="1122.82" y="580.65" rx="17.75" ry="17.75" transform="matrix(1, 0.01, -0.01, 1, 3.49, -6.33)"/><rect width="51.33" height="98.71" x="1222.95" y="581.27" rx="17.82" ry="17.82" transform="translate(3.5 -6.88) rotate(0.32)"/><path d="M1283.48,679.37a19,19,0,0,0-21.57-16.12L1187.61,674l0-.25,74.79-10.8a19,19,0,0,0-5.45-37.69L1190,636l64.92-12.35a19,19,0,0,0-7-37.44l-71.14,13.21-82.77,11L1098,726l92.27-14v0l77.08-11.13A19,19,0,0,0,1283.48,679.37Z" class="cls-7"/><path d="M1212,310l51.52,16.28-30.29-52.91s-20.88-43.89-64.67-24.76" class="cls-5"/><polygon points="1863.2 664.68 1301 667.54 1300.6 604.07 1862.8 601.22 1863.2 664.68" class="cls-8"/><path d="M1169.49,351.73c-67.87-23-135.74-47.05-203.61-70.07A111.54,111.54,0,0,0,850.6,309L833,326.87,674.53,519.6c-62.39,75.89-12.92,190.54,85.08,197.23l341.12,23.29,15.88-145L880.85,556.24l126.06-149.39" class="cls-2"/><path d="M1787.34,665l.31-63.76,155.95-16.65a21.76,21.76,0,0,1,24.07,21.51l.3,48.75a21.77,21.77,0,0,1-23.38,21.84Z" class="cls-8"/><line x1="1277" x2="1821.96" y1="651.45" y2="648.94" class="cls-7"/><rect width="38.08" height="96.92" x="1631.48" y="619.84" class="cls-7" rx="19.04" ry="19.04" transform="translate(424.02 -622.64) rotate(24.42)"/><polyline points="1296.84 897.48 1277.43 923.58 1300.91 925.18" class="cls-9"/><rect width="38.08" height="76.82" x="1666.62" y="645.05" class="cls-7" rx="19.04" ry="19.04" transform="translate(433.43 -635.82) rotate(24.42)"/><rect width="38.08" height="90.2" x="1713.32" y="627.58" class="cls-7" rx="19.04" ry="19.04" transform="translate(381.84 -603.9) rotate(22.17)"/><path d="M1825,615.28l-6.37.32c-34.5,1.74-79-4.82-110.14-19.79-18.26-8.77-39.13-27.27-49.66-60.43-18.91-59.52,38.8-140.12,91.16-141.07,16.83-.31,39.18,7.5,51.11,26.16,15.53,24.3,4,52.25,2.57,55.47-15,34.77-55.44,39.73-57.2,39.91" class="cls-9"/><path d="M1273,623l237-1.9c3.4.1,84.37,1.15,116-56.81,11.67-21.39,23.77-63.92.54-89.95-11.55-12.93-34.8-25.14-58-16.1-19.51,7.58-32.64,27.68-32.51,50.45" class="cls-9"/><path d="M1223.59,259.7s19.37-7.77,29.79,9.14" class="cls-5"/><circle cx="1194.64" cy="264.99" r="5.63" class="cls-5"/><circle cx="1249.23" cy="280.61" r="5.63" class="cls-5"/><circle cx="1831.72" cy="614.05" r="7.36" class="cls-7"/><rect width="335" height="112" x="1665" y="900" rx="44.2" ry="44.2"/><circle cx="1829.43" cy="648.69" r="7.36" class="cls-7"/><circle cx="1876.3" cy="650.98" r="7.36" class="cls-7"/><rect width="423.66" height="576" x="1622.34" y="1012" class="cls-1"/><circle cx="1920.61" cy="652.9" r="7.36" class="cls-7"/><circle cx="1779.61" cy="955.9" r="24.39" class="cls-7"/><circle cx="1877.49" cy="611.81" r="7.36" class="cls-7"/><circle cx="1920.69" cy="609.21" r="7.36" class="cls-7"/><circle cx="1208" cy="322" r="8"/><circle cx="1834.17" cy="1421.95" r="118.05" class="cls-7"/><circle cx="1834.17" cy="1421.95" r="108.7"/><circle cx="1834.17" cy="1172.68" r="118.05" class="cls-7"/><circle cx="1834.17" cy="1172.68" r="108.7"/><rect width="9" height="48" x="1775" y="932" class="cls-7" rx="4.5" ry="4.5"/><circle cx="1884.61" cy="955.9" r="24.39" class="cls-7"/><rect width="9" height="48" x="1880" y="932" class="cls-7" rx="4.5" ry="4.5" transform="translate(938.51 -933.54) rotate(36.51)"/><polyline points="1108.47 1568.28 1101.07 1503.71 1336.53 1476.72 1340.23 1517" class="cls-6"/><polygon points="1494 1495 1104 1553 1104 1588 1494 1588 1494 1495" class="cls-6"/><path d="M1452.8,1500.94l-28.74,3.86-1.93-14.37a14.49,14.49,0,0,1,12.44-16.3h0a14.49,14.49,0,0,1,16.3,12.44Z"/></svg>