<svg xmlns="http://www.w3.org/2000/svg" width="1440" height="1024" fill="none" viewBox="0 0 1440 1024"><rect width="1440" height="1024" fill="#fff"/><path fill="#B9C5D9" fill-rule="evenodd" d="M1023.5 928.5L1192.5 513L1117.5 303L1140 325.5L1210 530L1045 928.5H1023.5Z" clip-rule="evenodd"/><path fill="#B9C5D9" fill-rule="evenodd" d="M1092 299L1110 220L1160.5 228L1165.5 204.5L1167.5 212.5L1163.5 233.5L1114 226L1097 299H1092ZM1124 158.5C1124 158.5 1124.83 161.167 1126.5 166.5L1120 197L1115.5 196C1121.17 171 1124 158.5 1124 158.5ZM1032.5 207L1081.5 215.5L1080 220L1036.5 213L1032.5 207Z" clip-rule="evenodd"/><path fill="#fff" fill-rule="evenodd" d="M1038 290L1117 303L1191.99 514.5L1015 945L896 928.5V445.5L1038 290Z" clip-rule="evenodd"/><path fill="#fff" d="M1045.5 404C1047.99 404 1050 401.761 1050 399C1050 396.239 1047.99 394 1045.5 394C1043.01 394 1041 396.239 1041 399C1041 401.761 1043.01 404 1045.5 404Z"/><path fill="#525E72" d="M1038.22 289.194L1118.06 302.332L1193.29 514.52L1015.97 945.823L895.75 929.153V445.209L1038.22 289.194ZM897.25 445.791V927.847L1015.03 944.177L1191.69 514.48L1116.94 303.668L1038.78 290.806L897.25 445.791Z"/><path fill="#fff" fill-rule="evenodd" d="M719.5 520C723.035 544.026 725.872 561.859 728.012 573.5C730.151 585.141 734.148 604.497 740.004 631.568C743.395 664.485 746.564 688.962 749.512 705C752.459 721.038 757.703 742.34 765.243 768.906L740.5 775.5L792 914.5L630.654 954.106C628.514 954.631 627.009 956.547 627.006 958.75C627.003 960.818 628.676 962.497 630.744 962.5C630.746 962.5 630.748 962.5 630.75 962.5H824.5L840.5 936.5L850 962.5H887L865.5 883L773.5 519.5L719.5 520Z" clip-rule="evenodd"/><path fill="#525E72" d="M739.499 774.988L790.993 913.972L630.463 953.378C627.989 953.985 626.248 956.201 626.244 958.749C626.24 961.231 628.249 963.25 630.731 963.25H824.907L840.315 938.212L849.464 963.25H887.968L866.212 882.804L780.23 519.827L780.093 519.25H718.62L718.746 520.109C722.283 544.143 725.121 561.984 727.262 573.636C729.403 585.286 733.402 604.648 739.259 631.726C742.639 664.58 745.811 689.074 748.762 705.136C751.687 721.052 756.867 742.131 764.302 768.377L739.499 774.988ZM778.907 520.75L864.759 883.173L886.009 961.75H850.513L840.661 934.788L824.069 961.75H630.738C629.08 961.75 627.744 960.405 627.744 958.751C627.747 956.893 629.017 955.277 630.821 954.834L792.984 915.028L741.478 776.012L766.161 769.434L765.953 768.701C758.419 742.156 753.18 720.875 750.238 704.864C747.295 688.85 744.127 664.39 740.738 631.491C734.871 604.345 730.875 584.995 728.738 573.364C726.626 561.873 723.832 544.334 720.357 520.75H778.907Z"/><path fill="#B9C5D9" fill-rule="evenodd" d="M811 823L762 839.5L772.5 868L818.5 852.5L811 823Z" clip-rule="evenodd"/><path fill="#B9C5D9" fill-rule="evenodd" d="M810.22 823L756 842.5L766.5 870L817.72 852.5L810.22 823Z" clip-rule="evenodd"/><path fill="#525E72" d="M811.243 822.015L755.526 842.053L766.557 870.944L819.117 852.986L811.243 822.015ZM817.322 852.014L767.442 869.056L757.473 842.947L810.196 823.985L817.322 852.014Z"/><path fill="#525E72" fill-rule="evenodd" d="M736.592 324.699C786.651 322.091 831.299 357.164 840.179 407.039C895.736 719.052 948.505 885.758 998.488 907.157C1052.47 930.269 1110.2 945.622 1171.66 953.216C1173.26 953.414 1174.85 953.655 1176.43 953.941L1265.49 970L898.918 963.766C855.953 963.035 819.799 931.382 813.397 888.891L728.727 326.986L728.488 327L705.028 284.413L616.403 123.535L605.488 105L694.536 164.179C698.815 167.023 701.835 171.404 702.971 176.414L736.592 324.699ZM694.5 330L560.507 232.295C557.668 230.225 555.988 226.922 555.988 223.407V129.5L694.5 330Z" clip-rule="evenodd"/><path fill="#fff" d="M249.678 414.342C249.304 411.676 251.284 409.194 254.101 408.798C256.918 408.402 259.505 410.242 259.88 412.908L262.658 432.676C264.736 447.461 279.085 457.667 294.707 455.472C303.468 454.24 311.195 449.237 315.629 441.922L322.742 430.191C330.024 418.179 346.105 413.893 358.66 420.618C367.753 425.488 372.828 435.073 371.565 444.986C371.224 447.667 368.66 449.61 365.838 449.327C363.017 449.044 361.007 446.641 361.348 443.961C362.117 437.929 359.029 432.098 353.497 429.135C345.858 425.044 336.074 427.651 331.644 434.959L324.532 446.691C318.498 456.643 307.985 463.451 296.064 465.127C274.808 468.114 255.284 454.228 252.457 434.11L249.678 414.342ZM530.838 374.828L533.616 394.596C536.444 414.713 521.504 433.443 500.247 436.431C488.327 438.106 476.344 434.459 467.801 426.555L457.731 417.239C451.457 411.435 441.334 411.626 435.119 417.664C430.618 422.037 429.257 428.493 431.658 434.079C432.725 436.562 431.455 439.425 428.821 440.475C426.187 441.525 423.187 440.364 422.12 437.881C418.173 428.7 420.41 418.088 427.808 410.9C438.023 400.975 454.663 400.662 464.974 410.201L475.044 419.518C481.323 425.327 490.13 428.007 498.891 426.776C514.513 424.58 525.493 410.815 523.415 396.029L520.637 376.262C520.262 373.595 522.242 371.113 525.059 370.717C527.876 370.321 530.464 372.162 530.838 374.828Z"/><path fill="#525E72" d="M248.545 414.008C248.111 410.922 250.387 408.069 253.606 407.617C256.824 407.164 259.798 409.28 260.232 412.366L263.01 432.134C265.029 446.499 278.991 456.43 294.212 454.291C302.752 453.09 310.281 448.215 314.597 441.095L321.71 429.363C329.199 417.009 345.719 412.607 358.624 419.519C367.987 424.534 373.221 434.417 371.919 444.643C371.525 447.734 368.591 449.958 365.373 449.635C362.14 449.31 359.818 446.535 360.214 443.428C360.942 437.708 358.013 432.176 352.752 429.358C345.463 425.454 336.117 427.944 331.895 434.909L324.782 446.641C318.631 456.788 307.92 463.725 295.778 465.431C274.12 468.475 254.21 454.313 251.323 433.776L248.545 414.008ZM250.03 413.799L252.809 433.567C255.577 453.265 274.714 466.877 295.569 463.946C307.269 462.301 317.584 455.621 323.5 445.864L330.612 434.132C335.25 426.481 345.472 423.757 353.461 428.036C359.263 431.144 362.51 437.274 361.702 443.617C361.415 445.87 363.113 447.9 365.523 448.142C367.947 448.386 370.141 446.723 370.431 444.453C371.654 434.851 366.737 425.566 357.916 420.841C345.71 414.303 330.066 418.472 322.992 430.141L315.88 441.873C311.328 449.382 303.403 454.514 294.421 455.776C278.397 458.028 263.662 447.547 261.525 432.342L258.747 412.574C258.431 410.328 256.23 408.763 253.815 409.102C251.399 409.442 249.715 411.553 250.03 413.799ZM531.19 374.285L533.968 394.053C536.855 414.59 521.619 433.691 499.961 436.735C487.819 438.441 475.611 434.726 466.901 426.668L456.83 417.351C450.852 411.82 441.181 412.001 435.251 417.764C430.971 421.922 429.679 428.047 431.957 433.345C433.194 436.223 431.727 439.531 428.708 440.734C425.704 441.931 422.271 440.603 421.04 437.739C416.969 428.269 419.276 417.326 426.895 409.924C437.394 399.722 454.487 399.401 465.092 409.212L475.163 418.529C481.275 424.183 489.855 426.795 498.395 425.595C513.616 423.455 524.3 410.061 522.281 395.695L519.503 375.928C519.069 372.842 521.345 369.988 524.564 369.536C527.782 369.084 530.757 371.199 531.19 374.285ZM529.705 374.494C529.389 372.247 527.188 370.682 524.773 371.021C522.357 371.361 520.673 373.472 520.988 375.719L523.767 395.487C525.904 410.691 514.628 424.828 498.604 427.08C489.622 428.342 480.59 425.593 474.144 419.63L464.074 410.313C454.057 401.047 437.871 401.351 427.94 411C420.763 417.973 418.595 428.254 422.418 437.147C423.322 439.249 425.889 440.243 428.153 439.34C430.402 438.444 431.475 436.024 430.578 433.937C428.053 428.062 429.484 421.275 434.206 416.688C440.705 410.373 451.282 410.174 457.849 416.25L467.92 425.567C476.296 433.316 488.053 436.894 499.752 435.25C520.608 432.319 535.251 413.96 532.483 394.262L529.705 374.494Z"/><path fill="#fff" fill-rule="evenodd" d="M385.611 604.518C384.97 603.586 384.56 602.584 384.41 601.518C383.692 596.404 389.121 591.042 397.978 587.068C402.734 579.16 404.948 572.773 404.618 567.906L393.575 513.035L385.063 486.945L385.038 432.767C384.538 426.849 384.025 422.926 383.5 421C382.317 416.664 380.135 415.147 380 412.5C379.776 408.09 380.943 404.757 383.5 402.5C378.915 393.329 375.581 386.329 373.5 381.5C371.419 376.671 370.585 374.005 371 373.5L371 352L396 349.5L401 361C402.95 364.01 403.617 368.51 403 374.5C402.383 380.49 400.883 389.157 398.5 400.5C401.674 402.762 403.674 405.929 404.5 410C404.932 412.129 403.513 414.903 403.5 418.5C403.492 420.688 403.838 424.611 404.538 430.268L419.562 480.44L417.581 521.574L424.264 565.145C425.403 569.446 429.686 574.908 437.112 581.532C446.789 582.896 453.542 586.565 454.264 591.701C454.411 592.747 454.301 593.803 453.957 594.856C462.344 600.979 472.801 608.135 485.327 616.323C481.555 631.719 461.914 641.912 426.405 646.903C390.897 651.893 369.207 647.508 361.337 633.749C371.276 622.282 379.368 612.539 385.611 604.518Z" clip-rule="evenodd"/><path fill="#525E72" d="M384.854 420.966L402.554 418.243L402.558 418.125L402.627 417.981C404.99 413.104 404.121 407.278 400.439 403.302L397.716 400.363L401.582 378.967C402.838 372.02 402.093 364.859 399.435 358.319L391.556 338.933L373.3 341.499L371.054 362.449C370.302 369.468 371.56 376.557 374.682 382.889L384.295 402.389L382.488 405.965C380.056 410.779 380.808 416.586 384.379 420.621L384.854 420.966ZM384.622 422.52L384.559 422.606L384.471 422.543L383.898 422.631L383.81 422.062L383.431 421.786L383.313 421.68C379.286 417.183 378.427 410.677 381.15 405.289L382.619 402.381L373.336 383.552C370.089 376.965 368.78 369.591 369.563 362.289L371.855 340.9L372.397 340.958L372.28 340.127L392.506 337.285L400.825 357.755C403.59 364.558 404.364 372.007 403.058 379.234L399.326 399.893L401.539 402.282C405.605 406.672 406.592 413.087 404.047 418.49L404.014 419.536L384.622 422.52ZM385.332 432.946L385.231 432.232L405.517 429.381L419.033 474.88C420.3 479.144 420.823 483.595 420.579 488.037L418.078 533.635L421.882 540.079C425.837 546.778 427.01 554.761 425.15 562.315L424.577 564.64L423.121 564.281L423.693 561.957C425.46 554.783 424.346 547.203 420.59 540.841L416.556 534.006L419.081 487.955C419.316 483.685 418.813 479.407 417.595 475.307L404.447 431.046L386.27 433.601L385.831 479.771C385.79 484.048 386.486 488.299 387.888 492.339L403.01 535.91L401.016 543.592C399.159 550.743 400.178 558.336 403.853 564.745L405.044 566.822L403.743 567.568L402.552 565.491C398.681 558.742 397.609 550.746 399.564 543.215L401.444 535.973L386.471 492.83C385.013 488.628 384.289 484.205 384.331 479.757L384.776 432.941L385.332 432.946ZM401.518 536.187L401.501 535.753L401.444 535.973L401.518 536.187Z"/><path fill="#B9C5D9" fill-rule="evenodd" d="M384.687 352.797C367.808 355.169 353.577 353.189 352.901 348.375C352.224 343.56 365.358 337.734 382.236 335.362C399.115 332.99 413.346 334.97 414.022 339.784C414.699 344.599 401.565 350.425 384.687 352.797ZM254.506 412.717C237.968 416.841 223.608 416.359 222.431 411.642C221.255 406.925 233.708 399.758 250.246 395.634C266.784 391.511 281.144 391.993 282.32 396.71C283.497 401.427 271.043 408.594 254.506 412.717ZM526.639 377.29C509.805 379.956 495.542 378.225 494.781 373.423C494.02 368.621 507.051 362.567 523.885 359.901C540.719 357.234 554.983 358.966 555.743 363.767C556.504 368.569 543.474 374.624 526.639 377.29Z" clip-rule="evenodd"/><path fill="#525E72" d="M385.021 353.326C367.694 355.762 353.157 353.739 352.388 348.266C351.619 342.792 365.035 336.841 382.362 334.406C399.689 331.971 414.226 333.994 414.995 339.467C415.764 344.94 402.348 350.891 385.021 353.326ZM384.812 351.841C401.242 349.532 414.093 343.831 413.509 339.676C412.925 335.52 399 333.583 382.571 335.892C366.141 338.201 353.289 343.901 353.873 348.057C354.457 352.213 368.382 354.15 384.812 351.841ZM254.917 413.232C237.939 417.465 223.271 416.973 221.934 411.61C220.597 406.247 233.317 398.926 250.295 394.694C267.272 390.461 281.941 390.952 283.278 396.315C284.615 401.678 271.894 408.999 254.917 413.232ZM254.554 411.777C270.652 407.763 282.838 400.75 281.823 396.678C280.807 392.606 266.756 392.135 250.658 396.149C234.559 400.163 222.374 407.175 223.389 411.247C224.404 415.319 238.456 415.79 254.554 411.777ZM526.987 377.817C509.705 380.555 495.135 378.786 494.27 373.327C493.406 367.868 506.716 361.684 523.998 358.947C541.28 356.21 555.85 357.978 556.715 363.437C557.579 368.896 544.268 375.08 526.987 377.817ZM526.752 376.336C543.139 373.74 555.889 367.816 555.233 363.672C554.576 359.527 540.619 357.833 524.232 360.428C507.846 363.024 495.095 368.948 495.751 373.093C496.408 377.237 510.365 378.931 526.752 376.336Z"/><path fill="#fff" fill-rule="evenodd" d="M218.012 367.007L265.495 355.168L261.852 365.984C260.373 370.374 261.146 375.212 263.921 378.923L265 380.367C267.013 383.058 267.129 386.721 265.29 389.534L261.445 395.417C257.482 401.48 249.663 403.706 243.101 400.64L235.597 397.133C232.232 395.56 230.392 391.877 231.155 388.242L231.41 387.029C232.369 382.459 230.74 377.732 227.17 374.724L218.012 367.007ZM494.224 328.513L542.559 320.857L537.987 331.314C536.13 335.559 536.479 340.446 538.92 344.384L539.869 345.917C541.64 348.773 541.436 352.432 539.359 355.074L535.016 360.6C530.539 366.295 522.556 367.831 516.286 364.204L509.117 360.057C505.901 358.196 504.389 354.367 505.466 350.812L505.826 349.626C507.18 345.157 505.969 340.306 502.675 336.998L494.224 328.513ZM353.118 303.45L401.579 296.639L396.825 307.014C394.895 311.226 395.159 316.118 397.53 320.099L398.453 321.648C400.173 324.535 399.905 328.189 397.782 330.795L393.343 336.244C388.768 341.86 380.76 343.256 374.554 339.52L367.458 335.249C364.275 333.333 362.83 329.478 363.97 325.942L364.35 324.762C365.781 320.318 364.656 315.446 361.419 312.081L353.118 303.45Z" clip-rule="evenodd"/><path fill="#525E72" d="M217.091 367.908C216.623 367.514 216.799 366.755 217.393 366.607L264.876 354.768C265.451 354.625 265.958 355.174 265.768 355.735L262.125 366.551C260.725 370.708 261.457 375.288 264.084 378.801L265.164 380.245C267.365 383.189 267.491 387.195 265.48 390.272L261.635 396.155C257.468 402.531 249.246 404.871 242.345 401.646L234.842 398.14C231.161 396.42 229.148 392.392 229.983 388.415L230.238 387.202C231.141 382.903 229.608 378.455 226.249 375.625L217.091 367.908ZM219.18 367.707L227.216 374.478C230.997 377.664 232.722 382.671 231.706 387.51L231.451 388.723C230.76 392.018 232.427 395.356 235.477 396.781L242.98 400.288C249.205 403.196 256.621 401.085 260.379 395.334L264.224 389.451C265.891 386.902 265.786 383.582 263.962 381.143L262.883 379.699C259.96 375.791 259.146 370.696 260.704 366.072L263.91 356.555L219.18 367.707ZM493.255 329.37C492.823 328.936 493.064 328.195 493.669 328.1L542.004 320.444C542.589 320.351 543.046 320.942 542.808 321.485L538.236 331.942C536.479 335.961 536.809 340.588 539.12 344.316L540.069 345.849C542.005 348.974 541.782 352.975 539.511 355.865L535.168 361.391C530.461 367.379 522.066 368.994 515.473 365.18L508.304 361.033C504.786 358.999 503.133 354.81 504.311 350.922L504.67 349.736C505.944 345.531 504.805 340.967 501.705 337.855L493.255 329.37ZM502.768 336.796C506.258 340.3 507.54 345.438 506.106 350.171L505.746 351.357C504.77 354.579 506.14 358.049 509.055 359.735L516.224 363.882C522.171 367.322 529.743 365.865 533.988 360.464L538.331 354.938C540.214 352.544 540.398 349.228 538.794 346.639L537.845 345.106C535.274 340.958 534.907 335.812 536.862 331.341L540.885 322.14L495.354 329.351L502.768 336.796ZM352.14 304.297C351.716 303.856 351.97 303.12 352.576 303.035L401.037 296.224C401.624 296.141 402.07 296.74 401.823 297.279L397.069 307.654C395.242 311.642 395.491 316.274 397.737 320.042L398.659 321.591C400.541 324.749 400.248 328.746 397.926 331.596L393.487 337.045C388.676 342.95 380.255 344.419 373.729 340.49L366.634 336.219C363.152 334.123 361.572 329.907 362.818 326.039L363.198 324.859C364.545 320.678 363.486 316.095 360.441 312.929L352.14 304.297ZM354.239 304.316L361.522 311.889C364.95 315.453 366.142 320.612 364.626 325.319L364.246 326.499C363.213 329.704 364.523 333.197 367.407 334.934L374.503 339.205C380.389 342.749 387.985 341.424 392.324 336.097L396.763 330.649C398.687 328.287 398.93 324.975 397.371 322.359L396.448 320.81C393.95 316.618 393.673 311.466 395.706 307.029L399.889 297.9L354.239 304.316Z"/><path fill="#B9C5D9" fill-rule="evenodd" d="M242.259 365.32C229.028 368.619 217.922 369.763 217.451 367.876C216.981 365.989 227.325 361.785 240.555 358.487C253.785 355.188 264.892 354.044 265.362 355.93C265.833 357.817 255.489 362.021 242.259 365.32ZM518.591 328.96C505.124 331.093 493.96 331.265 493.656 329.344C493.351 327.423 504.022 324.137 517.49 322.004C530.957 319.871 542.121 319.699 542.426 321.619C542.73 323.54 532.059 326.827 518.591 328.96ZM377.487 304.324C363.985 306.222 352.819 306.199 352.549 304.273C352.278 302.347 363.005 299.248 376.507 297.35C390.01 295.453 401.175 295.475 401.446 297.401C401.717 299.327 390.99 302.426 377.487 304.324Z" clip-rule="evenodd"/><path fill="#525E72" d="M242.135 365.613C228.107 369.11 217.073 370.247 216.419 367.623C215.764 364.998 226.041 360.822 240.069 357.324C254.097 353.826 265.131 352.689 265.785 355.314C266.44 357.939 256.164 362.115 242.135 365.613ZM241.773 364.157C248.18 362.56 254.092 360.701 258.361 358.966C262.16 357.422 264.406 355.984 264.33 355.677C264.254 355.37 261.594 355.155 257.516 355.575C252.932 356.047 246.839 357.182 240.432 358.779C234.024 360.377 228.112 362.236 223.843 363.971C220.045 365.514 217.798 366.953 217.874 367.26C217.951 367.566 220.61 367.782 224.688 367.362C229.273 366.889 235.365 365.755 241.773 364.157ZM518.404 329.265C504.124 331.527 493.033 331.698 492.61 329.026C492.187 326.355 502.788 323.09 517.068 320.828C531.348 318.566 542.439 318.395 542.862 321.067C543.285 323.739 532.684 327.004 518.404 329.265ZM518.169 327.784C524.692 326.751 530.743 325.415 535.147 324.058C539.066 322.851 541.43 321.614 541.38 321.302C541.331 320.99 538.7 320.543 534.601 320.606C529.993 320.677 523.825 321.277 517.302 322.31C510.78 323.343 504.729 324.679 500.324 326.035C496.406 327.242 494.042 328.48 494.092 328.792C494.141 329.104 496.771 329.55 500.871 329.487C505.479 329.416 511.647 328.817 518.169 327.784ZM377.287 304.632C362.97 306.644 351.878 306.621 351.501 303.943C351.125 301.264 361.781 298.185 376.098 296.173C390.415 294.16 401.507 294.183 401.884 296.862C402.26 299.541 391.604 302.62 377.287 304.632ZM377.078 303.146C383.618 302.227 389.692 300.997 394.119 299.718C398.058 298.58 400.443 297.384 400.399 297.071C400.355 296.758 397.733 296.265 393.632 296.257C389.024 296.248 382.846 296.739 376.307 297.658C369.767 298.577 363.694 299.808 359.266 301.087C355.327 302.225 352.943 303.421 352.986 303.734C353.031 304.047 355.653 304.539 359.753 304.548C364.361 304.557 370.539 304.066 377.078 303.146Z"/><path fill="#B9C5D9" d="M410.636 417.348L375.977 422.219C372.695 422.68 370.409 425.714 370.87 428.995C371.331 432.277 374.365 434.563 377.647 434.102L412.306 429.231C415.588 428.77 417.874 425.736 417.413 422.454C416.952 419.173 413.918 416.886 410.636 417.348Z"/><path fill="#525E72" d="M375.13 422.408L411.824 417.251C415.194 416.778 418.31 419.126 418.783 422.496C419.257 425.866 416.909 428.982 413.539 429.455L376.846 434.612C373.476 435.086 370.36 432.738 369.886 429.368C369.412 425.998 371.76 422.882 375.13 422.408ZM375.339 423.893C372.789 424.252 371.013 426.609 371.371 429.159C371.73 431.709 374.087 433.485 376.637 433.127L413.33 427.97C415.88 427.612 417.656 425.254 417.298 422.704C416.94 420.155 414.582 418.378 412.032 418.737L375.339 423.893Z"/><path fill="#525E72" d="M383.375 600.302C383.014 595.103 388.266 589.765 397.223 585.709C401.827 578.037 403.957 571.871 403.645 567.245C403.61 566.729 404.096 566.334 404.594 566.472C408.073 567.437 411.433 567.69 414.68 567.234C417.919 566.779 420.897 565.639 423.622 563.811C424.05 563.524 424.633 563.743 424.765 564.241C425.845 568.316 429.991 573.609 437.208 580.05C447.328 581.511 454.011 585.401 454.767 590.784C454.904 591.758 454.841 592.746 454.584 593.737C462.884 599.759 473.184 606.776 485.484 614.787C485.751 614.961 485.879 615.285 485.803 615.595C481.927 631.336 462.031 641.635 426.247 646.664C390.463 651.693 368.499 647.277 360.434 633.214C360.275 632.937 360.309 632.59 360.519 632.349C370.281 621.124 378.259 611.558 384.452 603.653C384.175 603.193 383.95 602.718 383.777 602.231C383.511 601.618 383.334 600.979 383.253 600.317L383.375 600.302ZM453.038 594.354C452.958 594.184 452.942 593.986 453.003 593.799C453.317 592.844 453.411 591.907 453.282 590.993C452.642 586.438 446.429 582.856 436.774 581.504C436.628 581.483 436.491 581.42 436.38 581.322C429.392 575.109 425.135 569.886 423.616 565.596C420.933 567.237 418.022 568.279 414.888 568.719C411.742 569.162 408.502 568.979 405.175 568.173C405.168 573.055 402.896 579.215 398.387 586.684C398.308 586.815 398.19 586.919 398.051 586.981C389.213 590.937 384.277 596.068 384.914 600.601C384.967 600.975 385.056 601.342 385.182 601.702C388.032 608.098 403.222 611.718 420.908 609.547C437.248 607.541 450.295 601.057 452.728 594.243L453.038 594.354ZM453.984 595.154C450.972 602.487 437.631 609.005 421.091 611.036C405.038 613.007 390.87 610.361 385.496 604.752C379.381 612.549 371.551 621.94 362.005 632.925C369.891 645.924 391.21 650.073 426.038 645.179C460.867 640.284 480.217 630.418 484.213 615.749C472.231 607.938 462.155 601.073 453.984 595.154Z"/><path fill="#fff" fill-rule="evenodd" d="M367.264 297.208L353.96 193.856C357.318 192.419 360.241 191.643 362.73 191.528C365.219 191.413 369.014 191.812 374.115 192.725L387.468 294.495C387.746 296.613 386.31 298.576 384.207 298.953C381.377 299.459 379.162 299.821 377.563 300.038C376.041 300.244 374.05 300.459 371.592 300.681C369.45 300.875 367.538 299.341 367.264 297.208ZM508.422 324.376L492.969 220.792C492.828 219.844 493.378 218.929 494.282 218.611C497.159 217.596 499.655 217.021 501.77 216.886C504.013 216.743 507.326 217 511.709 217.656C512.578 217.787 513.261 218.47 513.391 219.34L528.582 321.289C528.739 322.342 528.043 323.333 526.999 323.544C523.263 324.298 520.428 324.824 518.495 325.12C516.596 325.412 513.965 325.728 510.602 326.07C509.539 326.178 508.579 325.432 508.422 324.376ZM230.38 357.7L207.573 261.493C207.393 260.731 207.673 259.934 208.292 259.453C210.909 257.418 213.31 256.235 215.495 255.903C217.717 255.565 221.039 255.532 225.463 255.804C226.341 255.857 227.08 256.478 227.285 257.334L250.19 352.922C251.068 356.585 248.888 360.287 245.259 361.297C243.799 361.703 242.576 362.026 241.589 362.267C240.754 362.471 239.774 362.693 238.647 362.932C234.928 363.724 231.257 361.401 230.38 357.7Z" clip-rule="evenodd"/><path fill="#525E72" d="M366.344 297.22L352.968 193.305L353.49 193.082C356.924 191.613 359.931 190.815 362.52 190.695C365.077 190.577 368.92 190.981 374.071 191.903L374.611 191.999L388.036 294.313C388.366 296.829 386.661 299.16 384.163 299.607C381.324 300.115 379.1 300.478 377.489 300.697C375.954 300.905 373.953 301.121 371.483 301.344C368.94 301.574 366.67 299.752 366.344 297.22ZM367.832 297.028C368.055 298.761 369.608 300.008 371.348 299.85C373.797 299.629 375.777 299.415 377.287 299.211C378.873 298.995 381.078 298.635 383.899 298.13C385.608 297.825 386.775 296.23 386.549 294.508L373.267 193.284C368.489 192.448 364.922 192.086 362.589 192.193C360.328 192.298 357.663 192.979 354.601 194.242L367.832 297.028ZM492.052 220.819C491.857 219.515 492.614 218.258 493.857 217.819C496.795 216.783 499.356 216.193 501.547 216.054C503.853 215.907 507.213 216.167 511.644 216.831C512.84 217.01 513.779 217.949 513.957 219.145L529.148 321.094C529.364 322.542 528.407 323.906 526.972 324.195C523.226 324.951 520.38 325.479 518.433 325.778C516.519 326.071 513.877 326.389 510.502 326.732C509.041 326.881 507.721 325.855 507.504 324.402L492.052 220.819ZM510.351 325.24C513.702 324.899 516.321 324.584 518.205 324.295C520.125 324 522.95 323.477 526.675 322.725C527.328 322.593 527.763 321.974 527.664 321.315L512.473 219.366C512.392 218.822 511.966 218.395 511.422 218.314C507.087 217.665 503.821 217.412 501.642 217.551C499.603 217.681 497.173 218.24 494.356 219.234C493.791 219.433 493.447 220.005 493.535 220.597L508.988 324.181C509.086 324.841 509.686 325.308 510.351 325.24ZM229.474 357.789L206.668 261.582C206.42 260.534 206.806 259.438 207.656 258.777C210.366 256.67 212.879 255.431 215.206 255.077C217.492 254.73 220.861 254.696 225.333 254.971C226.54 255.045 227.557 255.899 227.839 257.075L250.744 352.663C251.716 356.719 249.303 360.817 245.284 361.935C243.817 362.343 242.587 362.669 241.592 362.912C240.749 363.118 239.761 363.341 238.628 363.582C234.51 364.458 230.445 361.886 229.474 357.789ZM230.934 357.443C231.717 360.747 234.995 362.821 238.316 362.115C239.435 361.877 240.408 361.657 241.236 361.455C242.214 361.216 243.429 360.894 244.882 360.49C248.123 359.588 250.069 356.284 249.285 353.012L226.38 257.424C226.252 256.89 225.79 256.502 225.241 256.468C220.866 256.199 217.591 256.232 215.432 256.56C213.389 256.871 211.1 257.999 208.576 259.961C208.19 260.261 208.015 260.76 208.127 261.236L230.934 357.443Z"/><path fill="#525E72" d="M364.739 192.382C364.814 192.789 364.544 193.18 364.136 193.255C363.729 193.329 363.338 193.06 363.263 192.652L361.787 184.595C361.712 184.188 361.982 183.797 362.389 183.723C362.797 183.648 363.187 183.918 363.262 184.325L364.739 192.382ZM502.815 217.346C502.897 217.752 502.634 218.147 502.228 218.229C501.822 218.311 501.426 218.048 501.345 217.642L499.727 209.612C499.646 209.206 499.909 208.811 500.315 208.729C500.721 208.647 501.116 208.91 501.198 209.316L502.815 217.346ZM217.287 257.644C217.404 258.041 217.176 258.458 216.779 258.575C216.381 258.692 215.964 258.465 215.848 258.067L213.537 250.209C213.42 249.812 213.647 249.395 214.045 249.278C214.442 249.161 214.859 249.388 214.976 249.786L217.287 257.644Z"/><path fill="#A9DE8A" fill-rule="evenodd" d="M356.001 141.816C368.105 168.886 370.3 183.099 362.587 184.457C354.874 185.815 352.679 171.601 356.001 141.816ZM492.496 167.107C505.07 193.961 507.513 208.134 499.825 209.626C492.136 211.118 489.693 196.945 492.496 167.107ZM203.311 208.269C218.178 233.925 221.847 247.831 214.318 249.988C206.789 252.144 203.12 238.238 203.311 208.269Z" clip-rule="evenodd"/><path fill="#525E72" d="M373.704 192.088C369.601 192.973 366.44 193.468 364.235 193.572C362.026 193.677 358.562 193.495 353.859 193.025L353.71 194.518C358.48 194.994 362.007 195.179 364.306 195.07C366.609 194.961 369.843 194.455 374.02 193.554L373.704 192.088Z"/><path fill="#525E72" d="M493.417 220.119C500.303 221.098 506.546 220.519 512.136 218.376C512.522 218.228 512.716 217.794 512.567 217.407C512.419 217.02 511.985 216.827 511.599 216.975C506.258 219.023 500.271 219.579 493.629 218.634C493.219 218.576 492.839 218.861 492.78 219.271C492.722 219.681 493.007 220.061 493.417 220.119Z"/><path fill="#525E72" d="M225.868 255.131C225.738 255.247 225.238 255.999 225.058 256.228C224.593 256.819 224.018 257.367 223.259 257.882C220.236 259.934 215.263 260.842 207.667 259.967L207.495 261.457C215.422 262.371 220.75 261.397 224.101 259.123C225.599 258.107 227.537 255.646 226.872 256.245L225.868 255.131Z"/><path fill="#B9C5D9" fill-rule="evenodd" d="M376.96 544.103L376.802 543.843C374.74 540.433 373.334 536.668 372.654 532.742L368.045 506.11C368.025 505.99 368.007 505.869 367.993 505.748C367.546 501.986 370.234 498.575 373.996 498.129C377.898 497.666 381.76 499.036 384.489 501.777C385.963 500.916 387.709 500.489 389.539 500.654C389.837 500.68 390.133 500.723 390.427 500.781L393.976 512.842L393.886 513.456C420.125 523.436 434.639 526.878 437.427 523.781C438.865 522.184 432.61 519.377 418.662 515.36L419.427 504.281C441.62 508.354 453.787 511.354 455.927 513.281C461.561 518.354 482.427 528.781 482.427 528.781L471.427 568.781C468.706 566.967 467.63 566.798 468.2 568.275L483.427 574.781C468.188 576.774 455.355 577.274 444.927 576.281C428.273 574.695 389.77 566.09 389.427 565.781C388.867 565.277 385.568 562.16 379.531 556.432C377.233 554.251 376.104 551.11 376.488 547.965L376.96 544.103Z" clip-rule="evenodd"/><path fill="#525E72" d="M376.257 543.989L376.233 543.95C374.123 540.46 372.683 536.607 371.988 532.588L367.379 505.957C367.356 505.823 367.337 505.69 367.321 505.555C366.826 501.382 369.808 497.598 373.981 497.103C377.902 496.638 381.811 497.92 384.687 500.575C386.214 499.805 387.933 499.468 389.679 499.626C390.003 499.655 390.326 499.701 390.646 499.764L391.091 499.852L394.814 512.507L394.788 512.687C420.157 522.306 434.52 525.689 436.943 522.998C437.076 522.85 436.218 522.065 433.58 520.881C430.492 519.496 425.47 517.799 418.527 515.799L417.945 515.632L418.81 503.111L419.635 503.262C442.096 507.384 454.198 510.368 456.502 512.443C458.47 514.215 462.534 516.818 468.082 519.967C469.248 520.628 470.465 521.306 471.723 521.995C474.308 523.409 476.946 524.807 479.496 526.125C480.389 526.587 481.206 527.005 481.932 527.373C482.366 527.594 482.674 527.748 482.835 527.829L483.387 528.105L472.182 568.849L486.317 574.888L483.597 575.244C468.306 577.243 455.419 577.746 444.929 576.747C431.676 575.485 390.079 567.03 388.998 566.057C388.43 565.546 385.138 562.435 379.088 556.695C376.617 554.351 375.404 550.974 375.817 547.593L376.257 543.989ZM389.913 501.162C389.79 501.145 389.668 501.131 389.544 501.12C387.917 500.973 386.321 501.337 384.941 502.144L384.44 502.436L384.031 502.025C381.448 499.432 377.808 498.159 374.158 498.592C370.807 498.99 368.413 502.028 368.81 505.379C368.823 505.487 368.839 505.594 368.857 505.701L373.466 532.333C374.13 536.167 375.503 539.844 377.517 543.173L377.809 543.656L377.306 547.775C376.95 550.684 377.994 553.59 380.12 555.607C386.145 561.323 389.449 564.445 390.002 564.943C390.047 564.983 401.855 567.62 411.283 569.536C425.595 572.445 437.753 574.557 445.071 575.253C454.806 576.18 466.67 575.798 480.66 574.102L467.687 568.56L467.573 568.264C467.114 567.074 467.501 566.073 468.769 566.272C469.305 566.356 470.048 566.702 471.047 567.317L481.614 528.894C481.506 528.839 481.385 528.778 481.253 528.711C480.525 528.341 479.703 527.921 478.807 527.458C476.247 526.134 473.599 524.731 471.003 523.31C469.738 522.618 468.514 521.937 467.341 521.271C461.699 518.069 457.574 515.427 455.498 513.557C453.546 511.8 441.597 508.837 420.19 504.89L419.525 514.526C426.23 516.471 431.115 518.131 434.194 519.513C437.811 521.136 439.361 522.554 438.057 524.002C434.921 527.485 420.451 524.054 393.692 513.876L393.129 513.662L393.283 512.615L389.913 501.162Z"/><path fill="#B9C5D9" fill-rule="evenodd" d="M728 326.704L647.827 179.335C639.471 163.975 621.518 156.543 604.75 161.5C588.294 166.365 577.985 182.665 580.642 199.619L597.385 306.445C599.352 318.994 611.119 327.573 623.669 325.606C628.462 324.855 632.894 322.607 636.333 319.185L665.944 289.712L698.512 336C696.282 331 698.111 328.5 704 328.5C709.889 328.5 717.889 327.901 728 326.704Z" clip-rule="evenodd"/><path fill="#525E72" d="M698.387 336.432L699.685 335.695C697.686 331.212 699.121 329.25 704.488 329.25C710.411 329.25 718.439 328.65 728.577 327.449L729.676 327.319L648.974 178.977C640.449 163.306 622.133 155.723 605.026 160.781C588.209 165.753 577.674 182.41 580.39 199.735L597.132 306.561C599.163 319.519 611.315 328.378 624.273 326.347C629.222 325.571 633.8 323.25 637.35 319.716L666.33 290.871L698.387 336.432ZM704.488 327.75C699.838 327.75 697.391 329.349 697.337 332.334L666.533 288.553L636.292 318.653C632.966 321.964 628.678 324.138 624.041 324.865C611.901 326.768 600.517 318.469 598.614 306.328L581.871 199.503C579.273 182.921 589.355 166.978 605.451 162.219C621.88 157.362 639.469 164.645 647.657 179.694L727.299 326.088C717.734 327.197 710.128 327.75 704.488 327.75Z"/><path fill="#fff" fill-rule="evenodd" d="M498 521.5L476.774 511.761C472.758 509.919 468.009 511.68 466.166 515.696C465.134 517.946 465.201 520.547 466.349 522.74L472.5 534.5L460.232 539.408C456.129 541.048 454.134 545.704 455.775 549.807C456.438 551.464 457.637 552.852 459.18 553.75L472.5 561.5L466.8 568.409C463.988 571.817 464.472 576.859 467.88 579.671C469.313 580.854 471.113 581.5 472.971 581.5H498V521.5Z" clip-rule="evenodd"/><path fill="#525E72" d="M1037.8 944.713L1039.18 945.286L1210.89 529.793L1193 513.938L1192 515.061L1209.09 530.207L1037.8 944.713Z"/><path fill="#525E72" d="M1209.28 530.243L1210.7 529.757L1140.64 325.093L1118.02 302.47L1116.96 303.53L1139.34 325.907L1209.28 530.243Z"/><path fill="#A9DE8A" d="M1002.81 482.652L1001.01 491.903L992.487 490.247L991.138 497.185L980.183 495.055L981.532 488.117L951.467 482.273L953.265 473.022L988.465 452.453L999.42 454.582L994.285 480.996L1002.81 482.652ZM965.072 475.317L983.33 478.866L986.335 463.408L965.072 475.317ZM1027.35 504.856C1010.43 501.567 1003.92 492.215 1006.67 478.035C1009.42 463.915 1018.95 457.747 1035.87 461.036C1052.73 464.313 1059.31 473.677 1056.58 487.736C1053.83 501.855 1044.21 508.133 1027.35 504.856ZM1029.14 495.666C1038.76 497.535 1044.07 493.579 1045.62 485.606C1047.16 477.694 1043.7 472.095 1034.09 470.226C1024.47 468.357 1019.18 472.191 1017.63 480.164C1016.07 488.198 1019.52 493.797 1029.14 495.666ZM1108.7 503.236L1106.91 512.487L1098.39 510.831L1097.04 517.769L1086.08 515.64L1087.43 508.702L1057.36 502.858L1059.16 493.607L1094.36 473.037L1105.32 475.167L1100.18 501.58L1108.7 503.236ZM1070.97 495.902L1089.23 499.451L1092.23 483.992L1070.97 495.902Z"/><path fill="#525E72" d="M1003.88 482.362L1001.8 493.085L993.276 491.429L991.927 498.367L979.5 495.952L980.848 489.013L950.783 483.169L952.789 472.849L988.526 451.966L1000.49 454.292L995.36 480.706L1003.88 482.362ZM993.602 481.892L998.736 455.478L988.795 453.546L954.132 473.802L952.542 481.983L982.607 487.827L981.258 494.765L990.741 496.609L992.09 489.67L1000.61 491.327L1002.12 483.548L993.602 481.892ZM963.116 475.966L987.576 462.266L984.119 480.049L963.116 475.966ZM982.933 478.29L985.486 465.156L967.42 475.275L982.933 478.29ZM1027.41 505.895C1010.4 502.589 1003.24 493.071 1006.13 478.195C1009.01 463.387 1019.19 457.295 1036.21 460.603C1053.16 463.898 1060.38 473.432 1057.51 488.182C1054.63 502.999 1044.35 509.189 1027.41 505.895ZM1027.69 504.423C1043.86 507.565 1053.32 501.864 1056.04 487.896C1058.74 473.997 1052.1 465.219 1035.92 462.076C1019.69 458.919 1010.32 464.524 1007.6 478.481C1004.88 492.508 1011.46 501.268 1027.69 504.423ZM1029.19 496.705C1019.48 494.817 1015.39 489.057 1017.09 480.324C1018.77 471.66 1024.7 467.903 1034.42 469.793C1044.12 471.678 1048.23 477.426 1046.55 486.052C1044.86 494.747 1038.89 498.59 1029.19 496.705ZM1029.48 495.233C1038.37 496.962 1043.55 493.632 1045.08 485.766C1046.6 477.971 1043.04 472.996 1034.14 471.265C1025.21 469.53 1020.08 472.779 1018.56 480.611C1017.02 488.514 1020.56 493.499 1029.48 495.233ZM1109.78 502.947L1107.69 513.67L1099.17 512.014L1097.83 518.952L1085.4 516.536L1086.75 509.598L1056.68 503.754L1058.69 493.434L1094.42 472.55L1106.39 474.877L1101.26 501.29L1109.78 502.947ZM1099.5 502.477L1104.63 476.063L1094.69 474.13L1060.03 494.386L1058.44 502.568L1088.5 508.412L1087.16 515.35L1096.64 517.193L1097.99 510.255L1106.51 511.911L1108.02 504.133L1099.5 502.477ZM1069.01 496.551L1093.47 482.85L1090.02 500.633L1069.01 496.551ZM1088.83 498.875L1091.38 485.74L1073.32 495.859L1088.83 498.875Z"/><path fill="#525E72" d="M459.953 538.211C455.466 540.006 453.284 545.098 455.078 549.585C455.804 551.398 457.114 552.916 458.802 553.898L471.359 561.204L466.221 567.432C463.146 571.159 463.675 576.674 467.403 579.749C468.97 581.043 470.939 581.75 472.971 581.75H498.75V520.519L477.086 510.579C472.694 508.564 467.5 510.491 465.484 514.883C464.355 517.344 464.429 520.189 465.684 522.588L471.45 533.612L459.953 538.211ZM497.25 521.481V580.25H472.971C471.287 580.25 469.656 579.664 468.357 578.592C465.268 576.044 464.83 571.475 467.378 568.386L473.64 560.796L459.557 552.602C458.158 551.788 457.072 550.53 456.471 549.028C454.984 545.31 456.792 541.091 460.51 539.604L473.549 534.388L467.013 521.892C465.973 519.905 465.912 517.547 466.848 515.509C468.517 511.869 472.821 510.273 476.461 511.942L497.25 521.481Z"/><path fill="#fff" fill-rule="evenodd" d="M728.604 327.43C726.781 323.558 725.615 321.224 725.104 320.43C723.244 317.536 719.39 316.699 716.496 318.559C715.873 318.96 715.326 319.468 714.881 320.061L714.604 320.43L712.435 319.346C709.122 317.689 705.093 318.805 703.104 321.93L701.043 321.455C698.226 320.805 695.277 321.725 693.33 323.863C692.453 324.825 692.045 325.348 692.104 325.43C692.215 325.583 693.048 327.083 694.604 329.93L728.604 327.43Z" clip-rule="evenodd"/><path fill="#525E72" d="M712.723 318.566C709.228 316.819 705.01 317.867 702.727 320.976L701.165 320.615C698.083 319.904 694.858 320.911 692.729 323.249C691.02 325.124 691.004 325.145 691.449 325.761C691.529 325.872 692.405 327.449 693.899 330.182C694.04 330.44 694.319 330.591 694.612 330.57L728.612 328.07C729.137 328.031 729.46 327.478 729.236 327.002C727.395 323.093 726.224 320.75 725.688 319.916C723.604 316.674 719.285 315.735 716.043 317.82C715.391 318.239 714.814 318.763 714.334 319.372L712.723 318.566ZM694.984 329.038C693.934 327.121 693.267 325.912 692.923 325.313C693.115 325.07 693.421 324.717 693.837 324.259C695.602 322.322 698.274 321.488 700.827 322.077L702.888 322.553C703.198 322.624 703.519 322.493 703.69 322.224C705.472 319.424 709.083 318.423 712.053 319.908L714.222 320.993C714.546 321.155 714.94 321.062 715.157 320.772L715.434 320.403C715.825 319.881 716.306 319.434 716.854 319.081C719.4 317.445 722.79 318.182 724.426 320.727C724.868 321.414 725.872 323.405 727.412 326.654L694.984 329.038Z"/><path fill="#fff" fill-rule="evenodd" d="M1080.92 215.026L1032 207L1036 183L1086.29 191.382L1095 153L1123.5 157.5L1114.74 196.123L1165 204.5L1160 228L1109.39 219.697L1091.51 298.5L1063 294L1080.92 215.026Z" clip-rule="evenodd"/><path fill="#525E72" d="M1032.37 207.74C1031.96 207.673 1031.68 207.286 1031.75 206.877L1035.75 182.877C1035.82 182.468 1036.2 182.192 1036.61 182.26L1086.2 190.525L1094.76 152.834C1094.84 152.449 1095.22 152.198 1095.61 152.259L1124.11 156.759C1124.53 156.827 1124.82 157.243 1124.72 157.666L1116.13 195.514L1165.61 203.76C1166.03 203.831 1166.31 204.238 1166.22 204.656L1161.22 228.156C1161.14 228.548 1160.76 228.805 1160.37 228.74L1110.45 220.551L1092.73 298.666C1092.64 299.051 1092.27 299.302 1091.88 299.241L1063.37 294.741C1062.94 294.673 1062.66 294.257 1062.76 293.834L1080.5 215.638L1032.37 207.74ZM1081.53 214.286C1081.96 214.356 1082.24 214.771 1082.14 215.193L1064.4 293.384L1091.42 297.65L1109.15 219.531C1109.23 219.144 1109.61 218.893 1110 218.957L1159.9 227.144L1164.59 205.111L1115.1 196.863C1114.68 196.792 1114.4 196.378 1114.49 195.957L1123.08 158.116L1096.06 153.85L1087.51 191.548C1087.42 191.935 1087.05 192.187 1086.65 192.121L1037.1 183.863L1033.35 206.382L1081.53 214.286Z"/><path fill="#525E72" d="M1113.19 226.12L1109.84 220.378L1111.14 219.622L1114.46 225.312L1162.11 232.532L1159.83 228.359C1159.63 227.996 1159.77 227.54 1160.13 227.342C1160.49 227.143 1160.95 227.277 1161.15 227.641L1163.14 231.302L1166.72 212.522L1164.76 204.682L1166.22 204.318L1168.26 212.478L1164.23 233.595C1164.18 233.985 1163.82 234.309 1163.38 234.242L1114.56 226.845L1097.72 299.17C1097.62 299.574 1097.22 299.824 1096.82 299.73C1096.41 299.637 1096.16 299.233 1096.26 298.83L1113.19 226.12ZM1119.25 196.844L1125.72 166.524L1123.27 157.701L1124.71 157.299L1127.26 166.477L1120.72 197.156L1119.25 196.844ZM1033.11 206.584L1036.93 212.312L1080.12 219.26L1079.88 220.741L1036.05 213.689L1031.86 207.416L1033.11 206.584Z"/><path fill="#fff" fill-rule="evenodd" d="M685.673 340.003C689.218 332.092 697.08 327 705.749 327H728L757.511 520H719L715.202 512.393C713.098 508.177 711.893 503.57 711.663 498.864L708.5 434L665.174 577.34C660.122 594.054 644.075 604.961 626.675 603.506L525.625 595.061C501.389 593.036 482.58 573.063 482.011 548.75C482.005 548.477 482.001 548.203 482 547.93C481.912 524.771 500.614 505.925 523.773 505.836L611.511 505.5L685.673 340.003Z" clip-rule="evenodd"/><path fill="#525E72" d="M749.372 520.75C749.341 520.752 749.31 520.752 749.279 520.75H733.372C733.341 520.752 733.31 520.752 733.279 520.75H719.488C719.204 520.75 718.944 520.589 718.817 520.335L715.02 512.728C712.869 508.419 711.637 503.71 711.403 498.9L708.451 438.371L666.38 577.557C661.226 594.609 644.853 605.737 627.101 604.254L526.051 595.809C501.433 593.751 482.328 573.464 481.75 548.768C481.744 548.489 481.738 548.211 481.738 547.933C481.648 524.36 500.685 505.176 524.258 505.086L611.513 504.752L685.477 339.697C689.143 331.515 697.272 326.25 706.238 326.25H728.488C728.859 326.25 729.174 326.52 729.23 326.887L758.741 519.887C758.811 520.341 758.459 520.75 758 520.75H749.372ZM731.878 519.25C727.004 512.258 725.869 507.781 728.936 505.864C730.788 504.707 732.264 505.752 733.052 508.412C733.712 510.639 734.051 514.242 734.081 519.25H747.878C743.004 512.258 741.869 507.781 744.936 505.864C746.788 504.707 748.264 505.752 749.052 508.412C749.712 510.639 750.051 514.242 750.081 519.25H757.126L727.844 327.75H706.238C697.864 327.75 690.27 332.668 686.846 340.31L612.684 505.807C612.564 506.075 612.297 506.249 612.003 506.25L524.264 506.586C501.519 506.673 483.152 525.182 483.238 547.927C483.238 548.196 483.243 548.464 483.25 548.732C483.809 572.663 502.322 592.32 526.175 594.314L627.226 602.759C644.273 604.184 659.995 593.498 664.945 577.123L708.27 433.783C708.514 432.977 709.696 433.122 709.737 433.963L712.901 498.827C713.125 503.429 714.304 507.935 716.362 512.058L719.952 519.25H731.878ZM720.159 519.665L719.952 519.25H719.488L720.159 519.665ZM731.614 508.838C731.069 506.998 730.545 506.627 729.731 507.136C727.84 508.318 728.649 511.789 732.558 517.59C732.47 513.579 732.153 510.655 731.614 508.838ZM747.614 508.838C747.069 506.998 746.545 506.627 745.731 507.136C743.84 508.318 744.649 511.789 748.558 517.59C748.47 513.579 748.153 510.655 747.614 508.838Z"/><path fill="#fff" fill-rule="evenodd" d="M605 240C606.367 229.002 608.273 221.059 610.719 216.17C613.166 211.282 617.932 205.892 625.018 200C627.383 207.056 625.477 215.85 619.298 226.383C616.812 230.622 612.046 235.161 605 240Z" clip-rule="evenodd"/><path fill="#B9C5D9" fill-rule="evenodd" d="M589.899 217C588.347 234.578 586.795 252.156 585.243 269.734C585.096 271.394 585.968 272.977 587.45 273.739C588.885 274.478 590.64 274.133 591.689 272.906L598.88 264.493C604.766 264.315 608.44 263.615 609.903 262.391C611.366 261.168 611.366 258.646 609.903 254.826" clip-rule="evenodd"/><path fill="#525E72" d="M610.873 262.967C612.657 261.474 612.657 258.646 611.092 254.558C610.944 254.171 610.51 253.978 610.123 254.126C609.736 254.274 609.543 254.708 609.691 255.094C611.051 258.646 611.051 260.862 609.91 261.816C608.624 262.892 605.062 263.571 599.346 263.743C599.135 263.749 598.936 263.845 598.799 264.005L591.607 272.419C590.784 273.381 589.407 273.652 588.281 273.072C587.071 272.449 586.358 271.156 586.478 269.8L591.135 217.066C591.171 216.653 590.866 216.289 590.453 216.253C590.041 216.217 589.677 216.521 589.64 216.934L584.984 269.668C584.81 271.631 585.842 273.504 587.595 274.406C589.339 275.304 591.473 274.885 592.748 273.393L599.724 265.232C605.585 265.033 609.263 264.313 610.873 262.967Z"/><path fill="#fff" fill-rule="evenodd" d="M596 283L605.012 280.5L605 291C600.333 285.667 597.333 283 596 283ZM614 278L623 275V286C618.333 280.667 615.333 278 614 278Z" clip-rule="evenodd"/><path fill="#fff" fill-rule="evenodd" stroke="#525E72" stroke-linecap="round" stroke-linejoin="round" stroke-width="1.5" d="M596.488 283L605.5 280.5L605.488 291C600.822 285.667 597.822 283 596.488 283ZM614.488 278L623.488 275V286C618.822 280.667 615.822 278 614.488 278Z" clip-rule="evenodd"/><path fill="#525E72" d="M605.913 240.618C605.38 240.984 604.664 240.549 604.744 239.907C606.12 228.832 608.044 220.816 610.537 215.835C613.037 210.839 617.868 205.375 625.027 199.423C625.432 199.086 626.05 199.262 626.217 199.762C628.663 207.058 626.711 216.061 620.434 226.762C617.882 231.112 613.042 235.722 605.913 240.618ZM619.14 226.003C624.905 216.175 626.877 207.945 625.116 201.308C618.582 206.853 614.171 211.925 611.879 216.506C609.603 221.052 607.787 228.362 606.449 238.413C612.653 233.995 616.883 229.851 619.14 226.003ZM617.488 218C618.593 218 619.488 218.895 619.488 220C619.488 221.105 618.593 222 617.488 222C616.384 222 615.488 221.105 615.488 220C615.488 218.895 616.384 218 617.488 218ZM617.488 219.5C617.212 219.5 616.988 219.724 616.988 220C616.988 220.276 617.212 220.5 617.488 220.5C617.765 220.5 617.988 220.276 617.988 220C617.988 219.724 617.765 219.5 617.488 219.5ZM596.706 283.718C596.309 283.838 595.891 283.614 595.771 283.217C595.651 282.821 595.875 282.402 596.271 282.282L627.015 272.98C627.411 272.86 627.83 273.084 627.95 273.481C628.07 273.877 627.846 274.296 627.449 274.416L596.706 283.718ZM621.906 190.527C622.168 190.206 622.64 190.157 622.961 190.418C623.283 190.679 623.332 191.151 623.071 191.473L610.071 207.473C609.809 207.794 609.337 207.843 609.016 207.582C608.694 207.321 608.645 206.848 608.906 206.527L621.906 190.527ZM607.909 243.121C607.566 243.353 607.1 243.264 606.868 242.921C606.635 242.578 606.725 242.111 607.068 241.879C617.273 234.966 623.664 227.427 626.274 219.271C626.4 218.877 626.823 218.659 627.217 218.786C627.612 218.912 627.829 219.334 627.703 219.729C624.979 228.239 618.371 236.034 607.909 243.121ZM652.083 224.869C660.64 219.368 656.522 204.374 639.238 179.848V199C639.238 199.414 638.903 199.75 638.488 199.75C638.074 199.75 637.738 199.414 637.738 199V177.5C637.738 176.771 638.673 176.471 639.098 177.063C658.009 203.403 662.783 219.773 652.894 226.131C652.546 226.355 652.082 226.254 651.858 225.906C651.634 225.557 651.734 225.093 652.083 224.869Z"/><path fill="#B9C5D9" fill-rule="evenodd" d="M1050.75 369.123L1071.42 373.713C1079.34 375.47 1084.33 383.311 1082.57 391.225C1082.55 391.307 1082.53 391.388 1082.52 391.469L1080.28 400.797C1079.48 404.095 1077.31 406.891 1074.3 408.465C1076.28 411.123 1076.98 414.524 1076.21 417.747L1074.87 423.33C1073.45 429.252 1067.54 432.942 1061.59 431.621L1034.23 425.544C1028.13 424.19 1024.29 418.151 1025.64 412.055C1025.65 411.992 1025.67 411.93 1025.68 411.867L1026.97 406.495C1027.85 402.862 1030.47 399.899 1033.97 398.589C1031.44 395.715 1030.47 391.789 1031.36 388.068L1033.31 380.002C1035.19 372.228 1042.95 367.389 1050.75 369.123Z" clip-rule="evenodd"/><path fill="#fff" fill-rule="evenodd" d="M1044.5 404C1042.01 404 1040 401.761 1040 399C1040 396.239 1042.01 394 1044.5 394C1046.99 394 1049.5 395.739 1049.5 398.5C1049.5 401.261 1046.99 404 1044.5 404ZM1064.5 407C1062.01 407 1060 404.761 1060 402C1060 399.239 1062.01 397 1064.5 397C1066.99 397 1070 398.239 1070 401C1070 403.761 1066.99 407 1064.5 407Z" clip-rule="evenodd"/><path fill="#525E72" d="M1050.75 369.123L1071.42 373.713C1079.34 375.47 1084.33 383.311 1082.57 391.225C1082.55 391.307 1082.53 391.388 1082.52 391.469L1080.28 400.797C1079.48 404.095 1077.31 406.891 1074.3 408.465C1076.28 411.123 1076.98 414.524 1076.21 417.747L1074.87 423.33C1073.45 429.252 1067.54 432.942 1061.59 431.621L1034.23 425.544C1028.13 424.19 1024.29 418.151 1025.64 412.055C1025.65 411.992 1025.67 411.93 1025.68 411.867L1026.97 406.495C1027.85 402.862 1030.47 399.899 1033.97 398.589C1031.44 395.715 1030.47 391.789 1031.36 388.068L1033.31 380.002C1035.19 372.228 1042.95 367.389 1050.75 369.123ZM1050.43 370.587C1043.42 369.031 1036.46 373.375 1034.77 380.354L1032.82 388.42C1032.04 391.666 1032.89 395.091 1035.09 397.599L1036.53 399.232L1034.49 399.994C1031.46 401.129 1029.19 403.697 1028.43 406.845L1027.14 412.218C1027.13 412.272 1027.12 412.326 1027.11 412.38C1025.93 417.668 1029.27 422.906 1034.55 424.08L1061.92 430.157C1067.07 431.3 1072.18 428.106 1073.41 422.98L1074.75 417.397C1075.42 414.607 1074.81 411.663 1073.1 409.362L1072.05 407.953L1073.61 407.137C1076.23 405.763 1078.13 403.324 1078.82 400.447L1081.06 391.119C1081.07 391.046 1081.09 390.973 1081.11 390.9C1082.69 383.794 1078.2 376.755 1071.1 375.177L1050.43 370.587ZM1043.66 404.878C1040.42 404.183 1038.4 400.715 1039.16 397.133C1039.91 393.551 1041.79 392.507 1045.03 393.203C1048.27 393.898 1051.65 396.069 1050.89 399.651C1050.14 403.233 1046.9 405.573 1043.66 404.878ZM1049.43 399.342C1049.88 397.177 1047.93 395.36 1044.71 394.669C1042.19 394.128 1041.19 394.769 1040.63 397.442C1040.04 400.247 1041.58 402.897 1043.97 403.411C1046.37 403.925 1048.84 402.142 1049.43 399.342ZM1063.6 407.883C1060.4 407.218 1058.41 403.9 1059.16 400.471C1059.9 397.043 1064.29 396.596 1067.49 397.261C1070.69 397.927 1071.49 399.452 1070.74 402.881C1070 406.309 1066.8 408.549 1063.6 407.883ZM1063.91 406.415C1066.28 406.907 1068.7 405.208 1069.28 402.562C1069.86 399.87 1069.49 399.209 1067.18 398.73C1063.86 398.039 1061.04 398.849 1060.62 400.79C1060.05 403.426 1061.55 405.924 1063.91 406.415Z"/><path fill="#525E72" d="M1059.58 418.593L1060.27 415.818C1060.37 415.416 1060.78 415.172 1061.18 415.273C1061.58 415.373 1061.83 415.78 1061.73 416.182L1061.04 418.916L1067.17 420.268C1067.58 420.357 1067.83 420.757 1067.74 421.162C1067.65 421.566 1067.25 421.822 1066.85 421.733L1060.68 420.372L1059.73 424.182C1059.63 424.584 1059.22 424.828 1058.82 424.728C1058.42 424.627 1058.17 424.22 1058.27 423.818L1059.21 420.048L1051.44 418.333L1050.73 421.182C1050.63 421.584 1050.22 421.828 1049.82 421.728C1049.42 421.627 1049.17 421.22 1049.27 420.818L1049.97 418.01L1041.49 416.138L1040.73 419.182C1040.63 419.584 1040.22 419.828 1039.82 419.728C1039.42 419.627 1039.17 419.22 1039.27 418.818L1040.02 415.815L1032.85 414.233C1032.45 414.143 1032.19 413.743 1032.28 413.339C1032.37 412.934 1032.77 412.679 1033.17 412.768L1040.39 414.359L1041.27 410.818C1041.37 410.416 1041.78 410.172 1042.18 410.273C1042.58 410.373 1042.83 410.78 1042.73 411.182L1041.85 414.682L1050.34 416.554L1051.27 412.818C1051.37 412.416 1051.78 412.172 1052.18 412.273C1052.58 412.373 1052.83 412.78 1052.73 413.182L1051.8 416.877L1059.58 418.593Z"/><path fill="#525E72" d="M765.126 769.737L794.637 764.237L794.363 762.763L764.851 768.263L765.126 769.737Z"/><path fill="#525E72" d="M376.486 544.546C376.184 544.262 376.17 543.788 376.454 543.486C376.738 543.185 377.212 543.17 377.514 543.454L386.014 551.454C386.316 551.738 386.33 552.213 386.046 552.514C385.762 552.816 385.288 552.83 384.986 552.546L376.486 544.546ZM383.802 501.725C383.954 501.34 384.39 501.151 384.775 501.302C385.16 501.454 385.35 501.89 385.198 502.275L380.025 515.407C379.222 517.445 379.093 519.688 379.657 521.805L379.725 522.057C380.321 524.293 381.721 526.231 383.657 527.5L394.911 534.873C395.257 535.1 395.354 535.565 395.127 535.911C394.9 536.258 394.435 536.355 394.089 536.128L382.835 528.754C380.59 527.284 378.967 525.037 378.275 522.443L378.208 522.191C377.561 519.764 377.708 517.194 378.629 514.857L383.802 501.725Z"/><path fill="#fff" fill-rule="evenodd" d="M766.173 836.055C766.62 835.829 767.09 835.651 767.574 835.525C771.316 834.552 775.138 836.796 776.111 840.538L782.149 863.761C783.081 867.346 781.059 871.036 777.536 872.18L772.861 873.698C769.528 874.78 765.908 873.231 764.39 870.073L754.559 849.621C752.909 846.187 754.307 842.064 757.705 840.343L766.173 836.055ZM765.161 845.916C761.738 847.613 760.332 851.759 762.017 855.188L765.448 862.173C766.685 864.69 769.577 865.926 772.251 865.079C774.853 864.255 776.347 861.53 775.643 858.893L773.139 849.524C772.332 846.506 769.231 844.713 766.213 845.519C765.85 845.616 765.498 845.749 765.161 845.916Z" clip-rule="evenodd"/><path fill="#525E72" d="M767.385 834.799C771.528 833.722 775.759 836.207 776.836 840.35L782.874 863.572C783.906 867.541 781.667 871.627 777.767 872.894L773.092 874.411C769.402 875.61 765.395 873.894 763.714 870.398L753.883 849.946C752.056 846.145 753.604 841.58 757.366 839.674L765.834 835.386C766.329 835.135 766.849 834.939 767.385 834.799ZM758.044 841.013C755.01 842.549 753.761 846.23 755.235 849.296L765.066 869.748C766.421 872.568 769.653 873.951 772.629 872.985L777.304 871.467C780.449 870.446 782.255 867.15 781.423 863.95L775.384 840.727C774.516 837.386 771.103 835.382 767.763 836.251C767.33 836.363 766.911 836.522 766.512 836.724L758.044 841.013ZM764.828 845.244C765.209 845.055 765.608 844.905 766.019 844.795C769.437 843.881 772.949 845.912 773.863 849.33L776.367 858.7C777.175 861.724 775.462 864.849 772.477 865.794C769.449 866.753 766.175 865.354 764.775 862.504L761.343 855.519C759.476 851.719 761.034 847.124 764.828 845.244ZM765.494 846.588C762.441 848.101 761.187 851.799 762.689 854.858L766.121 861.842C767.195 864.027 769.704 865.099 772.024 864.364C774.244 863.661 775.519 861.337 774.918 859.087L772.414 849.718C771.714 847.1 769.024 845.544 766.406 846.244C766.092 846.328 765.786 846.443 765.494 846.588Z"/></svg>