<svg xmlns="http://www.w3.org/2000/svg" width="1440" height="1024" fill="none" viewBox="0 0 1440 1024"><rect width="1440" height="1024" fill="#fff"/><path fill="#F6F0FF" fill-rule="evenodd" d="M894.245 196.092C894.617 194.855 895.752 194.006 897.044 194C897.051 194 897.059 194 897.066 194C898.24 194.006 899.187 194.962 899.181 196.137C899.179 196.564 899.178 196.813 899.178 196.884C899.178 196.889 899.178 196.894 899.178 196.9C899.178 198.292 898.063 199.428 896.671 199.455L896.295 199.462C896.18 199.464 896.065 199.458 895.951 199.442C894.719 199.276 893.855 198.143 894.021 196.911C894.033 196.823 894.107 196.55 894.245 196.092ZM904.245 244.092C904.617 242.855 905.752 242.006 907.044 242C907.051 242 907.059 242 907.066 242C908.24 242.006 909.187 242.962 909.181 244.137C909.179 244.564 909.178 244.813 909.178 244.884C909.178 244.889 909.178 244.894 909.178 244.9C909.178 246.292 908.063 247.428 906.671 247.455L906.295 247.462C906.18 247.464 906.065 247.458 905.951 247.442C904.719 247.276 903.855 246.143 904.021 244.911C904.033 244.823 904.107 244.55 904.245 244.092ZM607.326 209.125C607.51 209.545 607.612 209.797 607.634 209.881C607.948 211.096 607.217 212.335 606.002 212.649C605.896 212.676 605.789 212.696 605.68 212.708L605.255 212.754C603.863 212.906 602.609 211.908 602.444 210.518C602.436 210.449 602.407 210.21 602.356 209.801C602.21 208.607 603.059 207.52 604.253 207.374C605.552 207.214 606.801 207.926 607.326 209.125ZM604.143 252.469C604.353 252.949 604.47 253.237 604.495 253.333C604.853 254.721 604.018 256.138 602.63 256.496C602.509 256.527 602.386 256.55 602.262 256.563L601.775 256.616C600.185 256.79 598.752 255.65 598.563 254.061C598.554 253.982 598.52 253.708 598.463 253.241C598.296 251.877 599.266 250.635 600.631 250.467C602.115 250.285 603.543 251.099 604.143 252.469ZM706.336 106.241C706.98 104.083 708.964 102.604 711.216 102.604C713.287 102.604 714.965 104.283 714.965 106.354C714.966 107.067 714.966 107.484 714.966 107.604C714.976 110.017 713.04 111.988 710.627 112.021L709.904 112.031C709.716 112.033 709.528 112.022 709.341 111.998C707.196 111.717 705.685 109.75 705.966 107.604C705.986 107.456 706.109 107.002 706.336 106.241Z" clip-rule="evenodd"/><path fill="#fff" fill-rule="evenodd" d="M657 494C659.311 512.058 661.145 522.391 662.5 525C664.533 528.913 675 532.5 677 532.5C678.333 532.5 727.667 536.667 825 545C832.333 545 838.667 542.833 844 538.5C846.151 536.753 845.933 534.253 847 530.5C848.052 526.797 849.052 518.964 850 507L825 494H657Z" clip-rule="evenodd"/><path fill="#67577F" d="M604.552 206.91C602.947 207.107 601.806 208.568 602.003 210.173C602.053 210.58 602.082 210.82 602.09 210.888C602.304 212.686 603.926 213.977 605.727 213.781L606.152 213.734C606.296 213.719 606.44 213.692 606.58 213.656C608.196 213.239 609.168 211.59 608.751 209.974C608.714 209.833 608.61 209.576 608.404 209.106C607.746 207.603 606.18 206.71 604.552 206.91ZM607.029 209.707C607.191 210.076 607.292 210.323 607.298 210.349C607.509 211.163 607.019 211.994 606.205 212.204C606.134 212.222 606.062 212.235 605.989 212.243L605.564 212.29C604.581 212.397 603.696 211.692 603.579 210.711C603.571 210.64 603.542 210.401 603.491 209.991C603.395 209.208 603.952 208.495 604.735 208.399C605.705 208.28 606.638 208.812 607.029 209.707ZM600.93 250.004C599.154 250.222 597.891 251.838 598.109 253.614C598.166 254.079 598.2 254.352 598.209 254.43C598.446 256.427 600.248 257.861 602.247 257.643L602.734 257.59C602.894 257.572 603.052 257.544 603.208 257.503C604.997 257.041 606.074 255.216 605.611 253.426C605.572 253.273 605.453 252.98 605.22 252.449C604.488 250.775 602.743 249.781 600.93 250.004ZM603.846 253.051C604.034 253.48 604.149 253.762 604.159 253.801C604.414 254.789 603.82 255.796 602.833 256.051C602.747 256.073 602.659 256.089 602.571 256.099L602.085 256.152C600.903 256.28 599.839 255.433 599.698 254.253C599.689 254.173 599.656 253.899 599.598 253.431C599.481 252.477 600.159 251.61 601.113 251.493C602.268 251.351 603.379 251.984 603.846 253.051ZM897.064 192.881C895.443 192.89 894.017 193.956 893.551 195.508C893.397 196.019 893.321 196.296 893.301 196.442C893.08 198.085 894.232 199.596 895.875 199.817C896.027 199.838 896.18 199.847 896.333 199.844L896.709 199.837C898.51 199.802 899.952 198.333 899.952 196.531L899.952 196.517C899.952 196.447 899.953 196.198 899.955 195.772C899.963 194.184 898.682 192.889 897.094 192.881C897.079 192.881 897.079 192.881 897.064 192.881ZM894.788 196.643C894.792 196.613 894.866 196.344 894.987 195.94C895.264 195.019 896.11 194.386 897.072 194.381C897.079 194.381 897.079 194.381 897.086 194.381C897.846 194.385 898.459 195.004 898.455 195.765C898.453 196.193 898.452 196.442 898.452 196.515L898.452 196.531C898.452 197.515 897.664 198.318 896.68 198.337L896.304 198.344C896.228 198.345 896.151 198.341 896.075 198.331C895.254 198.22 894.677 197.464 894.788 196.643ZM907.064 240.881C905.443 240.89 904.017 241.956 903.551 243.508C903.397 244.02 903.321 244.296 903.301 244.442C903.08 246.085 904.232 247.596 905.875 247.817C906.027 247.838 906.18 247.847 906.333 247.844L906.709 247.837C908.51 247.802 909.952 246.333 909.952 244.531L909.952 244.517C909.952 244.447 909.953 244.198 909.955 243.772C909.963 242.184 908.682 240.889 907.094 240.881C907.079 240.881 907.079 240.881 907.064 240.881ZM904.788 244.643C904.792 244.613 904.866 244.344 904.987 243.94C905.264 243.019 906.11 242.386 907.072 242.381C907.079 242.381 907.079 242.381 907.086 242.381C907.846 242.385 908.459 243.004 908.455 243.765C908.453 244.193 908.452 244.442 908.452 244.515L908.452 244.531C908.452 245.515 907.664 246.318 906.68 246.337L906.304 246.344C906.228 246.345 906.151 246.341 906.075 246.331C905.254 246.22 904.677 245.464 904.788 244.643ZM705.187 107.703C704.852 110.259 706.652 112.603 709.208 112.938C709.43 112.967 709.655 112.98 709.879 112.977L710.601 112.967C713.426 112.928 715.691 110.622 715.68 107.798C715.68 107.679 715.68 107.262 715.68 106.55C715.679 104.065 713.665 102.051 711.18 102.051C708.597 102.051 706.32 103.748 705.581 106.223C705.338 107.037 705.214 107.496 705.187 107.703ZM711.18 103.551C712.837 103.551 714.18 104.894 714.18 106.55C714.18 107.265 714.18 107.682 714.18 107.804C714.188 109.805 712.582 111.44 710.581 111.467L709.858 111.477C709.706 111.479 709.554 111.47 709.403 111.451C707.668 111.223 706.447 109.633 706.674 107.898C706.686 107.809 706.808 107.359 707.019 106.652C707.568 104.812 709.26 103.551 711.18 103.551Z"/><path fill="#67577F" d="M661.178 241.238L654.846 254.499L604.7 252.996L604.655 254.495L655.778 256.028L662.859 241.198L692.632 240.491L692.597 238.992L661.99 239.719L656.791 219.283L607.602 210.166L607.329 211.641L655.574 220.583L660.831 241.247L661.178 241.238Z"/><path fill="#67577F" fill-rule="evenodd" d="M769.5 305.5L842 291.5L809.5 379H781.5L769.5 305.5Z" clip-rule="evenodd"/><path fill="#fff" fill-rule="evenodd" d="M679 394.5L563.192 366.985C547.21 363.188 530.367 366.599 517.123 376.315L436.674 435.333C423.547 444.963 415.26 459.83 413.974 476.06L403 614.5H429L444.311 485.885C445.711 474.127 451.79 463.43 461.175 456.211L534.294 399.966C540.482 395.206 548.376 393.245 556.071 394.557L676 415L679 394.5Z" clip-rule="evenodd"/><path fill="#67577F" d="M679.842 393.929L563.365 366.255C547.17 362.407 530.101 365.864 516.679 375.711L436.231 434.728C422.928 444.487 414.53 459.553 413.226 476.001L402.188 615.25H429.666L445.056 485.973C446.432 474.416 452.408 463.901 461.633 456.805L534.752 400.56C540.774 395.928 548.456 394.02 555.945 395.296L676.631 415.868L679.842 393.929ZM675.369 414.131L556.197 393.818C548.296 392.471 540.191 394.484 533.837 399.371L460.718 455.616C451.173 462.959 444.99 473.838 443.567 485.796L428.334 613.75H403.812L414.722 476.12C415.991 460.107 424.167 445.439 437.118 435.937L517.567 376.92C530.634 367.334 547.251 363.968 563.019 367.714L678.159 395.071L675.369 414.131Z"/><path fill="#67577F" fill-rule="evenodd" d="M676.558 531.728L669 501.5L811.5 511L813.13 515.225L824.996 544.23C833.564 543.864 839.418 542.406 842.532 539.914C845.306 537.695 847.452 529.365 848.813 515.107L827 498.696L838 381L861.5 423L850.749 509.948C850.751 509.984 850.751 510.02 850.748 510.056C849.396 527.969 847.042 538.227 843.469 541.086C840.027 543.839 833.845 545.369 824.898 545.735L825 546L677 533.5L676.938 533.248C667.928 532.93 660.457 526.164 659.252 517.226L656.212 494.681L657.698 494.481L660.738 517.026C661.826 525.096 668.473 531.238 676.558 531.728Z" clip-rule="evenodd"/><path fill="#fff" d="M651 256.378L656.189 282.324C661.058 306.666 684.719 322.467 709.069 317.639L841.5 291.378L826.791 229.144C816.45 185.396 774.527 156.693 730 162.878C724.095 163.698 717.767 164.79 711.015 166.155C669.554 174.536 642.705 214.9 651 256.378Z"/><mask id="mask0" width="193" height="157" x="649" y="162" mask-type="alpha" maskUnits="userSpaceOnUse"><path fill="#fff" d="M651 256.378L656.189 282.324C661.058 306.666 684.719 322.467 709.069 317.639L841.5 291.378L826.791 229.144C816.45 185.396 774.527 156.693 730 162.878C724.095 163.698 717.767 164.79 711.015 166.155C669.554 174.536 642.705 214.9 651 256.378Z"/></mask><g mask="url(#mask0)"><path fill="#F6F0FF" fill-rule="evenodd" d="M650 303L754.882 285.52C765.128 283.812 772.361 274.545 771.53 264.191L769.478 238.629C768.505 226.518 757.899 217.488 745.787 218.46C744.94 218.528 744.098 218.645 743.265 218.811L634 240.5L650 303Z" clip-rule="evenodd"/><path fill="#67577F" d="M649.444 303.353L755.006 285.76C765.636 283.988 773.14 274.373 772.278 263.631L770.225 238.069C769.22 225.545 758.252 216.207 745.727 217.213C744.852 217.283 743.981 217.404 743.119 217.575L633.077 239.419L649.444 303.353ZM634.923 240.582L743.411 219.047C744.216 218.887 745.029 218.774 745.848 218.708C757.546 217.769 767.791 226.491 768.73 238.189L770.783 263.751C771.583 273.717 764.621 282.636 754.759 284.28L650.556 301.647L634.923 240.582Z"/></g><path fill="#67577F" d="M712.216 140.355L712 112C712 111.586 711.665 111.25 711.25 111.25C710.836 111.25 710.5 111.586 710.5 112L710.716 141.105C710.716 141.519 711.052 141.855 711.466 141.855H731.729L720.301 163.758C720.11 164.125 720.252 164.578 720.619 164.77C720.987 164.962 721.44 164.819 721.631 164.452L733.631 141.452C733.892 140.953 733.53 140.355 732.966 140.355H712.216Z"/><path fill="#67577F" d="M650.265 256.525L655.454 282.471C660.404 307.218 684.459 323.284 709.215 318.375L841.646 292.113C842.063 292.031 842.328 291.619 842.23 291.205L827.521 228.972C817.091 184.847 774.807 155.897 729.897 162.135C723.977 162.957 717.633 164.052 710.866 165.42C669 173.883 641.888 214.642 650.265 256.525ZM708.923 316.903C684.979 321.651 661.712 306.113 656.925 282.177L651.736 256.231C643.521 215.159 670.108 175.189 711.163 166.89C717.901 165.528 724.215 164.438 730.104 163.621C774.247 157.49 815.809 185.945 826.061 229.317L840.592 290.793L708.923 316.903Z"/><path fill="#fff" fill-rule="evenodd" d="M671.722 378.804L655.321 485.256C654.144 492.898 659.384 500.047 667.026 501.224C667.417 501.285 667.811 501.328 668.206 501.355L811.68 511.132C818.892 511.623 825.292 506.544 826.45 499.409L843.555 394.081C844.795 386.449 839.613 379.258 831.981 378.018C831.587 377.954 831.19 377.907 830.792 377.877L686.614 366.976C679.323 366.425 672.835 371.577 671.722 378.804Z" clip-rule="evenodd"/><path fill="#67577F" d="M670.981 378.69L654.58 485.142C653.339 493.193 658.861 500.725 666.912 501.966C667.324 502.029 667.739 502.075 668.155 502.104L811.629 511.88C819.227 512.398 825.97 507.046 827.191 499.529L844.296 394.202C845.602 386.161 840.142 378.584 832.101 377.278C831.686 377.21 831.268 377.161 830.849 377.129L686.671 366.228C678.989 365.647 672.154 371.076 670.981 378.69ZM672.463 378.918C673.517 372.079 679.657 367.202 686.558 367.724L830.735 378.625C831.112 378.653 831.488 378.698 831.86 378.758C839.084 379.932 843.988 386.738 842.815 393.961L825.71 499.288C824.614 506.041 818.556 510.849 811.731 510.384L668.257 500.607C667.883 500.582 667.511 500.54 667.14 500.483C659.908 499.369 654.948 492.603 656.062 485.37L672.463 378.918Z"/><path fill="#fff" fill-rule="evenodd" d="M396.87 613.232C396.419 621.929 403.104 629.346 411.801 629.797C412.057 629.81 412.314 629.817 412.57 629.818L421.139 629.844C429.949 629.87 437.113 622.749 437.14 613.938C437.14 613.914 437.14 613.89 437.14 613.866C437.127 604.938 430.022 597.635 421.097 597.375L414.279 597.177C405.078 596.91 397.347 604.039 396.87 613.232Z" clip-rule="evenodd"/><path fill="#fff" fill-rule="evenodd" d="M586.636 801.79L660 766.29L567.225 701L495 730.255" clip-rule="evenodd"/><path fill="#67577F" d="M396.372 613.707C395.899 622.818 402.902 630.587 412.013 631.059C412.281 631.073 412.55 631.081 412.819 631.082L421.387 631.107C430.612 631.135 438.113 623.679 438.14 614.454L438.14 614.379C438.126 605.045 430.7 597.411 421.369 597.139L414.551 596.941C404.943 596.662 396.869 604.107 396.372 613.707ZM397.869 613.785C398.325 604.999 405.714 598.185 414.508 598.441L421.326 598.639C429.846 598.886 436.628 605.858 436.64 614.381L436.64 614.45C436.615 622.846 429.788 629.633 421.391 629.607L412.823 629.582C412.579 629.581 412.334 629.574 412.09 629.562C403.807 629.132 397.44 622.068 397.869 613.785Z"/><path fill="#fff" fill-rule="evenodd" d="M392.002 801.791L313.502 836C267.677 786.675 244.844 761.342 245.002 760C245.16 758.658 272.16 748.658 326.002 730L392.002 801.791Z" clip-rule="evenodd"/><path fill="#fff" fill-rule="evenodd" d="M399.998 900.21L577 899L587 802H392L351.5 819.5L356.5 860L399.998 900.21Z" clip-rule="evenodd"/><path fill="#F6F0FF" fill-rule="evenodd" d="M464 802V860L495 841L524 860V802H464Z" clip-rule="evenodd"/><path fill="#67577F" d="M399.258 900.125L355.794 860.369L350.349 820.55L313.306 836.693L243.698 759.463L326.212 729.625L392.523 801.039H586.466L658.528 766.169L567.13 701.848L495.5 731.499L494.937 730.109L567.324 700.15L661.476 766.409L587.724 802.097L577.679 899.535L399.309 900.754L399.258 900.125ZM399.079 897.929L391.323 802.694L351.778 819.927L357.207 859.629L399.079 897.929ZM392.815 802.539L400.691 899.244L576.325 898.044L586.171 802.539H392.815ZM325.788 731.373L246.305 760.115L313.697 834.886L390.732 801.315L325.788 731.373Z"/><path fill="#67577F" d="M523.589 860.627C524.088 860.954 524.75 860.596 524.75 860V802C524.75 801.586 524.414 801.25 524 801.25H464C463.586 801.25 463.25 801.586 463.25 802V860C463.25 860.586 463.892 860.946 464.392 860.639L494.987 841.888L523.589 860.627ZM523.25 802.75V858.612L495.411 840.373C495.168 840.214 494.856 840.209 494.608 840.361L464.75 858.661V802.75H523.25Z"/><path fill="#fff" d="M665.747 257.487C665.273 255.048 666.866 252.685 669.306 252.211C671.745 251.737 674.108 253.33 674.582 255.77L677.253 269.513C677.727 271.952 676.134 274.314 673.694 274.789C671.255 275.263 668.893 273.67 668.418 271.23L665.747 257.487Z"/><path fill="#fff" d="M736.184 248.661C735.848 245.92 737.797 243.425 740.538 243.089C743.279 242.752 745.773 244.701 746.11 247.442L747.816 261.338C748.153 264.079 746.203 266.573 743.463 266.91C740.722 267.246 738.227 265.297 737.891 262.557L736.184 248.661Z"/><path fill="#67577F" d="M741.034 243.028L740.042 243.15C737.575 243.453 735.821 245.698 736.124 248.165L737.952 263.053C738.255 265.52 740.5 267.274 742.967 266.971L743.959 266.85C746.426 266.547 748.18 264.301 747.877 261.835L746.049 246.946C745.746 244.48 743.501 242.726 741.034 243.028ZM741.217 244.517C742.862 244.315 744.358 245.485 744.56 247.129L746.388 262.017C746.59 263.662 745.421 265.159 743.776 265.361L742.784 265.483C741.139 265.684 739.643 264.515 739.441 262.871L737.613 247.982C737.411 246.338 738.58 244.841 740.225 244.639L741.217 244.517ZM740.782 245.074C739.137 245.276 737.968 246.773 738.17 248.418L739.876 262.313C740.078 263.958 741.575 265.127 743.219 264.925C744.864 264.723 746.033 263.227 745.831 261.582L744.125 247.686C743.923 246.042 742.426 244.873 740.782 245.074ZM747.613 243.207C748.024 243.25 748.394 242.952 748.437 242.54C748.481 242.128 748.182 241.758 747.77 241.715L733.919 240.25C733.507 240.206 733.138 240.505 733.094 240.917C733.051 241.329 733.349 241.698 733.761 241.742L747.613 243.207ZM663.27 253.7L676.27 248.7C676.656 248.551 676.849 248.117 676.7 247.731C676.552 247.344 676.118 247.151 675.731 247.3L662.731 252.3C662.345 252.449 662.152 252.883 662.3 253.269C662.449 253.656 662.883 253.849 663.27 253.7ZM702.818 273.455C704.769 271.046 707.284 269.688 710.401 269.36C715.58 268.816 716.737 268.957 720.728 270.691C721.108 270.856 721.55 270.681 721.715 270.302C721.88 269.922 721.706 269.48 721.326 269.315C717.081 267.471 715.667 267.298 710.245 267.868C706.732 268.237 703.855 269.792 701.653 272.511C701.392 272.833 701.442 273.306 701.763 273.566C702.085 273.827 702.558 273.777 702.818 273.455ZM669.904 251.627L668.916 251.783C666.462 252.172 664.787 254.477 665.176 256.932L667.522 271.747C667.911 274.202 670.216 275.877 672.671 275.488L673.659 275.331C676.113 274.943 677.788 272.638 677.399 270.183L675.053 255.368C674.664 252.913 672.359 251.238 669.904 251.627ZM670.139 253.109C671.775 252.849 673.312 253.966 673.571 255.602L675.918 270.418C676.177 272.054 675.06 273.591 673.424 273.85L672.436 274.006C670.8 274.266 669.263 273.149 669.004 271.513L666.657 256.697C666.398 255.061 667.515 253.524 669.151 253.265L670.139 253.109ZM669.723 253.681C668.087 253.94 666.97 255.476 667.229 257.113L669.419 270.941C669.679 272.577 671.215 273.694 672.852 273.434C674.488 273.175 675.605 271.638 675.346 270.002L673.155 256.174C672.896 254.538 671.36 253.421 669.723 253.681Z"/><path fill="#67577F" fill-rule="evenodd" d="M586.002 801.79H392.002L326.002 730.29H495.002L586.002 801.79ZM377.084 847.496C373.633 848.486 369.231 843.693 367.252 836.791C365.273 829.89 366.466 823.493 369.917 822.503C373.368 821.514 377.77 826.306 379.749 833.208C381.728 840.11 380.534 846.507 377.084 847.496Z" clip-rule="evenodd"/><path fill="#fff" fill-rule="evenodd" d="M770.534 535.453L797.738 692L788.5 867.5L760.734 892.529C759.093 894.008 758.962 896.537 760.441 898.178C761.2 899.02 762.279 899.5 763.412 899.5H851C838.536 805.419 828.449 735.252 820.738 689C813.289 644.312 803.079 592.08 790.11 532.304C789.312 528.625 786.057 526 782.292 526C781.406 526 780.555 526 779.738 526C779.059 526 778.323 526.044 777.531 526.132C773.139 526.621 769.976 530.577 770.465 534.968C770.483 535.13 770.506 535.292 770.534 535.453Z" clip-rule="evenodd"/><path fill="#67577F" d="M787.529 867.151L759.994 891.972C758.045 893.728 757.889 896.732 759.646 898.68C760.546 899.68 761.829 900.25 763.174 900.25H850.762C851.215 900.25 851.565 899.851 851.506 899.401C839.04 805.313 828.952 735.139 821.24 688.877C813.788 644.176 803.577 591.932 790.605 532.145C789.732 528.121 786.171 525.25 782.054 525.25H779.5C778.792 525.25 778.029 525.296 777.209 525.387C772.406 525.921 768.946 530.248 769.481 535.051C769.501 535.229 769.526 535.405 769.556 535.581L796.747 692.045L787.529 867.151ZM787.513 867.461L787.76 866.943L787.529 867.151L787.513 867.461ZM849.906 898.75H763.174C762.253 898.75 761.376 898.36 760.76 897.676C759.558 896.343 759.665 894.288 760.998 893.086L788.764 868.057C788.912 867.924 789.001 867.738 789.011 867.539L798.249 692.039L798.239 691.872L771.034 535.325C771.009 535.179 770.988 535.032 770.972 534.885C770.529 530.906 773.396 527.321 777.375 526.878C778.142 526.792 778.85 526.75 779.5 526.75H782.054C785.466 526.75 788.416 529.129 789.139 532.463C802.106 592.228 812.313 644.448 819.76 689.123C827.446 735.226 837.494 805.103 849.906 898.75Z"/><path fill="#F6F0FF" fill-rule="evenodd" d="M791.1 690.394C790.181 682.671 795.687 675.661 803.408 674.725L808.518 674.106C816.261 673.167 823.34 678.574 824.472 686.291C824.486 686.389 824.499 686.487 824.512 686.586C825.449 694.105 820.112 700.961 812.593 701.898L806.729 702.628C806.704 702.631 806.678 702.635 806.653 702.638C798.977 703.551 792.014 698.069 791.1 690.394ZM800.095 689.034C800.51 692.411 803.58 694.814 806.958 694.407L809.693 694.077C812.959 693.683 815.287 690.716 814.893 687.45C814.886 687.392 814.878 687.333 814.869 687.275C814.358 683.893 811.257 681.525 807.86 681.924L805.458 682.206C802.1 682.6 799.697 685.642 800.091 689C800.092 689.011 800.093 689.023 800.095 689.034Z" clip-rule="evenodd"/><path fill="#67577F" d="M789.989 690.837C789.021 682.703 794.82 675.321 802.952 674.335L808.061 673.716C816.208 672.728 823.657 678.417 824.848 686.537C824.863 686.64 824.877 686.744 824.89 686.848C825.878 694.778 820.25 702.008 812.319 702.996L806.456 703.727L806.375 703.737C798.288 704.699 790.952 698.924 789.989 690.837ZM791.479 690.659C792.343 697.924 798.933 703.112 806.198 702.247L806.27 702.239L812.134 701.508C819.242 700.622 824.287 694.142 823.401 687.033C823.39 686.94 823.377 686.847 823.363 686.755C822.291 679.44 815.581 674.315 808.242 675.205L803.132 675.824C795.822 676.71 790.609 683.347 791.479 690.659ZM798.98 689.442C798.537 685.672 801.235 682.258 805.005 681.815L807.407 681.534C811.206 681.088 814.674 683.736 815.244 687.518C815.254 687.583 815.263 687.649 815.271 687.715C815.715 691.392 813.094 694.732 809.417 695.176L806.682 695.506C802.893 695.963 799.45 693.267 798.984 689.48L798.98 689.442ZM806.502 694.017L809.238 693.687C812.092 693.342 814.126 690.749 813.782 687.895C813.776 687.844 813.769 687.793 813.761 687.742C813.311 684.76 810.577 682.672 807.581 683.023L805.18 683.305C802.233 683.651 800.124 686.32 800.47 689.268L800.473 689.297C800.838 692.263 803.535 694.375 806.502 694.017Z"/><path fill="#fff" fill-rule="evenodd" d="M730.351 532.131L681 690.324L753.912 824.499L749.372 871.137C749.158 873.336 750.767 875.291 752.966 875.505C754.047 875.611 755.124 875.272 755.95 874.567L823.412 816.999L807.412 800.999L704.562 691.264L749.383 535.609C750.533 531.614 748.227 527.443 744.233 526.293C743.556 526.098 742.855 525.999 742.15 525.999C741.445 525.999 740.719 525.956 739.974 525.87C735.679 525.375 731.639 528.003 730.351 532.131Z" clip-rule="evenodd"/><path fill="#67577F" d="M753.603 824.857L753.516 824.427L753.493 824.655L753.603 824.857ZM748.976 871.064C748.722 873.675 750.632 875.998 753.243 876.252C754.527 876.377 755.806 875.975 756.787 875.138L824.249 817.57C824.582 817.286 824.602 816.778 824.293 816.469L808.293 800.469L705.75 691.062L750.454 535.816C751.719 531.424 749.183 526.837 744.79 525.572C744.046 525.358 743.275 525.249 742.5 525.249C741.824 525.249 741.127 525.208 740.41 525.125C735.757 524.589 731.38 527.436 729.985 531.907L680.634 690.1C680.574 690.294 680.594 690.504 680.691 690.682L753.493 824.655L748.976 871.064ZM755.813 873.997C755.142 874.569 754.267 874.845 753.389 874.759C751.602 874.585 750.295 872.996 750.469 871.21L755.009 824.572C755.023 824.423 754.993 824.273 754.921 824.141L682.161 690.244L731.417 532.354C732.598 528.571 736.301 526.161 740.238 526.615C741.012 526.705 741.766 526.749 742.5 526.749C743.135 526.749 743.766 526.838 744.375 527.014C747.972 528.05 750.048 531.805 749.012 535.401L704.191 691.056C704.118 691.31 704.184 691.584 704.364 691.777L807.215 801.512L822.658 816.956L755.813 873.997Z"/><path fill="#F6F0FF" fill-rule="evenodd" d="M677.257 695.01C675.81 687.481 680.617 680.167 688.102 678.507L693.431 677.326C700.666 675.723 707.86 680.182 709.642 687.376C711.412 694.521 707.061 701.75 699.918 703.531L693.217 705.202C692.987 705.259 692.756 705.31 692.523 705.355C685.451 706.714 678.616 702.083 677.257 695.01ZM686.238 693.485C686.877 696.594 689.916 698.597 693.025 697.958C693.077 697.947 693.128 697.936 693.18 697.924L696.507 697.144C699.503 696.442 701.363 693.444 700.66 690.448C700.649 690.399 700.637 690.35 700.624 690.301C699.807 687.198 696.704 685.276 693.561 685.929L690.833 686.496C687.636 687.16 685.58 690.286 686.238 693.485Z" clip-rule="evenodd"/><path fill="#67577F" d="M676.623 695.462C675.099 687.533 680.161 679.832 688.043 678.085L693.371 676.904C701.004 675.212 708.593 679.916 710.473 687.505C712.342 695.052 707.747 702.688 700.202 704.569L693.501 706.239C693.258 706.3 693.013 706.354 692.767 706.401C685.288 707.838 678.06 702.941 676.623 695.462ZM678.096 695.179C679.377 701.844 685.819 706.209 692.484 704.928C692.704 704.886 692.922 704.838 693.138 704.784L699.839 703.113C706.581 701.432 710.687 694.61 709.017 687.866C707.333 681.067 700.534 676.853 693.696 678.368L688.367 679.549C681.278 681.121 676.726 688.048 678.096 695.179ZM685.606 693.945C684.865 690.342 687.181 686.819 690.783 686.071L693.511 685.504C697.044 684.771 700.533 686.931 701.452 690.42C701.466 690.475 701.48 690.531 701.493 690.586C702.29 693.986 700.18 697.387 696.781 698.184L693.454 698.964C693.396 698.977 693.337 698.99 693.279 699.002C689.764 699.725 686.328 697.461 685.606 693.945ZM687.075 693.643C687.631 696.347 690.273 698.089 692.977 697.533C693.022 697.524 693.067 697.514 693.111 697.503L696.439 696.723C699.031 696.116 700.64 693.521 700.033 690.929C700.023 690.886 700.012 690.844 700.001 690.802C699.286 688.084 696.568 686.401 693.817 686.973L691.088 687.54C688.296 688.12 686.501 690.85 687.075 693.643Z"/><path fill="#F6F0FF" fill-rule="evenodd" d="M579.977 597.219C581.372 592.5 585.719 589.273 590.64 589.301C595.183 589.327 598.86 593.004 598.887 597.547C598.895 599.028 598.901 599.896 598.904 600.152C598.904 600.158 598.904 600.165 598.904 600.171C598.944 605.36 594.771 609.598 589.582 609.639L587.76 609.653C587.378 609.656 586.997 609.633 586.618 609.585C581.939 608.991 578.628 604.717 579.222 600.038C579.261 599.726 579.513 598.786 579.977 597.219ZM534.977 488.219C536.372 483.5 540.719 480.273 545.64 480.301C550.183 480.327 553.86 484.004 553.887 488.547C553.895 490.028 553.901 490.896 553.904 491.152C553.904 491.158 553.904 491.165 553.904 491.171C553.944 496.36 549.771 500.598 544.582 500.639L542.76 500.653C542.378 500.656 541.997 500.633 541.618 500.585C536.939 499.991 533.628 495.717 534.222 491.038C534.261 490.726 534.513 489.786 534.977 488.219ZM998.977 466.219C1000.37 461.5 1004.72 458.273 1009.64 458.301C1014.18 458.327 1017.86 462.004 1017.89 466.547C1017.9 468.028 1017.9 468.896 1017.9 469.152C1017.9 469.158 1017.9 469.165 1017.9 469.171C1017.94 474.36 1013.77 478.598 1008.58 478.639L1006.76 478.653C1006.38 478.656 1006 478.633 1005.62 478.585C1000.94 477.991 997.628 473.717 998.222 469.038C998.261 468.726 998.513 467.786 998.977 466.219ZM900.977 631.219C902.372 626.5 906.719 623.273 911.64 623.301C916.183 623.327 919.86 627.004 919.887 631.547C919.896 633.028 919.901 633.896 919.904 634.152C919.904 634.158 919.904 634.165 919.904 634.171C919.944 639.36 915.771 643.598 910.582 643.639L908.76 643.653C908.378 643.656 907.997 643.633 907.618 643.585C902.939 642.991 899.628 638.717 900.222 634.038C900.261 633.726 900.513 632.786 900.977 631.219ZM1029.98 691.219C1031.37 686.5 1035.72 683.273 1040.64 683.301C1045.18 683.327 1048.86 687.004 1048.89 691.547C1048.9 693.028 1048.9 693.896 1048.9 694.152C1048.9 694.158 1048.9 694.165 1048.9 694.171C1048.94 699.36 1044.77 703.598 1039.58 703.639L1037.76 703.653C1037.38 703.656 1037 703.633 1036.62 703.585C1031.94 702.991 1028.63 698.717 1029.22 694.038C1029.26 693.726 1029.51 692.786 1029.98 691.219ZM921.977 303.219C923.372 298.5 927.719 295.273 932.64 295.301C937.183 295.327 940.86 299.004 940.887 303.547C940.896 305.028 940.901 305.896 940.904 306.152C940.904 306.158 940.904 306.165 940.904 306.171C940.944 311.36 936.771 315.598 931.582 315.639L929.76 315.653C929.378 315.656 928.997 315.633 928.618 315.585C923.939 314.991 920.628 310.717 921.222 306.038C921.261 305.726 921.513 304.786 921.977 303.219ZM330.977 559.219C332.372 554.5 336.719 551.273 341.64 551.301C346.183 551.327 349.86 555.004 349.887 559.547C349.895 561.028 349.901 561.896 349.904 562.152C349.904 562.158 349.904 562.165 349.904 562.171C349.944 567.36 345.771 571.598 340.582 571.639L338.76 571.653C338.378 571.656 337.997 571.633 337.618 571.585C332.939 570.991 329.628 566.717 330.222 562.038C330.261 561.726 330.513 560.786 330.977 559.219ZM450.977 341.219C452.372 336.5 456.719 333.273 461.64 333.301C466.183 333.327 469.86 337.004 469.887 341.547C469.895 343.028 469.901 343.896 469.904 344.152C469.904 344.158 469.904 344.165 469.904 344.171C469.944 349.36 465.771 353.598 460.582 353.639L458.76 353.653C458.378 353.656 457.997 353.633 457.618 353.585C452.939 352.991 449.628 348.717 450.222 344.038C450.261 343.726 450.513 342.786 450.977 341.219Z" clip-rule="evenodd"/><path fill="#F6F0FF" fill-rule="evenodd" d="M397.694 686.351C389.155 680.79 383.301 671.364 382.727 660.409C381.773 642.208 395.754 626.681 413.955 625.727C432.155 624.773 447.683 638.754 448.637 656.955C449.221 668.113 444.193 678.267 436.019 684.673L423.694 668.921C426.913 666.397 428.894 662.397 428.664 658.001C428.288 650.832 422.171 645.324 415.001 645.7C407.832 646.075 402.324 652.192 402.7 659.362C402.926 663.678 405.232 667.391 408.596 669.582L397.694 686.351Z" clip-rule="evenodd"/><path fill="#67577F" d="M398.381 687.704L397.752 687.294C388.767 681.443 383.017 671.675 382.445 660.762C381.47 642.148 395.768 626.268 414.382 625.292C432.997 624.317 448.877 638.616 449.853 657.23C450.435 668.347 445.547 678.838 436.949 685.578L436.358 686.041L423.108 669.107L423.698 668.645C426.82 666.198 428.594 662.391 428.382 658.355C428.028 651.599 422.264 646.409 415.508 646.763C408.751 647.117 403.562 652.881 403.916 659.637C404.123 663.599 406.21 667.143 409.472 669.268L410.1 669.677L398.381 687.704ZM397.946 685.62L408.037 670.099C404.732 667.683 402.637 663.906 402.418 659.716C402.02 652.132 407.846 645.662 415.429 645.265C423.013 644.867 429.483 650.693 429.88 658.276C430.104 662.55 428.343 666.598 425.201 669.347L436.609 683.928C444.462 677.475 448.898 667.678 448.355 657.308C447.422 639.521 432.248 625.858 414.461 626.79C396.674 627.722 383.011 642.897 383.943 660.684C384.476 670.858 389.717 679.988 397.946 685.62Z"/><path fill="#fff" fill-rule="evenodd" d="M864.464 435.362L1053.6 361.075C1057.71 359.459 1062.36 361.484 1063.97 365.596C1064.17 366.091 1064.31 366.605 1064.4 367.129L1102.11 580.513C1102.59 583.232 1100.78 585.826 1098.06 586.307C1097.12 586.473 1096.15 586.366 1095.27 586.001L859.202 488V512L1097.56 615.988C1109.71 621.289 1123.86 615.737 1129.16 603.588C1130.99 599.393 1131.58 594.764 1130.86 590.244L1093 350.7C1090.5 334.88 1075.65 324.083 1059.83 326.583C1057.49 326.954 1055.19 327.612 1053.01 328.541L855.742 412.431C851.406 414.275 848.726 418.676 849.077 423.374C849.181 424.759 849.389 426.134 849.702 427.5C849.712 427.544 849.722 427.588 849.733 427.632C851.118 433.547 857.036 437.219 862.951 435.834C863.466 435.713 863.972 435.555 864.464 435.362Z" clip-rule="evenodd"/><path fill="#67577F" d="M865.037 436.059L1054.17 361.772C1057.9 360.308 1062.11 362.143 1063.57 365.869C1063.75 366.318 1063.88 366.783 1063.96 367.258L1101.67 580.642C1102.08 582.954 1100.54 585.159 1098.23 585.567C1097.43 585.708 1096.61 585.618 1095.86 585.307L858.75 486.876V512.49L1097.56 616.675C1110.09 622.141 1124.68 616.415 1130.14 603.887C1132.03 599.561 1132.64 594.787 1131.9 590.126L1094.04 350.582C1091.48 334.353 1076.24 323.277 1060.01 325.842C1057.61 326.222 1055.26 326.896 1053.01 327.85L855.747 411.74C851.115 413.71 848.252 418.41 848.628 423.429C848.734 424.852 848.948 426.264 849.269 427.667C849.285 427.734 849.285 427.734 849.301 427.802C850.781 434.121 857.102 438.043 863.421 436.563C863.971 436.434 864.511 436.266 865.037 436.059ZM860.25 489.122L1095.28 586.693C1096.3 587.113 1097.41 587.235 1098.49 587.044C1101.62 586.492 1103.7 583.509 1103.15 580.381L1065.44 366.997C1065.34 366.424 1065.18 365.863 1064.97 365.321C1063.2 360.823 1058.12 358.609 1053.63 360.376L864.488 434.663C864.03 434.843 863.558 434.99 863.079 435.103C857.567 436.393 852.052 432.972 850.761 427.46C850.746 427.396 850.746 427.396 850.731 427.332C850.427 426.002 850.224 424.664 850.123 423.317C849.796 418.939 852.294 414.839 856.334 413.121L1053.6 329.23C1055.73 328.325 1057.96 327.685 1060.25 327.323C1075.66 324.888 1090.12 335.406 1092.56 350.817L1130.42 590.36C1131.11 594.739 1130.54 599.224 1128.77 603.287C1123.63 615.056 1109.93 620.435 1098.16 615.3L860.25 511.508V489.122Z"/><path fill="#F6F0FF" fill-rule="evenodd" d="M866.515 579.824C856.944 576.326 849.12 568.458 846.096 557.913C841.072 540.394 851.202 522.119 868.722 517.095C886.241 512.072 904.516 522.202 909.539 539.721C912.619 550.462 910.003 561.487 903.481 569.568L887.927 556.991C890.497 553.808 891.527 549.465 890.314 545.234C888.335 538.332 881.136 534.342 874.234 536.321C867.333 538.3 863.342 545.499 865.321 552.4C866.512 556.554 869.595 559.654 873.365 561.032L866.515 579.824Z" clip-rule="evenodd"/><path fill="#67577F" d="M866.929 580.859L866.224 580.601C856.153 576.921 848.353 568.697 845.341 558.193C840.203 540.275 850.563 521.585 868.481 516.447C886.398 511.309 905.088 521.67 910.226 539.587C913.295 550.289 910.892 561.61 904.03 570.111L903.559 570.696L886.839 557.176L887.31 556.593C889.801 553.507 890.673 549.398 889.559 545.513C887.694 539.01 880.91 535.25 874.407 537.114C867.903 538.979 864.143 545.763 866.008 552.266C867.101 556.08 869.932 559.064 873.588 560.4L874.292 560.657L866.929 580.859ZM872.377 561.533C868.613 559.922 865.723 556.714 864.566 552.68C862.473 545.38 866.694 537.766 873.993 535.672C881.293 533.579 888.908 537.8 891.001 545.1C892.18 549.214 891.375 553.554 888.932 556.94L903.328 568.58C909.528 560.526 911.646 549.982 908.784 540.001C903.875 522.879 886.015 512.98 868.894 517.889C851.773 522.799 841.873 540.658 846.783 557.779C849.591 567.572 856.752 575.289 866.036 578.926L872.377 561.533Z"/><path fill="#fff" fill-rule="evenodd" d="M871.838 522.398C880.462 521.182 886.466 513.205 885.25 504.581C885.214 504.327 885.172 504.074 885.124 503.822L883.514 495.406C881.859 486.752 873.502 481.079 864.848 482.734C864.824 482.738 864.801 482.743 864.777 482.747C856.015 484.464 850.202 492.832 851.65 501.642L852.757 508.373C854.25 517.456 862.723 523.684 871.838 522.398Z" clip-rule="evenodd"/><path fill="#67577F" d="M871.766 522.914C880.8 521.639 887.09 513.283 885.815 504.249C885.778 503.983 885.734 503.718 885.683 503.454L884.073 495.038C882.34 485.977 873.59 480.037 864.53 481.77L864.456 481.784C855.296 483.579 849.219 492.326 850.733 501.537L851.839 508.267C853.399 517.753 862.248 524.257 871.766 522.914ZM871.556 521.429C862.845 522.658 854.747 516.705 853.32 508.024L852.213 501.293C850.83 492.883 856.38 484.895 864.744 483.256L864.811 483.243C873.059 481.666 881.023 487.073 882.6 495.32L884.21 503.736C884.256 503.976 884.296 504.217 884.33 504.459C885.489 512.672 879.77 520.27 871.556 521.429Z"/><path fill="#F6F0FF" d="M696.4 383.018L820.921 392.014C824.777 392.293 827.677 395.645 827.398 399.5C827.388 399.646 827.373 399.79 827.353 399.935L815.355 488.613C814.851 492.337 811.498 494.998 807.757 494.643L681.34 482.653C677.491 482.288 674.667 478.872 675.032 475.023C675.046 474.869 675.066 474.716 675.091 474.564L688.985 388.88C689.566 385.301 692.783 382.757 696.4 383.018ZM682.012 475.611L808.453 487.779L820.554 399.006L695.895 390L682.012 475.611ZM730.06 439C725.09 439 721.06 434.971 721.06 430C721.06 425.029 725.09 421 730.06 421C735.031 421 739.06 425.029 739.06 430C739.06 434.971 735.031 439 730.06 439ZM716.279 449.738L781.121 454.272L780.842 458.262L716 453.728L716.279 449.738ZM771.276 441.966L763.095 432.216L772.845 424.034L781.026 433.784L771.276 441.966Z"/><path fill="#67577F" fill-rule="evenodd" d="M1062 326.999C1068.39 326.419 1073.22 326.919 1076.5 328.499C1079.78 330.079 1083.95 333.913 1089 339.999L1063 363.499C1061.67 362.499 1060.67 361.833 1060 361.499C1059.33 361.166 1058.17 360.833 1056.5 360.499L1062 326.999ZM526.543 371.486C530.872 369.248 534.857 367.752 538.5 366.999C542.143 366.246 547.81 365.746 555.5 365.499L549 394.499L545.5 394.999L542.031 396.137L526.543 371.486ZM414.396 472.566C415.776 466.668 417.144 462.146 418.5 458.999C419.857 455.852 422.39 451.323 426.101 445.412L449 470.499L447.402 473.653L446.345 477.147L414.396 472.566ZM1131.5 593.499C1129.79 601.975 1127.62 607.642 1125 610.499C1122.38 613.357 1117.21 615.69 1109.5 617.499L1097.5 586.499C1099.33 585.957 1100.5 585.425 1101.04 584.903C1101.57 584.382 1102.06 583.414 1102.5 581.999L1131.5 593.499Z" clip-rule="evenodd"/><path fill="#67577F" d="M838.013 237.678L847.503 252.186L903.889 243.757L904.111 245.241L846.774 253.812L836.638 238.317L802.074 241.746C801.662 241.786 801.295 241.485 801.254 241.073C801.213 240.661 801.514 240.294 801.926 240.253L836.611 236.812L839.645 212.929L893.774 195.784C894.168 195.659 894.59 195.878 894.715 196.273C894.84 196.668 894.621 197.089 894.226 197.214L841.013 214.069L838.013 237.678Z"/><path fill="#67577F" d="M696.434 465.746C696 465.707 695.69 465.309 695.76 464.879L705.26 406.379C705.322 405.995 705.669 405.722 706.057 405.751L805.557 413.251C805.989 413.284 806.304 413.675 806.243 414.104L797.743 474.104C797.687 474.5 797.331 474.782 796.934 474.746L696.434 465.746ZM706.63 407.299L697.37 464.324L796.358 473.189L804.645 414.687L706.63 407.299ZM696.001 382.491L820.522 391.487C824.791 391.795 828.002 395.506 827.694 399.775C827.682 399.936 827.665 400.096 827.644 400.256L815.645 488.935C815.088 493.057 811.375 496.004 807.234 495.611L680.816 483.62C676.555 483.216 673.428 479.434 673.833 475.173C673.849 475.003 673.87 474.833 673.898 474.664L687.793 388.98C688.435 385.018 691.997 382.202 696.001 382.491ZM695.893 383.987C692.664 383.754 689.791 386.025 689.273 389.221L675.379 474.904C675.356 475.041 675.339 475.177 675.326 475.315C675 478.751 677.521 481.801 680.958 482.127L807.375 494.118C810.715 494.434 813.709 492.058 814.159 488.733L826.157 400.055C826.175 399.926 826.188 399.797 826.198 399.667C826.446 396.224 823.857 393.232 820.414 392.983L695.893 383.987ZM680.691 476.501L694.812 389.423L820.952 398.536L808.646 488.815L680.691 476.501ZM807.355 487.184L819.25 399.917L696.073 391.018L682.428 475.161L807.355 487.184ZM730 439.749C724.616 439.749 720.25 435.384 720.25 429.999C720.25 424.615 724.616 420.249 730 420.249C735.385 420.249 739.75 424.615 739.75 429.999C739.75 435.384 735.385 439.749 730 439.749ZM730 438.249C734.557 438.249 738.25 434.556 738.25 429.999C738.25 425.443 734.557 421.749 730 421.749C725.444 421.749 721.75 425.443 721.75 429.999C721.75 434.556 725.444 438.249 730 438.249ZM715.523 448.937L781.861 453.575L781.478 459.062L715.14 454.423L715.523 448.937ZM716.741 453.031L780.086 457.461L780.26 454.967L716.915 450.538L716.741 453.031ZM771.124 443.022L761.978 432.122L772.877 422.977L782.023 433.876L771.124 443.022ZM779.91 433.691L772.692 425.09L764.091 432.307L771.308 440.908L779.91 433.691Z"/><path fill="#67577F" d="M800 868.249V866.749V868.249ZM800 866.749C801 866.749 801 868.249 800 868.249H788.5C787.5 868.249 787.5 866.749 788.5 866.749H800H811.5C812.5 866.749 812.5 868.249 811.5 868.249H800C799 868.249 799 866.749 800 866.749ZM764.232 817.324L763.269 816.174L764.232 817.324ZM764.232 817.324L754.982 825.074C754.216 825.716 753.252 824.566 754.019 823.924L763.269 816.174L772.519 808.424C773.285 807.782 774.249 808.932 773.482 809.574L764.232 817.324Z"/></svg>